<svg width="33" height="81" viewBox="0 0 33 81" fill="none" xmlns="http://www.w3.org/2000/svg">
<path d="M17 80.5249L14.825 78.5749C12.3 76.2999 10.2125 74.3374 8.56248 72.6874C6.91249 71.0375 5.59999 69.5562 4.62499 68.2437C3.65 66.9312 2.96875 65.725 2.58125 64.625C2.19375 63.525 2 62.4 2 61.25C2 58.9 2.7875 56.9375 4.36249 55.3625C5.93749 53.7875 7.89998 53 10.25 53C11.55 53 12.7875 53.275 13.9625 53.825C15.1375 54.375 16.15 55.15 17 56.15C17.85 55.15 18.8625 54.375 20.0375 53.825C21.2124 53.275 22.4499 53 23.7499 53C26.0999 53 28.0624 53.7875 29.6374 55.3625C31.2124 56.9375 31.9999 58.9 31.9999 61.25C31.9999 62.4 31.8062 63.525 31.4187 64.625C31.0312 65.725 30.3499 66.9312 29.3749 68.2437C28.3999 69.5562 27.0874 71.0375 25.4374 72.6874C23.7874 74.3374 21.6999 76.2999 19.175 78.5749L17 80.5249ZM17 76.4749C19.4 74.3249 21.3749 72.4812 22.9249 70.9437C24.4749 69.4062 25.6999 68.0687 26.5999 66.9312C27.4999 65.7937 28.1249 64.7812 28.4749 63.8937C28.8249 63.0062 28.9999 62.125 28.9999 61.25C28.9999 59.75 28.4999 58.5 27.4999 57.5C26.4999 56.5 25.2499 56 23.7499 56C22.5749 56 21.4874 56.3312 20.4874 56.9937C19.4875 57.6562 18.8 58.5 18.425 59.525H15.575C15.2 58.5 14.5125 57.6562 13.5125 56.9937C12.5125 56.3312 11.425 56 10.25 56C8.74998 56 7.49999 56.5 6.49999 57.5C5.49999 58.5 4.99999 59.75 4.99999 61.25C4.99999 62.125 5.17499 63.0062 5.52499 63.8937C5.87499 64.7812 6.49999 65.7937 7.39999 66.9312C8.29998 68.0687 9.52498 69.4062 11.075 70.9437C12.625 72.4812 14.6 74.3249 17 76.4749Z" fill="#646867"/>
<mask id="mask0_118_7" style="mask-type:alpha" maskUnits="userSpaceOnUse" x="0" y="0" width="33" height="33">
<rect width="32.94" height="32.94" fill="#D9D9D9"/>
</mask>
<g mask="url(#mask0_118_7)">
<path d="M9.60744 30.195C8.85256 30.195 8.20634 29.9262 7.66878 29.3887C7.13122 28.8511 6.86244 28.2049 6.86244 27.45C6.86244 26.6951 7.13122 26.0489 7.66878 25.5113C8.20634 24.9738 8.85256 24.705 9.60744 24.705C10.3623 24.705 11.0085 24.9738 11.5461 25.5113C12.0837 26.0489 12.3524 26.6951 12.3524 27.45C12.3524 28.2049 12.0837 28.8511 11.5461 29.3887C11.0085 29.9262 10.3623 30.195 9.60744 30.195ZM23.3324 30.195C22.5776 30.195 21.9313 29.9262 21.3938 29.3887C20.8562 28.8511 20.5874 28.2049 20.5874 27.45C20.5874 26.6951 20.8562 26.0489 21.3938 25.5113C21.9313 24.9738 22.5776 24.705 23.3324 24.705C24.0873 24.705 24.7335 24.9738 25.2711 25.5113C25.8087 26.0489 26.0774 26.6951 26.0774 27.45C26.0774 28.2049 25.8087 28.8511 25.2711 29.3887C24.7335 29.9262 24.0873 30.195 23.3324 30.195ZM8.44081 8.23499L11.7348 15.0975H21.3423L25.1167 8.23499H8.44081ZM7.13694 5.49H27.3813C27.9074 5.49 28.3078 5.72446 28.5823 6.1934C28.8568 6.66234 28.8682 7.13699 28.6166 7.61737L23.7442 16.4014C23.4926 16.8589 23.1552 17.2134 22.732 17.4651C22.3088 17.7167 21.8456 17.8425 21.3423 17.8425H11.1172L9.60744 20.5875H26.0774V23.3325H9.60744C8.57806 23.3325 7.80031 22.8807 7.27419 21.9771C6.74806 21.0736 6.72519 20.1757 7.20556 19.2836L9.05844 15.921L4.11744 5.49H1.37244V2.745H5.83306L7.13694 5.49Z" fill="#646867"/>
</g>
</svg>
