<svg width="245" height="85" viewBox="0 0 245 85" fill="none" xmlns="http://www.w3.org/2000/svg">
<path d="M143.138 9.12402C143.073 9.18957 143.007 9.15487 142.946 9.15487C142.815 9.15487 142.683 9.15487 142.556 9.18957C142.232 9.22042 141.908 9.25512 141.55 9.25512C141.195 9.28597 140.871 9.35152 140.547 9.47876L139.51 9.8682C138.959 10.0301 138.407 10.2268 137.921 10.516C137.081 11.0365 136.271 11.5532 135.589 12.2974L134.779 13.269L134.131 13.9824C133.842 14.3063 133.615 14.6648 133.483 15.0851C133.422 15.3782 133.291 15.6365 133.129 15.864C132.901 16.1879 132.739 16.5118 132.643 16.8665C132.385 17.7726 132.157 18.6788 131.96 19.5887C131.93 19.8162 131.899 20.0399 131.93 20.2674C131.96 20.464 131.995 20.6568 131.995 20.8843C131.995 21.401 132.026 21.9215 132.061 22.4382C132.091 23.0551 132.223 23.6374 132.415 24.2196C132.577 24.771 132.805 25.3224 132.998 25.8737C133.129 26.3249 133.356 26.7143 133.584 27.1346C133.645 27.2965 133.746 27.4585 133.873 27.5896C134.293 28.0754 134.683 28.5304 135.138 28.9815L135.558 29.4365C135.851 29.826 136.206 30.1499 136.661 30.3426C136.853 30.439 137.05 30.5701 137.243 30.7321C137.598 31.0251 137.987 31.2835 138.442 31.4763C138.766 31.6074 139.09 31.7693 139.379 31.9313C140.351 32.4171 141.357 32.6446 142.394 32.741L143.786 32.8065C144.368 32.8682 144.985 32.8682 145.568 32.8682C145.664 32.8682 145.764 32.8374 145.861 32.8374C146.185 32.7718 146.508 32.7063 146.832 32.6754C147.318 32.579 147.804 32.5443 148.29 32.3824C148.745 32.2551 149.196 32.1587 149.585 31.8965C149.844 31.7693 150.102 31.6382 150.395 31.5727C150.719 31.4763 151.074 31.3799 151.367 31.1871C151.625 31.056 151.853 30.894 152.08 30.7012C152.5 30.3735 152.759 29.9532 152.859 29.4674C152.921 29.2746 152.89 29.0779 152.921 28.8851C152.955 28.3993 152.986 27.9135 152.955 27.4276C152.921 27.3621 152.921 27.2965 152.921 27.2349C152.89 26.9727 152.824 26.7143 152.921 26.456C153.021 26.1321 153.021 25.8082 153.021 25.4496C152.986 24.9638 153.052 24.4779 153.148 23.9921C153.245 23.379 153.376 22.7621 153.669 22.2107L153.861 21.7596L153.958 21.401C153.958 21.1426 153.892 21.0115 153.634 20.9807C153.507 20.9499 153.376 20.9151 153.245 20.9151C152.338 20.9151 151.432 20.9499 150.526 20.8843C150.006 20.8496 149.489 20.9151 148.968 20.9151C148.224 20.9499 147.445 20.9151 146.701 20.9151C146.539 20.9151 146.377 20.9151 146.25 20.9807C146.088 21.0115 146.053 21.0771 146.023 21.239C146.023 21.3701 146.053 21.4665 146.088 21.5629C146.25 21.9215 146.312 22.2763 146.412 22.631L146.798 24.0924C146.863 24.4162 146.898 24.771 146.929 25.1257C147.025 25.6771 147.025 26.1976 146.96 26.7143C146.898 27.0729 146.863 27.3968 146.898 27.7515C146.929 28.0446 146.929 28.3338 146.929 28.6268C146.929 29.0471 146.767 29.2746 146.346 29.4018C145.795 29.5329 145.213 29.6293 144.631 29.664C144.368 29.6949 144.141 29.664 143.917 29.6293C143.624 29.5985 143.366 29.5638 143.108 29.4674C142.521 29.209 141.974 28.9507 141.488 28.5921C141.291 28.4649 141.13 28.3029 140.968 28.1063L140.289 27.2965C139.738 26.6179 139.379 25.839 139.186 24.9638C139.121 24.609 139.055 24.2851 138.928 23.9613C138.893 23.7993 138.862 23.6682 138.797 23.5063C138.635 22.7312 138.635 21.9524 138.569 21.1735C138.569 20.9499 138.604 20.6877 138.604 20.464C138.604 19.8471 138.7 19.2649 138.797 18.6788C138.893 18.1312 139.121 17.6107 139.252 17.094C139.379 16.639 139.576 16.2187 139.672 15.7985C139.768 15.4399 139.965 15.1507 140.189 14.9232C140.482 14.6301 140.74 14.3063 140.968 13.9515C141.064 13.7549 141.226 13.5929 141.423 13.4657C141.939 13.0762 142.521 12.8179 143.138 12.5904C143.397 12.494 143.655 12.4593 143.948 12.4593H145.244C145.471 12.4593 145.699 12.494 145.891 12.5596C146.312 12.6868 146.736 12.8835 147.121 13.0107C147.415 13.1071 147.708 13.2382 147.931 13.4001L148.421 13.7549C149.358 14.4027 150.168 15.1815 150.815 16.1532C150.881 16.2496 150.946 16.3151 151.043 16.3807C151.301 16.5735 151.463 16.5118 151.498 16.1879V16.1532C151.529 15.8293 151.529 15.5401 151.463 15.2162C151.398 14.8885 151.336 14.5993 151.367 14.2754C151.398 13.9824 151.398 13.6932 151.398 13.431C151.367 12.8835 151.301 12.3629 151.301 11.8462C151.336 11.3604 151.301 10.8399 151.301 10.354C151.301 10.2268 151.301 10.0957 151.27 9.96459C151.236 9.74096 151.108 9.70625 150.946 9.80265L150.588 10.0957C150.33 10.3232 150.04 10.4504 149.682 10.4851C149.358 10.516 149.034 10.516 148.71 10.4851C148.321 10.4504 147.931 10.3232 147.607 10.1265C147.415 9.9993 147.222 9.9029 147.025 9.80265C146.574 9.6407 146.053 9.54431 145.602 9.44791C145.051 9.31681 144.5 9.28597 143.979 9.18957C143.786 9.15487 143.593 9.18957 143.431 9.12402H143.138Z" fill="#2A452A"/>
<path d="M177.179 32.3823C177.6 32.3823 178.024 32.3823 178.444 32.417C178.54 32.417 178.671 32.3823 178.768 32.3515C178.895 32.286 178.93 32.2204 178.864 32.0932C178.833 31.9621 178.768 31.8657 178.702 31.8001C178.51 31.5726 178.313 31.349 178.085 31.1523C177.762 30.8632 177.472 30.5046 177.245 30.1498C177.083 29.8568 176.855 29.5637 176.628 29.3054C176.435 29.0471 176.273 28.8196 176.142 28.5304C175.915 27.9134 175.591 27.3312 175.302 26.749C175.105 26.4212 174.912 26.132 174.847 25.8082C174.75 25.3879 174.557 25.0293 174.33 24.6398C174.168 24.3507 174.037 24.0268 174.006 23.6682C174.006 23.1515 174.199 22.7312 174.492 22.3071C174.619 22.1143 174.781 21.9215 174.912 21.694C175.105 21.3701 175.332 21.0462 175.56 20.7223C175.787 20.4293 176.015 20.1054 176.177 19.7815L176.759 18.324C176.825 18.1312 176.89 17.9346 176.921 17.7418C176.987 17.4179 177.017 17.094 177.052 16.7701C177.083 16.3498 177.017 15.9604 176.987 15.5401C176.987 15.3126 176.921 15.0851 176.825 14.8576C176.663 14.5646 176.532 14.2407 176.4 13.9168L176.142 13.3037C175.853 12.7832 175.494 12.2973 175.105 11.8115C174.816 11.4259 174.457 11.0982 174.037 10.9054C173.971 10.9054 173.91 10.8745 173.875 10.8398C172.969 10.3231 172.063 9.90286 171.025 9.77177C170.605 9.70622 170.181 9.67537 169.795 9.74092C169.437 9.77177 169.047 9.77177 168.693 9.74092C168.303 9.67537 167.914 9.67537 167.559 9.70622C167.17 9.77177 166.815 9.77177 166.425 9.67537C166.263 9.64067 166.067 9.60982 165.905 9.64067C165.485 9.64067 165.064 9.74092 164.644 9.70622C164.609 9.70622 164.578 9.74092 164.578 9.74092C164.22 9.77177 163.834 9.77177 163.476 9.74092C163.186 9.70622 162.863 9.67537 162.57 9.67537H161.016C160.561 9.64067 160.171 9.57897 159.72 9.60982L158.845 9.70622C158.39 9.80261 158.293 9.96456 158.425 10.3887C158.648 11.0365 158.779 11.6843 158.91 12.332C159.038 12.9451 159.072 13.562 159.234 14.179C159.296 14.4682 159.265 14.7921 159.265 15.0851C159.234 15.4398 159.169 15.7984 159.2 16.1532C159.265 16.5426 159.265 16.932 159.265 17.3523C159.265 17.7418 159.331 18.162 159.265 18.5823C159.234 18.7443 159.2 18.8754 159.2 19.0373C159.234 19.7159 159.234 20.4293 159.234 21.1118C159.234 21.4665 159.234 21.8212 159.2 22.1798C159.169 22.4073 159.134 22.631 159.169 22.8584C159.169 23.0551 159.2 23.2826 159.2 23.4754C159.234 23.6373 159.265 23.7993 159.234 23.9612C159.2 24.2196 159.234 24.4779 159.234 24.7401C159.2 24.9984 159.234 25.2876 159.2 25.5498C159.134 25.9046 159.103 26.2593 159.169 26.587C159.265 27.2965 159.234 27.979 159.169 28.6576C159.072 29.5984 158.779 30.4737 158.486 31.3798L158.293 31.9312C158.263 32.1587 158.359 32.286 158.586 32.3515C158.779 32.417 158.972 32.417 159.169 32.3823C159.589 32.3515 160.044 32.3515 160.464 32.3823C160.788 32.417 161.112 32.417 161.436 32.3823C161.76 32.3515 162.084 32.3207 162.408 32.3207C162.6 32.3515 162.762 32.3515 162.959 32.3515H165.03C165.257 32.3515 165.485 32.3207 165.712 32.3207C165.778 32.3207 165.874 32.286 165.97 32.2551C166.167 32.1896 166.229 32.0585 166.167 31.8965C166.167 31.7346 166.101 31.5726 166.036 31.4454L165.743 30.7012C165.485 30.1151 165.357 29.5329 165.257 28.8851C165.226 28.5612 165.226 28.2065 165.226 27.8479C165.257 27.4932 165.257 27.1693 165.226 26.8107C165.226 26.4868 165.195 26.1629 165.257 25.839C165.292 25.5498 165.292 25.2259 165.257 24.9329C165.226 24.609 165.226 24.2543 165.226 23.8957C165.257 23.6065 165.388 23.379 165.743 23.3443C166.132 23.2826 166.522 23.2826 166.911 23.3134C167.073 23.3443 167.2 23.379 167.332 23.4445C167.524 23.5718 167.59 23.7684 167.686 23.9612C167.817 24.2543 167.948 24.5434 168.172 24.8018C168.4 25.0948 168.596 25.4496 168.693 25.839C168.789 26.1976 168.951 26.5215 169.113 26.8107C169.34 27.1693 169.533 27.524 169.599 27.9443C169.633 28.1062 169.695 28.2682 169.761 28.4301C169.892 28.754 170.054 29.0779 170.15 29.4673C170.281 30.1498 170.443 30.8284 170.54 31.5418C170.57 31.9968 170.767 32.1896 171.218 32.2551C171.349 32.286 171.511 32.3207 171.673 32.3207C172.448 32.3515 173.227 32.286 174.006 32.286H174.588C174.816 32.2551 175.043 32.2551 175.236 32.286C175.591 32.3823 175.98 32.417 176.339 32.417C176.628 32.3823 176.89 32.3823 177.179 32.3823ZM165.257 18.1929C165.323 17.6762 165.226 17.1248 165.226 16.5426C165.226 16.2843 165.257 16.0568 165.292 15.8293C165.323 15.3126 165.292 14.8268 165.292 14.3409C165.257 13.9168 165.292 13.4965 165.485 13.1071C165.616 12.8487 165.808 12.7215 166.101 12.6868C166.715 12.6212 167.301 12.6868 167.914 12.6559C168.141 12.6559 168.369 12.6559 168.596 12.7215C168.986 12.8487 169.275 13.0762 169.502 13.4001C169.857 13.8204 170.085 14.3062 170.181 14.8576L170.408 16.2843C170.443 16.6082 170.378 16.8973 170.378 17.1904C170.281 18.0657 169.923 18.8407 169.471 19.5887C169.178 20.1401 168.693 20.3984 168.045 20.3984C167.721 20.3984 167.397 20.3329 167.073 20.302H166.036C165.681 20.302 165.519 20.2018 165.419 19.8779C165.323 19.6196 165.257 19.3304 165.257 19.0373V18.1929Z" fill="#2A452A"/>
<path d="M190.328 13.8205C190.328 13.6277 190.359 13.4657 190.424 13.2691C190.521 12.9799 190.714 12.7524 191.037 12.7216C191.199 12.6869 191.361 12.656 191.558 12.656C192.009 12.656 192.495 12.6869 192.95 12.6213C193.177 12.5905 193.405 12.6213 193.629 12.6213C194.084 12.656 194.569 12.7524 195.024 12.7833C195.414 12.7833 195.769 12.9143 196.092 13.1071L196.609 13.3693C196.902 13.4966 197.16 13.6585 197.419 13.8205C197.646 13.9824 197.843 14.1444 198.005 14.341C198.394 14.7266 198.78 15.0852 199.139 15.5055C199.235 15.6674 199.366 15.7985 199.493 15.9258C199.528 15.9913 199.59 16.0568 199.655 16.026C199.752 16.026 199.752 15.9258 199.752 15.8641V15.5402C199.721 15.0543 199.69 14.5646 199.69 14.0788C199.721 13.7241 199.69 13.3346 199.624 12.9799L199.493 12.0738C199.493 11.8463 199.462 11.5879 199.397 11.3257C199.3 11.0019 199.139 10.7127 198.845 10.4852C198.684 10.3888 198.522 10.2577 198.329 10.1613C198.07 10.0302 197.808 9.93379 197.519 9.90295C197.033 9.8374 196.513 9.80269 196.027 9.80269C195.541 9.77185 195.024 9.741 194.504 9.741H193.729C193.339 9.67545 192.95 9.67545 192.595 9.7063C192.206 9.741 191.816 9.741 191.427 9.67545C191.103 9.64075 190.779 9.6099 190.455 9.64075C190.262 9.67545 190.066 9.7063 189.873 9.7063H187.995L186.599 9.64075C186.275 9.6099 185.952 9.6099 185.628 9.64075C185.177 9.7063 184.752 9.7063 184.332 9.7063C184.139 9.7063 183.943 9.741 183.75 9.80269C183.557 9.90295 183.426 10.0302 183.426 10.2577C183.426 10.4505 183.457 10.6124 183.522 10.7744L183.846 11.6188C184.17 12.5596 184.301 13.5313 184.332 14.5338V16.1532C184.236 16.8666 184.236 17.5799 184.236 18.2932C184.205 18.6788 184.267 19.103 184.267 19.4924V19.5888C184.367 20.1055 184.367 20.626 184.267 21.1427C184.236 21.2082 184.236 21.2738 184.236 21.3355C184.236 23.0552 184.267 24.8019 184.236 26.5524C184.236 27.1693 184.267 27.8171 184.205 28.4302C184.17 28.8543 184.139 29.2399 184.074 29.6294C184.008 30.1152 183.846 30.5702 183.619 30.9905C183.492 31.218 183.426 31.4763 183.426 31.7694C183.457 31.9313 183.522 32.0585 183.654 32.1588C183.881 32.286 184.105 32.3207 184.367 32.3207C184.853 32.2552 185.304 32.2552 185.79 32.3207C186.083 32.3824 186.341 32.4171 186.634 32.3824C187.054 32.3207 187.475 32.2552 187.93 32.286C188.35 32.286 188.805 32.2552 189.256 32.3207C189.645 32.3516 190.035 32.3207 190.455 32.3207C190.845 32.3207 191.234 32.286 191.624 32.3207C191.913 32.3516 192.206 32.3824 192.495 32.3824C193.046 32.3824 193.598 32.3516 194.18 32.3516C194.604 32.3516 195.024 32.3516 195.445 32.286C195.672 32.2552 195.93 32.2205 196.158 32.2552C196.547 32.286 196.933 32.286 197.292 32.2205C197.777 32.1241 198.232 31.9968 198.718 31.9621C199.235 31.8966 199.624 31.6383 199.883 31.1871C200.014 30.9596 200.075 30.7013 200.141 30.4738C200.272 29.7913 200.207 29.1435 200.272 28.4649C200.338 28.0755 200.338 27.686 200.369 27.2966C200.399 26.9419 200.434 26.5871 200.434 26.2594C200.434 26.163 200.465 26.001 200.338 25.9702C200.207 25.9355 200.141 26.0666 200.11 26.1321C199.752 26.5871 199.366 27.0383 198.977 27.4277C198.294 28.1063 197.454 28.5921 196.578 28.9816C195.93 29.2399 195.252 29.3055 194.539 29.371C193.922 29.4019 193.274 29.3055 192.626 29.3055H192.56C192.171 29.2399 191.785 29.3055 191.396 29.3402C190.941 29.4019 190.586 29.2091 190.424 28.7888C190.359 28.5921 190.293 28.3994 190.293 28.2066C190.293 27.5896 190.262 26.9727 190.359 26.3596C190.424 26.0666 190.39 25.8082 190.359 25.5499C190.228 24.9985 190.228 24.4471 190.424 23.9305C190.521 23.6066 190.552 23.2827 190.683 22.9588C190.814 22.6002 191.072 22.4691 191.462 22.5346C191.685 22.6002 191.947 22.6966 192.171 22.7968C193.046 23.086 193.856 23.4755 194.635 23.9613C194.731 24.0268 194.828 24.0924 194.928 24.1232C195.09 24.1888 195.186 24.1232 195.217 23.9613C195.283 23.7685 195.314 23.5719 195.283 23.3444L195.217 22.3419C195.186 22.0835 195.217 21.7905 195.252 21.5321C195.283 20.9499 195.252 20.3638 195.283 19.8163C195.314 19.2957 195.283 18.8099 195.283 18.3241C195.283 18.193 195.283 18.0966 195.252 18.0002C195.186 17.8691 195.09 17.8074 194.959 17.8382L194.731 17.9346C194.149 18.3241 193.598 18.648 192.981 18.941C192.53 19.1685 192.044 19.3613 191.523 19.4577C191.072 19.5541 190.814 19.4268 190.652 18.9719C190.455 18.4552 190.424 17.8691 190.39 17.3216C190.359 16.8357 190.293 16.3807 190.328 15.8949V13.8205Z" fill="#2A452A"/>
<path d="M211.282 13.8205C211.282 13.6277 211.313 13.4657 211.379 13.2691C211.475 12.9799 211.668 12.7524 211.992 12.7216C212.154 12.6869 212.316 12.656 212.512 12.656C212.963 12.656 213.449 12.6869 213.904 12.6213C214.132 12.5905 214.359 12.6213 214.583 12.6213C215.038 12.656 215.524 12.7524 215.979 12.7833C216.368 12.7833 216.723 12.9143 217.047 13.1071L217.563 13.3693C217.856 13.4966 218.115 13.6585 218.373 13.8205C218.601 13.9824 218.797 14.1444 218.959 14.341C219.349 14.7266 219.734 15.0852 220.093 15.5055C220.189 15.6674 220.32 15.7985 220.448 15.9258C220.482 15.9913 220.544 16.0568 220.61 16.026C220.706 16.026 220.706 15.9258 220.706 15.8641V15.5402C220.675 15.0543 220.644 14.5646 220.644 14.0788C220.675 13.7241 220.644 13.3346 220.579 12.9799L220.448 12.0738C220.448 11.8463 220.417 11.5879 220.351 11.3257C220.255 11.0019 220.093 10.7127 219.8 10.4852C219.638 10.3888 219.476 10.2577 219.283 10.1613C219.025 10.0302 218.763 9.93379 218.473 9.90295C217.988 9.8374 217.467 9.80269 216.981 9.80269C216.495 9.77185 215.979 9.741 215.458 9.741H214.683C214.294 9.67545 213.904 9.67545 213.55 9.7063C213.16 9.741 212.771 9.741 212.381 9.67545C212.057 9.64075 211.733 9.6099 211.41 9.64075C211.217 9.67545 211.02 9.7063 210.827 9.7063H208.95L207.554 9.64075C207.23 9.6099 206.906 9.6099 206.582 9.64075C206.131 9.7063 205.707 9.7063 205.286 9.7063C205.094 9.7063 204.897 9.741 204.704 9.80269C204.511 9.90295 204.38 10.0302 204.38 10.2577C204.38 10.4505 204.411 10.6124 204.477 10.7744L204.801 11.6188C205.125 12.5596 205.256 13.5313 205.286 14.5338V16.1532C205.19 16.8666 205.19 17.5799 205.19 18.2932C205.159 18.6788 205.221 19.103 205.221 19.4924V19.5888C205.321 20.1055 205.321 20.626 205.221 21.1427C205.19 21.2082 205.19 21.2738 205.19 21.3355C205.19 23.0552 205.221 24.8019 205.19 26.5524C205.19 27.1693 205.221 27.8171 205.159 28.4302C205.125 28.8543 205.094 29.2399 205.028 29.6294C204.963 30.1152 204.801 30.5702 204.573 30.9905C204.446 31.218 204.38 31.4763 204.38 31.7694C204.411 31.9313 204.477 32.0585 204.608 32.1588C204.835 32.286 205.059 32.3207 205.321 32.3207C205.807 32.2552 206.258 32.2552 206.744 32.3207C207.037 32.3824 207.295 32.4171 207.588 32.3824C208.009 32.3207 208.429 32.2552 208.884 32.286C209.304 32.286 209.759 32.2552 210.21 32.3207C210.6 32.3516 210.989 32.3207 211.41 32.3207C211.799 32.3207 212.188 32.286 212.578 32.3207C212.867 32.3516 213.16 32.3824 213.449 32.3824C214.001 32.3824 214.552 32.3516 215.134 32.3516C215.558 32.3516 215.979 32.3516 216.399 32.286C216.626 32.2552 216.885 32.2205 217.112 32.2552C217.502 32.286 217.887 32.286 218.246 32.2205C218.732 32.1241 219.187 31.9968 219.673 31.9621C220.189 31.8966 220.579 31.6383 220.837 31.1871C220.968 30.9596 221.03 30.7013 221.095 30.4738C221.226 29.7913 221.161 29.1435 221.226 28.4649C221.292 28.0755 221.292 27.686 221.323 27.2966C221.354 26.9419 221.388 26.5871 221.388 26.2594C221.388 26.163 221.419 26.001 221.292 25.9702C221.161 25.9355 221.095 26.0666 221.065 26.1321C220.706 26.5871 220.32 27.0383 219.931 27.4277C219.248 28.1063 218.408 28.5921 217.533 28.9816C216.885 29.2399 216.206 29.3055 215.493 29.371C214.876 29.4019 214.228 29.3055 213.58 29.3055H213.515C213.125 29.2399 212.74 29.3055 212.35 29.3402C211.895 29.4019 211.541 29.2091 211.379 28.7888C211.313 28.5921 211.248 28.3994 211.248 28.2066C211.248 27.5896 211.217 26.9727 211.313 26.3596C211.379 26.0666 211.344 25.8082 211.313 25.5499C211.182 24.9985 211.182 24.4471 211.379 23.9305C211.475 23.6066 211.506 23.2827 211.637 22.9588C211.768 22.6002 212.026 22.4691 212.416 22.5346C212.64 22.6002 212.902 22.6966 213.125 22.7968C214.001 23.086 214.81 23.4755 215.589 23.9613C215.686 24.0268 215.782 24.0924 215.882 24.1232C216.044 24.1888 216.141 24.1232 216.171 23.9613C216.237 23.7685 216.268 23.5719 216.237 23.3444L216.171 22.3419C216.141 22.0835 216.171 21.7905 216.206 21.5321C216.237 20.9499 216.206 20.3638 216.237 19.8163C216.268 19.2957 216.237 18.8099 216.237 18.3241C216.237 18.193 216.237 18.0966 216.206 18.0002C216.141 17.8691 216.044 17.8074 215.913 17.8382L215.686 17.9346C215.103 18.3241 214.552 18.648 213.935 18.941C213.484 19.1685 212.998 19.3613 212.478 19.4577C212.026 19.5541 211.768 19.4268 211.606 18.9719C211.41 18.4552 211.379 17.8691 211.344 17.3216C211.313 16.8357 211.248 16.3807 211.282 15.8949V13.8205Z" fill="#2A452A"/>
<path d="M241.402 9.67549C240.982 9.64078 240.562 9.67549 240.142 9.74104C240.076 9.74104 239.98 9.74104 239.914 9.77188C239.752 9.83743 239.717 9.90298 239.752 10.0649C239.752 10.1266 239.783 10.1922 239.818 10.2269C239.914 10.5161 240.041 10.7436 240.142 11.0019C240.365 11.4569 240.527 11.9119 240.562 12.3977C240.593 12.8488 240.658 13.3038 240.724 13.755C240.82 14.2099 240.851 14.6958 240.789 15.1816C240.724 15.44 240.724 15.7021 240.755 15.9605C240.789 16.3808 240.851 16.8011 240.851 17.2213C240.82 17.9347 240.851 18.6788 240.851 19.3922C240.851 19.4924 240.851 19.5541 240.82 19.6544C240.724 20.1711 240.724 20.7224 240.724 21.2391C240.724 21.5977 240.724 21.9524 240.627 22.3072C240.627 22.4383 240.593 22.5694 240.465 22.6311C240.334 22.6658 240.238 22.5694 240.142 22.4691C239.818 22.1144 239.555 21.725 239.297 21.3047C238.973 20.7224 238.618 20.1711 238.26 19.6197L237.647 18.7444C237.288 18.0658 236.899 17.3833 236.513 16.7355C236.251 16.2844 235.993 15.8294 235.669 15.4091C235.152 14.7613 234.728 14.0788 234.342 13.3347C234.146 12.9452 233.918 12.5905 233.629 12.2358L233.143 11.588C232.819 11.1985 232.495 10.8091 232.106 10.4505C231.782 10.1922 231.393 9.99938 230.972 9.90298C230.679 9.83743 230.39 9.80273 230.097 9.77188C229.642 9.70633 229.222 9.67549 228.771 9.70633C228.478 9.74103 228.154 9.77188 227.861 9.77188C227.668 9.80273 227.506 9.74104 227.309 9.74104C226.858 9.74104 226.438 9.70633 225.983 9.67549C225.69 9.64078 225.432 9.64078 225.142 9.67549C224.88 9.70633 224.784 9.83743 224.849 10.0649C224.88 10.1922 224.915 10.3233 224.98 10.4505L225.142 10.9363C225.27 11.426 225.401 11.9119 225.593 12.3977C225.69 12.6213 225.755 12.9144 225.79 13.1727L225.887 13.9169C225.917 14.341 225.917 14.7266 225.852 15.1508C225.79 15.3436 225.79 15.5402 225.79 15.733C225.79 15.9258 225.821 16.1224 225.821 16.3499C225.821 16.7355 225.852 17.1249 225.79 17.5144C225.725 18.0311 225.755 18.5169 225.755 19.0066C225.755 19.2958 225.79 19.5888 225.821 19.878C225.887 20.1055 225.887 20.3022 225.887 20.5258V21.4011C225.887 21.6941 225.852 21.9524 225.821 22.2455C225.755 22.5038 225.725 22.7622 225.755 23.0205C225.821 23.4099 225.887 23.8302 225.852 24.2544C225.852 24.3161 225.852 24.3816 225.887 24.4472C225.917 24.8675 225.917 25.3224 225.852 25.7427C225.821 25.9702 225.79 26.1977 225.79 26.4214C225.79 26.6488 225.821 26.8763 225.821 27.1347C225.821 27.6205 225.79 28.1411 225.755 28.6269C225.659 29.5022 225.466 30.3427 225.077 31.1525C224.946 31.4108 224.818 31.673 224.753 31.9622C224.718 32.1241 224.784 32.2205 224.946 32.2861C224.98 32.2861 225.011 32.3208 225.077 32.3208C225.401 32.3208 225.755 32.4172 226.114 32.3825C226.307 32.3825 226.469 32.3825 226.631 32.3516C227.051 32.3516 227.471 32.3208 227.861 32.3208H227.992C228.478 32.2552 228.933 32.2861 229.418 32.3516C229.546 32.3516 229.708 32.3825 229.87 32.3516C230.128 32.2861 230.194 32.1897 230.128 31.9313L230.066 31.7694C230.001 31.6074 229.935 31.4108 229.839 31.2488C229.642 30.8633 229.449 30.4391 229.353 29.988C229.222 29.5639 229.125 29.1436 229.095 28.6924V27.3622C229.125 26.9727 229.156 26.5872 229.095 26.1977C229.095 25.9355 229.029 25.6463 229.06 25.388C229.06 25.1258 229.06 24.8675 229.095 24.6091V23.6374C229.095 23.3136 229.095 22.9588 229.029 22.6002C228.963 22.2763 228.963 21.9524 229.029 21.6286C229.095 21.2738 229.156 20.9152 229.125 20.5913C229.06 20.0091 229.095 19.4269 229.125 18.8755C229.156 18.7135 229.191 18.5516 229.257 18.4205C229.318 18.2277 229.418 18.193 229.611 18.2933C229.677 18.355 229.742 18.3897 229.773 18.4552L230.228 18.8755C230.452 19.103 230.648 19.3613 230.81 19.6197C231.134 20.1402 231.458 20.6569 231.717 21.2083C231.975 21.725 232.333 22.1144 232.623 22.6002C232.85 22.9897 233.174 23.3444 233.336 23.7994C233.432 24.0269 233.498 24.2544 233.66 24.4472C233.984 24.9638 234.308 25.5152 234.666 26.0011C234.828 26.2286 234.99 26.4869 235.087 26.7491C235.248 27.1038 235.441 27.4586 235.669 27.7516C236.124 28.3685 236.448 29.0163 236.837 29.6294C237.126 30.0844 237.385 30.5394 237.774 30.8633C238.002 31.0252 238.194 31.2488 238.356 31.4455L238.68 31.8349C238.908 32.0277 239.166 32.1241 239.459 32.1588C239.687 32.2205 239.914 32.1897 240.142 32.2205C240.593 32.2861 241.048 32.3516 241.499 32.3208C241.564 32.3208 241.63 32.3208 241.695 32.3516C241.985 32.3825 242.309 32.3516 242.602 32.2861C243.118 32.1588 243.442 31.8349 243.608 31.2836C243.735 30.7977 243.801 30.3119 243.932 29.826C243.994 29.6294 244.028 29.4366 243.994 29.24C243.963 28.7541 243.932 28.2683 243.963 27.7825C243.963 26.7491 243.932 25.7427 243.963 24.7055C244.028 23.5719 243.932 22.4383 244.059 21.3047V20.8188C243.994 20.4641 244.028 20.1055 244.028 19.7508C244.059 19.3613 244.094 18.9719 244.028 18.5825C243.932 18.1622 243.932 17.7072 244.028 17.2869C244.094 17.0594 244.125 16.8666 244.094 16.6391C244.028 16.2497 243.963 15.8294 243.994 15.44V14.8269C243.994 14.5338 243.994 14.2099 244.059 13.9169L244.19 12.6213C244.19 12.2358 244.256 11.8116 244.418 11.426L244.869 10.4197C244.903 10.2577 245 10.1266 245 9.99938C245 9.83743 244.965 9.80273 244.838 9.74104L244.514 9.67549C244.028 9.60994 243.542 9.60994 243.057 9.64078C242.829 9.67549 242.571 9.70633 242.309 9.70633C242.019 9.67549 241.695 9.67549 241.402 9.67549Z" fill="#2A452A"/>
<path d="M151.646 66.4807C151.708 66.8355 151.808 67.2249 151.773 67.5796C151.773 67.8727 151.808 68.1657 151.839 68.4549C151.97 69.041 152.194 69.5577 152.356 70.1091C152.522 70.5294 152.714 70.9496 152.942 71.3391C153.069 71.5319 153.2 71.7594 153.266 72.0216C153.428 72.5691 153.752 72.9932 154.075 73.4444C154.399 73.8994 154.82 74.2232 155.174 74.6435C155.791 75.2913 156.505 75.8735 157.314 76.3285C158.19 76.8144 159.065 77.2694 160.002 77.5277C160.391 77.6241 160.781 77.7552 161.201 77.8169C161.849 77.9171 162.497 77.948 163.179 77.9788C163.63 77.9788 164.116 77.9788 164.602 77.9171C165.153 77.8516 165.705 77.7552 166.256 77.6241C167.131 77.4621 167.941 77.2038 168.654 76.6524C168.816 76.5213 169.04 76.4249 169.267 76.3285C169.657 76.1666 170.012 75.9738 170.305 75.6499C170.532 75.4224 170.79 75.1949 171.049 74.9983C171.535 74.6435 171.959 74.2232 172.344 73.803C172.475 73.6719 172.572 73.5755 172.637 73.4135C172.896 72.893 173.254 72.3763 173.578 71.8905L173.867 71.3391C174.16 70.6605 174.388 69.978 174.612 69.2646C174.808 68.6516 174.935 68.0038 175.001 67.356C175.001 67.1594 175.001 66.9319 175.036 66.7391C175.067 66.4152 175.067 66.1221 175.036 65.833L174.905 64.9268C174.874 64.441 174.808 63.9513 174.677 63.4655C174.581 63.0452 174.45 62.6249 174.322 62.2046C174.16 61.4913 173.902 60.8127 173.513 60.1957C173.316 59.9027 173.092 59.6444 172.961 59.3513C172.668 58.8038 172.313 58.3179 171.828 57.9285L171.504 57.5699C171.211 57.246 170.887 56.9221 170.497 56.6985C169.626 56.0816 168.685 55.561 167.713 55.1407C167.293 54.948 166.838 54.7513 166.383 54.6896C165.836 54.6241 165.315 54.493 164.829 54.3002C164.571 54.2346 164.313 54.2038 164.054 54.2655C163.63 54.331 163.21 54.331 162.82 54.3002C162.531 54.2655 162.238 54.3002 161.98 54.331C161.56 54.3966 161.17 54.493 160.781 54.5894C160.067 54.7513 159.354 54.9788 158.675 55.2718C158.155 55.5302 157.669 55.8232 157.183 56.0469C156.859 56.2088 156.57 56.471 156.308 56.6985C156.084 56.9221 155.822 57.1496 155.564 57.3463C155.336 57.5699 155.078 57.7974 154.885 58.0249C154.172 58.9002 153.524 59.7755 152.973 60.7471C152.714 61.233 152.456 61.7496 152.325 62.2702L152.194 62.756C152.001 63.4038 151.87 64.0516 151.839 64.7302C151.808 65.0888 151.743 65.4744 151.646 65.7983V66.4807ZM168.458 66.0258C168.492 66.3188 168.458 66.5463 168.392 66.7699C168.265 67.1594 168.265 67.5796 168.296 67.9691C168.296 68.4241 168.23 68.8444 168.068 69.2338C167.972 69.5577 167.875 69.9124 167.81 70.271C167.517 71.2427 167.097 72.1488 166.449 72.9585C166.19 73.2824 165.932 73.6063 165.608 73.8994C165.25 74.2232 164.798 74.416 164.343 74.578C164.054 74.6744 163.761 74.7746 163.437 74.8055C162.79 74.8055 162.207 74.6127 161.656 74.2888C160.877 73.8338 160.295 73.186 159.875 72.3763C159.323 71.4046 158.965 70.3983 158.675 69.3302C158.513 68.7171 158.417 68.0693 158.317 67.4177C158.286 67.0321 158.382 66.6427 158.417 66.2841V65.9602C158.382 65.8638 158.382 65.7674 158.382 65.671C158.382 65.5091 158.352 65.378 158.352 65.2507C158.317 64.9885 158.382 64.7649 158.417 64.5374C158.544 63.9205 158.61 63.3382 158.772 62.7213C158.868 62.2702 158.999 61.8152 159.192 61.3602L159.288 61.071C159.485 60.3885 159.809 59.8063 160.264 59.2896C160.522 58.931 160.781 58.5416 161.17 58.2832C161.687 57.8938 162.269 57.6702 162.917 57.5699C163.306 57.5082 163.727 57.5391 164.116 57.6046C164.475 57.6702 164.764 57.8321 165.057 58.0249L165.998 58.8346C166.383 59.1894 166.645 59.6444 166.904 60.0993L167.324 60.8127C167.841 61.846 168.168 62.918 168.296 64.0824C168.33 64.6338 168.361 65.1852 168.458 65.7366C168.492 65.833 168.458 65.9602 168.458 66.0258Z" fill="#2A452A"/>
<path d="M177.845 77.3657C178.041 77.5276 178.234 77.4621 178.431 77.4621C178.851 77.4312 179.306 77.3965 179.726 77.4621C179.919 77.4621 180.116 77.4929 180.309 77.4929C180.956 77.4929 181.604 77.4621 182.252 77.4312L182.834 77.331C183.127 77.2693 183.193 77.169 183.193 76.8798C183.193 76.5868 183.158 76.2976 183.193 76.0046C183.224 75.5187 183.224 75.0329 183.32 74.5471C183.42 73.8993 183.547 73.2515 183.775 72.6346C183.871 72.4418 183.968 72.2143 184.002 71.9868C184.068 71.794 184.195 71.6629 184.423 71.5974L184.681 71.5318C184.939 71.501 185.232 71.501 185.491 71.5318C186.108 71.5665 186.69 71.5318 187.272 71.5665C187.631 71.5974 187.986 71.5318 188.375 71.501C188.892 71.4701 189.412 71.5318 189.929 71.6321C190.156 71.6629 190.384 71.6629 190.611 71.7285C190.773 71.7593 190.901 71.8596 190.935 72.0215L191.259 72.8621C191.614 73.8029 191.745 74.7399 191.745 75.7115C191.745 76.0701 191.776 76.4249 191.776 76.7835C191.776 77.1073 191.938 77.2693 192.262 77.3001H192.296L192.975 77.4312C193.33 77.4621 193.688 77.4929 194.043 77.4621C194.402 77.3965 194.791 77.3657 195.177 77.3965C195.339 77.3965 195.47 77.4312 195.601 77.4312C196.087 77.4312 196.538 77.4312 196.993 77.4621C197.575 77.4929 198.157 77.4621 198.743 77.4621C199.098 77.4621 199.453 77.3965 199.777 77.331C200.039 77.3001 200.07 77.169 200.004 76.9454L199.777 76.5868C199.487 76.1974 199.229 75.8426 198.967 75.4223C198.319 74.416 197.772 73.3479 197.348 72.1834C196.896 70.9496 196.441 69.7196 196.052 68.4549C195.859 67.8726 195.601 67.3212 195.439 66.7082C195.242 65.9293 194.918 65.216 194.629 64.4718C194.433 64.0168 194.24 63.5965 194.174 63.1107C194.143 62.7868 194.043 62.4938 193.916 62.2354C193.754 61.8151 193.557 61.3948 193.461 60.9746L193.168 60.0337L192.844 59.3512C192.62 58.769 192.489 58.1559 192.196 57.5699C192.034 57.246 191.907 56.8912 191.679 56.5673L190.773 55.3682C190.611 55.1754 190.415 55.0751 190.191 54.9787C189.898 54.8823 189.605 54.8168 189.281 54.8168H188.244C187.986 54.8168 187.727 54.8168 187.469 54.7859C187.176 54.7204 186.887 54.7204 186.594 54.7204C186.366 54.7204 186.173 54.7512 185.946 54.7859C185.526 54.8168 185.425 54.9479 185.425 55.3682V55.5301C185.491 56.016 185.587 56.5365 185.526 57.0223C185.46 57.6046 185.364 58.1868 185.167 58.7035C184.974 59.3204 184.778 59.9373 184.554 60.5196C184.261 61.3601 184.033 62.2046 183.775 63.0451C183.547 63.7276 183.289 64.3407 183.062 64.9885C182.869 65.5399 182.641 66.0604 182.51 66.6079C182.317 67.2249 182.125 67.8418 181.897 68.4549C181.604 69.2337 181.215 69.9779 181.022 70.8223L180.926 71.1771C180.602 72.2451 180.081 73.2168 179.63 74.2232C179.402 74.709 179.079 75.1602 178.82 75.6498C178.527 76.1665 178.138 76.6215 177.845 77.1382V77.3657ZM188.182 68.6168C187.727 68.6168 187.307 68.586 186.852 68.586C186.528 68.586 186.239 68.5551 185.915 68.4896C185.556 68.3932 185.425 68.1965 185.46 67.7762C185.491 67.356 185.622 66.9318 185.784 66.5115C185.977 66.0604 186.108 65.5746 186.239 65.0887C186.301 64.9576 186.335 64.8265 186.366 64.6993C186.624 64.0824 186.821 63.4654 187.049 62.8523C187.145 62.6904 187.211 62.4938 187.307 62.3665C187.434 62.2046 187.534 62.1699 187.631 62.3665C187.955 62.9796 188.309 63.5965 188.441 64.3098C188.506 64.8265 188.699 65.2815 188.892 65.7365C189.054 66.0912 189.154 66.446 189.25 66.8046L189.478 67.8418C189.539 68.2312 189.281 68.4549 189.023 68.5551C188.73 68.6168 188.471 68.6515 188.182 68.6168Z" fill="#2A452A"/>
<path d="M222.353 54.7204C222.252 54.7512 222.125 54.7512 221.994 54.7512C221.412 54.7204 220.86 54.7204 220.278 54.8515C220.051 54.9132 219.792 54.9132 219.534 54.8823C219.276 54.8515 219.014 54.8168 218.755 54.8515C218.4 54.9132 218.107 55.0443 217.88 55.3682C217.784 55.561 217.718 55.7576 217.652 55.9504C217.49 56.4054 217.298 56.7948 216.974 57.1496L216.619 57.6701C216.422 58.0557 216.195 58.4143 215.937 58.769C215.709 59.0274 215.547 59.3512 215.258 59.5787C214.996 59.7754 214.737 59.999 214.545 60.2612C214.124 60.7471 213.669 61.2637 213.28 61.7496C212.89 62.2046 212.505 62.6248 212.081 63.0143C211.953 63.1415 211.857 63.2418 211.695 63.3035C211.595 63.369 211.533 63.369 211.499 63.2418C211.468 63.2071 211.468 63.1762 211.468 63.1415C211.402 62.9796 211.402 62.8176 211.402 62.6557C211.402 62.2354 211.433 61.7843 211.402 61.3601C211.371 60.7471 211.371 60.1301 211.371 59.5132C211.371 59.0274 211.468 58.5762 211.564 58.0904C211.695 57.2151 211.953 56.3745 212.243 55.5301C212.277 55.4337 212.343 55.3026 212.343 55.2062C212.374 54.9787 212.308 54.8823 212.115 54.8168C211.857 54.7512 211.63 54.7512 211.402 54.7859C210.947 54.8515 210.496 54.8168 210.041 54.8515C209.393 54.8823 208.776 54.8515 208.129 54.8515C207.384 54.8823 206.64 54.7859 205.896 54.7859C205.861 54.7859 205.861 54.7859 205.83 54.7512C205.537 54.7204 205.214 54.7512 204.924 54.7512C204.824 54.7512 204.762 54.7859 204.662 54.8168C204.535 54.8515 204.469 54.9479 204.469 55.1098C204.469 55.2371 204.5 55.3682 204.566 55.5301C204.697 55.9504 204.859 56.3745 204.986 56.8257C205.148 57.4426 205.31 58.0248 205.345 58.6726V60.8126C205.345 61.0709 205.345 61.2984 205.41 61.5568C205.441 61.8151 205.472 62.0426 205.441 62.2701C205.41 62.6248 205.375 62.9796 205.375 63.3035C205.375 63.5965 205.41 63.8549 205.41 64.1171C205.41 64.8921 205.375 65.7018 205.375 66.4807C205.345 67.7415 205.375 69.0062 205.375 70.271C205.375 70.6912 205.345 71.1115 205.375 71.5665C205.41 71.9868 205.507 72.4418 205.441 72.8929C205.41 73.3171 205.375 73.7373 205.31 74.1268C205.148 74.8363 204.924 75.5187 204.662 76.1974C204.6 76.4596 204.5 76.6832 204.469 76.9107C204.404 77.2037 204.5 77.3657 204.793 77.4312C204.986 77.4621 205.183 77.4929 205.375 77.4929C206.089 77.5585 206.767 77.4621 207.481 77.4621H207.581C208.032 77.3965 208.518 77.3657 209.004 77.4312C209.166 77.4621 209.328 77.4621 209.524 77.4621H211.175C211.468 77.4621 211.792 77.4621 212.115 77.3965C212.343 77.331 212.405 77.2037 212.374 76.9762L212.181 76.4596C212.019 76.0354 211.822 75.6151 211.726 75.1601C211.595 74.5471 211.564 73.9301 211.499 73.3171C211.468 72.7657 211.499 72.2451 211.468 71.6976C211.433 71.1462 211.468 70.5601 211.433 70.0126C211.402 69.5885 211.433 69.2029 211.402 68.8135C211.402 68.3585 211.564 67.969 211.919 67.6451C212.081 67.4832 212.146 67.4832 212.308 67.6798C212.439 67.8418 212.567 68.0037 212.667 68.1657C212.991 68.6824 213.249 69.2029 213.604 69.654C213.831 69.9124 213.962 70.2054 214.09 70.4984C214.221 70.7876 214.348 71.046 214.545 71.2735C214.737 71.5665 214.934 71.8596 215.096 72.1487C215.485 72.731 215.809 73.3479 216.164 73.9648C216.326 74.254 216.519 74.5779 216.553 74.9365C216.584 75.5187 216.812 76.0701 216.974 76.6524C217.07 77.0071 217.298 77.169 217.622 77.2693C217.976 77.3965 218.335 77.331 218.69 77.3657C218.983 77.3657 219.307 77.331 219.6 77.3657C219.954 77.3965 220.309 77.4312 220.699 77.4312C220.992 77.4312 221.315 77.3965 221.605 77.3965C222.287 77.3965 222.966 77.4312 223.648 77.4621C224.327 77.4929 225.04 77.4621 225.719 77.4621C225.85 77.4621 225.946 77.4312 226.043 77.3965C226.174 77.3657 226.174 77.2693 226.143 77.169C226.108 77.0726 226.043 77.0071 225.946 76.9454L225.071 76.1357C224.747 75.8118 224.423 75.484 224.134 75.1293C223.937 74.871 223.745 74.6126 223.517 74.3851C223.228 74.0921 222.966 73.7373 222.804 73.3479C222.642 72.9932 222.449 72.6693 222.191 72.3762C221.929 72.0832 221.736 71.7593 221.605 71.4046C221.477 71.0807 221.315 70.7876 221.119 70.5293C220.895 70.2363 220.668 69.9471 220.471 69.6232C220.147 69.1026 219.792 68.6168 219.6 68.0346C219.6 68.0037 219.565 67.969 219.534 67.9382L219.048 67.0629L217.46 64.3754C217.232 63.9204 216.974 63.4654 216.843 62.9487C216.781 62.6557 216.746 62.3665 216.908 62.0735C217.136 61.6223 217.46 61.1982 217.849 60.8435C218.138 60.616 218.4 60.3885 218.593 60.0993C218.786 59.8371 219.014 59.5787 219.276 59.3512C219.6 59.0274 219.954 58.7035 220.247 58.3487C220.571 57.8937 220.992 57.539 221.443 57.1843C221.705 56.9876 221.963 56.7948 222.191 56.5365C222.384 56.2743 222.642 56.0468 222.904 55.854C223.228 55.6265 223.583 55.399 223.907 55.1098C223.972 55.0134 224.069 54.9479 224.038 54.8515C224.003 54.7204 223.876 54.7512 223.745 54.7204C223.614 54.7204 223.452 54.7859 223.324 54.7204H222.353Z" fill="#2A452A"/>
<mask id="mask0_47_1303" style="mask-type:luminance" maskUnits="userSpaceOnUse" x="0" y="0" width="101" height="82">
<path d="M0.901611 0.502808H100.097V81.9263H0.901611V0.502808Z" fill="white"/>
</mask>
<g mask="url(#mask0_47_1303)">
<path fill-rule="evenodd" clip-rule="evenodd" d="M54.0079 80.4418C52.9514 80.2297 52.8396 79.4624 52.5658 78.6758C52.9013 78.9766 53.0709 79.0267 53.3833 79.4315C53.5838 79.6976 53.8652 80.1179 54.0079 80.4418ZM50.5222 76.7248C50.8962 77.0217 51.4515 77.2684 50.5955 77.6424L50.5222 76.7248ZM50.0942 73.9948L50.1906 73.5206C51.1546 76.1348 50.4991 74.793 50.0942 73.9948ZM51.5517 73.9331C51.6096 73.91 51.6867 73.8946 51.7253 73.8753C51.7638 73.8599 51.8486 73.8329 51.8911 73.8098L52.4656 73.2854C52.481 73.2121 52.5157 73.1928 52.6352 73.1735L52.2766 74.3264C52.8589 74.8354 53.2367 75.6953 53.2792 76.5782C52.5388 75.6258 52.053 75.1092 51.5517 73.9331ZM52.0144 72.6993C52.7278 72.1517 51.3242 72.5219 52.5774 72.1517C52.3306 72.7417 52.6738 72.4564 52.0144 72.6993ZM53.4372 72.4486C54.3164 71.5502 53.9539 73.0232 54.2084 71.1338C55.1994 72.2481 53.5876 71.1338 54.6325 73.7789C55.2263 75.2788 54.1814 74.793 54.2547 77.0178L53.5838 75.1053C54.0465 75.3405 54.3434 75.0513 54.4475 74.9973C54.0195 73.9871 53.7727 73.5128 53.4372 72.4486ZM53.6802 70.6518C53.1211 70.4937 53.4025 70.9757 53.3293 69.9963C53.2714 69.2522 53.0015 69.8999 53.4681 69.1403C53.8652 69.3408 53.8267 69.0015 53.8382 69.8421C53.846 70.3858 53.9346 70.1968 53.6802 70.6518ZM51.0351 69.2907C51.17 68.9398 51.197 69.0247 51.3204 68.8434C51.571 69.1596 51.6481 68.4386 51.652 70.4552C51.5479 70.4051 50.6148 70.4166 51.0351 69.2907ZM51.9412 64.9568L52.4039 64.8295L52.6044 65.6315L52.7239 66.5107C52.1108 66.3603 52.5234 66.4605 52.1417 66.1752C51.7522 65.886 52.4694 66.2253 51.733 65.859L51.6134 67.1006C51.598 67.1546 51.544 67.3165 51.5325 67.2857C51.5209 67.2548 51.4746 67.4129 51.4399 67.4746C50.8114 66.7844 51.0929 66.1983 51.1045 65.192C51.76 65.0879 51.4631 65.1611 51.9412 64.9568ZM50.3719 62.5045C49.4387 62.4659 50.0865 62.7204 49.8359 61.9492C50.3757 62.2731 50.1097 61.7371 50.3719 62.5045ZM66.6974 57.8543C66.6936 57.7695 66.8787 57.4225 67.0213 57.9006C67.2295 58.6024 66.709 58.0857 66.6974 57.8543ZM86.1694 56.4315C85.2902 56.2812 85.7915 56.4739 85.4368 55.9765C86.0923 56.1423 85.7645 55.7452 86.1694 56.4315ZM80.5746 55.7529C79.9923 55.4984 80.2507 55.7259 79.9538 55.2439C81.0488 55.3558 80.3586 54.9509 80.5746 55.7529ZM39.2401 55.2516C39.2401 54.8275 39.7606 54.5923 40.3004 54.5576C40.3043 54.9817 40.3814 55.2092 39.9881 55.4059C39.2632 55.7645 39.2439 55.2555 39.2401 55.2516ZM88.0549 56.8788L87.5767 55.9688C87.0215 56.1115 87.2644 56.3737 86.3467 56.0537C86.3583 55.4367 86.9251 54.2183 87.2259 53.7055C88.2592 54.0718 88.4867 53.744 88.7104 54.7311C87.6153 54.4072 87.1642 54.1412 87.3647 54.974C87.4688 55.402 87.9508 55.7298 88.3055 56.0305L88.0549 56.8788ZM41.7734 53.8443C42.371 53.5666 42.7913 53.5975 43.2 54.1257L42.4713 54.2877C41.7811 54.2684 42.0548 54.4573 41.7734 53.8443ZM89.0188 54.1065C88.6024 53.8635 88.6988 54.0216 88.56 53.5435C89.1268 53.744 88.8029 53.0924 89.0188 54.1065ZM69.1266 51.2377C69.142 51.1683 69.1999 51.1645 69.3425 51.1182L69.4659 52.167L71.3321 53.4587C69.624 53.4741 66.6974 53.5127 65.3942 52.9497C66.2232 52.5988 67.3182 52.6567 68.3632 52.5063L69.1266 51.2377ZM72.2614 53.0808C71.1933 52.8842 71.9182 53.2505 71.7331 52.5333C72.3269 52.7723 72.0686 52.4138 72.2614 53.0808ZM74.5942 52.2133C75.2921 52.3212 75.1764 52.194 75.2034 52.9034C74.652 52.8726 74.3088 52.9304 74.5942 52.2133ZM79.9653 52.5603C80.3239 52.3559 79.4101 52.3713 80.59 52.4099L80.2121 52.8919L79.9653 52.5603ZM58.2686 52.4485C58.9434 52.005 58.6773 52.541 58.8778 51.5115C59.7955 51.7583 59.0706 51.5231 59.7145 51.8701C59.7685 51.9009 59.9305 51.9973 59.969 52.0205L60.2158 52.167C59.676 53.2389 60.0153 52.5024 58.8161 52.5718C59.1824 53.1464 59.1015 53.9522 58.5308 54.4998C58.2532 54.9008 57.2776 55.4329 56.2674 56.3968C55.9281 56.7169 55.4538 57.0407 55.1261 57.4533C54.7212 57.97 54.4745 58.5946 54.139 59.1229C53.792 58.7026 53.8537 57.97 53.7457 57.3955C53.5568 56.4007 53.2946 55.4907 53.9269 54.4998C55.2996 52.3328 57.5745 49.7224 57.59 49.7224C59.7261 50.1118 58.1491 49.8226 59.8148 49.2828C60.0461 49.5836 59.9266 50.0347 60.3777 51.3842C57.6787 51.4961 61.1373 50.6401 58.6195 51.0411C58.5809 51.0488 58.5115 51.0681 58.4691 51.0719C58.4344 51.0758 58.365 51.0835 58.3303 51.0835C58.3303 51.0835 57.964 50.991 57.8252 50.9485C57.9254 51.5539 58.0295 52.1554 58.0527 52.1284L58.2686 52.4485ZM90.3799 52.9536C90.2527 52.0976 90.4378 52.8687 90.7077 52.4253C91.1627 51.6811 90.511 52.5487 90.8696 51.7968C91.4634 51.8894 92.4428 52.3906 92.8747 53.023L90.8735 53.0924C90.3684 53.0615 90.646 53.077 90.3799 52.9536ZM78.4114 51.2377C78.3999 49.8496 78.5888 51.0218 78.7276 49.707L79.653 50.6169C79.6684 50.6285 79.707 50.6632 79.7224 50.6709C80.401 51.0372 81.4768 51.2069 80.8021 52.1323C80.3586 51.9665 80.7288 52.1708 80.4319 51.9125L78.4114 51.2377ZM78.022 49.8689C78.7199 50.8714 78.0297 50.6208 78.0182 50.6362C77.5824 50.1658 77.513 50.4241 78.022 49.8689ZM80.8175 50.4743C80.1504 50.0887 80.7943 49.8072 80.8021 49.7879C81.3534 50.0116 81.2493 49.8959 81.4228 50.401C81.3149 50.455 81.045 50.6054 80.8175 50.4743ZM74.0544 49.6183L74.278 50.1118C73.7073 50.0193 74.0081 50.2892 74.0544 49.6183ZM36.8687 50.0116C36.7299 49.2597 37.0577 49.7879 37.1695 49.9807C37.3623 50.3239 36.8765 50.0617 36.8687 50.0116ZM76.0825 51.8007C75.6854 51.4806 76.1057 51.8855 76.1596 51.3148C74.7831 51.1568 75.1571 51.1221 74.9451 50.455C74.7176 49.7378 74.4284 50.162 74.8641 49.491L75.481 49.9807C76.0324 50.3586 76.7419 50.9447 77.0658 51.631L77.3742 51.2223C77.7752 50.8252 76.9616 51.1375 77.7675 51.0835L77.5901 52.2094C77.1467 52.0513 77.4089 52.194 77.0503 51.8894C76.9501 51.8007 76.7958 51.5809 76.792 51.577C76.1943 51.8547 76.3216 51.9935 76.0825 51.8007ZM93.4376 49.5373L93.935 50.0039C94.3746 50.4203 93.8733 49.8342 94.3437 50.401C94.3399 50.4049 93.8926 50.6748 93.7615 50.2506C93.7384 50.1774 93.6767 50.1581 93.6188 50.1157L93.6882 50.9524L93.0674 51.5462C92.9518 51.4729 92.9016 51.3071 92.7821 51.2146C92.1729 50.7635 92.5546 51.3226 91.8259 50.7943C91.9685 50.027 92.0765 49.9345 91.768 49.2288C92.8785 49.8882 92.0958 50.2159 93.4376 49.5373ZM73.129 49.3908C73.5531 48.8857 72.7742 49.2597 73.6726 48.9435C73.2986 49.5682 73.958 49.252 73.129 49.3908ZM76.5221 49.8111C76.5028 49.8188 76.6339 50.4087 76.1095 49.7687C75.7432 49.3175 76.044 49.5874 76.0517 49.2828C75.7432 49.7879 76.044 50.1658 75.3268 49.225C75.6854 48.9666 75.6622 49.0515 76.0902 48.9011L76.472 49.4718C76.4912 49.5103 76.5375 49.6376 76.5452 49.6646L76.5221 49.8111ZM61.3841 49.4216C61.2607 49.4679 61.2492 49.5412 60.9831 49.5026C60.933 49.4987 60.7595 49.4371 60.7132 49.4139C60.478 49.3098 60.343 49.1093 60.2852 49.0515C61.5422 48.8972 61.0024 48.8124 61.3841 49.4216ZM56.9923 48.5001C57.108 49.3869 57.0309 49.2134 56.1826 49.0592C56.3908 48.4692 56.2983 48.6158 56.9923 48.5001ZM82.7531 50.6131C82.6413 50.4936 82.5642 50.3239 82.4331 50.2545C82.4099 49.6491 82.7685 49.9884 82.6721 49.2635C82.5873 48.6119 82.4061 49.117 82.329 48.2957C83.2274 48.9512 81.8586 48.7816 83.9947 49.4371C84.6 49.6221 84.5692 50.0309 84.3417 50.5552L83.586 50.1234C83.023 50.3779 83.4703 50.1851 83.1541 50.374C82.9305 50.5051 83.1927 50.4049 82.7531 50.6131ZM79.4834 49.4255C78.5927 49.5103 78.6428 49.5296 78.6968 48.4268C79.3523 48.9242 78.6775 48.3806 79.0862 48.9551C79.2057 49.1286 79.225 49.0399 79.4834 49.4255ZM5.90644 48.6389C6.34215 48.3459 6.04139 48.3497 6.48096 48.6389C5.79076 48.9551 6.08766 48.7353 5.90644 48.6389ZM74.8525 49.1633C73.6765 49.171 73.9001 49.1517 73.5415 48.3073C73.6264 48.342 74.305 48.5309 74.3088 48.5309C75.2381 48.9628 74.5633 48.4847 74.8525 49.1633ZM9.03737 48.2456C8.88314 47.4667 9.22245 48.0065 9.33813 48.2109C9.60803 48.7006 9.04894 48.3112 9.03737 48.2456ZM83.9561 47.7366L84.0178 48.2996C83.5243 48.3806 83.2582 48.0412 83.1618 47.5014C83.9947 47.4474 83.4741 47.2469 83.9561 47.7366ZM78.0182 47.0696C78.7353 47.4166 78.5772 47.3703 78.77 48.3806L77.621 48.207C77.6557 47.3279 77.729 47.4012 78.0182 47.0696ZM29.5851 47.432C29.454 48.1145 29.747 47.914 29.0645 47.968C29.2689 47.0889 29.1262 47.6441 29.5851 47.432ZM14.0345 48.1608C14.0037 47.432 13.6297 47.8639 14.5204 47.6634L14.0345 48.1608ZM7.98858 49.063C7.70325 48.689 7.59144 48.7237 7.68012 47.8176C7.68398 47.7945 7.71868 47.7598 7.72253 47.7058C7.72253 47.6518 7.75338 47.6325 7.77266 47.5978C8.30476 48.1955 8.06956 47.5708 8.21222 48.2726C8.49755 49.68 8.14282 48.8741 7.98858 49.063ZM58.3264 48.049C58.5269 47.8523 58.0295 47.3511 59.2904 47.7174C59.0012 48.0181 58.8855 48.3034 58.3264 48.049ZM80.7905 48.0027C80.2738 47.4744 80.617 47.5169 80.8946 47.2277C81.7197 47.968 80.883 47.941 80.7905 48.0027ZM84.3841 47.405C83.7132 47.2469 84.2376 47.5593 83.8944 46.95C84.4998 47.193 84.307 46.7804 84.3841 47.405ZM82.6876 47.8138C81.6927 47.8754 80.8406 47.2045 80.4512 46.4218L82.6876 47.8138ZM66.736 47.2122C66.9288 46.5529 66.844 46.6069 67.5226 46.4912C67.4108 47.0464 67.6036 47.0966 66.736 47.2122ZM41.0292 46.7033C40.7863 46.9231 40.9906 46.8228 40.5318 47.0773C40.1385 47.3009 40.4662 47.1004 40.0344 47.2778C40.2542 46.4681 40.0768 46.6647 41.0292 46.7033ZM31.9718 48.022C31.2855 47.2932 31.9718 47.3318 31.2431 46.7881C31.6364 46.765 31.8947 46.7418 32.1916 47.0811C32.9011 47.8986 32.2495 47.8446 31.9718 48.022ZM19.0625 45.8164C19.5676 45.2766 19.1936 45.4694 19.8144 45.3152L19.8992 46.0478C20.3696 45.5928 20.146 46.4179 20.3118 45.5542L20.4738 46.2753C18.5613 47.0503 18.6345 47.0002 17.204 47.3472C17.4392 46.7226 17.74 45.7008 18.0523 45.3769C18.3145 45.7894 18.5266 46.2483 18.7656 46.0131C18.835 45.9437 19.0124 46.0863 19.0625 45.8164ZM68.1665 46.684C67.7578 46.0786 67.912 46.4604 68.0123 45.7085C69.2423 45.6776 68.8953 45.7972 69.0186 46.283C68.7372 46.4257 69.2346 46.6878 68.3824 46.1982L68.1665 46.684ZM66.6242 46.0478C65.6679 45.8241 66.2077 46.0092 65.9725 45.4501C66.4584 45.6545 66.308 45.2843 66.6242 46.0478ZM39.3326 45.6969C39.4252 45.3383 39.0897 45.6853 39.5293 45.5928C39.7953 45.5311 39.2324 46.0786 39.3326 45.6969ZM77.8793 45.5003C78.0606 44.8525 77.9218 45.1802 78.5117 44.9103L78.9281 45.7933L77.8793 45.5003ZM41.9777 45.6969C41.3029 46.0555 41.461 45.9398 41.3569 45.3152C41.9276 45.4617 41.65 45.2034 41.9777 45.6969ZM31.193 45.7586C31.8099 45.3576 30.6686 45.6236 31.779 45.3036C31.513 45.7625 31.8215 45.5465 31.193 45.7586ZM43.7514 46.2599L44.6074 45.1455C45.3554 45.5542 45.394 45.8087 46.0302 46.0863L45.9492 46.121C46.2847 46.2444 46.5893 46.3948 46.8091 46.603C47.3103 47.0696 47.9118 47.5978 48.4864 48.0143C49.0647 48.4307 49.1997 48.4692 49.9978 48.7392C49.7434 49.6298 49.7164 50.1619 49.2807 51.0102C49.0686 51.4151 48.9799 51.9202 48.7987 52.3868C48.6175 52.8456 48.5056 53.4201 48.3051 53.7941C47.8964 54.5537 47.9196 55.2362 46.7358 54.8969C45.7834 53.5666 45.849 52.9729 45.1395 51.6889C44.3838 50.3162 43.0574 49.0708 43.0111 48.9744L43.1846 48.1762C42.506 46.8151 42.5677 47.3241 42.9687 46.6763C42.9185 46.6493 42.8491 46.6107 42.8183 46.5953L43.7514 46.2599ZM25.3167 47.3318C25.5056 46.549 25.976 46.2483 25.2473 45.4231C25.9799 45.801 26.0647 45.6622 26.485 46.4796L25.9028 47.0117C25.3629 47.3703 25.737 47.1158 25.3167 47.3318ZM20.9287 45.9475C21.0444 44.945 20.8478 45.2728 21.4917 44.7715C22.1048 44.918 21.8194 44.9219 22.4017 45.2342L21.7616 45.7509C21.4917 45.8704 21.2835 45.8781 20.9287 45.9475ZM64.9238 45.3383C65.3595 44.8371 64.5112 45.1301 65.506 44.918L64.9238 45.3383ZM18.4417 45.107C18.4456 44.4823 18.7039 44.8216 18.781 45.1147C18.8505 45.3846 18.434 45.7162 18.4417 45.107ZM13.352 45.6969C13.7993 45.0684 13.6297 45.5542 14.7941 45.0954C14.6437 45.4193 14.744 45.5157 14.2312 45.7509C13.4446 46.1095 13.5178 45.7894 13.352 45.6969ZM44.2835 45.0106C44.3259 44.9566 44.43 44.6211 44.457 44.5787C44.6999 44.2394 44.4801 44.5132 44.9159 44.3859C44.5264 45.0838 45.1858 44.625 44.2835 45.0106ZM40.8672 44.7137C40.8557 43.9001 41.1757 44.4862 41.249 44.6828C41.3454 44.9489 40.875 45.1455 40.8672 44.7137ZM34.5784 44.5209C33.5759 45.053 33.8766 44.6481 33.5836 44.4438C34.1003 44.1391 34.5475 44.5016 34.5784 44.5209ZM76.7342 44.945C76.5298 44.463 76.6455 44.49 76.9578 44.17C77.1583 44.544 77.2855 43.9194 77.0735 44.6327C76.8498 45.3692 77.2161 44.6018 76.7342 44.945ZM31.4359 44.3242C31.9718 44.0428 31.6557 44.1854 31.9371 44.3242C31.2469 44.8409 31.567 44.4476 31.4359 44.3242ZM9.08364 44.5594C8.6595 44.8101 9.26101 44.7021 8.63636 44.7214C7.82664 44.7407 8.44357 44.6905 8.18523 44.5209C8.48984 44.2741 8.04642 44.3127 8.62865 44.2818C9.56948 44.2317 8.70962 44.224 9.08364 44.5594ZM27.4335 44.5209C28.3358 44.7445 28.6481 44.0466 28.8563 45.3036C28.8293 45.319 28.4939 46.1982 27.422 44.9527C26.9631 44.4168 27.26 44.0659 26.458 44.3396L27.1482 43.8191L27.4335 44.5209ZM71.5404 44.49L71.282 43.5261C72.3771 43.7343 72.219 44.1507 72.3462 44.3242C72.2884 44.3589 72.2074 44.4013 72.1727 44.4322C72.138 44.4553 72.057 44.5093 72.0223 44.5402C71.174 45.2843 72.0725 44.2008 71.7871 44.891C71.309 44.7137 71.1663 44.7137 70.7229 44.4939C71.4709 44.0967 71.1278 44.2317 71.5404 44.49ZM55.7045 43.5376C55.6081 42.8205 55.9512 43.368 56.0284 43.5299C56.225 43.9232 55.7199 43.6533 55.7045 43.5376ZM8.8947 42.9747C9.10292 43.3063 9.23402 43.5338 9.39211 43.9926L8.459 43.7073L8.81759 43.0865C8.82916 43.0287 8.87543 43.0171 8.8947 42.9747ZM62.1938 44.1816C61.4304 44.1122 61.654 44.2394 61.1528 43.8885C60.6168 43.5145 60.8057 43.6495 60.6978 43.1675C61.4265 43.422 61.8815 43.5222 62.1938 44.1816ZM71.5057 42.7819L71.2974 42.2883C71.7062 42.3732 71.5365 41.9529 71.5057 42.7819ZM66.1576 42.7202C65.3787 42.6122 65.6371 42.7935 65.7643 42.3115C66.1422 42.2999 65.9802 41.9259 66.1576 42.7202ZM66.0265 43.6263C64.4919 43.5531 66.0882 43.6726 65.0279 43.3024C64.087 42.967 63.3467 43.4567 63.1115 42.2421L63.6706 42.778L65.1705 42.7125C65.2129 42.7472 65.2669 42.7973 65.2978 42.8205L66.0265 43.6263ZM34.9717 43.3718C34.3933 42.8166 34.7673 42.5081 34.4087 42.4696C34.6902 42.2459 34.5051 41.8758 35.5886 42.3693L34.9717 43.3718ZM53.418 42.0069C52.6969 41.7794 53.1712 42.138 52.9244 41.5442C53.5799 41.8218 53.1673 41.309 53.418 42.0069ZM80.4319 41.9143C80.3895 41.4825 80.671 41.4748 81.0527 41.2897C80.7982 41.8372 81.0334 41.7023 80.4319 41.9143ZM67.0984 41.2049L67.9583 42.3693C67.0907 42.3038 66.6589 41.9606 67.0984 41.2049ZM67.7578 41.3822C67.7732 41.0236 67.5688 41.174 68.0778 41.3128C68.3477 41.3861 67.7346 41.8835 67.7578 41.3822ZM61.9856 41.3822H62.5061C62.4522 41.4131 62.3866 41.4786 62.3596 41.4863C61.361 41.7755 62.2401 41.5982 61.9856 41.3822ZM59.6027 41.1856C60.4433 41.3321 60.5667 41.1277 61.0988 40.9889L60.7209 42.2189L59.6027 41.1856ZM79.8034 41.7717C79.4024 41.0815 79.5335 41.5557 79.0746 40.9889C80.0039 40.7769 79.9268 41.71 80.2507 42.6585C78.8047 42.6585 79.9152 42.8744 78.9937 42.2652L79.1749 41.656C79.8188 41.8488 79.4409 41.8719 79.8034 41.7717ZM5.72521 42.8436C5.8486 41.764 6.14164 41.7254 6.59663 40.8694C7.52589 42.0454 6.20334 42.1341 5.72521 42.8436ZM65.0857 41.2126C64.1796 41.0391 64.7387 41.4208 64.4611 40.6997C65.2592 41.0969 64.704 40.5686 65.0857 41.2126ZM83.4934 40.8771C84.2877 41.0005 85.0126 41.1817 85.6565 41.4671C86.7285 41.9452 86.1771 42.3925 86.6976 42.8089C86.7516 42.8552 86.767 42.9477 86.7786 42.994L86.9521 44.2201L86.8249 44.652L86.6822 45.9205L86.8596 45.6699L87.0562 45.9282L87.33 45.4386C87.195 45.0183 87.168 45.1841 87.731 45.2111C87.0061 44.6982 87.4418 45.2381 87.0639 44.3242C87.9623 44.7407 87.569 44.5132 88.0857 45.1108C88.425 44.3435 88.1821 45.0645 87.9353 44.2818C86.9097 44.2664 87.4803 44.3512 86.8981 43.6572C87.357 43.5376 87.3261 43.6225 87.5729 43.8422L87.249 43.1482C87.6384 42.9785 87.3917 43.1174 87.5536 43.0518L87.7695 42.9169C88.2284 42.4117 88.0742 42.6084 88.7798 42.3616L88.3016 41.3822C88.3672 41.3861 88.4559 41.4054 88.4944 41.4131C88.5291 41.4246 88.6217 41.4439 88.6602 41.4555L89.0959 41.7023C89.5702 42.0801 88.988 41.8449 89.6859 42.165C89.6589 42.9554 90.0406 41.9606 89.4198 42.5968L89.0959 42.8243C90.326 42.9014 89.4892 42.165 89.844 43.7998C89.9751 44.3975 90.0907 43.9541 89.8286 44.7021C88.8916 44.6674 89.5355 44.652 88.7065 44.4091L88.8492 44.9489L89.3119 44.8332C89.7784 45.1224 89.4083 44.4553 89.7977 45.2535C89.8555 45.7239 90.0213 45.4077 89.7514 45.8396C89.4275 46.3601 89.682 46.2521 89.2733 45.9861C89.254 46.603 89.3003 46.2946 89.1808 46.5953C89.1229 46.738 89.0188 46.9076 89.0034 46.8729C88.988 46.8382 88.9263 46.9693 88.8916 47.0195L89.1846 47.405C89.79 47.5824 89.3967 47.3086 89.7977 47.6904C90.2643 46.603 91.1357 47.2971 91.5791 47.8523C91.2706 48.2263 91.6292 47.968 91.1472 48.2803C90.7694 48.5271 91.1742 48.315 90.673 48.45C90.9275 48.049 90.7462 48.3304 90.9545 48.0605L91.2167 47.7521C90.4031 47.8485 90.4378 47.8446 90.0406 48.1916C88.8723 47.3819 89.2155 48.2186 88.1667 47.5747C87.4688 48.049 87.943 48.0297 87.2297 48.3189C87.141 48.1145 87.2066 48.1993 87.249 48.0644C87.4534 47.3665 87.5305 47.5785 87.1603 46.8691L86.4084 46.6339L86.3892 45.9977C86.1308 45.5465 86.366 45.6892 85.911 45.6044L85.7838 45.801C85.6912 45.7817 85.2131 45.7162 85.1013 45.6892C84.6386 45.5812 84.9548 45.7008 84.627 45.5003C84.2376 44.9643 84.6155 45.8935 84.2415 44.7908C84.1721 44.5864 84.226 44.5749 84.1913 44.3242L83.0654 43.8422C83.0423 43.9618 82.9767 44.4168 82.9536 44.4977C82.7724 45.053 83.0269 44.5209 82.6953 44.9026L82.6297 43.6533C83.3546 42.8243 82.1516 44.251 82.8534 43.4142C83.1194 43.1019 82.9806 43.3834 83.1387 42.9747C82.3675 42.6084 83.1965 43.0325 82.6914 42.3616C82.5989 42.3308 82.2249 42.2691 82.0899 42.165C82.2249 41.5095 82.1979 41.4208 82.5912 41.0583L81.9434 40.7923C83.9908 40.1792 82.0899 40.7075 83.4934 40.8771ZM60.0307 41.0738C60.1078 40.3913 59.7955 40.0751 60.8019 40.5455C60.4047 40.9812 60.5551 40.8347 60.0307 41.0738ZM80.9524 40.719C79.9461 40.5764 80.6131 40.8501 79.9615 40.3951C79.788 40.2756 79.68 40.1059 79.5451 39.8476C80.4666 40.0096 80.5399 40.0443 80.9524 40.719ZM82.3752 40.3951C81.8046 40.1676 82.0668 40.3489 81.7544 39.8939C82.5642 39.8862 82.2094 39.7049 82.3752 40.3951ZM88.0356 39.651C88.5908 39.0379 87.5883 39.3733 88.6332 39.1921C88.2052 39.836 88.8183 39.4427 88.0356 39.651ZM64.4225 39.5623C65.8453 39.0803 65.3055 39.9247 65.3016 39.9479L64.4225 39.5623ZM81.7853 39.223C81.7891 39.223 81.5886 38.4557 82.6721 39.223C82.3213 39.462 82.8958 39.3502 82.275 39.3926C81.3226 39.4543 82.1709 39.4042 81.7853 39.223ZM86.9868 38.4518L87.2413 39.0302C86.3506 39.5777 86.7323 39.5623 85.8917 39.1921L86.9868 38.4518ZM62.8031 39.0302C62.7375 38.3901 63.0652 38.8721 63.1347 39.0456C63.3544 39.5893 62.8223 39.1844 62.8031 39.0302ZM40.1462 39.1844L39.6411 38.6407C40.204 38.8451 39.9457 38.5559 40.1462 39.1844ZM60.1348 38.1202C59.46 37.8811 59.7338 38.2089 59.2557 37.3953C60.1618 37.5804 59.8225 37.2449 60.1348 38.1202ZM88.3942 37.4609L87.9778 36.9712L90.0059 37.083L89.5895 38.1549L88.3942 37.4609ZM8.99496 37.1408C9.17232 36.9519 9.16461 36.8786 9.36512 36.7244C10.2365 36.0419 10.1324 36.6666 10.1517 36.6743C9.66587 37.43 10.2982 37.1061 8.99496 37.1408ZM8.33561 36.7591C8.37031 36.7861 8.42429 36.8169 8.46285 36.8439L9.65045 37.6536C9.33041 37.8349 7.07475 37.6498 7.75338 36.3195C8.1274 36.5509 7.91147 36.4391 8.21608 36.6665C8.25078 36.6935 8.30091 36.7321 8.33561 36.7591ZM20.0882 36.3774C20.8516 35.9648 20.736 36.3504 20.9712 35.6717L21.7308 36.4121C21.7385 36.4313 21.7655 36.4776 21.7732 36.4969L21.9968 37.2719C21.2488 37.5225 21.7539 37.3799 21.0521 37.7038L20.0882 36.3774ZM24.264 37.4878C23.5276 37.457 23.9903 37.7038 23.5546 37.164C22.687 36.092 23.917 37.1755 23.3965 36.8208C22.7718 36.3928 22.687 37.1177 22.178 35.9725L24.1561 36.3812C23.9748 36.709 23.8977 36.3619 23.9363 36.8246L24.1831 37.3413C24.1946 37.3105 24.2448 37.4339 24.264 37.4878ZM72.3385 35.8915C72.5891 35.7604 72.3424 35.344 73.0287 35.8915C71.872 36.5971 72.4889 35.9609 72.3385 35.8915ZM26.2112 35.3748C27.0557 35.3748 26.4426 34.8003 26.8706 35.853C26.003 35.8067 26.3385 36.0805 26.2112 35.3748ZM29.2496 35.8954C28.4245 35.7836 28.6211 35.9301 28.2471 35.2707C29.2072 35.3671 28.864 35.1242 29.2496 35.8954ZM19.9841 35.4751C19.3247 35.4404 19.826 35.479 19.4481 35.2399C19.9224 34.9469 20.2424 35.0895 20.5971 35.3016C20.5509 35.3247 20.5971 35.5137 19.9841 35.4751ZM27.8924 34.9121C27.8924 34.5343 28.4052 34.8929 28.2008 35.0163C27.4644 35.4443 27.8924 35.2669 27.8924 34.9121ZM29.8087 34.8505C29.0723 34.6577 29.6391 35.0047 29.292 34.3376L29.8087 34.8505ZM69.7898 34.9738L68.8914 34.6384C70.0906 34.1988 69.196 34.596 69.4891 34.2451C69.5315 34.1988 69.2847 33.6821 70.2101 34.1256C70.2949 34.9121 70.4877 34.4186 69.7898 34.9738ZM30.3447 34.1256L31.1081 34.006C31.1505 33.9983 31.2084 33.9945 31.2547 33.9906C32.1454 33.9212 31.7019 33.7014 32.3998 34.2142C32.3381 34.3184 32.4885 34.7541 31.4783 34.5536C29.2612 34.114 31.6672 35.0124 30.3447 34.1256ZM67.8388 33.9328C68.4711 33.3698 68.2205 33.8248 68.3516 33.9328C68.2475 33.9868 68.5444 34.38 67.8388 33.9328ZM29.1108 33.9328C29.2997 33.8595 28.7214 33.5973 29.7663 33.8248C30.4257 33.9636 29.8666 33.8209 30.1172 34.1256C30.0478 34.1603 30.1943 34.434 29.4694 34.2759C28.8987 34.1525 29.3152 34.195 29.1108 33.9328ZM64.9932 34.3261C64.7155 33.8557 64.8119 34.5883 65.0163 34.033C65.1243 33.7477 65.0857 33.979 65.1705 33.6899C65.6679 33.9983 65.4173 33.4739 65.6062 34.3453L64.9932 34.3261ZM70.534 34.997C71.1702 33.8904 70.3682 33.6474 70.3026 33.5857C71.2782 33.4816 70.9504 33.8017 72.1419 34.0176L72.9169 35.4944C72.1149 35.2823 71.4864 34.9199 70.534 34.997ZM32.5348 34.3338C32.9088 33.794 32.7661 33.9598 32.6775 33.2503C33.8651 33.6667 32.4654 32.7992 33.7802 33.3428L33.3792 34.0253C33.0515 34.2952 33.0052 34.2297 32.5348 34.3338ZM69.6741 33.366C69.6317 33.3968 69.5777 33.4354 69.5276 33.4662C69.4736 33.5048 69.3117 33.5819 69.2577 33.6089C68.9955 33.7477 68.9184 33.7824 68.5829 33.9019C69.1073 33.1693 68.6292 33.1616 69.9865 33.0961L69.6741 33.366ZM52.535 33.7284C51.9335 33.5588 51.8988 33.5202 51.6366 32.9727C53.0401 33.285 51.8756 33.4161 53.1365 32.8955C52.6854 33.7708 53.1558 33.0459 52.535 33.7284ZM75.1687 33.4893C74.2703 33.5549 74.4592 33.3235 74.1546 32.7722C74.7754 33.0074 74.8101 33.1423 75.1687 33.4893ZM71.9414 33.0768L71.8295 32.3789C72.9207 33.1616 71.4517 32.1707 74.0466 32.5292C72.9285 33.3313 73.0865 32.6565 71.9414 33.0768ZM36.996 33.4893C36.194 33.2387 36.7454 33.3891 36.4716 33.0922L37.1464 32.9495C35.9472 31.8815 38.6347 32.5524 39.0242 32.7105L38.4766 33.2734C38.5229 33.2888 38.5923 33.3081 38.6424 33.3235C38.7003 33.3428 38.7735 33.3505 38.8237 33.366L39.348 33.5395C38.4805 34.0909 38.9123 33.7631 37.9252 33.6012C37.5512 33.5395 37.505 33.6436 36.996 33.4893ZM27.9309 32.5832C28.7946 32.4714 28.6211 32.7028 29.2458 32.4444C29.5195 32.3326 29.1224 32.1976 29.6236 32.3442C30.6107 32.6372 29.7933 32.3904 30.202 32.7529C29.4925 33.2117 29.9321 32.9303 28.9836 33.0806L28.4168 33.204C28.3512 33.2194 28.3049 33.2464 28.2394 33.258C27.7073 33.3737 28.2086 33.3775 27.4644 33.3274C27.7111 33.0536 27.7844 32.9688 27.9309 32.5832ZM68.822 32.2092C70.1831 32.1012 69.2307 32.2825 69.651 32.7529C68.6986 32.9572 68.9647 32.7452 68.7217 32.7529C67.4532 32.7953 69.5199 32.8878 67.9853 32.9495C68.1472 32.6603 68.4942 32.2362 68.822 32.2092ZM66.6319 32.9071C66.7321 32.7914 66.9635 31.3609 67.7385 32.4174L66.6319 32.9071ZM22.151 32.9611C21.9274 32.4637 21.8426 32.3712 21.6536 31.9316C22.0238 32.0974 22.1086 32.1128 22.3091 32.3904C22.6176 32.8146 22.5559 33.2657 21.7346 33.1462C20.9287 33.0305 21.3722 32.8917 21.2835 32.7529C21.8464 32.5948 21.2681 32.6835 22.151 32.9611ZM58.2802 32.0473C58.6503 31.8159 58.1452 31.8159 58.7968 31.9162C58.8046 31.9162 59.1284 32.1205 59.1439 32.1282C58.7236 32.2825 58.7776 32.2362 58.2802 32.0473ZM55.9088 31.5961L55.851 31.8699C55.8356 31.8892 55.7662 31.9355 55.7507 31.9509L55.4114 31.9971C57.3818 32.082 56.0515 31.9547 56.6029 32.4945L56.1055 32.7567C56.0785 32.7143 56.0014 32.83 55.959 32.8763C55.1338 32.5138 56.5065 33.5163 55.6621 32.6603L55.1608 32.0704C55.1377 32.055 55.0605 32.0318 55.0413 32.0203C55.0104 32.001 54.8716 31.9933 54.8061 31.9702C54.9372 31.6308 55.5657 31.5807 55.9088 31.5961ZM84.9047 30.4587L85.5216 29.9998C85.2016 30.6746 85.7838 30.1888 84.9047 30.4587ZM30.2251 30.1579C30.2444 30.0924 30.3061 30.0847 30.3485 30.0538C30.2984 30.0152 30.2251 29.9767 30.1904 29.9497C30.0015 29.8263 29.5542 29.5757 29.5966 29.3405C29.7162 28.6966 31.4744 29.2595 31.6827 29.3019L30.9732 29.6142L30.8575 30.9214C30.0632 31.1334 29.9822 31.0409 29.5697 30.8288C29.5427 30.4587 30.148 30.4124 30.2251 30.1579ZM28.7831 29.2248C28.3898 29.9536 28.5402 29.7955 27.8847 29.4484C28.2278 29.0166 28.2008 29.005 28.7831 29.2248ZM21.9081 30.0615C21.7655 29.7106 21.8426 29.9574 21.8156 29.6875L21.8079 29.4446C21.831 28.7582 21.7847 29.595 21.8387 29.2017L22.9261 29.5757C22.3207 29.6374 22.4557 29.8803 21.9081 30.0615ZM78.8973 28.4151L80.0656 28.3303C79.7417 29.2479 79.8844 29.2287 78.851 29.3983L78.8973 28.4151ZM65.4597 28.3225L66.2347 28.6387C66.2077 28.685 66.1846 28.7544 66.1615 28.7775C65.2554 29.8225 65.8569 29.0783 65.5985 29.1862C65.4096 28.8238 65.2785 29.568 65.4597 28.3225ZM59.3367 27.9447C59.0205 28.631 59.2904 28.5038 58.3264 28.6927L57.455 28.7313C57.189 28.1375 57.4936 28.2801 57.7249 27.8868C58.1182 28.2724 57.8175 28.0989 58.5308 28.3225C58.5655 28.2878 58.6079 28.2223 58.631 28.2069C58.6542 28.1876 58.712 28.1259 58.7429 28.1066C59.2595 27.7712 58.2416 27.9871 59.3367 27.9447ZM76.1982 28.2416C76.1095 27.5822 76.4642 28.0488 76.5722 28.2493C76.7149 28.523 76.2329 28.5153 76.1982 28.2416ZM77.8562 27.8714L78.6736 28.0256C78.3613 28.6349 78.6081 28.4999 77.7598 28.6349L77.8562 27.8714ZM83.8173 27.8521C83.8096 27.8676 83.8366 29.2826 82.3829 27.6246L83.8173 27.8521ZM67.3259 28.1066C67.9197 27.8714 67.5303 27.4897 68.9724 27.7018C68.8567 28.095 69.0611 28.1837 68.1665 28.5192C68.0663 28.1876 68.0547 28.4266 68.1472 28.149C68.1588 28.1105 68.3863 27.9023 68.4364 27.856L67.619 28.149C67.5997 28.1992 67.5843 28.2724 67.5688 28.3071L67.4378 28.604C67.2103 28.9819 67.5457 28.6541 67.0213 28.9742L66.6704 28.2416L67.1987 28.1336C67.2334 28.1259 67.2989 28.1182 67.3259 28.1066ZM34.8791 28.1182C33.6221 27.8868 34.1504 28.0989 34.1735 27.536C34.2584 27.5629 34.4357 27.6092 34.536 27.6863C34.9832 28.0179 34.5283 27.5629 34.8791 28.1182ZM27.6032 27.8521C28.1122 27.3856 27.7574 27.3509 28.7021 27.5282C28.6327 27.5514 28.3358 27.6632 28.3242 27.6709L28.0196 27.856C28.7021 27.8444 29.3422 27.8367 29.8627 28.2416C29.4193 28.3919 29.1956 28.4806 28.679 28.3534L27.6032 27.8521ZM21.9852 27.9755C22.4634 26.9306 22.8837 26.7918 23.836 26.6761C23.0803 27.9408 23.1844 26.7879 22.9723 27.509C22.7564 28.2339 22.633 28.0025 21.9852 27.9755ZM35.8547 27.6516C36.5217 26.3484 35.5115 26.68 37.1194 26.892C36.6374 27.6593 36.9034 27.5514 35.8547 27.6516ZM79.9268 27.0038L80.9177 26.6722C82.3328 26.3638 81.0643 26.5064 81.6118 26.9884C79.7417 27.1272 80.9409 27.4511 79.5836 27.6786C79.815 26.8882 79.4795 27.4935 79.9268 27.0038ZM54.6595 26.8997C54.8485 27.2892 55.0528 27.3007 54.8909 27.7133C54.5554 27.1889 54.6557 27.2121 53.5144 27.2776C53.5683 27.2468 53.6493 27.2236 53.684 27.2043L54.247 26.5257C55.2225 26.6722 55.0683 26.9267 55.6852 26.3368L55.9628 27.0733C55.2572 27.081 55.1685 26.9807 54.6595 26.8997ZM79.9268 27.0038C79.4487 26.9422 79.2829 27.1696 78.8896 26.4795C79.2829 26.2828 78.8973 26.1054 79.5451 26.4332C80.2545 26.7918 80.1466 26.4949 79.9268 27.0038ZM64.4996 26.2828C64.4032 25.4577 64.7618 26.1363 64.8158 26.2404C64.9893 26.5797 64.5073 26.3329 64.4996 26.2828ZM40.8171 26.6067C40.9328 26.036 40.7978 26.0977 41.3608 26.2674C41.0215 26.8149 41.4957 26.5334 40.8171 26.6067ZM57.1967 26.0206L57.7828 26.5489C57.2969 27.0887 58.4652 26.4949 57.4396 26.8843C57.3625 26.9152 57.2892 26.9383 56.9306 26.9075L55.9628 26.6722L55.8317 25.4152L57.0309 25.1222C57.0116 26.009 56.9345 25.2032 57.1967 26.0206ZM48.4786 25.8895C48.9722 25.4924 48.2666 25.7199 49.3192 25.5386C48.845 26.0206 49.0994 26.0669 48.4786 25.8895ZM83.9561 26.0592C83.9677 25.9936 84.1913 25.4538 84.4805 25.7083C84.5345 25.7584 84.9316 25.662 84.4574 26.0823C83.7903 26.6684 83.9947 26.0746 83.9561 26.0592ZM46.3387 25.6929C46.7628 25.3767 46.0071 25.5232 47.0096 25.5039C47.3566 25.5001 47.3219 25.1839 47.4569 25.7237C47.8232 25.3304 47.6766 25.2919 48.4285 25.3343C48.0506 26.0168 48.5172 25.9281 47.6342 26.1748C46.9942 26.3522 47.0983 26.2057 47.3065 25.9319C45.6832 26.0283 46.6895 26.036 46.3387 25.6929ZM20.2 24.7096C20.8131 25.3034 20.9326 25.2302 20.1807 25.6929C19.8337 24.9448 19.9147 25.4075 20.2 24.7096ZM59.1477 25.2649L58.5308 25.4075C58.5192 25.3651 58.4999 25.3073 58.4961 25.2841L58.4113 24.4089C58.7544 24.86 58.7699 24.6055 59.3868 25.234C59.3058 25.2456 59.2017 25.2533 59.1477 25.2649ZM61.8237 24.7752C62.3519 24.2778 62.2208 24.4359 62.9457 24.3857C62.9072 24.4551 62.8647 24.5361 62.83 24.594L62.3866 25.2919L61.8237 24.7752ZM36.3405 24.3202C36.8919 24.1043 36.6914 24.2315 37.0962 24.6981L36.3405 24.3202ZM63.8981 23.977L64.4996 24.3433C62.9419 24.7675 64.0601 25.4152 63.0151 24.9101L63.8981 23.977ZM71.656 24.5361C70.7923 24.4282 70.9234 24.5091 70.7268 23.738C71.4247 23.8883 71.3823 23.8459 71.656 24.5361ZM69.0032 24.139C68.9762 24.031 68.4942 23.6377 69.8746 23.5876L69.1112 24.1814C69.1035 24.1467 69.0379 24.1544 69.0032 24.139ZM20.2 24.7096C19.5098 24.031 19.1358 24.3086 19.4288 23.5182C20.227 23.8613 19.9185 23.7611 20.2 24.7096ZM60.8057 23.603L61.0834 23.4681C61.1258 23.4488 61.4188 23.2483 61.5306 23.2174L61.28 24.1814L60.2891 23.7264C61.2916 23.0902 60.0269 23.8845 60.8057 23.603ZM22.0932 23.7341C22.2089 23.0131 22.8412 23.2059 23.3733 23.5375C22.9878 23.7842 22.5405 23.923 22.0932 23.7341ZM41.7656 23.3408C41.7888 23.3292 41.4842 22.5619 42.6833 23.5375L43.9673 24.8986L42.4713 24.6634C42.4636 23.8035 42.1859 24.2893 43.0728 24.1235L41.7656 23.3408ZM38.1566 23.3408C38.2029 23.3177 38.2568 23.256 38.2761 23.2483C38.2954 23.2444 38.3841 23.2136 38.3995 23.2097C38.4188 23.2059 38.5113 23.2907 38.5268 23.2483C38.5422 23.1981 38.6077 23.3138 38.6501 23.3408C38.6077 23.3639 38.546 23.4218 38.5268 23.4256C37.5435 23.6801 38.4689 23.5375 38.1566 23.3408ZM61.735 23.4295C61.8969 23.175 61.1489 23.1904 62.3288 23.2097C62.4367 24.0426 62.6874 23.5143 62.19 23.9462C61.7234 24.3587 61.7196 23.9539 61.6849 23.9423L61.735 23.4295ZM64.3839 22.4964C64.3762 22.7046 64.2991 23.3447 64.2952 23.3909C64.2952 23.4102 64.3068 23.4603 64.3068 23.4758L64.3261 23.63C64.3261 23.6377 64.3261 23.738 64.3261 23.7148C64.3261 23.6917 64.3222 23.7804 64.3107 23.8112L63.6706 23.1172C63.231 23.4141 63.2503 23.5336 62.5948 23.5413C62.9843 23.0825 62.8609 23.2213 63.4123 22.9321L63.6822 22.7817C63.7284 22.7586 63.7901 22.7239 63.8326 22.7007C64.1873 22.5311 63.9405 22.6236 64.3839 22.4964ZM23.7859 22.9706C23.6432 22.7933 23.5777 22.7316 23.462 22.6236C23.6895 22.2843 24.3836 22.5696 24.8193 22.9976C24.5609 23.4334 24.7846 23.094 24.264 23.522C24.079 23.3678 24.1869 23.4835 23.9517 23.202C23.9247 23.1712 23.89 23.1172 23.8669 23.0863C23.8399 23.0555 23.8052 23.0015 23.7859 22.9706ZM50.661 22.0183L51.0389 22.2612C51.7561 23.1557 51.0543 21.6597 51.1584 22.5002C51.1623 22.5272 50.8693 22.8241 50.8191 22.8704C50.1019 22.0877 50.5222 22.4424 50.661 22.0183ZM85.2478 21.0119C85.5524 20.8037 85.6951 20.715 86.0923 20.5145C86.0113 20.7227 85.9226 20.9193 85.8262 21.1199C85.7954 21.1815 85.6874 21.3319 85.6681 21.3782C85.5332 21.7098 85.4715 21.3358 85.6951 21.7753C85.3712 21.6327 85.3674 21.6134 85.1707 21.4322L84.7581 22.0067C84.7581 22.0067 84.7389 22.1956 84.6579 22.3884C84.4034 22.2188 84.361 22.7933 84.3109 21.9951C84.28 21.5363 85.082 21.1391 85.2478 21.0119ZM61.974 21.1854C61.9355 21.2085 61.8699 21.2355 61.8468 21.2394C61.8237 21.2471 61.7504 21.2741 61.7234 21.2818C60.9253 21.4746 61.4844 20.9001 60.8867 21.7599L61.1026 20.7728L61.974 21.1854ZM85.2478 21.0119C84.9972 21.035 84.7119 21.0736 84.5461 21.1199L82.4832 20.8808C81.9087 20.7188 82.2904 20.8962 82.0552 20.5955L83.3739 20.3178C83.4047 20.3718 83.4356 20.4412 83.4587 20.4759L83.8019 21.089C84.5653 20.4836 84.014 20.5762 84.8738 20.4605C85.1514 20.7304 85.055 20.2908 85.2478 21.0119ZM22.2166 20.8846C21.322 20.6533 21.3722 20.7728 21.2449 20.0055C21.8541 20.1983 21.3182 19.8474 21.8156 20.2716C22.2359 20.6302 21.9351 20.3294 22.2166 20.8846ZM86.902 20.2022C85.9804 20.6764 86.8056 20.4181 85.9342 20.3178C85.5216 20.2716 85.6835 20.3487 85.3943 20.2022C85.4638 20.0981 85.8956 19.8821 86.0884 19.8821C87.5999 19.8667 86.6861 20.0556 86.902 20.2022ZM37.6283 20.3448C37.5319 19.886 37.0076 19.7857 38.6501 19.5968C38.3957 19.9554 38.681 19.7472 38.1219 20.1405C37.7787 20.3834 38.145 20.2446 37.6283 20.3448ZM72.0378 19.9824C72.0378 19.9824 71.3399 19.8551 72.3154 19.084L72.9593 18.9914C73.0133 19.2768 73.0518 19.4117 72.728 19.8513C72.1534 20.634 72.0455 19.9824 72.0378 19.9824ZM75.2342 16.6509C75.4425 16.9247 75.5273 16.917 75.2342 17.2332C74.7098 16.6972 75.1417 16.7898 75.2342 16.6509ZM74.5942 16.4582C74.625 17.1059 74.6019 16.6818 74.4592 16.9131C74.4129 16.9864 73.8191 17.4722 73.7382 17.5532C73.4528 17.0018 73.7806 17.1214 73.5184 16.6741C73.5531 16.6664 73.6109 16.6779 73.6302 16.6741C73.6456 16.6741 73.7189 16.6779 73.7382 16.6741L74.1777 16.4466C74.2047 16.4157 74.2356 16.3309 74.2549 16.3001C74.278 16.2654 74.305 16.2114 74.3204 16.1227C74.3358 16.0263 74.3551 15.9955 74.3782 15.9299C74.4746 16.1188 74.5672 15.8682 74.5942 16.4582ZM41.3762 16.5121C41.168 17.0057 41.515 16.6162 41.0138 16.9903C40.9868 16.2307 40.6667 16.6625 41.3762 16.5121ZM20.0689 16.9478C19.1242 16.8399 19.7103 17.1561 19.5214 16.4543C20.1884 16.7473 19.7527 16.2731 20.0689 16.9478ZM28.9296 16.4312C29.6853 17.1445 29.7008 16.9286 29.8974 16.9748L30.1557 17.0674C29.3113 17.4067 29.427 17.0558 28.7137 17.2139C28.6944 17.2178 28.4669 17.3219 28.3319 17.3643C27.7921 16.6972 27.5338 17.1021 27.4528 16.9209C27.422 16.8553 27.3256 16.8939 27.2639 16.8707C28.3242 16.007 27.1713 17.2255 28.2163 16.1073L28.0042 15.7795C28.7599 15.6407 28.5633 15.741 29.1532 16.1574L28.9296 16.4312ZM23.6741 14.4878L24.1059 14.3259L24.4028 14.7963L24.6226 15.1665L24.8771 15.3592L24.3489 15.6523L23.836 15.3014C23.8399 15.3438 23.3618 15.1433 23.9749 15.7525C24.1175 15.8913 24.5686 15.8027 24.881 16.4774C24.2602 16.5738 25.2781 16.6625 24.2525 16.5391C23.2153 16.4119 23.6163 16.1034 23.6124 15.6947C22.9415 16.3309 23.4235 15.7063 23.2654 16.1111C22.9955 16.7975 23.4813 15.9415 23.3271 16.3695C23.196 16.7358 23.4852 16.4389 22.552 16.8707C22.552 15.2551 22.7564 15.7641 22.98 14.7539L23.6741 14.4878ZM35.0912 14.9274C34.347 14.7076 34.7943 15.0701 34.4897 14.4647C35.1722 14.6421 34.829 14.2565 35.0912 14.9274ZM69.8669 14.8233C70.1137 14.3683 69.7975 14.3529 70.3875 14.2488C70.6651 15.0276 70.7653 14.6228 69.8669 14.8233ZM41.3993 14.322C41.7965 13.9017 41.9237 13.9634 42.5407 13.9827L42.5869 14.9081C41.6153 14.2179 42.0201 14.6922 41.3993 14.322ZM69.4544 13.7359C69.9595 14.4416 70.0173 14.1909 69.0264 14.376L69.4544 13.7359ZM55.049 12.5252C55.689 12.8298 55.4114 12.344 55.5502 13.173C54.9603 12.8992 55.2688 13.281 55.049 12.5252ZM35.6272 12.9494C35.7351 12.263 35.3958 12.8722 36.1169 12.2013L36.5024 13.1499L35.6272 12.9494ZM73.7382 12.3864C74.224 12.7874 74.0197 12.6178 74.251 13.7128C73.4644 13.439 72.4927 12.6679 73.7382 12.3864ZM25.6945 12.5561C25.8449 12.4944 25.4169 12.0587 26.3616 12.5561C26.0609 12.8183 26.5775 12.6756 25.9876 12.7296L25.6945 12.5561ZM49.7434 12.1011C49.2652 11.8235 49.4966 12.024 49.2807 11.5728C49.8629 11.781 49.6932 11.4571 49.7434 12.1011ZM46.9517 11.7695C46.8399 11.0099 47.1792 11.5805 47.2602 11.754C47.4954 12.2437 46.9594 11.8157 46.9517 11.7695ZM31.995 9.85698C33.0052 10.096 32.4307 9.87626 32.7276 10.4739C31.8986 10.2001 32.1569 10.4585 31.995 9.85698ZM63.0267 9.73745C62.2671 9.43284 62.9419 9.37886 63.0267 9.28246C63.6398 10.1809 63.2041 9.44826 63.0267 9.73745ZM66.8517 9.94566C66.4507 9.7413 66.4314 9.63334 66.3311 9.58321L65.7682 9.41741C65.8569 8.8159 66.844 8.86603 66.8517 9.94566ZM68.768 9.50224L68.0431 8.90844C67.993 8.86988 67.6305 8.67324 67.4994 8.56527L68.0894 8.14113C68.3593 8.73493 68.4865 8.88531 68.768 9.50224ZM56.8265 6.44071C56.5952 7.01138 56.9885 6.78003 56.387 6.83015C56.4795 6.25563 56.1517 6.59109 56.8265 6.44071ZM56.8265 6.44071C56.7957 5.79293 56.8959 6.005 57.0309 5.80065C57.91 5.9703 57.4319 5.60014 57.8869 6.66435L56.8265 6.44071ZM55.103 6.71062L54.2624 5.32638L55.4037 6.08983C55.4191 6.1014 55.4693 6.13996 55.4808 6.14767L55.6119 6.24021C55.6196 6.22093 55.6543 6.26335 55.6698 6.27877L55.103 6.71062ZM49.2961 1.3703C49.7434 1.82529 49.4773 1.5014 49.7009 2.21087C48.9336 2.12219 49.192 2.24172 48.6522 1.96795C48.7794 1.67105 48.602 1.72118 49.2961 1.3703ZM42.132 58.5484C44.2835 59.7244 44.8657 67.7021 44.7501 70.6094C44.7154 71.5387 44.6691 72.2404 44.5804 72.8342C44.0059 76.7132 42.2708 80.7657 38.4188 81.907H62.9419C58.2532 79.5357 56.5219 76.7517 55.9782 73.883C55.4808 71.2649 55.959 67.5363 56.1942 64.7678C56.333 63.1561 56.5913 61.5598 57.3586 60.0753C58.2917 58.2708 59.4947 56.9906 61.6617 56.2117C62.1167 56.0498 63.2889 55.7645 63.7709 56.0305C64.3184 56.339 63.8634 56.6243 63.8557 56.6359C63.6822 56.9019 63.659 56.3081 63.4855 57.3531L64.623 57.6577C64.222 58.5908 64.3261 57.9854 63.7747 58.6371C64.9893 59.4198 63.875 58.4674 64.5382 59.655L65.3826 59.4159C65.8993 58.3363 65.2206 59.3504 66.2232 58.4327L66.4622 58.7874C66.4815 58.8106 66.5471 58.9378 66.5625 58.907C66.5779 58.8761 66.6319 58.9841 66.6666 59.0265C67.4223 58.6101 66.7167 58.745 67.4185 58.4828C67.5419 59.5972 67.4609 58.8684 67.858 59.3003C68.1704 59.6396 68.1357 59.6589 68.3824 59.9673C69.8476 59.3851 69.5662 59.4005 70.0366 57.916C68.3593 57.4302 69.0186 57.7464 67.8272 56.9906C66.4969 56.1462 66.4429 55.4599 68.1549 55.51L73.3102 55.6526L75.242 55.7336C76.3679 55.7066 75.6699 55.5331 76.4989 55.5408C76.7959 55.5408 77.0966 55.6796 77.6171 55.7568L78.1724 55.3403C78.022 55.5601 77.8176 55.8454 77.6326 56.0768C79.1479 56.2426 78.2726 56.2773 78.6544 55.3403L79.599 55.4599C79.6068 55.483 80.1196 56.6089 81.3303 56.1655C81.5501 55.6526 81.4113 55.4329 81.284 54.9779C82.0436 54.9509 81.7236 55.1051 82.4061 54.9547L84.4342 54.7542C85.4213 54.6887 83.9985 54.5962 84.7119 54.7157L84.6733 55.5023C84.6309 55.5216 84.5615 55.5447 84.5306 55.5601L83.8096 55.8917C83.9523 56.9713 84.2029 56.5048 84.8198 56.3428C84.9394 56.5395 84.8931 56.5241 85.055 56.7169L85.7298 57.276L86.474 56.9752L86.7285 57.9083C87.0948 57.3107 86.8711 57.6037 86.929 56.659C88.1513 56.8171 87.168 56.4547 87.9315 57.2258L88.0549 56.8788C89.9404 57.7309 88.2901 58.2129 91.4673 58.4327C90.9622 57.195 90.8581 57.9661 90.0098 57.1294C90.7347 56.1462 91.1241 56.7169 91.4017 56.7708C92.3078 56.9405 91.5213 56.8094 91.9994 56.6667L92.6433 56.4817C92.8361 55.5717 92.3271 55.9496 91.1511 54.4265C90.754 53.906 90.646 54.3224 90.939 53.9908C91.5714 53.4471 91.7025 54.2376 94.1008 53.2929C94.2396 54.2183 94.0661 54.3224 94.9375 54.6463C95.1188 54.3918 95.138 54.6309 95.2036 54.1257C95.273 53.6283 94.9761 53.505 94.7717 52.9921C95.7087 53.2119 95.0609 53.5628 96.0094 53.8366C96.3102 53.3199 96.0287 53.4086 96.1135 52.8456C96.5184 53.4587 96.7151 53.5088 97.0081 54.3532L97.6559 53.852C98.8049 52.7299 97.7638 52.6798 97.4438 52.2248C97.1623 51.8238 97.3937 51.8855 97.0814 51.4189C97.0621 51.4498 97.0467 51.5038 97.0428 51.5153C96.6765 52.4292 96.1097 50.91 96.7189 52.1901C95.5776 51.8354 96.5724 51.9279 95.4966 52.4677C95.3154 52.2094 95.1226 51.9935 94.845 51.6696L93.9928 50.9293C94.845 51.0604 94.2936 51.0334 94.444 50.7635C94.6715 50.4319 94.5944 50.5552 94.6985 50.4319C94.7139 50.4126 94.7833 50.3894 94.7949 50.3278C94.8064 50.2661 94.8643 50.2622 94.899 50.2275C94.5558 48.8587 94.8488 49.1517 95.1535 48.9859L95.3193 49.279C95.8976 50.7827 94.8373 49.5103 96.4799 50.5128L96.8654 49.7571C98.4193 50.2815 98.2882 51.0257 98.3384 51.1722L99.765 52.6914C99.792 52.6567 99.8306 52.6143 99.8537 52.5796C100.17 52.086 100.085 51.5925 100.085 50.991C99.6185 50.5745 99.3602 50.4126 99.0016 49.8149L99.3177 49.7532C99.526 49.7031 99.3524 50.32 99.5838 49.6761C99.5992 49.6221 99.6802 49.6414 99.7612 49.6067L99.3255 48.6389C98.5003 48.5078 97.8718 48.4808 98.296 47.459C97.7638 46.8806 98.0068 46.9308 97.7484 46.0092L97.1161 46.0709C97.0544 45.3036 96.9773 45.5735 96.8886 44.9874H96.0094C95.9786 44.945 95.9439 44.8795 95.9285 44.8525C95.9169 44.8255 95.8745 44.7522 95.8591 44.7214L95.6624 44.3165C94.791 43.8654 95.7318 44.0852 95.0262 43.9001L94.5057 43.7651C94.2319 43.5685 94.4208 43.7189 94.2088 43.4027C94.0738 43.206 93.8039 42.5698 93.7422 42.4811C93.3258 41.8912 93.588 42.2151 92.8284 41.9683C92.8862 41.7601 92.8207 40.8154 92.7397 40.6805L92.5276 39.9132C92.5315 39.3733 92.7127 39.4697 92.2346 39.0302C92.8361 38.8065 92.2153 39.3232 92.6741 38.8991C92.7243 38.8528 92.9402 38.421 93.0366 38.2397C92.5045 38.4826 92.412 38.4711 91.9415 38.6407C91.4711 38.1048 91.4249 38.0739 91.3979 37.3683C90.5496 37.0251 90.3954 36.5933 90.2758 36.1383C89.7244 35.6795 90.0907 36.0226 89.9404 35.6332C87.731 34.7078 88.6525 33.0305 87.2297 32.1012C86.5434 32.4984 86.8403 33.2387 86.6629 32.7914C86.6513 32.7606 86.6166 32.8686 86.5858 32.9071C85.9072 31.8815 86.9675 31.4265 86.7786 30.0075C86.3892 29.433 86.3699 29.6258 86.019 29.1631L85.699 28.6696C85.3674 28.2146 85.6296 28.5616 85.3404 28.2416C85.6026 27.9832 85.6681 28.0102 85.992 27.8868C86.0421 27.2583 85.7105 27.9524 85.884 27.347C86.0653 26.7108 87.0755 26.464 88.0356 27.3894C88.0394 27.3933 88.4212 27.6401 88.4559 27.6593C87.8351 28.0064 88.0125 27.9871 87.8929 28.2416C88.7836 28.5192 88.6063 28.257 89.2502 28.1683C90.4455 27.9948 90.245 28.5616 90.4802 27.6979C90.7925 26.5489 90.8966 27.8907 90.7771 26.7339C90.6614 25.6543 89.8208 26.2905 90.4416 25.2996C89.5586 25.2803 89.3042 25.2996 88.8415 24.6248C88.1705 23.6493 88.8684 23.7804 87.5999 23.765C87.7156 22.8627 87.7888 23.1095 87.1642 22.5581C87.7734 22.2727 88.24 22.855 88.3826 21.6558C88.4597 21.008 88.0857 21.6057 88.4327 21.1237C88.6217 20.8654 88.6795 21.0389 88.8646 20.2022C88.4482 19.7472 88.0163 19.512 87.3493 19.3847C85.0319 19.3115 87.6269 19.3346 86.4663 18.1586C85.9573 17.3604 86.4316 17.7036 85.4985 17.0751C84.4111 16.3348 85.7105 17.2525 84.2029 15.7487C83.2235 15.8335 83.825 15.5867 83.6284 16.0996L81.5617 14.6536C80.2352 15.2744 81.5501 15.0585 80.59 15.4402C80.1736 14.7539 80.6401 14.7346 79.9769 14.5804L80.2044 15.525C79.6762 15.3053 79.3214 15.0007 78.9011 14.5804C78.6505 14.9197 78.9898 14.75 78.2341 14.8657C78.0528 14.6768 78.1608 14.8079 77.9719 14.5341C77.9642 14.5187 77.8948 14.3606 77.7791 14.1678L76.3756 14.0753C77.0735 13.5277 76.3563 13.8246 76.1326 12.826C76.0825 12.8645 76.0285 12.9262 75.99 12.9571L75.562 13.2424C75.4463 13.2964 75.1918 13.3118 75.0492 13.3272L74.9219 12.7064C74.1199 12.6717 74.5788 12.7951 74.1777 12.5561C74.2279 11.8697 74.1315 11.9738 73.715 11.4764C72.9901 11.2104 73.368 11.2451 73.0943 10.4855C72.3501 11.3646 73.3256 11.8736 71.8064 12.4442C71.6059 12.1936 71.6984 12.3787 71.5288 11.97C70.4145 9.24004 70.8694 11.8003 69.9826 9.52152C69.5276 8.36092 68.7989 7.67458 68.2359 6.8263C66.5085 7.18103 66.9442 7.10006 65.9841 5.92789C65.4983 5.33409 64.8968 4.88681 64.0986 4.46653C60.9947 4.4164 61.9509 4.28531 60.9175 6.02043C60.744 5.91247 60.6284 5.87005 60.4317 5.72739C59.514 5.05262 59.6837 3.21724 57.216 4.06938L56.5913 2.97047C55.7199 3.05144 56.1093 3.27893 55.4191 3.06301C55.0181 2.93191 55.1415 2.78924 54.6056 2.63116C53.8305 2.40366 52.9283 2.59645 52.107 2.57717C52.0723 2.53476 52.0337 2.47307 52.0183 2.44222L51.8795 2.15303C51.8602 2.10676 51.8448 2.05278 51.8255 2.00266C51.1777 0.795781 51.1816 0.151857 49.431 0.699385C48.1663 1.10039 48.2627 1.27005 48.1201 2.1646L48.0352 2.38824C46.8746 2.40366 47.8309 2.52319 47.1754 2.17617C46.944 2.05278 46.0765 1.15437 44.8542 2.30727C44.5187 1.53996 44.3336 1.64792 43.2848 1.6325C39.8454 1.57466 39.8069 3.46787 39.1283 3.99997C38.361 4.60148 36.8649 4.06938 35.6734 5.15672C35.0372 5.73124 35.338 5.90861 34.401 6.01657C33.3522 6.13996 33.9807 6.17466 33.0438 6.48698C31.0966 5.25697 30.7765 6.03971 29.6275 6.88028C28.945 7.38154 29.1378 7.48564 28.5479 8.01389C26.5583 7.98305 28.0312 7.69386 25.2396 9.13594C22.9685 10.3081 24.6843 11.5921 23.3155 12.0278C23.0572 12.1088 23.3502 12.0085 22.9723 12.1126C21.3645 12.5599 22.5945 12.4828 21.2603 12.8954C19.2437 13.52 20.3118 14.7616 18.7386 16.7126C17.7747 17.9079 19.1474 16.8784 17.3582 18.4593L17.7593 19.4194C17.1423 19.9168 17.4546 19.296 17.0421 20.0711C16.8493 20.4412 16.8763 20.769 16.7452 21.1546C16.4406 22.0491 15.3571 22.454 15.3571 22.454C15.3301 22.4116 15.253 22.5195 15.2067 22.5581C15.3185 23.5914 15.5229 23.6107 15.6771 24.3703C14.4702 25.369 15.3185 25.8008 14.4394 26.68C14.0075 27.1041 14.0307 27.374 14.5396 27.7673C13.5872 27.5861 14.2813 27.0887 12.9703 27.0655C12.0102 27.0501 11.0964 28.8392 10.5566 29.5487C9.71985 29.3983 10.2018 29.0359 9.27258 28.7698C8.3626 29.4986 8.1968 30.4972 8.86386 31.4188C8.38574 31.6347 8.15824 31.8159 7.68397 32.1437L8.10426 33.5395C7.66084 34.0562 6.68146 34.97 6.5465 35.3479C6.07609 36.6434 6.80099 37.2912 6.49252 38.4248C6.32287 39.0533 6.15321 38.9569 6.06453 39.8129C6.00283 40.3874 6.04525 40.6805 5.85246 41.201C5.54013 42.03 5.27794 42.2382 5.11214 43.1521C5.01574 43.6764 4.70342 43.6379 4.25614 43.8808C3.85514 44.1006 3.72404 44.3666 3.44256 44.8486C2.72538 46.0786 3.01842 45.481 2.03519 46.1326C0.427305 47.1968 1.93493 48.6543 2.40149 49.5489C2.01976 49.9537 2.43619 49.5913 2.03133 49.8766C1.07894 50.2815 0.712636 50.8329 0.997967 51.5192C1.41054 52.5102 2.23954 52.0166 3.71247 52.1438C4.98104 52.2557 4.61088 52.5371 5.14298 53.3623C7.4025 53.5088 6.55422 52.5063 7.48733 51.0565C7.66084 52.1863 7.81122 52.7376 9.23402 52.6721C10.2597 51.4806 9.93192 51.0758 10.3098 49.5604C11.3123 49.8496 11.748 50.7789 12.8739 49.063C13.9574 49.4718 13.595 49.8111 15.3301 49.2674C16.9418 48.7623 20.254 47.0889 21.3953 46.95C21.3992 47.0734 21.376 47.6479 21.376 47.6595C21.5225 48.5502 21.4493 48.0065 21.6961 48.288C22.9531 47.995 22.3554 47.6402 22.6215 46.9578L22.8335 48.7661C23.8592 48.8934 23.7319 48.6273 24.2293 48.2148C24.7075 47.8215 24.881 47.9988 25.2434 47.5554C25.5018 48.4962 25.8681 49.9229 26.9014 50.1889C27.1058 50.2429 28.7021 50.1504 28.7098 50.1465C29.1455 49.9769 28.9412 49.8766 29.1687 49.6067C30.1249 48.4731 29.7316 50.2005 30.7881 51.2609C32.8818 51.0719 31.3164 51.0681 32.6158 50.3509C32.9859 50.4936 33.0977 50.3817 33.3445 51.257C33.68 52.46 33.6414 53.3931 35.7351 53.2466C36.2094 52.7222 36.2402 52.7608 36.3212 51.9626L36.9729 52.3636L37.1155 51.2724C37.8983 51.685 37.7402 51.2184 37.9985 51.9703C37.9484 51.9896 37.879 52.0012 37.8443 52.0127C37.316 52.1631 37.0615 52.0243 36.7145 52.7955C36.4446 53.4008 36.4369 53.6091 36.7029 54.1103C36.8032 54.2993 36.9806 55.1591 36.969 55.348C36.9266 56.0228 37.2003 56.1269 37.4818 56.4817C37.3507 56.6012 38.2607 57.3955 39.2208 57.7965C40.3814 58.2785 41.6808 58.3787 42.132 58.5484Z" fill="#2A452A"/>
</g>
<mask id="mask1_47_1303" style="mask-type:luminance" maskUnits="userSpaceOnUse" x="6" y="81" width="89" height="4">
<path d="M6.08008 81.1089H94.903V84.0008H6.08008V81.1089Z" fill="white"/>
</mask>
<g mask="url(#mask1_47_1303)">
<path fill-rule="evenodd" clip-rule="evenodd" d="M50.4995 84.0007C75.0072 84.0007 94.8763 83.3722 94.8763 82.5934C94.8763 81.8183 75.0072 81.186 50.4995 81.186C25.9919 81.186 6.1228 81.8183 6.1228 82.5934C6.1228 83.3722 25.9919 84.0007 50.4995 84.0007Z" fill="#2A452A"/>
</g>
<path d="M112.725 0.421814L112.725 84.0818" stroke="#2A452A" stroke-width="1.99903"/>
</svg>
