<svg width="139" height="48" viewBox="0 0 139 48" fill="none" xmlns="http://www.w3.org/2000/svg">
<path d="M80.9813 4.95453C80.9439 4.99185 80.9066 4.97209 80.8715 4.97209C80.7968 4.97209 80.7222 4.97209 80.6498 4.99185C80.4654 5.00941 80.281 5.02917 80.0768 5.02917C79.8748 5.04673 79.6904 5.08405 79.506 5.1565L78.9155 5.37822C78.6016 5.47042 78.2876 5.58238 78.011 5.74703C77.5325 6.04339 77.0715 6.33756 76.6829 6.76125L76.2219 7.31446L75.8531 7.72059C75.6884 7.90499 75.5589 8.10915 75.4843 8.34844C75.4491 8.51528 75.3745 8.66236 75.2823 8.79189C75.1528 8.97629 75.0606 9.16069 75.0057 9.36266C74.8586 9.87855 74.7291 10.3944 74.6171 10.9125C74.5996 11.0421 74.582 11.1694 74.5996 11.2989C74.6171 11.4109 74.6369 11.5206 74.6369 11.6501C74.6369 11.9443 74.6544 12.2407 74.6742 12.5348C74.6918 12.8861 74.7664 13.2176 74.8762 13.5491C74.9684 13.863 75.0979 14.1769 75.2077 14.4908C75.2823 14.7477 75.4118 14.9694 75.5413 15.2087C75.5765 15.3009 75.6335 15.3931 75.706 15.4677C75.9453 15.7444 76.167 16.0034 76.426 16.2602L76.6653 16.5193C76.8322 16.741 77.0341 16.9254 77.2932 17.0352C77.4029 17.0901 77.5149 17.1647 77.6247 17.2569C77.8266 17.4237 78.0484 17.5708 78.3074 17.6806C78.4918 17.7552 78.6762 17.8474 78.8408 17.9396C79.3941 18.2162 79.967 18.3458 80.5576 18.4006L81.3501 18.438C81.6815 18.4731 82.0328 18.4731 82.3643 18.4731C82.4192 18.4731 82.4762 18.4555 82.5311 18.4555C82.7155 18.4182 82.8999 18.3809 83.0843 18.3633C83.3609 18.3084 83.6375 18.2887 83.9142 18.1965C84.1732 18.124 84.43 18.0692 84.6518 17.9199C84.7989 17.8474 84.9459 17.7728 85.1128 17.7355C85.2972 17.6806 85.4991 17.6257 85.666 17.5159C85.8131 17.4413 85.9426 17.3491 86.0721 17.2393C86.3114 17.0527 86.4585 16.8135 86.5156 16.5369C86.5507 16.4271 86.5331 16.3151 86.5507 16.2054C86.5704 15.9288 86.588 15.6522 86.5704 15.3755C86.5507 15.3382 86.5507 15.3009 86.5507 15.2658C86.5331 15.1165 86.4958 14.9694 86.5507 14.8223C86.6078 14.6379 86.6078 14.4535 86.6078 14.2494C86.588 13.9728 86.6253 13.6962 86.6802 13.4195C86.7351 13.0705 86.8097 12.7193 86.9766 12.4053L87.0863 12.1485L87.1412 11.9443C87.1412 11.7972 87.1039 11.7226 86.9568 11.705C86.8844 11.6875 86.8097 11.6677 86.7351 11.6677C86.2192 11.6677 85.7033 11.6875 85.1874 11.6501C84.8911 11.6304 84.5969 11.6677 84.3005 11.6677C83.8768 11.6875 83.4334 11.6677 83.0097 11.6677C82.9175 11.6677 82.8253 11.6677 82.7528 11.705C82.6606 11.7226 82.6409 11.7599 82.6233 11.8521C82.6233 11.9268 82.6409 11.9816 82.6606 12.0365C82.7528 12.2407 82.788 12.4426 82.845 12.6446L83.0646 13.4766C83.1019 13.661 83.1217 13.863 83.1392 14.065C83.1941 14.3789 83.1941 14.6752 83.1568 14.9694C83.1217 15.1736 83.1019 15.358 83.1217 15.5599C83.1392 15.7268 83.1392 15.8914 83.1392 16.0583C83.1392 16.2976 83.047 16.4271 82.8077 16.4995C82.4938 16.5742 82.1623 16.6291 81.8308 16.6488C81.6815 16.6664 81.552 16.6488 81.4247 16.6291C81.2579 16.6115 81.1108 16.5917 80.9637 16.5369C80.63 16.3898 80.3183 16.2427 80.0417 16.0385C79.9297 15.9661 79.8375 15.8739 79.7453 15.7619L79.3589 15.3009C79.045 14.9145 78.8408 14.4711 78.7311 13.9728C78.6938 13.7708 78.6564 13.5864 78.584 13.402C78.5642 13.3098 78.5467 13.2351 78.5094 13.1429C78.4172 12.7017 78.4172 12.2582 78.3798 11.8148C78.3798 11.6875 78.3996 11.5382 78.3996 11.4109C78.3996 11.0596 78.4545 10.7281 78.5094 10.3944C78.5642 10.0827 78.6938 9.78635 78.7684 9.49218C78.8408 9.23314 78.9528 8.99385 79.0077 8.75457C79.0626 8.55041 79.1745 8.38576 79.3019 8.25624C79.4687 8.0894 79.6158 7.90499 79.7453 7.70303C79.8002 7.59107 79.8924 7.49886 80.0044 7.42642C80.2985 7.2047 80.63 7.05761 80.9813 6.92809C81.1283 6.87321 81.2754 6.85345 81.4423 6.85345H82.1799C82.3094 6.85345 82.4389 6.87321 82.5487 6.91053C82.788 6.98297 83.0295 7.09493 83.249 7.16738C83.4158 7.22226 83.5827 7.2969 83.71 7.3891L83.9888 7.59107C84.5222 7.95987 84.9833 8.40332 85.3521 8.95653C85.3894 9.01141 85.4267 9.04873 85.4816 9.08605C85.6287 9.19582 85.7209 9.16069 85.7406 8.97629V8.95653C85.7582 8.77213 85.7582 8.60748 85.7209 8.42308C85.6836 8.23648 85.6484 8.07183 85.666 7.88743C85.6836 7.72059 85.6836 7.55594 85.6836 7.40666C85.666 7.09493 85.6287 6.79857 85.6287 6.5044C85.6484 6.22779 85.6287 5.93143 85.6287 5.65482C85.6287 5.58238 85.6287 5.50774 85.6111 5.4331C85.5914 5.30577 85.5189 5.28602 85.4267 5.3409L85.2225 5.50774C85.0755 5.63726 84.9108 5.70971 84.7067 5.72946C84.5222 5.74703 84.3378 5.74703 84.1534 5.72946C83.9317 5.70971 83.71 5.63726 83.5256 5.5253C83.4158 5.45286 83.3061 5.39798 83.1941 5.3409C82.9373 5.2487 82.6409 5.19381 82.384 5.13893C82.0701 5.06429 81.7562 5.04673 81.4598 4.99185C81.3501 4.97209 81.2403 4.99185 81.1481 4.95453H80.9813Z" fill="white"/>
<path d="M100.362 18.1965C100.602 18.1965 100.843 18.1965 101.082 18.2163C101.137 18.2163 101.212 18.1965 101.267 18.1789C101.339 18.1416 101.359 18.1043 101.322 18.0319C101.304 17.9572 101.267 17.9023 101.229 17.865C101.12 17.7355 101.008 17.6082 100.878 17.4962C100.694 17.3316 100.529 17.1274 100.4 16.9254C100.307 16.7586 100.178 16.5918 100.048 16.4447C99.9386 16.2976 99.8464 16.1681 99.7717 16.0034C99.6422 15.6522 99.4578 15.3207 99.2932 14.9892C99.1812 14.8026 99.0714 14.6379 99.0341 14.4535C98.9792 14.2143 98.8695 14.0101 98.7399 13.7884C98.6477 13.6237 98.5731 13.4393 98.5555 13.2352C98.5555 12.941 98.6653 12.7017 98.8321 12.4602C98.9046 12.3505 98.9968 12.2407 99.0714 12.1112C99.1812 11.9268 99.3107 11.7424 99.4402 11.558C99.5698 11.3911 99.6993 11.2067 99.7915 11.0223L100.123 10.1925C100.16 10.0827 100.198 9.97077 100.215 9.86101C100.252 9.6766 100.27 9.4922 100.29 9.30779C100.307 9.06851 100.27 8.84678 100.252 8.6075C100.252 8.47798 100.215 8.34845 100.16 8.21893C100.068 8.05209 99.9935 7.86769 99.9188 7.68328L99.7717 7.33423C99.6071 7.03787 99.4029 6.76126 99.1812 6.48466C99.0166 6.26513 98.8124 6.07853 98.5731 5.96877C98.5358 5.96877 98.5007 5.9512 98.4809 5.93145C97.965 5.63728 97.4491 5.39799 96.8586 5.32335C96.6193 5.28603 96.3778 5.26847 96.1583 5.30579C95.9541 5.32335 95.7324 5.32335 95.5304 5.30579C95.3087 5.26847 95.087 5.26847 94.885 5.28603C94.6633 5.32335 94.4613 5.32335 94.2396 5.26847C94.1474 5.24871 94.0355 5.23115 93.9432 5.24871C93.704 5.24871 93.4647 5.30579 93.2254 5.28603C93.2056 5.28603 93.1881 5.30579 93.1881 5.30579C92.9839 5.32335 92.7644 5.32335 92.5602 5.30579C92.3956 5.28603 92.2112 5.26847 92.0443 5.26847H91.1596C90.9006 5.24871 90.6789 5.21359 90.422 5.23115L89.9237 5.28603C89.6646 5.34091 89.6098 5.43312 89.6844 5.6746C89.8117 6.04341 89.8864 6.41221 89.961 6.78102C90.0334 7.13007 90.0532 7.48132 90.1454 7.83256C90.1805 7.99721 90.163 8.18161 90.163 8.34846C90.1454 8.55042 90.1081 8.75458 90.1256 8.95655C90.163 9.17827 90.163 9.4 90.163 9.63928C90.163 9.86101 90.2003 10.1003 90.163 10.3396C90.1454 10.4318 90.1256 10.5064 90.1256 10.5986C90.1454 10.985 90.1454 11.3911 90.1454 11.7797C90.1454 11.9817 90.1454 12.1836 90.1256 12.3878C90.1081 12.5173 90.0883 12.6446 90.1081 12.7741C90.1081 12.8861 90.1256 13.0156 90.1256 13.1254C90.1454 13.2176 90.163 13.3098 90.1454 13.402C90.1256 13.5491 90.1454 13.6962 90.1454 13.8454C90.1256 13.9925 90.1454 14.1572 90.1256 14.3065C90.0883 14.5084 90.0708 14.7104 90.1081 14.897C90.163 15.3009 90.1454 15.6895 90.1081 16.0759C90.0532 16.6115 89.8864 17.1098 89.7195 17.6257L89.6098 17.9397C89.5922 18.0692 89.6471 18.1416 89.7766 18.1789C89.8864 18.2163 89.9961 18.2163 90.1081 18.1965C90.3474 18.1789 90.6064 18.1789 90.8457 18.1965C91.0301 18.2163 91.2145 18.2163 91.3989 18.1965C91.5833 18.1789 91.7677 18.1614 91.9521 18.1614C92.0619 18.1789 92.1541 18.1789 92.2661 18.1789H93.4449C93.5744 18.1789 93.704 18.1614 93.8335 18.1614C93.8708 18.1614 93.9257 18.1416 93.9806 18.1241C94.0925 18.0867 94.1277 18.0121 94.0925 17.9199C94.0925 17.8277 94.0552 17.7355 94.0179 17.663L93.851 17.2394C93.704 16.9057 93.6315 16.5742 93.5744 16.2054C93.5569 16.021 93.5569 15.819 93.5569 15.6148C93.5744 15.4129 93.5744 15.2285 93.5569 15.0243C93.5569 14.8399 93.5393 14.6555 93.5744 14.4711C93.5942 14.3065 93.5942 14.1221 93.5744 13.9552C93.5569 13.7708 93.5569 13.5688 93.5569 13.3647C93.5744 13.2 93.6491 13.0705 93.851 13.0508C94.0728 13.0156 94.2945 13.0156 94.5162 13.0332C94.6084 13.0508 94.6809 13.0705 94.7555 13.1078C94.8653 13.1803 94.9026 13.2922 94.9575 13.402C95.0321 13.5688 95.1068 13.7335 95.2341 13.8806C95.3636 14.0474 95.4756 14.2494 95.5304 14.4711C95.5853 14.6753 95.6775 14.8597 95.7697 15.0243C95.8992 15.2285 96.009 15.4304 96.0463 15.6697C96.0661 15.7619 96.1012 15.8541 96.1385 15.9463C96.2132 16.1307 96.3054 16.3151 96.3603 16.5369C96.4349 16.9254 96.5271 17.3118 96.582 17.7179C96.5995 17.977 96.7115 18.0867 96.9684 18.1241C97.043 18.1416 97.1352 18.1614 97.2274 18.1614C97.6686 18.1789 98.1121 18.1416 98.5555 18.1416H98.887C99.0166 18.1241 99.1461 18.1241 99.2558 18.1416C99.4578 18.1965 99.6795 18.2163 99.8837 18.2163C100.048 18.1965 100.198 18.1965 100.362 18.1965ZM93.5744 10.1179C93.6118 9.82369 93.5569 9.50976 93.5569 9.17827C93.5569 9.03119 93.5744 8.90167 93.5942 8.77215C93.6118 8.47798 93.5942 8.20137 93.5942 7.92477C93.5744 7.68328 93.5942 7.444 93.704 7.22227C93.7786 7.07519 93.8884 7.00275 94.0552 6.98299C94.4043 6.94567 94.7379 6.98299 95.087 6.96543C95.2165 6.96543 95.346 6.96543 95.4756 7.00275C95.6973 7.07519 95.8619 7.20471 95.9915 7.38912C96.1934 7.6284 96.3229 7.90501 96.3778 8.21893L96.5073 9.03119C96.5271 9.21559 96.4898 9.38024 96.4898 9.54708C96.4349 10.0454 96.2307 10.4867 95.9739 10.9125C95.807 11.2265 95.5304 11.3736 95.1616 11.3736C94.9772 11.3736 94.7928 11.3362 94.6084 11.3187H94.0179C93.8159 11.3187 93.7237 11.2616 93.6666 11.0772C93.6118 10.9301 93.5744 10.7655 93.5744 10.5986V10.1179Z" fill="white"/>
<path d="M107.848 7.6284C107.848 7.51863 107.866 7.42643 107.903 7.31447C107.958 7.14982 108.068 7.0203 108.252 7.00274C108.345 6.98298 108.437 6.96542 108.549 6.96542C108.806 6.96542 109.082 6.98298 109.341 6.94566C109.471 6.9281 109.6 6.94566 109.728 6.94566C109.987 6.96542 110.263 7.0203 110.522 7.03786C110.744 7.03786 110.946 7.1125 111.13 7.22227L111.425 7.37155C111.591 7.44399 111.738 7.53619 111.886 7.6284C112.015 7.7206 112.127 7.8128 112.219 7.92476C112.441 8.14429 112.66 8.34845 112.865 8.58773C112.919 8.67994 112.994 8.75458 113.067 8.82702C113.086 8.86434 113.121 8.90166 113.159 8.8841C113.214 8.8841 113.214 8.82702 113.214 8.7919V8.60749C113.196 8.33089 113.179 8.05209 113.179 7.77548C113.196 7.57351 113.179 7.35179 113.141 7.14982L113.067 6.63393C113.067 6.50441 113.049 6.35733 113.012 6.20805C112.957 6.02364 112.865 5.859 112.698 5.72947C112.606 5.67459 112.513 5.59995 112.404 5.54507C112.257 5.47043 112.107 5.41555 111.943 5.39799C111.666 5.36067 111.37 5.34091 111.093 5.34091C110.816 5.32335 110.522 5.30578 110.226 5.30578H109.785C109.563 5.26846 109.341 5.26846 109.139 5.28603C108.917 5.30578 108.696 5.30578 108.474 5.26846C108.29 5.24871 108.105 5.23114 107.921 5.24871C107.811 5.26846 107.699 5.28603 107.589 5.28603H106.52L105.726 5.24871C105.541 5.23114 105.357 5.23114 105.172 5.24871C104.915 5.28603 104.674 5.28603 104.435 5.28603C104.325 5.28603 104.213 5.30578 104.103 5.34091C103.993 5.39799 103.919 5.47043 103.919 5.59995C103.919 5.70972 103.936 5.80192 103.974 5.89412L104.158 6.37489C104.343 6.91054 104.417 7.46375 104.435 8.03452V8.95654C104.38 9.36267 104.38 9.7688 104.38 10.1749C104.362 10.3945 104.397 10.6359 104.397 10.8577V10.9125C104.454 11.2067 104.454 11.5031 104.397 11.7972C104.38 11.8346 104.38 11.8719 104.38 11.907C104.38 12.8861 104.397 13.8806 104.38 14.8772C104.38 15.2285 104.397 15.5973 104.362 15.9463C104.343 16.1878 104.325 16.4073 104.288 16.6291C104.25 16.9057 104.158 17.1647 104.029 17.404C103.956 17.5335 103.919 17.6806 103.919 17.8474C103.936 17.9396 103.974 18.0121 104.048 18.0692C104.178 18.1416 104.305 18.1614 104.454 18.1614C104.731 18.1241 104.988 18.1241 105.265 18.1614C105.431 18.1965 105.578 18.2163 105.745 18.1965C105.985 18.1614 106.224 18.1241 106.483 18.1416C106.722 18.1416 106.981 18.1241 107.238 18.1614C107.46 18.1789 107.682 18.1614 107.921 18.1614C108.143 18.1614 108.364 18.1416 108.586 18.1614C108.751 18.1789 108.917 18.1965 109.082 18.1965C109.396 18.1965 109.71 18.1789 110.041 18.1789C110.283 18.1789 110.522 18.1789 110.762 18.1416C110.891 18.1241 111.038 18.1043 111.168 18.1241C111.389 18.1416 111.609 18.1416 111.813 18.1043C112.09 18.0494 112.349 17.977 112.625 17.9572C112.919 17.9199 113.141 17.7728 113.288 17.516C113.363 17.3864 113.398 17.2394 113.435 17.1098C113.51 16.7213 113.473 16.3525 113.51 15.9661C113.547 15.7444 113.547 15.5226 113.565 15.3009C113.582 15.0989 113.602 14.897 113.602 14.7104C113.602 14.6555 113.62 14.5633 113.547 14.5457C113.473 14.526 113.435 14.6006 113.418 14.6379C113.214 14.897 112.994 15.1538 112.772 15.3756C112.384 15.7619 111.905 16.0385 111.407 16.2603C111.038 16.4073 110.652 16.4447 110.246 16.482C109.894 16.4995 109.526 16.4447 109.157 16.4447H109.119C108.898 16.4073 108.678 16.4447 108.456 16.4644C108.197 16.4995 107.995 16.3898 107.903 16.1505C107.866 16.0385 107.829 15.9288 107.829 15.819C107.829 15.4678 107.811 15.1165 107.866 14.7675C107.903 14.6006 107.884 14.4535 107.866 14.3065C107.791 13.9925 107.791 13.6786 107.903 13.3844C107.958 13.2 107.976 13.0156 108.05 12.8312C108.125 12.6271 108.272 12.5524 108.494 12.5897C108.621 12.6271 108.77 12.6819 108.898 12.739C109.396 12.9037 109.857 13.1254 110.301 13.402C110.355 13.4393 110.41 13.4766 110.467 13.4942C110.56 13.5315 110.614 13.4942 110.632 13.402C110.669 13.2922 110.687 13.1803 110.669 13.0507L110.632 12.48C110.614 12.3329 110.632 12.166 110.652 12.019C110.669 11.6875 110.652 11.3538 110.669 11.0421C110.687 10.7457 110.669 10.4691 110.669 10.1925C110.669 10.1178 110.669 10.063 110.652 10.0081C110.614 9.93344 110.56 9.89832 110.485 9.91588L110.355 9.97076C110.024 10.1925 109.71 10.3769 109.359 10.5437C109.102 10.6733 108.825 10.783 108.529 10.8379C108.272 10.8928 108.125 10.8203 108.033 10.5613C107.921 10.2671 107.903 9.93344 107.884 9.62171C107.866 9.34511 107.829 9.08606 107.848 8.80946V7.6284Z" fill="white"/>
<path d="M119.779 7.6284C119.779 7.51863 119.796 7.42643 119.834 7.31447C119.888 7.14982 119.998 7.0203 120.183 7.00274C120.275 6.98298 120.367 6.96542 120.479 6.96542C120.736 6.96542 121.012 6.98298 121.271 6.94566C121.401 6.9281 121.531 6.94566 121.658 6.94566C121.917 6.96542 122.193 7.0203 122.453 7.03786C122.674 7.03786 122.876 7.1125 123.061 7.22227L123.355 7.37155C123.522 7.44399 123.669 7.53619 123.816 7.6284C123.945 7.7206 124.057 7.8128 124.149 7.92476C124.371 8.14429 124.591 8.34845 124.795 8.58773C124.85 8.67994 124.924 8.75458 124.997 8.82702C125.017 8.86434 125.052 8.90166 125.089 8.8841C125.144 8.8841 125.144 8.82702 125.144 8.7919V8.60749C125.126 8.33089 125.109 8.05209 125.109 7.77548C125.126 7.57351 125.109 7.35179 125.072 7.14982L124.997 6.63393C124.997 6.50441 124.979 6.35733 124.942 6.20805C124.887 6.02364 124.795 5.859 124.628 5.72947C124.536 5.67459 124.444 5.59995 124.334 5.54507C124.187 5.47043 124.038 5.41555 123.873 5.39799C123.596 5.36067 123.3 5.34091 123.023 5.34091C122.747 5.32335 122.453 5.30578 122.156 5.30578H121.715C121.493 5.26846 121.271 5.26846 121.07 5.28603C120.848 5.30578 120.626 5.30578 120.404 5.26846C120.22 5.24871 120.036 5.23114 119.851 5.24871C119.741 5.26846 119.629 5.28603 119.52 5.28603H118.451L117.656 5.24871C117.471 5.23114 117.287 5.23114 117.103 5.24871C116.846 5.28603 116.604 5.28603 116.365 5.28603C116.255 5.28603 116.143 5.30578 116.034 5.34091C115.924 5.39799 115.849 5.47043 115.849 5.59995C115.849 5.70972 115.867 5.80192 115.904 5.89412L116.088 6.37489C116.273 6.91054 116.347 7.46375 116.365 8.03452V8.95654C116.31 9.36267 116.31 9.7688 116.31 10.1749C116.293 10.3945 116.328 10.6359 116.328 10.8577V10.9125C116.385 11.2067 116.385 11.5031 116.328 11.7972C116.31 11.8346 116.31 11.8719 116.31 11.907C116.31 12.8861 116.328 13.8806 116.31 14.8772C116.31 15.2285 116.328 15.5973 116.293 15.9463C116.273 16.1878 116.255 16.4073 116.218 16.6291C116.181 16.9057 116.088 17.1647 115.959 17.404C115.886 17.5335 115.849 17.6806 115.849 17.8474C115.867 17.9396 115.904 18.0121 115.979 18.0692C116.108 18.1416 116.235 18.1614 116.385 18.1614C116.661 18.1241 116.918 18.1241 117.195 18.1614C117.362 18.1965 117.509 18.2163 117.676 18.1965C117.915 18.1614 118.154 18.1241 118.413 18.1416C118.652 18.1416 118.912 18.1241 119.168 18.1614C119.39 18.1789 119.612 18.1614 119.851 18.1614C120.073 18.1614 120.295 18.1416 120.516 18.1614C120.681 18.1789 120.848 18.1965 121.012 18.1965C121.326 18.1965 121.64 18.1789 121.972 18.1789C122.213 18.1789 122.453 18.1789 122.692 18.1416C122.821 18.1241 122.968 18.1043 123.098 18.1241C123.32 18.1416 123.539 18.1416 123.743 18.1043C124.02 18.0494 124.279 17.977 124.556 17.9572C124.85 17.9199 125.072 17.7728 125.219 17.516C125.293 17.3864 125.328 17.2394 125.366 17.1098C125.44 16.7213 125.403 16.3525 125.44 15.9661C125.478 15.7444 125.478 15.5226 125.495 15.3009C125.513 15.0989 125.533 14.897 125.533 14.7104C125.533 14.6555 125.55 14.5633 125.478 14.5457C125.403 14.526 125.366 14.6006 125.348 14.6379C125.144 14.897 124.924 15.1538 124.703 15.3756C124.314 15.7619 123.836 16.0385 123.337 16.2603C122.968 16.4073 122.582 16.4447 122.176 16.482C121.825 16.4995 121.456 16.4447 121.087 16.4447H121.05C120.828 16.4073 120.608 16.4447 120.387 16.4644C120.128 16.4995 119.926 16.3898 119.834 16.1505C119.796 16.0385 119.759 15.9288 119.759 15.819C119.759 15.4678 119.741 15.1165 119.796 14.7675C119.834 14.6006 119.814 14.4535 119.796 14.3065C119.722 13.9925 119.722 13.6786 119.834 13.3844C119.888 13.2 119.906 13.0156 119.981 12.8312C120.055 12.6271 120.202 12.5524 120.424 12.5897C120.551 12.6271 120.701 12.6819 120.828 12.739C121.326 12.9037 121.787 13.1254 122.231 13.402C122.286 13.4393 122.341 13.4766 122.398 13.4942C122.49 13.5315 122.545 13.4942 122.562 13.402C122.6 13.2922 122.617 13.1803 122.6 13.0507L122.562 12.48C122.545 12.3329 122.562 12.166 122.582 12.019C122.6 11.6875 122.582 11.3538 122.6 11.0421C122.617 10.7457 122.6 10.4691 122.6 10.1925C122.6 10.1178 122.6 10.063 122.582 10.0081C122.545 9.93344 122.49 9.89832 122.415 9.91588L122.286 9.97076C121.954 10.1925 121.64 10.3769 121.289 10.5437C121.032 10.6733 120.756 10.783 120.459 10.8379C120.202 10.8928 120.055 10.8203 119.963 10.5613C119.851 10.2671 119.834 9.93344 119.814 9.62171C119.796 9.34511 119.759 9.08606 119.779 8.80946V7.6284Z" fill="white"/>
<path d="M136.927 5.26851C136.688 5.24875 136.449 5.26851 136.209 5.30583C136.172 5.30583 136.117 5.30583 136.08 5.32339C135.988 5.36071 135.968 5.39803 135.988 5.49023C135.988 5.52536 136.005 5.56268 136.025 5.58243C136.08 5.74708 136.152 5.8766 136.209 6.02369C136.337 6.28273 136.429 6.54177 136.449 6.81838C136.466 7.07523 136.503 7.33427 136.541 7.59112C136.596 7.85016 136.613 8.12677 136.578 8.40337C136.541 8.55046 136.541 8.69974 136.558 8.84682C136.578 9.08611 136.613 9.32539 136.613 9.56468C136.596 9.97081 136.613 10.3945 136.613 10.8006C136.613 10.8577 136.613 10.8928 136.596 10.9499C136.541 11.2441 136.541 11.558 136.541 11.8522C136.541 12.0563 136.541 12.2583 136.486 12.4603C136.486 12.5349 136.466 12.6095 136.394 12.6447C136.319 12.6644 136.264 12.6095 136.209 12.5525C136.025 12.3505 135.876 12.1288 135.729 11.8895C135.544 11.558 135.342 11.2441 135.138 10.9301L134.789 10.4318C134.585 10.0454 134.363 9.65688 134.144 9.28807C133.994 9.03123 133.847 8.77218 133.663 8.5329C133.369 8.16409 133.127 7.77552 132.908 7.35183C132.796 7.13011 132.666 6.92814 132.501 6.72618L132.225 6.35737C132.04 6.13564 131.856 5.91392 131.634 5.70976C131.45 5.56268 131.228 5.45291 130.989 5.39803C130.822 5.36071 130.657 5.34095 130.491 5.32339C130.232 5.28607 129.992 5.26851 129.735 5.28607C129.569 5.30583 129.384 5.32339 129.217 5.32339C129.108 5.34095 129.015 5.30583 128.903 5.30583C128.647 5.30583 128.407 5.28607 128.148 5.26851C127.981 5.24875 127.834 5.24875 127.67 5.26851C127.52 5.28607 127.465 5.36071 127.503 5.49023C127.52 5.56268 127.54 5.63732 127.577 5.70976L127.67 5.98637C127.742 6.26517 127.817 6.54177 127.926 6.81838C127.981 6.94571 128.019 7.11255 128.038 7.25963L128.093 7.68332C128.111 7.9248 128.111 8.14433 128.074 8.38581C128.038 8.49558 128.038 8.60754 128.038 8.7173C128.038 8.82706 128.056 8.93902 128.056 9.06855C128.056 9.28807 128.074 9.5098 128.038 9.73152C128.001 10.0257 128.019 10.3023 128.019 10.5811C128.019 10.7457 128.038 10.9126 128.056 11.0772C128.093 11.2068 128.093 11.3187 128.093 11.446V11.9444C128.093 12.1112 128.074 12.2583 128.056 12.4251C128.019 12.5722 128.001 12.7193 128.019 12.8664C128.056 13.0881 128.093 13.3274 128.074 13.5689C128.074 13.604 128.074 13.6413 128.093 13.6786C128.111 13.9179 128.111 14.177 128.074 14.4163C128.056 14.5458 128.038 14.6753 128.038 14.8026C128.038 14.9322 128.056 15.0617 128.056 15.2088C128.056 15.4854 128.038 15.7817 128.019 16.0583C127.964 16.5567 127.854 17.0352 127.632 17.4962C127.558 17.6433 127.485 17.7926 127.448 17.9573C127.428 18.0495 127.465 18.1043 127.558 18.1417C127.577 18.1417 127.595 18.1614 127.632 18.1614C127.817 18.1614 128.019 18.2163 128.223 18.1965C128.333 18.1965 128.425 18.1965 128.517 18.179C128.756 18.179 128.996 18.1614 129.217 18.1614H129.292C129.569 18.1241 129.828 18.1417 130.104 18.179C130.177 18.179 130.269 18.1965 130.361 18.179C130.508 18.1417 130.545 18.0868 130.508 17.9397L130.473 17.8475C130.436 17.7553 130.398 17.6433 130.343 17.5511C130.232 17.3316 130.122 17.0901 130.067 16.8333C129.992 16.5918 129.937 16.3525 129.92 16.0957V15.3383C129.937 15.1166 129.955 14.897 129.92 14.6753C129.92 14.526 129.882 14.3614 129.9 14.2143C129.9 14.065 129.9 13.9179 129.92 13.7708V13.2176C129.92 13.0332 129.92 12.8313 129.882 12.6271C129.845 12.4427 129.845 12.2583 129.882 12.0739C129.92 11.8719 129.955 11.6678 129.937 11.4834C129.9 11.1519 129.92 10.8204 129.937 10.5065C129.955 10.4143 129.975 10.3221 130.012 10.2474C130.047 10.1376 130.104 10.1179 130.214 10.175C130.251 10.2101 130.289 10.2299 130.306 10.2672L130.565 10.5065C130.693 10.636 130.804 10.7831 130.897 10.9301C131.081 11.2265 131.265 11.5207 131.413 11.8346C131.56 12.1288 131.764 12.3505 131.928 12.6271C132.058 12.8488 132.242 13.0508 132.335 13.3098C132.389 13.4394 132.427 13.5689 132.519 13.6786C132.703 13.9728 132.888 14.2867 133.092 14.5633C133.184 14.6929 133.276 14.8399 133.331 14.9892C133.423 15.1912 133.533 15.3932 133.663 15.56C133.922 15.9112 134.106 16.2801 134.328 16.6291C134.493 16.8881 134.64 17.1472 134.861 17.3316C134.991 17.4238 135.101 17.5511 135.193 17.6631L135.377 17.8848C135.507 17.9946 135.654 18.0495 135.821 18.0692C135.95 18.1043 136.08 18.0868 136.209 18.1043C136.466 18.1417 136.725 18.179 136.982 18.1614C137.019 18.1614 137.057 18.1614 137.094 18.179C137.259 18.1965 137.443 18.179 137.61 18.1417C137.904 18.0692 138.088 17.8848 138.183 17.5709C138.255 17.2943 138.293 17.0177 138.367 16.7411C138.402 16.6291 138.422 16.5193 138.402 16.4074C138.385 16.1308 138.367 15.8542 138.385 15.5776C138.385 14.9892 138.367 14.4163 138.385 13.8257C138.422 13.1803 138.367 12.5349 138.44 11.8895V11.6129C138.402 11.4109 138.422 11.2068 138.422 11.0048C138.44 10.7831 138.459 10.5613 138.422 10.3396C138.367 10.1003 138.367 9.84129 138.422 9.602C138.459 9.47248 138.477 9.36271 138.459 9.23319C138.422 9.01147 138.385 8.77218 138.402 8.55046V8.20141C138.402 8.03457 138.402 7.85016 138.44 7.68332L138.514 6.9457C138.514 6.72618 138.552 6.4847 138.644 6.26517L138.901 5.6922C138.92 5.6 138.975 5.52536 138.975 5.45291C138.975 5.36071 138.956 5.34095 138.883 5.30583L138.699 5.26851C138.422 5.23119 138.146 5.23119 137.869 5.24875C137.739 5.26851 137.592 5.28607 137.443 5.28607C137.278 5.26851 137.094 5.26851 136.927 5.26851Z" fill="white"/>
<path d="M85.8252 37.6101C85.8603 37.8121 85.9174 38.0338 85.8976 38.2358C85.8976 38.4026 85.9174 38.5694 85.935 38.7341C86.0096 39.0678 86.1369 39.3619 86.2291 39.6759C86.3235 39.9152 86.4333 40.1544 86.5628 40.3762C86.6353 40.4859 86.7099 40.6154 86.7472 40.7647C86.8394 41.0765 87.0238 41.3179 87.2082 41.5748C87.3926 41.8338 87.6319 42.0182 87.8339 42.2575C88.1851 42.6263 88.5913 42.9578 89.0523 43.2169C89.5506 43.4935 90.0489 43.7525 90.5824 43.8996C90.8041 43.9545 91.0258 44.0291 91.2651 44.0642C91.6339 44.1213 92.0027 44.1389 92.3913 44.1564C92.6481 44.1564 92.9247 44.1564 93.2014 44.1213C93.5153 44.084 93.8292 44.0291 94.1431 43.9545C94.6415 43.8623 95.1025 43.7152 95.5086 43.4013C95.6008 43.3266 95.7281 43.2717 95.8576 43.2169C96.0794 43.1247 96.2813 43.0149 96.4482 42.8305C96.5777 42.701 96.7248 42.5714 96.8719 42.4595C97.1485 42.2575 97.39 42.0182 97.6095 41.7789C97.6841 41.7043 97.739 41.6494 97.7763 41.5572C97.9234 41.2609 98.1276 40.9667 98.312 40.6901L98.4766 40.3762C98.6435 39.9898 98.773 39.6012 98.9003 39.1951C99.0123 38.846 99.0847 38.4772 99.122 38.1084C99.122 37.9965 99.122 37.8669 99.1418 37.7572C99.1594 37.5728 99.1594 37.4059 99.1418 37.2413L99.0672 36.7254C99.0496 36.4488 99.0123 36.17 98.9376 35.8934C98.8827 35.6541 98.8081 35.4148 98.7357 35.1755C98.6435 34.7694 98.4964 34.383 98.2747 34.0318C98.1627 33.8649 98.0354 33.7179 97.9607 33.551C97.7939 33.2393 97.5919 32.9627 97.3153 32.741L97.1309 32.5368C96.9641 32.3524 96.7797 32.168 96.5579 32.0407C96.0618 31.6894 95.5262 31.3931 94.9729 31.1538C94.7337 31.044 94.4746 30.932 94.2156 30.8969C93.9038 30.8596 93.6075 30.785 93.3309 30.6752C93.1838 30.6379 93.0367 30.6203 92.8896 30.6554C92.6481 30.6928 92.4089 30.6928 92.1871 30.6752C92.0225 30.6554 91.8556 30.6752 91.7086 30.6928C91.4693 30.7301 91.2475 30.785 91.0258 30.8398C90.6197 30.932 90.2136 31.0616 89.8272 31.2284C89.5308 31.3755 89.2542 31.5423 88.9776 31.6697C88.7932 31.7619 88.6286 31.9111 88.4793 32.0407C88.352 32.168 88.2027 32.2975 88.0556 32.4095C87.9261 32.5368 87.779 32.6663 87.6692 32.7958C87.2631 33.2942 86.8943 33.7925 86.5804 34.3457C86.4333 34.6223 86.2862 34.9165 86.2116 35.2129L86.1369 35.4895C86.0272 35.8583 85.9525 36.2271 85.935 36.6134C85.9174 36.8176 85.8801 37.0371 85.8252 37.2215V37.6101ZM95.3966 37.3511C95.4164 37.5179 95.3966 37.6474 95.3593 37.7747C95.2869 37.9965 95.2869 38.2358 95.3044 38.4575C95.3044 38.7165 95.2671 38.9558 95.1749 39.1775C95.12 39.3619 95.0651 39.5639 95.0278 39.7681C94.861 40.3213 94.6217 40.8372 94.2529 41.2982C94.1058 41.4826 93.9587 41.667 93.7743 41.8338C93.5702 42.0182 93.3133 42.128 93.0543 42.2202C92.8896 42.2751 92.7228 42.3322 92.5384 42.3497C92.1696 42.3497 91.8381 42.24 91.5242 42.0556C91.0807 41.7965 90.7492 41.4277 90.5099 40.9667C90.196 40.4135 89.9918 39.8405 89.8272 39.2324C89.735 38.8834 89.6801 38.5146 89.623 38.1436C89.6055 37.924 89.6604 37.7023 89.6801 37.4981V37.3137C89.6604 37.2589 89.6604 37.204 89.6604 37.1491C89.6604 37.0569 89.6428 36.9823 89.6428 36.9098C89.623 36.7605 89.6604 36.6332 89.6801 36.5037C89.7526 36.1524 89.7899 35.8209 89.8821 35.4697C89.937 35.2129 90.0116 34.9538 90.1214 34.6948L90.1762 34.5301C90.2882 34.1416 90.4726 33.8101 90.7317 33.5159C90.8787 33.3117 91.0258 33.09 91.2475 32.9429C91.5417 32.7212 91.8732 32.5939 92.242 32.5368C92.4637 32.5017 92.703 32.5192 92.9247 32.5566C93.1289 32.5939 93.2936 32.6861 93.4604 32.7958L93.996 33.2569C94.2156 33.4588 94.3649 33.7179 94.5119 33.9769L94.7512 34.383C95.0454 34.9714 95.232 35.5817 95.3044 36.2446C95.3242 36.5586 95.3418 36.8725 95.3966 37.1864C95.4164 37.2413 95.3966 37.3137 95.3966 37.3511Z" fill="white"/>
<path d="M100.741 43.8075C100.853 43.8997 100.963 43.8623 101.075 43.8623C101.314 43.8448 101.573 43.825 101.812 43.8623C101.922 43.8623 102.034 43.8799 102.144 43.8799C102.513 43.8799 102.881 43.8623 103.25 43.8448L103.582 43.7877C103.749 43.7526 103.786 43.6955 103.786 43.5309C103.786 43.364 103.766 43.1994 103.786 43.0325C103.804 42.7559 103.804 42.4793 103.858 42.2027C103.915 41.8339 103.988 41.4651 104.117 41.1138C104.172 41.0041 104.227 40.8746 104.247 40.745C104.284 40.6353 104.357 40.5606 104.486 40.5233L104.633 40.486C104.78 40.4684 104.947 40.4684 105.094 40.486C105.446 40.5057 105.777 40.486 106.109 40.5057C106.313 40.5233 106.515 40.486 106.736 40.4684C107.031 40.4509 107.327 40.486 107.621 40.5431C107.751 40.5606 107.88 40.5606 108.01 40.598C108.102 40.6155 108.174 40.6726 108.194 40.7648L108.378 41.2434C108.58 41.779 108.655 42.3125 108.655 42.8657C108.655 43.0698 108.673 43.2718 108.673 43.476C108.673 43.6604 108.765 43.7526 108.949 43.7701H108.969L109.355 43.8448C109.557 43.8623 109.762 43.8799 109.963 43.8623C110.168 43.825 110.389 43.8075 110.609 43.825C110.701 43.825 110.776 43.8448 110.85 43.8448C111.127 43.8448 111.384 43.8448 111.643 43.8623C111.974 43.8799 112.306 43.8623 112.64 43.8623C112.841 43.8623 113.043 43.825 113.228 43.7877C113.377 43.7701 113.395 43.6955 113.357 43.5682L113.228 43.364C113.063 43.1423 112.916 42.9403 112.767 42.701C112.398 42.1281 112.086 41.52 111.845 40.857C111.588 40.1545 111.329 39.4542 111.107 38.7342C110.997 38.4027 110.85 38.0887 110.758 37.7397C110.646 37.2962 110.462 36.8901 110.297 36.4664C110.185 36.2074 110.075 35.9681 110.038 35.6915C110.021 35.5071 109.963 35.3402 109.891 35.1932C109.799 34.9539 109.687 34.7146 109.632 34.4753L109.465 33.9397L109.281 33.5511C109.153 33.2196 109.079 32.8705 108.912 32.5369C108.82 32.3525 108.747 32.1505 108.618 31.9661L108.102 31.2834C108.01 31.1736 107.898 31.1165 107.77 31.0616C107.604 31.0068 107.437 30.9694 107.252 30.9694H106.662C106.515 30.9694 106.368 30.9694 106.221 30.9519C106.054 30.9146 105.889 30.9146 105.722 30.9146C105.593 30.9146 105.483 30.9321 105.353 30.9519C105.114 30.9694 105.057 31.0441 105.057 31.2834V31.3756C105.094 31.6522 105.149 31.9485 105.114 32.2251C105.077 32.5566 105.022 32.8881 104.91 33.1823C104.8 33.5335 104.688 33.8848 104.561 34.2163C104.394 34.6948 104.265 35.1756 104.117 35.6542C103.988 36.0427 103.841 36.3918 103.711 36.7606C103.602 37.0745 103.472 37.3709 103.397 37.6826C103.288 38.0339 103.178 38.3851 103.048 38.7342C102.881 39.1776 102.66 39.6013 102.55 40.0821L102.495 40.284C102.311 40.8921 102.014 41.4453 101.758 42.0183C101.628 42.2949 101.444 42.5518 101.296 42.8306C101.13 43.1247 100.908 43.3838 100.741 43.6779V43.8075ZM106.627 38.8264C106.368 38.8264 106.128 38.8088 105.869 38.8088C105.685 38.8088 105.52 38.7912 105.336 38.7539C105.132 38.699 105.057 38.5871 105.077 38.3478C105.094 38.1085 105.169 37.867 105.261 37.6277C105.371 37.3709 105.446 37.0943 105.52 36.8177C105.555 36.743 105.575 36.6684 105.593 36.5959C105.74 36.2447 105.852 35.8935 105.981 35.5444C106.036 35.4522 106.073 35.3402 106.128 35.2678C106.201 35.1756 106.258 35.1558 106.313 35.2678C106.497 35.6169 106.699 35.9681 106.774 36.3742C106.811 36.6684 106.921 36.9274 107.031 37.1865C107.123 37.3884 107.18 37.5904 107.235 37.7946L107.364 38.3851C107.399 38.6068 107.252 38.7342 107.105 38.7912C106.938 38.8264 106.791 38.8461 106.627 38.8264Z" fill="white"/>
<path d="M126.081 30.9146C126.024 30.9321 125.952 30.9321 125.877 30.9321C125.546 30.9146 125.232 30.9146 124.9 30.9892C124.771 31.0243 124.624 31.0243 124.477 31.0068C124.329 30.9892 124.18 30.9694 124.033 30.9892C123.831 31.0243 123.664 31.099 123.535 31.2834C123.48 31.3931 123.443 31.5051 123.405 31.6148C123.313 31.8739 123.203 32.0956 123.019 32.2976L122.817 32.5939C122.705 32.8135 122.575 33.0176 122.428 33.2196C122.299 33.3667 122.207 33.5511 122.042 33.6806C121.893 33.7926 121.746 33.9199 121.636 34.0692C121.397 34.3458 121.138 34.6399 120.916 34.9166C120.694 35.1756 120.475 35.4149 120.233 35.6366C120.161 35.7091 120.106 35.7661 120.014 35.8013C119.956 35.8386 119.921 35.8386 119.902 35.7661C119.884 35.7464 119.884 35.7288 119.884 35.7091C119.847 35.6169 119.847 35.5246 119.847 35.4324C119.847 35.1932 119.864 34.9363 119.847 34.6948C119.829 34.3458 119.829 33.9945 119.829 33.6433C119.829 33.3667 119.884 33.1098 119.939 32.8332C120.014 32.3349 120.161 31.8563 120.325 31.3756C120.345 31.3207 120.382 31.246 120.382 31.1912C120.4 31.0616 120.363 31.0068 120.253 30.9694C120.106 30.9321 119.976 30.9321 119.847 30.9519C119.588 30.9892 119.331 30.9694 119.072 30.9892C118.703 31.0068 118.352 30.9892 117.983 30.9892C117.559 31.0068 117.136 30.9519 116.712 30.9519C116.692 30.9519 116.692 30.9519 116.675 30.9321C116.508 30.9146 116.323 30.9321 116.159 30.9321C116.102 30.9321 116.066 30.9519 116.009 30.9694C115.937 30.9892 115.9 31.0441 115.9 31.1363C115.9 31.2087 115.917 31.2834 115.954 31.3756C116.029 31.6148 116.121 31.8563 116.194 32.1132C116.286 32.4644 116.378 32.7959 116.398 33.1647V34.3831C116.398 34.5302 116.398 34.6597 116.435 34.8068C116.453 34.9539 116.47 35.0834 116.453 35.2129C116.435 35.4149 116.415 35.6169 116.415 35.8013C116.415 35.9681 116.435 36.1152 116.435 36.2645C116.435 36.7057 116.415 37.1667 116.415 37.6102C116.398 38.328 116.415 39.0481 116.415 39.7681C116.415 40.0074 116.398 40.2467 116.415 40.5057C116.435 40.745 116.49 41.0041 116.453 41.2609C116.435 41.5024 116.415 41.7417 116.378 41.9634C116.286 42.3674 116.159 42.7559 116.009 43.1423C115.974 43.2916 115.917 43.4189 115.9 43.5484C115.862 43.7153 115.917 43.8075 116.084 43.8448C116.194 43.8623 116.306 43.8799 116.415 43.8799C116.822 43.9172 117.208 43.8623 117.614 43.8623H117.671C117.928 43.825 118.205 43.8075 118.481 43.8448C118.573 43.8623 118.666 43.8623 118.778 43.8623H119.717C119.884 43.8623 120.068 43.8623 120.253 43.825C120.382 43.7877 120.417 43.7153 120.4 43.5857L120.29 43.2916C120.198 43.0501 120.086 42.8108 120.031 42.5518C119.956 42.2027 119.939 41.8515 119.902 41.5024C119.884 41.1885 119.902 40.8921 119.884 40.5804C119.864 40.2665 119.884 39.9328 119.864 39.621C119.847 39.3796 119.864 39.16 119.847 38.9383C119.847 38.6793 119.939 38.4575 120.141 38.2731C120.233 38.1809 120.27 38.1809 120.363 38.2929C120.437 38.3851 120.51 38.4773 120.567 38.5695C120.751 38.8637 120.898 39.16 121.1 39.4169C121.23 39.564 121.304 39.7308 121.377 39.8977C121.451 40.0623 121.524 40.2094 121.636 40.3389C121.746 40.5057 121.858 40.6726 121.95 40.8372C122.172 41.1687 122.356 41.52 122.558 41.8712C122.65 42.0359 122.76 42.2203 122.78 42.4244C122.797 42.7559 122.927 43.0698 123.019 43.4013C123.074 43.6033 123.203 43.6955 123.388 43.7526C123.59 43.825 123.794 43.7877 123.996 43.8075C124.163 43.8075 124.347 43.7877 124.514 43.8075C124.716 43.825 124.918 43.8448 125.14 43.8448C125.306 43.8448 125.491 43.825 125.655 43.825C126.044 43.825 126.43 43.8448 126.819 43.8623C127.205 43.8799 127.611 43.8623 127.998 43.8623C128.072 43.8623 128.127 43.8448 128.182 43.825C128.257 43.8075 128.257 43.7526 128.239 43.6955C128.22 43.6406 128.182 43.6033 128.127 43.5682L127.629 43.1072C127.445 42.9228 127.26 42.7362 127.096 42.5342C126.984 42.3871 126.874 42.24 126.744 42.1105C126.58 41.9437 126.43 41.7417 126.338 41.52C126.246 41.318 126.136 41.1336 125.989 40.9668C125.84 40.7999 125.73 40.6155 125.655 40.4135C125.583 40.2291 125.491 40.0623 125.379 39.9152C125.252 39.7484 125.122 39.5837 125.01 39.3993C124.826 39.103 124.624 38.8264 124.514 38.4949C124.514 38.4773 124.494 38.4575 124.477 38.44L124.2 37.9417L123.296 36.4115C123.166 36.1525 123.019 35.8935 122.944 35.5993C122.909 35.4324 122.889 35.2678 122.982 35.101C123.111 34.8441 123.296 34.6026 123.517 34.4007C123.682 34.2711 123.831 34.1416 123.941 33.977C124.051 33.8277 124.18 33.6806 124.329 33.5511C124.514 33.3667 124.716 33.1823 124.883 32.9803C125.067 32.7213 125.306 32.5193 125.563 32.3173C125.713 32.2054 125.86 32.0956 125.989 31.9485C126.099 31.7993 126.246 31.6697 126.395 31.56C126.58 31.4304 126.782 31.3009 126.966 31.1363C127.003 31.0814 127.058 31.0441 127.041 30.9892C127.021 30.9146 126.948 30.9321 126.874 30.9146C126.799 30.9146 126.707 30.9519 126.635 30.9146H126.081Z" fill="white"/>
<mask id="mask0_217_9" style="mask-type:luminance" maskUnits="userSpaceOnUse" x="0" y="0" width="57" height="47">
<path d="M0 0.0460815H56.4759V46.4039H0V0.0460815Z" fill="white"/>
</mask>
<g mask="url(#mask0_217_9)">
<path fill-rule="evenodd" clip-rule="evenodd" d="M30.2357 45.5588C29.6342 45.438 29.5706 45.0012 29.4147 44.5533C29.6057 44.7245 29.7023 44.7531 29.8801 44.9836C29.9943 45.1351 30.1545 45.3744 30.2357 45.5588ZM28.2512 43.4425C28.4641 43.6115 28.7803 43.752 28.2929 43.965L28.2512 43.4425ZM28.0075 41.8882L28.0624 41.6182C28.6112 43.1066 28.238 42.3427 28.0075 41.8882ZM28.8373 41.8531C28.8703 41.8399 28.9142 41.8312 28.9361 41.8202C28.9581 41.8114 29.0064 41.796 29.0305 41.7829L29.3576 41.4843C29.3664 41.4426 29.3862 41.4316 29.4542 41.4206L29.2501 42.077C29.5815 42.3668 29.7967 42.8564 29.8208 43.3591C29.3993 42.8168 29.1227 42.5227 28.8373 41.8531ZM29.1008 41.1506C29.5069 40.8389 28.7078 41.0496 29.4213 40.8389C29.2808 41.1748 29.4762 41.0123 29.1008 41.1506ZM29.9108 41.0079C30.4114 40.4964 30.205 41.335 30.3499 40.2593C30.9141 40.8938 29.9965 40.2593 30.5914 41.7653C30.9295 42.6193 30.3345 42.3427 30.3762 43.6093L29.9943 42.5205C30.2577 42.6544 30.4267 42.4897 30.486 42.459C30.2423 41.8838 30.1018 41.6138 29.9108 41.0079ZM30.0491 39.9849C29.7308 39.8949 29.8911 40.1693 29.8494 39.6117C29.8164 39.188 29.6628 39.5568 29.9284 39.1244C30.1545 39.2385 30.1326 39.0453 30.1392 39.5239C30.1435 39.8335 30.194 39.7259 30.0491 39.9849ZM28.5432 39.21C28.62 39.0102 28.6354 39.0585 28.7056 38.9553C28.8483 39.1354 28.8922 38.7248 28.8944 39.873C28.8352 39.8444 28.3039 39.851 28.5432 39.21ZM29.0591 36.7425L29.3225 36.67L29.4367 37.1267L29.5047 37.6272C29.1557 37.5416 29.3906 37.5987 29.1732 37.4362C28.9515 37.2716 29.3598 37.4647 28.9405 37.2562L28.8725 37.9631C28.8637 37.9938 28.833 38.086 28.8264 38.0684C28.8198 38.0509 28.7934 38.1409 28.7737 38.176C28.4159 37.7831 28.5761 37.4494 28.5827 36.8764C28.9559 36.8171 28.7869 36.8588 29.0591 36.7425ZM28.1656 35.3463C27.6343 35.3243 28.0031 35.4692 27.8604 35.0302C28.1678 35.2146 28.0163 34.9094 28.1656 35.3463ZM37.4604 32.6988C37.4582 32.6505 37.5636 32.4529 37.6448 32.7251C37.7634 33.1247 37.467 32.8305 37.4604 32.6988ZM48.5466 31.8887C48.0461 31.8031 48.3315 31.9129 48.1295 31.6297C48.5027 31.7241 48.3161 31.498 48.5466 31.8887ZM45.3613 31.5023C45.0298 31.3575 45.1768 31.487 45.0078 31.2126C45.6313 31.2762 45.2383 31.0457 45.3613 31.5023ZM21.8278 31.217C21.8278 30.9755 22.1242 30.8416 22.4315 30.8218C22.4337 31.0633 22.4776 31.1928 22.2537 31.3048C21.841 31.5089 21.83 31.2192 21.8278 31.217ZM49.6201 32.1434L49.3479 31.6253C49.0318 31.7065 49.1701 31.8558 48.6476 31.6736C48.6542 31.3223 48.9769 30.6286 49.1481 30.3366C49.7365 30.5452 49.866 30.3586 49.9933 30.9206C49.3698 30.7362 49.113 30.5847 49.2271 31.0589C49.2864 31.3026 49.5608 31.4892 49.7628 31.6604L49.6201 32.1434ZM23.2701 30.4157C23.6104 30.2576 23.8497 30.2752 24.0824 30.5759L23.6675 30.6681C23.2745 30.6572 23.4304 30.7647 23.2701 30.4157ZM50.1689 30.565C49.9318 30.4267 49.9867 30.5167 49.9077 30.2444C50.2304 30.3586 50.046 29.9876 50.1689 30.565ZM38.8435 28.9317C38.8522 28.8922 38.8852 28.89 38.9664 28.8636L39.0366 29.4607L40.0992 30.1961C39.1266 30.2049 37.4604 30.2269 36.7184 29.9064C37.1904 29.7066 37.8139 29.7395 38.4088 29.6539L38.8435 28.9317ZM40.6282 29.981C40.0201 29.8691 40.4328 30.0776 40.3275 29.6693C40.6655 29.8054 40.5185 29.6012 40.6282 29.981ZM41.9564 29.4871C42.3537 29.5485 42.2879 29.4761 42.3032 29.88C41.9893 29.8625 41.7939 29.8954 41.9564 29.4871ZM45.0144 29.6846C45.2186 29.5683 44.6983 29.5771 45.37 29.599L45.1549 29.8734L45.0144 29.6846ZM32.6615 29.621C33.0457 29.3685 32.8942 29.6737 33.0084 29.0875C33.5309 29.228 33.1182 29.0941 33.4848 29.2917C33.5155 29.3093 33.6077 29.3641 33.6297 29.3773L33.7702 29.4607C33.4628 30.071 33.656 29.6517 32.9733 29.6912C33.1818 30.0183 33.1357 30.4771 32.8108 30.7889C32.6528 31.0172 32.0973 31.3201 31.5222 31.869C31.329 32.0512 31.059 32.2356 30.8724 32.4705C30.6419 32.7646 30.5014 33.1203 30.3104 33.421C30.1128 33.1817 30.1479 32.7646 30.0865 32.4375C29.9789 31.8712 29.8296 31.3531 30.1896 30.7889C30.9712 29.5551 32.2664 28.0689 32.2752 28.0689C33.4914 28.2906 32.5935 28.126 33.5418 27.8187C33.6736 27.9899 33.6055 28.2467 33.8624 29.0151C32.3257 29.0787 34.2948 28.5914 32.8613 28.8197C32.8394 28.8241 32.7998 28.8351 32.7757 28.8373C32.7559 28.8395 32.7164 28.8439 32.6967 28.8439C32.6967 28.8439 32.4881 28.7912 32.4091 28.767C32.4662 29.1117 32.5254 29.4541 32.5386 29.4388L32.6615 29.621ZM50.9439 29.9086C50.8714 29.4212 50.9768 29.8603 51.1305 29.6078C51.3895 29.1841 51.0185 29.6781 51.2227 29.25C51.5607 29.3027 52.1183 29.5881 52.3642 29.9481L51.2249 29.9876C50.9373 29.97 51.0953 29.9788 50.9439 29.9086ZM44.1297 28.9317C44.1231 28.1414 44.2307 28.8087 44.3097 28.0601L44.8366 28.5782C44.8454 28.5848 44.8673 28.6046 44.8761 28.609C45.2625 28.8175 45.8749 28.9141 45.4908 29.441C45.2383 29.3466 45.4491 29.4629 45.28 29.3158L44.1297 28.9317ZM43.908 28.1523C44.3053 28.7231 43.9124 28.5804 43.9058 28.5892C43.6577 28.3214 43.6182 28.4685 43.908 28.1523ZM45.4996 28.497C45.1198 28.2775 45.4864 28.1172 45.4908 28.1062C45.8047 28.2336 45.7454 28.1677 45.8442 28.4553C45.7827 28.486 45.6291 28.5716 45.4996 28.497ZM41.649 28.0096L41.7764 28.2906C41.4515 28.238 41.6227 28.3916 41.649 28.0096ZM20.4777 28.2336C20.3987 27.8055 20.5853 28.1062 20.6489 28.216C20.7587 28.4114 20.4821 28.2621 20.4777 28.2336ZM42.8037 29.2522C42.5776 29.07 42.8169 29.3005 42.8477 28.9756C42.0639 28.8856 42.2769 28.8658 42.1561 28.486C42.0266 28.0777 41.862 28.3192 42.11 27.9372L42.4613 28.216C42.7752 28.4311 43.1791 28.7648 43.3635 29.1556L43.5392 28.9229C43.7675 28.6968 43.3043 28.8746 43.7631 28.8439L43.6621 29.4849C43.4096 29.3949 43.5589 29.4761 43.3548 29.3027C43.2977 29.2522 43.2099 29.127 43.2077 29.1249C42.8674 29.2829 42.9399 29.3619 42.8037 29.2522ZM52.6847 27.9635L52.9679 28.2292C53.2182 28.4663 52.9328 28.1326 53.2006 28.4553C53.1984 28.4575 52.9438 28.6112 52.8691 28.3697C52.856 28.328 52.8208 28.317 52.7879 28.2928L52.8274 28.7692L52.474 29.1073C52.4081 29.0656 52.3796 28.9712 52.3115 28.9185C51.9647 28.6616 52.182 28.98 51.7671 28.6792C51.8483 28.2423 51.9098 28.1897 51.7342 27.7879C52.3664 28.1633 51.9208 28.3499 52.6847 27.9635ZM41.1222 27.8801C41.3636 27.5925 40.9202 27.8055 41.4317 27.6255C41.2188 27.9811 41.5941 27.8011 41.1222 27.8801ZM43.054 28.1194C43.043 28.1238 43.1177 28.4597 42.8191 28.0953C42.6106 27.8384 42.7818 27.9921 42.7862 27.8187C42.6106 28.1062 42.7818 28.3214 42.3735 27.7857C42.5776 27.6386 42.5645 27.6869 42.8081 27.6013L43.0255 27.9262C43.0364 27.9482 43.0628 28.0206 43.0672 28.036L43.054 28.1194ZM34.4353 27.8977C34.3651 27.924 34.3585 27.9657 34.207 27.9438C34.1785 27.9416 34.0797 27.9065 34.0533 27.8933C33.9194 27.834 33.8426 27.7199 33.8097 27.6869C34.5253 27.5991 34.218 27.5508 34.4353 27.8977ZM31.9349 27.373C32.0008 27.8779 31.9568 27.7791 31.4739 27.6913C31.5924 27.3555 31.5397 27.4389 31.9349 27.373ZM46.6016 28.576C46.5379 28.508 46.494 28.4114 46.4194 28.3719C46.4062 28.0272 46.6104 28.2204 46.5555 27.8077C46.5072 27.4367 46.404 27.7243 46.3601 27.2567C46.8716 27.6299 46.0923 27.5333 47.3085 27.9065C47.6531 28.0118 47.6356 28.2445 47.506 28.5431L47.0758 28.2972C46.7553 28.4421 47.0099 28.3324 46.8299 28.4399C46.7026 28.5146 46.8519 28.4575 46.6016 28.576ZM44.74 27.8999C44.2329 27.9482 44.2614 27.9592 44.2921 27.3313C44.6653 27.6145 44.2812 27.305 44.5139 27.6321C44.5819 27.7308 44.5929 27.6804 44.74 27.8999ZM2.84957 27.452C3.09763 27.2852 2.9264 27.2874 3.17666 27.452C2.78371 27.6321 2.95274 27.5069 2.84957 27.452ZM42.1034 27.7506C41.4339 27.755 41.5612 27.744 41.3571 27.2632C41.4053 27.283 41.7917 27.3906 41.7939 27.3906C42.323 27.6364 41.9388 27.3642 42.1034 27.7506ZM4.63214 27.2281C4.54433 26.7847 4.73751 27.092 4.80337 27.2084C4.95704 27.4872 4.63872 27.2654 4.63214 27.2281ZM47.2865 26.9383L47.3216 27.2589C47.0406 27.305 46.8892 27.1118 46.8343 26.8044C47.3085 26.7737 47.0121 26.6595 47.2865 26.9383ZM43.9058 26.5586C44.3141 26.7561 44.2241 26.7298 44.3339 27.305L43.6797 27.2062C43.6994 26.7056 43.7411 26.7474 43.9058 26.5586ZM16.3308 26.7649C16.2562 27.1535 16.423 27.0393 16.0344 27.0701C16.1508 26.5695 16.0696 26.8857 16.3308 26.7649ZM7.47723 27.1798C7.45966 26.7649 7.24672 27.0108 7.75383 26.8966L7.47723 27.1798ZM4.03502 27.6935C3.87257 27.4806 3.80891 27.5003 3.8594 26.9844C3.86159 26.9713 3.88135 26.9515 3.88354 26.9208C3.88354 26.8901 3.90111 26.8791 3.91208 26.8593C4.21503 27.1996 4.08112 26.844 4.16235 27.2435C4.3248 28.0448 4.12283 27.586 4.03502 27.6935ZM32.6945 27.1162C32.8086 27.0042 32.5254 26.7188 33.2433 26.9274C33.0786 27.0986 33.0128 27.2611 32.6945 27.1162ZM45.4842 27.0898C45.19 26.7891 45.3854 26.8132 45.5435 26.6486C46.0133 27.0701 45.5369 27.0547 45.4842 27.0898ZM47.5302 26.7496C47.1482 26.6595 47.4468 26.8374 47.2514 26.4905C47.5961 26.6288 47.4863 26.3939 47.5302 26.7496ZM46.5643 26.9823C45.9979 27.0174 45.5127 26.6354 45.291 26.1898L46.5643 26.9823ZM37.4824 26.6398C37.5921 26.2644 37.5438 26.2951 37.9302 26.2293C37.8666 26.5454 37.9763 26.5739 37.4824 26.6398ZM22.8464 26.35C22.7081 26.4751 22.8245 26.4181 22.5632 26.563C22.3393 26.6903 22.5259 26.5761 22.28 26.6771C22.4052 26.2161 22.3042 26.3281 22.8464 26.35ZM17.6897 27.1008C17.2989 26.6859 17.6897 26.7078 17.2748 26.3983C17.4987 26.3851 17.6458 26.372 17.8148 26.5651C18.2188 27.0305 17.8478 26.9998 17.6897 27.1008ZM10.3399 25.8451C10.6275 25.5378 10.4145 25.6475 10.768 25.5597L10.8163 25.9768C11.0841 25.7178 10.9568 26.1876 11.0511 25.6958L11.1434 26.1063C10.0545 26.5476 10.0962 26.519 9.28175 26.7166C9.41566 26.361 9.58689 25.7792 9.76471 25.5948C9.91399 25.8297 10.0347 26.091 10.1708 25.9571C10.2104 25.9175 10.3113 25.9988 10.3399 25.8451ZM38.2968 26.339C38.0641 25.9944 38.1519 26.2117 38.209 25.7836C38.9093 25.7661 38.7117 25.8341 38.782 26.1107C38.6217 26.192 38.9049 26.3412 38.4198 26.0624L38.2968 26.339ZM37.4187 25.9768C36.8743 25.8495 37.1816 25.9549 37.0477 25.6365C37.3243 25.7529 37.2387 25.5421 37.4187 25.9768ZM21.8805 25.777C21.9332 25.5729 21.7422 25.7705 21.9924 25.7178C22.1439 25.6826 21.8234 25.9944 21.8805 25.777ZM43.8267 25.6651C43.9299 25.2963 43.8509 25.4829 44.1868 25.3292L44.4239 25.8319L43.8267 25.6651ZM23.3865 25.777C23.0023 25.9812 23.0923 25.9153 23.033 25.5597C23.3579 25.6431 23.1999 25.496 23.3865 25.777ZM17.2462 25.8122C17.5975 25.5839 16.9477 25.7353 17.5799 25.5531C17.4285 25.8144 17.6041 25.6914 17.2462 25.8122ZM24.3963 26.0976L24.8836 25.4631C25.3095 25.6958 25.3315 25.8407 25.6937 25.9988L25.6476 26.0185C25.8386 26.0888 26.012 26.1744 26.1371 26.2929C26.4225 26.5586 26.765 26.8593 27.0921 27.0964C27.4214 27.3335 27.4982 27.3555 27.9526 27.5091C27.8078 28.0162 27.7924 28.3192 27.5443 28.8021C27.4236 29.0326 27.3731 29.3202 27.2699 29.5859C27.1667 29.8471 27.1031 30.1742 26.9889 30.3871C26.7562 30.8196 26.7694 31.2082 26.0954 31.015C25.5532 30.2576 25.5905 29.9195 25.1866 29.1885C24.7563 28.407 24.0011 27.6979 23.9748 27.643L24.0736 27.1886C23.6872 26.4137 23.7223 26.7035 23.9506 26.3346C23.9221 26.3193 23.8826 26.2973 23.865 26.2885L24.3963 26.0976ZM13.9006 26.7078C14.0082 26.2622 14.276 26.091 13.8611 25.6212C14.2782 25.8363 14.3265 25.7573 14.5658 26.2227L14.2343 26.5256C13.927 26.7298 14.1399 26.5849 13.9006 26.7078ZM11.4024 25.9197C11.4683 25.349 11.3563 25.5356 11.7229 25.2502C12.072 25.3336 11.9095 25.3358 12.241 25.5136L11.8766 25.8078C11.7229 25.8758 11.6044 25.8802 11.4024 25.9197ZM36.4506 25.5729C36.6987 25.2875 36.2157 25.4543 36.7821 25.3336L36.4506 25.5729ZM9.98644 25.4412C9.98863 25.0855 10.1357 25.2787 10.1796 25.4456C10.2191 25.5992 9.98205 25.788 9.98644 25.4412ZM7.08866 25.777C7.34331 25.4192 7.24672 25.6958 7.9097 25.4346C7.82408 25.619 7.88116 25.6739 7.58919 25.8078C7.14135 26.0119 7.18306 25.8297 7.08866 25.777ZM24.6992 25.3863C24.7234 25.3555 24.7827 25.1646 24.798 25.1404C24.9363 24.9472 24.8112 25.1031 25.0593 25.0306C24.8375 25.428 25.2129 25.1668 24.6992 25.3863ZM22.7542 25.2172C22.7476 24.754 22.9298 25.0877 22.9715 25.1997C23.0264 25.3512 22.7586 25.4631 22.7542 25.2172ZM19.1737 25.1075C18.6029 25.4104 18.7742 25.1799 18.6073 25.0636C18.9015 24.8901 19.1561 25.0965 19.1737 25.1075ZM43.1747 25.349C43.0584 25.0746 43.1243 25.0899 43.3021 24.9077C43.4162 25.1207 43.4887 24.765 43.3679 25.1711C43.2406 25.5904 43.4492 25.1536 43.1747 25.349ZM17.3845 24.9955C17.6897 24.8353 17.5097 24.9165 17.6699 24.9955C17.277 25.2897 17.4592 25.0658 17.3845 24.9955ZM4.65848 25.1294C4.417 25.2721 4.75946 25.2107 4.40383 25.2216C3.94282 25.2326 4.29406 25.2041 4.14698 25.1075C4.32041 24.967 4.06795 24.9889 4.39944 24.9714C4.93509 24.9428 4.44554 24.9384 4.65848 25.1294ZM15.1058 25.1075C15.6195 25.2348 15.7974 24.8375 15.9159 25.5531C15.9005 25.5619 15.7095 26.0624 15.0993 25.3534C14.838 25.0482 15.0071 24.8484 14.5504 25.0043L14.9434 24.7079L15.1058 25.1075ZM40.2177 25.0899L40.0706 24.5411C40.6941 24.6596 40.6041 24.8967 40.6765 24.9955C40.6436 25.0153 40.5975 25.0394 40.5777 25.057C40.558 25.0702 40.5119 25.1009 40.4921 25.1185C40.0091 25.5421 40.5206 24.9253 40.3582 25.3182C40.086 25.2172 40.0048 25.2172 39.7523 25.0921C40.1782 24.866 39.9828 24.9428 40.2177 25.0899ZM31.2017 24.5477C31.1468 24.1394 31.3422 24.4511 31.3861 24.5433C31.498 24.7672 31.2104 24.6135 31.2017 24.5477ZM4.55091 24.2272C4.66946 24.416 4.7441 24.5455 4.8341 24.8067L4.30284 24.6443L4.50701 24.2908C4.51359 24.2579 4.53993 24.2513 4.55091 24.2272ZM34.8963 24.9143C34.4617 24.8748 34.589 24.9472 34.3036 24.7475C33.9985 24.5345 34.106 24.6113 34.0446 24.3369C34.4595 24.4818 34.7185 24.5389 34.8963 24.9143ZM40.1979 24.1174L40.0794 23.8364C40.3121 23.8847 40.2155 23.6454 40.1979 24.1174ZM37.1531 24.0823C36.7096 24.0208 36.8567 24.124 36.9292 23.8496C37.1443 23.843 37.0521 23.6301 37.1531 24.0823ZM37.0784 24.5982C36.2047 24.5565 37.1136 24.6245 36.5099 24.4138C35.9742 24.2228 35.5527 24.5016 35.4188 23.8101L35.7371 24.1152L36.5911 24.0779C36.6152 24.0976 36.646 24.1262 36.6635 24.1394L37.0784 24.5982ZM19.3976 24.4533C19.0683 24.1372 19.2813 23.9615 19.0771 23.9396C19.2374 23.8123 19.132 23.6015 19.7489 23.8825L19.3976 24.4533ZM29.8999 23.6762C29.4893 23.5466 29.7594 23.7508 29.6189 23.4127C29.9921 23.5708 29.7572 23.2788 29.8999 23.6762ZM45.28 23.6235C45.2559 23.3776 45.4161 23.3732 45.6335 23.2678C45.4886 23.5796 45.6225 23.5027 45.28 23.6235ZM37.6887 23.2195L38.1783 23.8825C37.6843 23.8452 37.4385 23.6498 37.6887 23.2195ZM38.0641 23.3205C38.0729 23.1164 37.9566 23.202 38.2463 23.281C38.4 23.3227 38.051 23.6059 38.0641 23.3205ZM34.7778 23.3205H35.0742C35.0434 23.3381 35.0061 23.3754 34.9907 23.3798C34.4222 23.5444 34.9227 23.4435 34.7778 23.3205ZM33.4211 23.2086C33.8997 23.292 33.9699 23.1756 34.2729 23.0966L34.0577 23.7969L33.4211 23.2086ZM44.9222 23.5422C44.6939 23.1493 44.7685 23.4193 44.5073 23.0966C45.0363 22.9759 44.9924 23.5071 45.1768 24.0472C44.3536 24.0472 44.9859 24.1701 44.4612 23.8232L44.5644 23.4764C44.931 23.5861 44.7158 23.5993 44.9222 23.5422ZM2.74639 24.1525C2.81664 23.5379 2.98348 23.5159 3.24252 23.0285C3.77159 23.6981 3.0186 23.7486 2.74639 24.1525ZM36.5428 23.2239C36.0269 23.1251 36.3452 23.3425 36.1872 22.932C36.6416 23.1581 36.3255 22.8573 36.5428 23.2239ZM47.0231 23.0329C47.4753 23.1032 47.888 23.2064 48.2546 23.3688C48.8649 23.641 48.551 23.8957 48.8474 24.1328C48.8781 24.1591 48.8869 24.2118 48.8935 24.2381L48.9923 24.9362L48.9198 25.1821L48.8386 25.9044L48.9396 25.7617L49.0515 25.9088L49.2074 25.63C49.1306 25.3907 49.1152 25.4851 49.4357 25.5004C49.023 25.2085 49.2711 25.5158 49.0559 24.9955C49.5674 25.2326 49.3435 25.1031 49.6377 25.4434C49.8309 25.0065 49.6925 25.417 49.5521 24.9714C48.9681 24.9626 49.293 25.0109 48.9615 24.6157C49.2228 24.5477 49.2052 24.596 49.3457 24.7211L49.1613 24.326C49.383 24.2294 49.2425 24.3084 49.3347 24.2711L49.4577 24.1942C49.7189 23.9067 49.6311 24.0186 50.0328 23.8781L49.7606 23.3205C49.7979 23.3227 49.8484 23.3337 49.8704 23.3381C49.8901 23.3447 49.9428 23.3556 49.9648 23.3622L50.2128 23.5027C50.4829 23.7179 50.1514 23.584 50.5487 23.7662C50.5333 24.2162 50.7507 23.6498 50.3972 24.012L50.2128 24.1416C50.9131 24.1855 50.4368 23.7662 50.6387 24.697C50.7134 25.0372 50.7792 24.7848 50.6299 25.2107C50.0965 25.1909 50.4631 25.1821 49.9911 25.0438L50.0723 25.3512L50.3358 25.2853C50.6014 25.4499 50.3906 25.0702 50.6124 25.5246C50.6453 25.7924 50.7397 25.6124 50.586 25.8583C50.4016 26.1546 50.5465 26.0932 50.3138 25.9417C50.3028 26.2929 50.3292 26.1173 50.2611 26.2885C50.2282 26.3698 50.1689 26.4664 50.1601 26.4466C50.1514 26.4268 50.1162 26.5015 50.0965 26.53L50.2633 26.7496C50.608 26.8505 50.3841 26.6947 50.6124 26.912C50.878 26.2929 51.3741 26.6881 51.6266 27.0042C51.451 27.2171 51.6551 27.0701 51.3807 27.2479C51.1656 27.3884 51.3961 27.2676 51.1107 27.3445C51.2556 27.1162 51.1524 27.2764 51.271 27.1228L51.4202 26.9471C50.957 27.002 50.9768 26.9998 50.7507 27.1974C50.0855 26.7364 50.2809 27.2128 49.6838 26.8461C49.2864 27.1162 49.5564 27.1052 49.1503 27.2698C49.0998 27.1535 49.1371 27.2018 49.1613 27.1249C49.2776 26.7276 49.3215 26.8483 49.1108 26.4444L48.6827 26.3105L48.6717 25.9483C48.5247 25.6914 48.6586 25.7727 48.3995 25.7244L48.3271 25.8363C48.2744 25.8253 48.0022 25.788 47.9385 25.7727C47.6751 25.7112 47.8551 25.7792 47.6685 25.6651C47.4468 25.3599 47.6619 25.889 47.449 25.2611C47.4095 25.1448 47.4402 25.1382 47.4204 24.9955L46.7794 24.7211C46.7662 24.7892 46.7289 25.0482 46.7157 25.0943C46.6126 25.4104 46.7575 25.1075 46.5687 25.3248L46.5313 24.6135C46.9441 24.1416 46.2591 24.9538 46.6587 24.4774C46.8101 24.2996 46.7311 24.4599 46.8211 24.2272C46.3821 24.0186 46.854 24.2601 46.5665 23.8781C46.5138 23.8606 46.3008 23.8254 46.224 23.7662C46.3008 23.393 46.2855 23.3425 46.5094 23.1361L46.1406 22.9846C47.3063 22.6356 46.224 22.9363 47.0231 23.0329ZM33.6648 23.1449C33.7087 22.7563 33.5309 22.5763 34.1038 22.8441C33.8777 23.0922 33.9633 23.0088 33.6648 23.1449ZM45.5764 22.9429C45.0034 22.8617 45.3832 23.0176 45.0122 22.7585C44.9134 22.6905 44.8519 22.5939 44.7751 22.4468C45.2998 22.539 45.3415 22.5588 45.5764 22.9429ZM46.3865 22.7585C46.0615 22.629 46.2108 22.7322 46.033 22.4731C46.494 22.4687 46.2921 22.3656 46.3865 22.7585ZM49.6091 22.3348C49.9252 21.9858 49.3545 22.1768 49.9494 22.0736C49.7057 22.4402 50.0548 22.2163 49.6091 22.3348ZM36.1652 22.2843C36.9753 22.0099 36.6679 22.4907 36.6657 22.5039L36.1652 22.2843ZM46.0506 22.0912C46.0528 22.0912 45.9386 21.6543 46.5555 22.0912C46.3557 22.2273 46.6828 22.1636 46.3294 22.1878C45.7871 22.2229 46.2701 22.1943 46.0506 22.0912ZM49.012 21.6521L49.1569 21.9814C48.6498 22.2931 48.8671 22.2843 48.3885 22.0736L49.012 21.6521ZM35.2432 21.9814C35.2059 21.617 35.3925 21.8914 35.432 21.9902C35.5571 22.2997 35.2542 22.0692 35.2432 21.9814ZM22.3437 22.0692L22.0561 21.7597C22.3766 21.876 22.2295 21.7114 22.3437 22.0692ZM33.7241 21.4633C33.3399 21.3272 33.4957 21.5138 33.2235 21.0506C33.7394 21.156 33.5462 20.965 33.7241 21.4633ZM49.8133 21.0879L49.5762 20.8091L50.7309 20.8728L50.4938 21.4831L49.8133 21.0879ZM4.60799 20.9057C4.70897 20.7981 4.70458 20.7564 4.81874 20.6686C5.31487 20.28 5.2556 20.6357 5.26657 20.6401C4.98997 21.0704 5.34999 20.8859 4.60799 20.9057ZM4.23259 20.6884C4.25235 20.7037 4.28309 20.7213 4.30504 20.7367L4.98119 21.1977C4.79898 21.3009 3.51474 21.1955 3.90111 20.4381C4.11405 20.5698 3.99111 20.5062 4.16454 20.6357C4.1843 20.6511 4.21284 20.673 4.23259 20.6884ZM10.9238 20.471C11.3585 20.2361 11.2926 20.4557 11.4265 20.0693L11.859 20.4908C11.8634 20.5018 11.8788 20.5281 11.8832 20.5391L12.0105 20.9803C11.5846 21.123 11.8722 21.0418 11.4726 21.2262L10.9238 20.471ZM13.3013 21.1033C12.882 21.0857 13.1455 21.2262 12.8974 20.9189C12.4034 20.3086 13.1037 20.9255 12.8074 20.7235C12.4517 20.4798 12.4034 20.8925 12.1137 20.2405L13.2398 20.4732C13.1367 20.6598 13.0928 20.4623 13.1147 20.7257L13.2552 21.0199C13.2618 21.0023 13.2903 21.0725 13.3013 21.1033ZM40.6721 20.1944C40.8148 20.1198 40.6743 19.8827 41.0651 20.1944C40.4065 20.5962 40.7577 20.2339 40.6721 20.1944ZM14.4099 19.9003C14.8907 19.9003 14.5417 19.5732 14.7853 20.1725C14.2914 20.1461 14.4824 20.302 14.4099 19.9003ZM16.1398 20.1966C15.67 20.133 15.782 20.2164 15.569 19.841C16.1157 19.8959 15.9203 19.7576 16.1398 20.1966ZM10.8645 19.9573C10.4892 19.9376 10.7745 19.9595 10.5594 19.8234C10.8294 19.6566 11.0116 19.7378 11.2136 19.8586C11.1873 19.8717 11.2136 19.9793 10.8645 19.9573ZM15.3671 19.6368C15.3671 19.4217 15.6591 19.6259 15.5427 19.6961C15.1234 19.9398 15.3671 19.8388 15.3671 19.6368ZM16.4581 19.6017C16.0388 19.4919 16.3615 19.6895 16.164 19.3097L16.4581 19.6017ZM39.221 19.672L38.7095 19.481C39.3923 19.2307 38.883 19.4568 39.0498 19.257C39.074 19.2307 38.9335 18.9365 39.4603 19.189C39.5086 19.6368 39.6184 19.3558 39.221 19.672ZM16.7633 19.189L17.1979 19.1209C17.2221 19.1165 17.255 19.1144 17.2814 19.1122C17.7885 19.0726 17.536 18.9475 17.9334 19.2395C17.8982 19.2988 17.9839 19.5468 17.4087 19.4327C16.1464 19.1824 17.5163 19.6939 16.7633 19.189ZM38.1102 19.0792C38.4703 18.7587 38.3276 19.0178 38.4022 19.0792C38.3429 19.11 38.512 19.3339 38.1102 19.0792ZM16.0608 19.0792C16.1684 19.0375 15.8391 18.8882 16.434 19.0178C16.8094 19.0968 16.4911 19.0156 16.6338 19.189C16.5942 19.2087 16.6777 19.3646 16.2649 19.2746C15.94 19.2044 16.1771 19.2285 16.0608 19.0792ZM36.4901 19.3031C36.332 19.0353 36.3869 19.4524 36.5033 19.1363C36.5647 18.9739 36.5428 19.1056 36.5911 18.9409C36.8743 19.1165 36.7316 18.818 36.8392 19.3141L36.4901 19.3031ZM39.6447 19.6851C40.007 19.0551 39.5503 18.9168 39.513 18.8817C40.0684 18.8224 39.8818 19.0046 40.5602 19.1275L41.0014 19.9683C40.5448 19.8476 40.187 19.6412 39.6447 19.6851ZM18.0102 19.3075C18.2231 19.0002 18.1419 19.0946 18.0914 18.6907C18.7676 18.9278 17.9707 18.4338 18.7193 18.7433L18.491 19.1319C18.3044 19.2856 18.278 19.2483 18.0102 19.3075ZM39.1552 18.7565C39.131 18.7741 39.1003 18.796 39.0718 18.8136C39.041 18.8356 38.9488 18.8795 38.9181 18.8948C38.7688 18.9739 38.7249 18.9936 38.5339 19.0617C38.8325 18.6446 38.5603 18.6402 39.333 18.6029L39.1552 18.7565ZM29.3971 18.9629C29.0547 18.8663 29.0349 18.8443 28.8856 18.5326C29.6847 18.7104 29.0218 18.7851 29.7396 18.4887C29.4828 18.987 29.7506 18.5743 29.3971 18.9629ZM42.2835 18.8268C41.772 18.8641 41.8795 18.7324 41.7061 18.4184C42.0595 18.5524 42.0793 18.6292 42.2835 18.8268ZM40.446 18.5919L40.3823 18.1945C41.0036 18.6402 40.1672 18.076 41.6446 18.2801C41.008 18.7368 41.098 18.3526 40.446 18.5919ZM20.5501 18.8268C20.0935 18.6841 20.4075 18.7697 20.2516 18.6007L20.6358 18.5194C19.953 17.9113 21.4831 18.2933 21.7049 18.3833L21.3931 18.7038C21.4195 18.7126 21.459 18.7236 21.4875 18.7324C21.5205 18.7433 21.5622 18.7477 21.5907 18.7565L21.8893 18.8553C21.3953 19.1692 21.6412 18.9826 21.0792 18.8904C20.8663 18.8553 20.8399 18.9146 20.5501 18.8268ZM15.389 18.3109C15.8808 18.2472 15.782 18.3789 16.1376 18.2318C16.2935 18.1682 16.0674 18.0914 16.3528 18.1748C16.9148 18.3416 16.4494 18.2011 16.6821 18.4075C16.2781 18.6687 16.5284 18.5085 15.9883 18.5941L15.6656 18.6643C15.6283 18.6731 15.602 18.6885 15.5647 18.6951C15.2617 18.7609 15.5471 18.7631 15.1234 18.7346C15.2639 18.5787 15.3056 18.5304 15.389 18.3109ZM38.67 18.0979C39.445 18.0365 38.9027 18.1396 39.142 18.4075C38.5998 18.5238 38.7513 18.4031 38.6129 18.4075C37.8907 18.4316 39.0674 18.4843 38.1936 18.5194C38.2858 18.3548 38.4834 18.1133 38.67 18.0979ZM37.4231 18.4953C37.4802 18.4294 37.6119 17.615 38.0531 18.2165L37.4231 18.4953ZM12.0983 18.526C11.971 18.2428 11.9227 18.1901 11.8151 17.9399C12.0259 18.0343 12.0742 18.0431 12.1883 18.2011C12.3639 18.4426 12.3288 18.6994 11.8612 18.6314C11.4024 18.5655 11.6549 18.4865 11.6044 18.4075C11.9249 18.3175 11.5956 18.368 12.0983 18.526ZM32.6681 18.0057C32.8789 17.874 32.5913 17.874 32.9623 17.9311C32.9667 17.9311 33.1511 18.0474 33.1599 18.0518C32.9206 18.1396 32.9513 18.1133 32.6681 18.0057ZM31.318 17.7489L31.2851 17.9048C31.2763 17.9157 31.2368 17.9421 31.228 17.9509L31.0348 17.9772C32.1566 18.0255 31.3992 17.953 31.7132 18.2604L31.43 18.4097C31.4146 18.3855 31.3707 18.4514 31.3466 18.4777C30.8768 18.2714 31.6583 18.8421 31.1775 18.3548L30.8921 18.0189C30.879 18.0101 30.8351 17.997 30.8241 17.9904C30.8065 17.9794 30.7275 17.975 30.6902 17.9618C30.7648 17.7686 31.1226 17.7401 31.318 17.7489ZM47.8266 17.1013L48.1778 16.84C47.9956 17.2242 48.3271 16.9476 47.8266 17.1013ZM16.6952 16.93C16.7062 16.8927 16.7413 16.8883 16.7655 16.8708C16.7369 16.8488 16.6952 16.8269 16.6755 16.8115C16.5679 16.7413 16.3132 16.5986 16.3374 16.4646C16.4054 16.098 17.4065 16.4185 17.525 16.4427L17.1211 16.6205L17.0553 17.3647C16.603 17.4855 16.5569 17.4328 16.322 17.312C16.3067 17.1013 16.6513 17.0749 16.6952 16.93ZM15.8742 16.3988C15.6503 16.8137 15.7359 16.7237 15.3627 16.5261C15.5581 16.2802 15.5427 16.2737 15.8742 16.3988ZM11.96 16.8752C11.8788 16.6754 11.9227 16.8159 11.9073 16.6622L11.9029 16.5239C11.9161 16.1332 11.8897 16.6095 11.9205 16.3856L12.5396 16.5986C12.1949 16.6337 12.2717 16.772 11.96 16.8752ZM44.4063 15.9378L45.0715 15.8895C44.8871 16.412 44.9683 16.401 44.38 16.4976L44.4063 15.9378ZM36.7557 15.8851L37.197 16.0651C37.1816 16.0914 37.1685 16.131 37.1553 16.1441C36.6394 16.7391 36.9819 16.3154 36.8348 16.3768C36.7272 16.1705 36.6526 16.5942 36.7557 15.8851ZM33.2696 15.67C33.0896 16.0607 33.2433 15.9883 32.6945 16.0958L32.1983 16.1178C32.0469 15.7797 32.2203 15.8609 32.352 15.637C32.5759 15.8566 32.4047 15.7578 32.8108 15.8851C32.8306 15.8653 32.8547 15.828 32.8679 15.8192C32.8811 15.8083 32.914 15.7731 32.9316 15.7622C33.2257 15.5712 32.6462 15.6941 33.2696 15.67ZM42.8696 15.839C42.8191 15.4636 43.0211 15.7292 43.0825 15.8434C43.1638 15.9992 42.8894 15.9949 42.8696 15.839ZM43.8136 15.6282L44.279 15.7161C44.1012 16.0629 44.2417 15.9861 43.7587 16.0629L43.8136 15.6282ZM47.2075 15.6173C47.2031 15.626 47.2185 16.4317 46.3908 15.4877L47.2075 15.6173ZM37.8183 15.7622C38.1563 15.6282 37.9346 15.4109 38.7556 15.5316C38.6898 15.7556 38.8061 15.8061 38.2968 15.997C38.2397 15.8083 38.2332 15.9444 38.2858 15.7863C38.2924 15.7643 38.422 15.6458 38.4505 15.6195L37.9851 15.7863C37.9741 15.8148 37.9653 15.8566 37.9566 15.8763L37.8819 16.0453C37.7524 16.2605 37.9434 16.0739 37.6448 16.2561L37.4451 15.839L37.7458 15.7775C37.7656 15.7731 37.8029 15.7687 37.8183 15.7622ZM19.3449 15.7687C18.6293 15.637 18.93 15.7578 18.9432 15.4373C18.9915 15.4526 19.0925 15.479 19.1496 15.5229C19.4042 15.7117 19.1452 15.4526 19.3449 15.7687ZM15.2024 15.6173C15.4922 15.3516 15.2902 15.3319 15.8281 15.4329C15.7886 15.446 15.6195 15.5097 15.613 15.5141L15.4395 15.6195C15.8281 15.6129 16.1925 15.6085 16.4889 15.839C16.2364 15.9246 16.1091 15.9751 15.8149 15.9027L15.2024 15.6173ZM12.0039 15.6875C12.2761 15.0926 12.5154 15.0136 13.0576 14.9477C12.6274 15.6678 12.6866 15.0114 12.5659 15.4219C12.443 15.8346 12.3727 15.7029 12.0039 15.6875ZM19.9003 15.5031C20.2801 14.7611 19.705 14.9499 20.6204 15.0706C20.346 15.5075 20.4975 15.446 19.9003 15.5031ZM44.9924 15.1343L45.5566 14.9455C46.3623 14.7699 45.6401 14.8511 45.9518 15.1255C44.8871 15.2046 45.5698 15.389 44.7971 15.5185C44.9288 15.0684 44.7378 15.4131 44.9924 15.1343ZM30.6067 15.075C30.7143 15.2968 30.8307 15.3033 30.7385 15.5382C30.5475 15.2397 30.6046 15.2528 29.9547 15.2902C29.9855 15.2726 30.0316 15.2594 30.0513 15.2485L30.3719 14.8621C30.9273 14.9455 30.8394 15.0904 31.1907 14.7545L31.3488 15.1738C30.947 15.1782 30.8965 15.1211 30.6067 15.075ZM44.9924 15.1343C44.7202 15.0992 44.6258 15.2287 44.4019 14.8357C44.6258 14.7238 44.4063 14.6228 44.7751 14.8094C45.179 15.0136 45.1176 14.8445 44.9924 15.1343ZM36.2091 14.7238C36.1542 14.254 36.3584 14.6404 36.3891 14.6996C36.4879 14.8928 36.2135 14.7523 36.2091 14.7238ZM22.7257 14.9082C22.7915 14.5833 22.7147 14.6184 23.0352 14.715C22.842 15.0267 23.112 14.8665 22.7257 14.9082ZM32.0512 14.5745L32.3849 14.8753C32.1083 15.1826 32.7735 14.8445 32.1895 15.0662C32.1456 15.0838 32.1039 15.097 31.8998 15.0794L31.3488 14.9455L31.2741 14.2298L31.9568 14.063C31.9459 14.5679 31.902 14.1091 32.0512 14.5745ZM27.0877 14.4999C27.3687 14.2738 26.967 14.4033 27.5663 14.3001C27.2963 14.5745 27.4411 14.6008 27.0877 14.4999ZM47.2865 14.5965C47.2931 14.5591 47.4204 14.2518 47.5851 14.3967C47.6158 14.4252 47.8419 14.3703 47.5719 14.6096C47.1921 14.9433 47.3085 14.6052 47.2865 14.5965ZM25.8693 14.3879C26.1108 14.2079 25.6805 14.2913 26.2513 14.2803C26.4489 14.2781 26.4291 14.0981 26.506 14.4055C26.7145 14.1815 26.6311 14.1596 27.0592 14.1837C26.844 14.5723 27.1097 14.5218 26.6069 14.6623C26.2425 14.7633 26.3018 14.6799 26.4203 14.524C25.4961 14.5789 26.0691 14.5833 25.8693 14.3879ZM10.9875 13.8281C11.3365 14.1662 11.4046 14.1245 10.9765 14.3879C10.7789 13.962 10.825 14.2255 10.9875 13.8281ZM33.1621 14.1442L32.8108 14.2255C32.8042 14.2013 32.7932 14.1684 32.7911 14.1552L32.7428 13.6569C32.9381 13.9137 32.9469 13.7688 33.2982 14.1267C33.2521 14.1333 33.1928 14.1376 33.1621 14.1442ZM34.6856 13.8654C34.9863 13.5822 34.9117 13.6722 35.3244 13.6437C35.3025 13.6832 35.2783 13.7293 35.2586 13.7622L35.0061 14.1596L34.6856 13.8654ZM20.1769 13.6064C20.4909 13.4834 20.3767 13.5559 20.6072 13.8215L20.1769 13.6064ZM35.8666 13.411L36.2091 13.6196C35.3222 13.861 35.9589 14.2298 35.3639 13.9423L35.8666 13.411ZM40.2836 13.7293C39.7918 13.6679 39.8665 13.714 39.7545 13.2749C40.1518 13.3605 40.1277 13.3364 40.2836 13.7293ZM38.7732 13.5032C38.7578 13.4417 38.4834 13.2178 39.2693 13.1893L38.8347 13.5274C38.8303 13.5076 38.793 13.512 38.7732 13.5032ZM10.9875 13.8281C10.5945 13.4417 10.3816 13.5998 10.5484 13.1498C11.0029 13.3451 10.8272 13.2881 10.9875 13.8281ZM34.106 13.1981L34.2641 13.1212C34.2882 13.1103 34.4551 12.9961 34.5187 12.9785L34.376 13.5274L33.8119 13.2683C34.3826 12.9061 33.6626 13.3583 34.106 13.1981ZM12.0654 13.2727C12.1312 12.8622 12.4913 12.9719 12.7942 13.1607C12.5747 13.3012 12.32 13.3803 12.0654 13.2727ZM23.2657 13.0488C23.2789 13.0422 23.1055 12.6053 23.7882 13.1607L24.5192 13.9357L23.6675 13.8018C23.6631 13.3122 23.505 13.5888 24.0099 13.4944L23.2657 13.0488ZM21.2109 13.0488C21.2373 13.0356 21.268 13.0005 21.279 12.9961C21.29 12.9939 21.3404 12.9763 21.3492 12.9741C21.3602 12.9719 21.4129 13.0202 21.4217 12.9961C21.4305 12.9676 21.4678 13.0334 21.4919 13.0488C21.4678 13.062 21.4327 13.0949 21.4217 13.0971C20.8619 13.242 21.3887 13.1607 21.2109 13.0488ZM34.6351 13.0993C34.7273 12.9544 34.3014 12.9632 34.9732 12.9741C35.0346 13.4483 35.1773 13.1476 34.8941 13.3934C34.6285 13.6283 34.6263 13.3978 34.6066 13.3912L34.6351 13.0993ZM36.1433 12.568C36.1389 12.6866 36.095 13.051 36.0928 13.0773C36.0928 13.0883 36.0993 13.1168 36.0993 13.1256L36.1103 13.2134C36.1103 13.2178 36.1103 13.2749 36.1103 13.2617C36.1103 13.2486 36.1081 13.299 36.1015 13.3166L35.7371 12.9215C35.4869 13.0905 35.4978 13.1585 35.1246 13.1629C35.3464 12.9017 35.2761 12.9807 35.59 12.8161L35.7437 12.7305C35.7701 12.7173 35.8052 12.6975 35.8293 12.6844C36.0313 12.5878 35.8908 12.6405 36.1433 12.568ZM13.0291 12.838C12.9479 12.7371 12.9106 12.7019 12.8447 12.6405C12.9742 12.4473 13.3694 12.6097 13.6174 12.8534C13.4704 13.1015 13.5977 12.9083 13.3013 13.152C13.1959 13.0641 13.2574 13.13 13.1235 12.9698C13.1081 12.9522 13.0884 12.9215 13.0752 12.9039C13.0598 12.8863 13.0401 12.8556 13.0291 12.838ZM28.3302 12.2958L28.5454 12.4341C28.9537 12.9434 28.5542 12.0916 28.6134 12.5702C28.6156 12.5856 28.4488 12.7546 28.4202 12.781C28.0119 12.3353 28.2512 12.5373 28.3302 12.2958ZM48.0219 11.7228C48.1954 11.6043 48.2766 11.5538 48.5027 11.4396C48.4566 11.5582 48.4061 11.6701 48.3512 11.7843C48.3337 11.8194 48.2722 11.905 48.2612 11.9314C48.1844 12.1202 48.1493 11.9072 48.2766 12.1575C48.0922 12.0763 48.09 12.0653 47.978 11.9621L47.7431 12.2892C47.7431 12.2892 47.7322 12.3968 47.6861 12.5065C47.5412 12.41 47.517 12.7371 47.4885 12.2826C47.4709 12.0214 47.9275 11.7953 48.0219 11.7228ZM34.7712 11.8216C34.7492 11.8348 34.7119 11.8502 34.6988 11.8524C34.6856 11.8567 34.6439 11.8721 34.6285 11.8765C34.1741 11.9863 34.4924 11.6592 34.1521 12.1487L34.2751 11.5867L34.7712 11.8216ZM48.0219 11.7228C47.8792 11.736 47.7168 11.758 47.6224 11.7843L46.4479 11.6482C46.1208 11.556 46.3382 11.657 46.2042 11.4857L46.955 11.3277C46.9726 11.3584 46.9902 11.3979 47.0033 11.4177L47.1987 11.7667C47.6334 11.4221 47.3194 11.4748 47.809 11.4089C47.9671 11.5626 47.9122 11.3123 48.0219 11.7228ZM12.1356 11.6504C11.6263 11.5187 11.6549 11.5867 11.5824 11.1499C11.9293 11.2596 11.6241 11.0599 11.9073 11.3013C12.1466 11.5055 11.9754 11.3343 12.1356 11.6504ZM48.9637 11.2618C48.439 11.5318 48.9088 11.3848 48.4127 11.3277C48.1778 11.3013 48.27 11.3452 48.1054 11.2618C48.1449 11.2025 48.3907 11.0796 48.5005 11.0796C49.3611 11.0708 48.8408 11.1784 48.9637 11.2618ZM20.9102 11.343C20.8553 11.0818 20.5567 11.0247 21.4919 10.9172C21.347 11.1213 21.5095 11.0028 21.1912 11.2267C20.9958 11.365 21.2043 11.286 20.9102 11.343ZM40.5009 11.1367C40.5009 11.1367 40.1035 11.0642 40.659 10.6252L41.0256 10.5725C41.0563 10.735 41.0783 10.8118 40.8938 11.062C40.5668 11.5077 40.5053 11.1367 40.5009 11.1367ZM42.3208 9.23996C42.4393 9.39583 42.4876 9.39144 42.3208 9.57145C42.0222 9.26631 42.2681 9.31899 42.3208 9.23996ZM41.9564 9.1302C41.9739 9.49901 41.9608 9.25753 41.8795 9.38924C41.8532 9.43095 41.5151 9.70756 41.469 9.75366C41.3066 9.43973 41.4932 9.50779 41.3439 9.25313C41.3636 9.24874 41.3966 9.25533 41.4075 9.25313C41.4163 9.25313 41.458 9.25533 41.469 9.25313L41.7193 9.12361C41.7346 9.10605 41.7522 9.05775 41.7632 9.04019C41.7764 9.02043 41.7917 8.9897 41.8005 8.93921C41.8093 8.88433 41.8203 8.86676 41.8334 8.82944C41.8883 8.93701 41.941 8.79432 41.9564 9.1302ZM23.044 9.16093C22.9254 9.44193 23.123 9.22021 22.8376 9.43315C22.8223 9.00068 22.6401 9.24655 23.044 9.16093ZM10.9128 9.409C10.375 9.34753 10.7087 9.52755 10.6011 9.128C10.9809 9.29485 10.7328 9.02483 10.9128 9.409ZM15.9576 9.11483C16.3879 9.52096 16.3967 9.39802 16.5086 9.42437L16.6557 9.47705C16.1749 9.67024 16.2408 9.47047 15.8347 9.56047C15.8237 9.56267 15.6942 9.62194 15.6173 9.64609C15.31 9.26631 15.1629 9.49681 15.1168 9.39363C15.0993 9.35631 15.0444 9.37827 15.0092 9.36509C15.613 8.87335 14.9566 9.56706 15.5515 8.93043L15.4307 8.74383C15.861 8.6648 15.7491 8.72188 16.0849 8.95897L15.9576 9.11483ZM12.9654 8.00841L13.2113 7.91621L13.3803 8.18403L13.5055 8.39478L13.6504 8.50454L13.3496 8.67138L13.0576 8.47161C13.0598 8.49576 12.7876 8.38161 13.1367 8.72846C13.2179 8.80749 13.4747 8.757 13.6526 9.14118C13.2991 9.19606 13.8787 9.24655 13.2947 9.1763C12.7042 9.10386 12.9325 8.92823 12.9303 8.69553C12.5483 9.05775 12.8227 8.70212 12.7327 8.93262C12.5791 9.32338 12.8557 8.83603 12.7679 9.07971C12.6932 9.28826 12.8579 9.11922 12.3266 9.36509C12.3266 8.44527 12.443 8.73505 12.5703 8.15988L12.9654 8.00841ZM19.4657 8.25867C19.042 8.13354 19.2966 8.3399 19.1232 7.99524C19.5118 8.09622 19.3164 7.87669 19.4657 8.25867ZM39.2649 8.1994C39.4054 7.94035 39.2254 7.93157 39.5613 7.8723C39.7194 8.31575 39.7764 8.08524 39.2649 8.1994ZM23.0572 7.91401C23.2833 7.67472 23.3557 7.70985 23.707 7.72083L23.7333 8.24769C23.1801 7.85474 23.4106 8.12476 23.0572 7.91401ZM39.0301 7.58033C39.3176 7.98206 39.3506 7.83937 38.7864 7.94474L39.0301 7.58033ZM30.8285 6.89101C31.1929 7.06443 31.0348 6.78783 31.1139 7.25982C30.778 7.10395 30.9536 7.32128 30.8285 6.89101ZM19.7708 7.13249C19.8323 6.74173 19.6391 7.08858 20.0496 6.7066L20.2692 7.24664L19.7708 7.13249ZM41.469 6.81198C41.7456 7.04029 41.6293 6.9437 41.761 7.56716C41.3131 7.41129 40.7599 6.97223 41.469 6.81198ZM14.1158 6.90857C14.2014 6.87345 13.9577 6.62538 14.4956 6.90857C14.3243 7.05785 14.6185 6.97662 14.2826 7.00736L14.1158 6.90857ZM27.8078 6.64953C27.5355 6.49147 27.6673 6.60562 27.5443 6.34877C27.8758 6.46732 27.7792 6.28291 27.8078 6.64953ZM26.2184 6.46073C26.1547 6.02826 26.3479 6.35316 26.394 6.45195C26.5279 6.73075 26.2228 6.48708 26.2184 6.46073ZM17.7029 5.37187C18.278 5.50798 17.9509 5.38285 18.12 5.72312C17.648 5.56725 17.7951 5.71434 17.7029 5.37187ZM35.3705 5.30382C34.938 5.13039 35.3222 5.09966 35.3705 5.04477C35.7196 5.55628 35.4715 5.13917 35.3705 5.30382ZM37.5482 5.42236C37.3199 5.30601 37.3089 5.24454 37.2519 5.21601L36.9314 5.12161C36.9819 4.77914 37.5438 4.80768 37.5482 5.42236ZM38.6393 5.1699L38.2266 4.83183C38.198 4.80988 37.9917 4.69792 37.917 4.63645L38.2529 4.39497C38.4066 4.73304 38.479 4.81866 38.6393 5.1699ZM31.8405 3.42685C31.7088 3.75175 31.9327 3.62003 31.5902 3.64857C31.6429 3.32148 31.4563 3.51247 31.8405 3.42685ZM31.8405 3.42685C31.8229 3.05804 31.88 3.17878 31.9568 3.06243C32.4574 3.15902 32.1852 2.94828 32.4442 3.55418L31.8405 3.42685ZM30.8592 3.58052L30.3806 2.79241L31.0304 3.22708C31.0392 3.23366 31.0678 3.25562 31.0743 3.26001L31.149 3.31269C31.1534 3.30172 31.1731 3.32587 31.1819 3.33465L30.8592 3.58052ZM27.5531 0.540049C27.8078 0.799093 27.6563 0.614689 27.7836 1.01862C27.3467 0.96813 27.4938 1.03618 27.1865 0.880319C27.2589 0.711282 27.158 0.739821 27.5531 0.540049ZM23.4743 33.0939C24.6992 33.7635 25.0307 38.3055 24.9649 39.9608C24.9451 40.4898 24.9188 40.8894 24.8683 41.2275C24.5412 43.4359 23.5533 45.7432 21.3602 46.393H35.3222C32.6528 45.0429 31.6671 43.4579 31.3575 41.8246C31.0743 40.334 31.3466 38.2111 31.4805 36.6349C31.5595 35.7173 31.7066 34.8084 32.1434 33.9633C32.6747 32.9359 33.3596 32.207 34.5934 31.7636C34.8524 31.6714 35.5198 31.5089 35.7942 31.6604C36.1059 31.836 35.8469 31.9985 35.8425 32.0051C35.7437 32.1565 35.7305 31.8185 35.6318 32.4134L36.2794 32.5868C36.051 33.1181 36.1103 32.7734 35.7964 33.1444C36.4879 33.5901 35.8535 33.0478 36.2311 33.724L36.7118 33.5879C37.006 32.9732 36.6196 33.5505 37.1904 33.0281L37.3265 33.23C37.3375 33.2432 37.3748 33.3156 37.3836 33.2981C37.3924 33.2805 37.4231 33.342 37.4429 33.3661C37.8731 33.1291 37.4714 33.2059 37.8709 33.0566C37.9412 33.691 37.8951 33.2761 38.1212 33.522C38.299 33.7152 38.2793 33.7262 38.4198 33.9018C39.254 33.5703 39.0937 33.5791 39.3615 32.7339C38.4066 32.4573 38.782 32.6373 38.1036 32.207C37.3463 31.7263 37.3155 31.3355 38.2902 31.364L41.2253 31.4453L42.3252 31.4914C42.9662 31.476 42.5689 31.3772 43.0408 31.3816C43.2099 31.3816 43.3811 31.4606 43.6775 31.5045L43.9936 31.2674C43.908 31.3926 43.7916 31.555 43.6863 31.6867C44.549 31.7811 44.0507 31.8009 44.268 31.2674L44.8058 31.3355C44.8102 31.3487 45.1022 31.9897 45.7915 31.7372C45.9167 31.4453 45.8376 31.3201 45.7652 31.0611C46.1977 31.0457 46.0154 31.1335 46.404 31.0479L47.5587 30.9338C48.1207 30.8964 47.3107 30.8438 47.7168 30.9118L47.6948 31.3597C47.6707 31.3706 47.6312 31.3838 47.6136 31.3926L47.2031 31.5814C47.2843 32.1961 47.427 31.9304 47.7783 31.8382C47.8463 31.9502 47.82 31.9414 47.9122 32.0512L48.2963 32.3695L48.72 32.1982L48.8649 32.7295C49.0735 32.3892 48.9462 32.5561 48.9791 32.0182C49.675 32.1082 49.1152 31.9019 49.5499 32.3409L49.6201 32.1434C50.6936 32.6285 49.754 32.9029 51.5629 33.0281C51.2753 32.3234 51.2161 32.7624 50.7331 32.2861C51.1458 31.7263 51.3676 32.0512 51.5256 32.0819C52.0415 32.1785 51.5937 32.1039 51.8659 32.0226L52.2325 31.9173C52.3423 31.3992 52.0525 31.6143 51.3829 30.7472C51.1568 30.4508 51.0953 30.6879 51.2622 30.4991C51.6222 30.1896 51.6968 30.6396 53.0623 30.1018C53.1413 30.6286 53.0426 30.6879 53.5387 30.8723C53.6419 30.7274 53.6528 30.8635 53.6902 30.5759C53.7297 30.2927 53.5606 30.2225 53.4443 29.9305C53.9777 30.0557 53.6089 30.2554 54.149 30.4113C54.3202 30.1171 54.16 30.1676 54.2082 29.8471C54.4388 30.1961 54.5507 30.2247 54.7176 30.7055L55.0864 30.4201C55.7406 29.7812 55.1478 29.7527 54.9656 29.4937C54.8054 29.2653 54.9371 29.3005 54.7593 29.0348C54.7483 29.0524 54.7395 29.0831 54.7373 29.0897C54.5288 29.61 54.2061 28.7451 54.5529 29.4739C53.9031 29.2719 54.4695 29.3246 53.857 29.632C53.7538 29.4849 53.6441 29.3619 53.486 29.1775L53.0008 28.756C53.486 28.8307 53.1721 28.8153 53.2577 28.6616C53.3872 28.4729 53.3433 28.5431 53.4026 28.4729C53.4114 28.4619 53.4509 28.4487 53.4575 28.4136C53.464 28.3785 53.497 28.3763 53.5167 28.3565C53.3214 27.5772 53.4882 27.744 53.6616 27.6496L53.756 27.8165C54.0853 28.6726 53.4816 27.9482 54.4168 28.519L54.6363 28.0887C55.521 28.3872 55.4464 28.8109 55.4749 28.8943L56.2872 29.7593C56.3026 29.7395 56.3245 29.7154 56.3377 29.6956C56.5177 29.4146 56.4694 29.1336 56.4694 28.7912C56.2038 28.5541 56.0567 28.4619 55.8525 28.1216L56.0325 28.0865C56.1511 28.0579 56.0523 28.4092 56.184 28.0426C56.1928 28.0118 56.2389 28.0228 56.285 28.0031L56.0369 27.452C55.5671 27.3774 55.2093 27.362 55.4508 26.7803C55.1478 26.451 55.2861 26.4795 55.1391 25.9549L54.779 25.99C54.7439 25.5531 54.7 25.7068 54.6495 25.3731H54.149C54.1314 25.349 54.1117 25.3116 54.1029 25.2963C54.0963 25.2809 54.0721 25.2392 54.0634 25.2216L53.9514 24.9911C53.4553 24.7343 53.9909 24.8594 53.5892 24.754L53.2928 24.6772C53.137 24.5652 53.2445 24.6509 53.1238 24.4708C53.0469 24.3589 52.8933 23.9967 52.8581 23.9462C52.6211 23.6103 52.7703 23.7947 52.3379 23.6542C52.3708 23.5357 52.3335 22.9978 52.2874 22.921L52.1666 22.4841C52.1688 22.1768 52.272 22.2317 51.9998 21.9814C52.3423 21.8541 51.9888 22.1482 52.2501 21.9068C52.2786 21.8804 52.4015 21.6345 52.4564 21.5314C52.1535 21.6697 52.1008 21.6631 51.833 21.7597C51.5651 21.4545 51.5388 21.437 51.5234 21.0352C51.0405 20.8398 50.9526 20.594 50.8846 20.3349C50.5707 20.0737 50.7792 20.2691 50.6936 20.0473C49.4357 19.5205 49.9604 18.5655 49.1503 18.0365C48.7596 18.2626 48.9286 18.6841 48.8276 18.4294C48.821 18.4119 48.8013 18.4733 48.7837 18.4953C48.3973 17.9113 49.001 17.6523 48.8935 16.8444C48.6717 16.5173 48.6608 16.6271 48.461 16.3637L48.2788 16.0827C48.09 15.8236 48.2393 16.0212 48.0746 15.839C48.2239 15.6919 48.2612 15.7073 48.4456 15.637C48.4742 15.2792 48.2854 15.6743 48.3842 15.3297C48.4873 14.9675 49.0625 14.827 49.6091 15.3538C49.6113 15.356 49.8287 15.4965 49.8484 15.5075C49.495 15.7051 49.596 15.6941 49.5279 15.839C50.035 15.997 49.934 15.8478 50.3006 15.7973C50.9812 15.6985 50.867 16.0212 51.0009 15.5295C51.1788 14.8753 51.238 15.6392 51.17 14.9806C51.1041 14.366 50.6255 14.7282 50.979 14.164C50.4763 14.153 50.3314 14.164 50.0679 13.7798C49.686 13.2244 50.0833 13.299 49.3611 13.2903C49.4269 12.7766 49.4686 12.9171 49.113 12.6031C49.4598 12.4407 49.7255 12.7722 49.8067 12.0894C49.8506 11.7206 49.6377 12.0609 49.8352 11.7865C49.9428 11.6394 49.9757 11.7382 50.0811 11.2618C49.844 11.0028 49.5982 10.8689 49.2184 10.7964C47.899 10.7547 49.3764 10.7679 48.7156 10.0983C48.4259 9.6439 48.6959 9.83928 48.1646 9.48144C47.5456 9.05995 48.2854 9.58243 47.427 8.72627C46.8694 8.77456 47.2119 8.63406 47.0999 8.92604L45.9232 8.10281C45.1681 8.45625 45.9167 8.33331 45.37 8.55064C45.1329 8.15988 45.3986 8.14891 45.021 8.06109L45.1505 8.59894C44.8498 8.47381 44.6478 8.30038 44.4085 8.06109C44.2658 8.25428 44.459 8.15769 44.0287 8.22355C43.9255 8.11598 43.987 8.19062 43.8794 8.03475C43.875 8.02597 43.8355 7.93596 43.7697 7.8262L42.9706 7.77351C43.3679 7.46178 42.9596 7.63082 42.8323 7.06224C42.8037 7.08419 42.773 7.11932 42.7511 7.13688L42.5074 7.29933C42.4415 7.33007 42.2966 7.33885 42.2154 7.34763L42.143 6.99419C41.6863 6.97443 41.9476 7.04468 41.7193 6.90857C41.7478 6.51781 41.6929 6.57708 41.4558 6.29389C41.0431 6.14242 41.2583 6.16217 41.1024 5.7297C40.6787 6.23023 41.2341 6.52 40.3692 6.84491C40.255 6.70221 40.3077 6.80759 40.2111 6.57489C39.5767 5.02062 39.8357 6.47829 39.3308 5.18088C39.0718 4.5201 38.6569 4.12934 38.3363 3.64638C37.3529 3.84834 37.6009 3.80224 37.0543 3.13488C36.7777 2.7968 36.4352 2.54215 35.9808 2.30286C34.2136 2.27432 34.758 2.19968 34.1697 3.18756C34.0709 3.12609 34.005 3.10195 33.8931 3.02072C33.3706 2.63655 33.4672 1.59159 32.0622 2.07675L31.7066 1.45109C31.2104 1.49719 31.4322 1.62672 31.0392 1.50378C30.8109 1.42914 30.8812 1.34791 30.576 1.25791C30.1348 1.12839 29.6211 1.23815 29.1535 1.22717C29.1337 1.20303 29.1118 1.1679 29.103 1.15034L29.0239 0.985692C29.013 0.959349 29.0042 0.928615 28.9932 0.900076C28.6244 0.212952 28.6266 -0.153661 27.6299 0.15807C26.9099 0.38638 26.9648 0.482972 26.8835 0.992278L26.8352 1.1196C26.1745 1.12839 26.7189 1.19644 26.3457 0.998864C26.214 0.928615 25.72 0.417113 25.0241 1.0735C24.8331 0.636642 24.7278 0.69811 24.1307 0.689329C22.1725 0.6564 22.1505 1.73428 21.7641 2.03723C21.3273 2.3797 20.4755 2.07675 19.7972 2.69582C19.4349 3.02292 19.6062 3.1239 19.0727 3.18537C18.4756 3.25562 18.8334 3.27537 18.3 3.45319C17.1914 2.7529 17.0092 3.19854 16.355 3.67711C15.9664 3.9625 16.0762 4.02177 15.7403 4.32253C14.6075 4.30496 15.4461 4.14032 13.8567 4.96135C12.5637 5.62872 13.5406 6.35975 12.7613 6.60782C12.6142 6.65392 12.781 6.59684 12.5659 6.65611C11.6505 6.91077 12.3508 6.86686 11.5912 7.10176C10.4431 7.45739 11.0511 8.16427 10.1555 9.27509C9.60665 9.95563 10.3882 9.36949 9.36956 10.2696L9.59787 10.8162C9.24662 11.0994 9.42444 10.7459 9.18955 11.1872C9.07978 11.3979 9.09515 11.5845 9.02051 11.8041C8.84708 12.3134 8.23021 12.5439 8.23021 12.5439C8.21484 12.5197 8.17094 12.5812 8.14459 12.6031C8.20826 13.1915 8.32461 13.2025 8.41242 13.6349C7.72529 14.2035 8.20826 14.4494 7.70773 14.9499C7.46186 15.1914 7.47503 15.345 7.76481 15.569C7.22257 15.4658 7.61772 15.1826 6.87133 15.1694C6.3247 15.1606 5.80442 16.1793 5.49708 16.5832C5.0207 16.4976 5.29511 16.2912 4.76605 16.1397C4.24796 16.5547 4.15356 17.1232 4.53335 17.6479C4.26113 17.7708 4.13161 17.874 3.86159 18.0606L4.10088 18.8553C3.84842 19.1495 3.29082 19.6698 3.21398 19.8849C2.94616 20.6225 3.35887 20.9913 3.18325 21.6367C3.08666 21.9946 2.99006 21.9397 2.93957 22.427C2.90445 22.7541 2.9286 22.921 2.81883 23.2173C2.64101 23.6893 2.49173 23.8079 2.39734 24.3282C2.34245 24.6267 2.16464 24.6048 1.90998 24.7431C1.68167 24.8682 1.60703 25.0197 1.44678 25.2941C1.03846 25.9944 1.2053 25.6541 0.6455 26.0251C-0.269934 26.631 0.588423 27.4608 0.854052 27.9701C0.636719 28.2006 0.873809 27.9943 0.643304 28.1567C0.101069 28.3872 -0.107483 28.7012 0.0549682 29.0919C0.289864 29.6561 0.76185 29.3751 1.60045 29.4476C2.3227 29.5112 2.11195 29.6715 2.4149 30.1413C3.70134 30.2247 3.21837 29.6539 3.74963 28.8285C3.84842 29.4717 3.93404 29.7856 4.7441 29.7483C5.32804 29.07 5.14144 28.8395 5.35658 27.9767C5.92735 28.1414 6.17542 28.6704 6.81645 27.6935C7.43332 27.9262 7.22696 28.1194 8.21484 27.8099C9.13247 27.5223 11.0182 26.5695 11.668 26.4905C11.6702 26.5608 11.657 26.8879 11.657 26.8944C11.7405 27.4016 11.6988 27.092 11.8393 27.2523C12.5549 27.0854 12.2146 26.8835 12.3661 26.4949L12.4869 27.5245C13.0708 27.5969 12.9984 27.4455 13.2816 27.2106C13.5538 26.9866 13.6526 27.0876 13.8589 26.8352C14.006 27.3708 14.2146 28.1831 14.8029 28.3345C14.9192 28.3653 15.8281 28.3126 15.8325 28.3104C16.0805 28.2138 15.9642 28.1567 16.0937 28.0031C16.6381 27.3576 16.4142 28.3411 17.0157 28.9448C18.2078 28.8373 17.3165 28.8351 18.0563 28.4268C18.2671 28.508 18.3307 28.4443 18.4712 28.9426C18.6622 29.6276 18.6402 30.1588 19.8323 30.0754C20.1023 29.7769 20.1199 29.7988 20.166 29.3444L20.537 29.5727L20.6182 28.9514C21.0638 29.1863 20.9738 28.9207 21.1209 29.3488C21.0924 29.3597 21.0529 29.3663 21.0331 29.3729C20.7324 29.4585 20.5875 29.3795 20.3899 29.8186C20.2362 30.1632 20.2318 30.2818 20.3833 30.5672C20.4404 30.6747 20.5414 31.1643 20.5348 31.2718C20.5106 31.656 20.6665 31.7153 20.8268 31.9173C20.7521 31.9853 21.2702 32.4375 21.8168 32.6658C22.4776 32.9403 23.2174 32.9973 23.4743 33.0939Z" fill="white"/>
</g>
<path d="M63.6654 0L63.6654 47.6311" stroke="white" stroke-width="1.99903"/>
</svg>
