<svg width="245" height="84" viewBox="0 0 245 84" fill="none" xmlns="http://www.w3.org/2000/svg">
<path d="M142.237 8.70221C142.171 8.76776 142.106 8.73306 142.044 8.73306C141.913 8.73306 141.782 8.73306 141.655 8.76776C141.331 8.79861 141.007 8.83331 140.648 8.83331C140.293 8.86415 139.97 8.9297 139.646 9.05695L138.608 9.44638C138.057 9.60833 137.506 9.80498 137.02 10.0942C136.179 10.6147 135.37 11.1314 134.687 11.8756L133.877 12.8472L133.23 13.5606C132.94 13.8844 132.713 14.243 132.582 14.6633C132.52 14.9564 132.389 15.2147 132.227 15.4422C132 15.7661 131.838 16.09 131.741 16.4447C131.483 17.3508 131.255 18.257 131.059 19.1669C131.028 19.3944 130.997 19.6181 131.028 19.8456C131.059 20.0422 131.093 20.235 131.093 20.4625C131.093 20.9792 131.124 21.4997 131.159 22.0164C131.19 22.6333 131.321 23.2155 131.514 23.7978C131.676 24.3492 131.903 24.9005 132.096 25.4519C132.227 25.9031 132.455 26.2925 132.682 26.7128C132.744 26.8747 132.844 27.0367 132.971 27.1678C133.392 27.6536 133.781 28.1086 134.236 28.5597L134.656 29.0147C134.949 29.4042 135.304 29.728 135.759 29.9208C135.952 30.0172 136.148 30.1483 136.341 30.3103C136.696 30.6033 137.085 30.8617 137.54 31.0544C137.864 31.1855 138.188 31.3475 138.477 31.5094C139.449 31.9953 140.455 32.2228 141.493 32.3192L142.885 32.3847C143.467 32.4464 144.084 32.4464 144.666 32.4464C144.762 32.4464 144.863 32.4156 144.959 32.4156C145.283 32.35 145.607 32.2845 145.931 32.2536C146.417 32.1572 146.902 32.1225 147.388 31.9606C147.843 31.8333 148.294 31.7369 148.684 31.4747C148.942 31.3475 149.2 31.2164 149.493 31.1508C149.817 31.0544 150.172 30.9581 150.465 30.7653C150.723 30.6342 150.951 30.4722 151.178 30.2794C151.599 29.9517 151.857 29.5314 151.957 29.0456C152.019 28.8528 151.988 28.6561 152.019 28.4633C152.054 27.9775 152.085 27.4917 152.054 27.0058C152.019 26.9403 152.019 26.8747 152.019 26.813C151.988 26.5508 151.923 26.2925 152.019 26.0342C152.119 25.7103 152.119 25.3864 152.119 25.0278C152.085 24.542 152.15 24.0561 152.247 23.5703C152.343 22.9572 152.474 22.3403 152.767 21.7889L152.96 21.3378L153.056 20.9792C153.056 20.7208 152.991 20.5897 152.732 20.5589C152.605 20.528 152.474 20.4933 152.343 20.4933C151.437 20.4933 150.531 20.528 149.625 20.4625C149.104 20.4278 148.587 20.4933 148.067 20.4933C147.323 20.528 146.544 20.4933 145.8 20.4933C145.638 20.4933 145.476 20.4933 145.348 20.5589C145.187 20.5897 145.152 20.6553 145.121 20.8172C145.121 20.9483 145.152 21.0447 145.187 21.1411C145.348 21.4997 145.41 21.8544 145.51 22.2092L145.896 23.6705C145.962 23.9944 145.996 24.3492 146.027 24.7039C146.123 25.2553 146.123 25.7758 146.058 26.2925C145.996 26.6511 145.962 26.975 145.996 27.3297C146.027 27.6228 146.027 27.9119 146.027 28.205C146.027 28.6253 145.865 28.8528 145.445 28.98C144.893 29.1111 144.311 29.2075 143.729 29.2422C143.467 29.2731 143.239 29.2422 143.016 29.2075C142.723 29.1767 142.464 29.142 142.206 29.0456C141.62 28.7872 141.072 28.5289 140.587 28.1703C140.39 28.043 140.228 27.8811 140.066 27.6845L139.387 26.8747C138.836 26.1961 138.477 25.4172 138.285 24.542C138.219 24.1872 138.153 23.8633 138.026 23.5394C137.992 23.3775 137.961 23.2464 137.895 23.0845C137.733 22.3094 137.733 21.5306 137.668 20.7517C137.668 20.528 137.702 20.2658 137.702 20.0422C137.702 19.4253 137.799 18.843 137.895 18.257C137.992 17.7094 138.219 17.1889 138.35 16.6722C138.477 16.2172 138.674 15.7969 138.77 15.3766C138.867 15.0181 139.063 14.7289 139.287 14.5014C139.58 14.2083 139.838 13.8844 140.066 13.5297C140.162 13.3331 140.324 13.1711 140.521 13.0439C141.038 12.6544 141.62 12.3961 142.237 12.1686C142.495 12.0722 142.753 12.0375 143.047 12.0375H144.342C144.57 12.0375 144.797 12.0722 144.99 12.1378C145.41 12.265 145.834 12.4616 146.22 12.5889C146.513 12.6853 146.806 12.8164 147.03 12.9783L147.519 13.3331C148.456 13.9808 149.266 14.7597 149.914 15.7314C149.979 15.8278 150.045 15.8933 150.141 15.9589C150.4 16.1517 150.562 16.09 150.596 15.7661V15.7314C150.627 15.4075 150.627 15.1183 150.562 14.7944C150.496 14.4667 150.434 14.1775 150.465 13.8536C150.496 13.5606 150.496 13.2714 150.496 13.0092C150.465 12.4616 150.4 11.9411 150.4 11.4244C150.434 10.9386 150.4 10.4181 150.4 9.93222C150.4 9.80498 150.4 9.67388 150.369 9.54278C150.334 9.31914 150.207 9.28444 150.045 9.38084L149.686 9.67388C149.428 9.90137 149.139 10.0286 148.78 10.0633C148.456 10.0942 148.132 10.0942 147.808 10.0633C147.419 10.0286 147.03 9.90137 146.706 9.70473C146.513 9.57748 146.32 9.48109 146.123 9.38084C145.672 9.21889 145.152 9.12249 144.701 9.0261C144.149 8.895 143.598 8.86415 143.077 8.76776C142.885 8.73306 142.692 8.76776 142.53 8.70221H142.237Z" fill="#2A452A"/>
<path d="M176.278 31.9605C176.698 31.9605 177.122 31.9605 177.542 31.9952C177.639 31.9952 177.77 31.9605 177.866 31.9297C177.994 31.8641 178.028 31.7986 177.963 31.6713C177.932 31.5402 177.866 31.4439 177.801 31.3783C177.608 31.1508 177.411 30.9272 177.184 30.7305C176.86 30.4413 176.571 30.0827 176.343 29.728C176.181 29.435 175.954 29.1419 175.726 28.8836C175.534 28.6252 175.372 28.3977 175.24 28.1086C175.013 27.4916 174.689 26.9094 174.4 26.3272C174.203 25.9994 174.01 25.7102 173.945 25.3863C173.849 24.9661 173.656 24.6075 173.428 24.218C173.266 23.9288 173.135 23.605 173.104 23.2464C173.104 22.7297 173.297 22.3094 173.59 21.8853C173.717 21.6925 173.879 21.4997 174.01 21.2722C174.203 20.9483 174.431 20.6244 174.658 20.3005C174.886 20.0075 175.113 19.6836 175.275 19.3597L175.857 17.9022C175.923 17.7094 175.988 17.5127 176.019 17.32C176.085 16.9961 176.116 16.6722 176.15 16.3483C176.181 15.928 176.116 15.5386 176.085 15.1183C176.085 14.8908 176.019 14.6633 175.923 14.4358C175.761 14.1427 175.63 13.8189 175.499 13.495L175.24 12.8819C174.951 12.3614 174.593 11.8755 174.203 11.3897C173.914 11.0041 173.555 10.6764 173.135 10.4836C173.07 10.4836 173.008 10.4527 172.973 10.418C172.067 9.90134 171.161 9.48105 170.124 9.34995C169.703 9.2844 169.279 9.25356 168.894 9.3191C168.535 9.34995 168.146 9.34995 167.791 9.3191C167.402 9.25356 167.012 9.25356 166.657 9.2844C166.268 9.34995 165.913 9.34995 165.524 9.25356C165.362 9.21885 165.165 9.18801 165.003 9.21885C164.583 9.21885 164.163 9.3191 163.742 9.2844C163.708 9.2844 163.677 9.3191 163.677 9.3191C163.318 9.34995 162.933 9.34995 162.574 9.3191C162.285 9.2844 161.961 9.25356 161.668 9.25356H160.114C159.659 9.21885 159.27 9.15716 158.818 9.18801L157.943 9.2844C157.488 9.3808 157.392 9.54274 157.523 9.96688C157.747 10.6147 157.878 11.2624 158.009 11.9102C158.136 12.5233 158.171 13.1402 158.333 13.7572C158.394 14.0464 158.364 14.3702 158.364 14.6633C158.333 15.018 158.267 15.3766 158.298 15.7313C158.364 16.1208 158.364 16.5102 158.364 16.9305C158.364 17.32 158.429 17.7402 158.364 18.1605C158.333 18.3225 158.298 18.4536 158.298 18.6155C158.333 19.2941 158.333 20.0075 158.333 20.6899C158.333 21.0447 158.333 21.3994 158.298 21.758C158.267 21.9855 158.232 22.2091 158.267 22.4366C158.267 22.6333 158.298 22.8608 158.298 23.0536C158.333 23.2155 158.364 23.3775 158.333 23.5394C158.298 23.7977 158.333 24.0561 158.333 24.3183C158.298 24.5766 158.333 24.8658 158.298 25.128C158.232 25.4827 158.202 25.8375 158.267 26.1652C158.364 26.8747 158.333 27.5572 158.267 28.2358C158.171 29.1766 157.878 30.0519 157.585 30.958L157.392 31.5094C157.361 31.7369 157.457 31.8641 157.685 31.9297C157.878 31.9952 158.07 31.9952 158.267 31.9605C158.687 31.9297 159.142 31.9297 159.563 31.9605C159.887 31.9952 160.21 31.9952 160.534 31.9605C160.858 31.9297 161.182 31.8988 161.506 31.8988C161.699 31.9297 161.861 31.9297 162.057 31.9297H164.128C164.355 31.9297 164.583 31.8988 164.81 31.8988C164.876 31.8988 164.972 31.8641 165.069 31.8333C165.265 31.7677 165.327 31.6366 165.265 31.4747C165.265 31.3128 165.2 31.1508 165.134 31.0236L164.841 30.2794C164.583 29.6933 164.456 29.1111 164.355 28.4633C164.325 28.1394 164.325 27.7847 164.325 27.4261C164.355 27.0713 164.355 26.7475 164.325 26.3889C164.325 26.065 164.294 25.7411 164.355 25.4172C164.39 25.128 164.39 24.8041 164.355 24.5111C164.325 24.1872 164.325 23.8324 164.325 23.4739C164.355 23.1847 164.487 22.9572 164.841 22.9225C165.231 22.8608 165.62 22.8608 166.01 22.8916C166.172 22.9225 166.299 22.9572 166.43 23.0227C166.623 23.15 166.688 23.3466 166.785 23.5394C166.916 23.8324 167.047 24.1216 167.27 24.38C167.498 24.673 167.695 25.0278 167.791 25.4172C167.887 25.7758 168.049 26.0997 168.211 26.3889C168.439 26.7475 168.632 27.1022 168.697 27.5225C168.732 27.6844 168.794 27.8464 168.859 28.0083C168.99 28.3322 169.152 28.6561 169.249 29.0455C169.38 29.728 169.542 30.4066 169.638 31.12C169.669 31.5749 169.865 31.7677 170.317 31.8333C170.448 31.8641 170.61 31.8988 170.772 31.8988C171.547 31.9297 172.325 31.8641 173.104 31.8641H173.687C173.914 31.8333 174.142 31.8333 174.334 31.8641C174.689 31.9605 175.079 31.9952 175.437 31.9952C175.726 31.9605 175.988 31.9605 176.278 31.9605ZM164.355 17.7711C164.421 17.2544 164.325 16.703 164.325 16.1208C164.325 15.8624 164.355 15.635 164.39 15.4075C164.421 14.8908 164.39 14.4049 164.39 13.9191C164.355 13.495 164.39 13.0747 164.583 12.6852C164.714 12.4269 164.907 12.2997 165.2 12.265C165.813 12.1994 166.399 12.265 167.012 12.2341C167.24 12.2341 167.467 12.2341 167.695 12.2997C168.084 12.4269 168.373 12.6544 168.601 12.9783C168.955 13.3986 169.183 13.8844 169.279 14.4358L169.507 15.8624C169.542 16.1863 169.476 16.4755 169.476 16.7686C169.38 17.6438 169.021 18.4189 168.57 19.1669C168.277 19.7183 167.791 19.9766 167.143 19.9766C166.819 19.9766 166.495 19.9111 166.172 19.8802H165.134C164.78 19.8802 164.618 19.78 164.517 19.4561C164.421 19.1977 164.355 18.9086 164.355 18.6155V17.7711Z" fill="#2A452A"/>
<path d="M189.426 13.3987C189.426 13.2059 189.457 13.0439 189.523 12.8473C189.619 12.5581 189.812 12.3306 190.136 12.2997C190.298 12.265 190.46 12.2342 190.656 12.2342C191.107 12.2342 191.593 12.265 192.048 12.1995C192.276 12.1686 192.503 12.1995 192.727 12.1995C193.182 12.2342 193.668 12.3306 194.123 12.3614C194.512 12.3614 194.867 12.4925 195.191 12.6853L195.707 12.9475C196.001 13.0748 196.259 13.2367 196.517 13.3987C196.745 13.5606 196.941 13.7225 197.103 13.9192C197.493 14.3048 197.878 14.6634 198.237 15.0837C198.333 15.2456 198.464 15.3767 198.592 15.5039C198.626 15.5695 198.688 15.635 198.754 15.6042C198.85 15.6042 198.85 15.5039 198.85 15.4422V15.1184C198.819 14.6325 198.788 14.1428 198.788 13.657C198.819 13.3023 198.788 12.9128 198.723 12.5581L198.592 11.652C198.592 11.4245 198.561 11.1661 198.495 10.9039C198.399 10.58 198.237 10.2909 197.944 10.0634C197.782 9.96697 197.62 9.83587 197.427 9.73947C197.169 9.60837 196.907 9.51198 196.617 9.48113C196.132 9.41558 195.611 9.38088 195.125 9.38088C194.639 9.35003 194.123 9.31919 193.602 9.31919H192.827C192.438 9.25364 192.048 9.25364 191.694 9.28448C191.304 9.31919 190.915 9.31919 190.525 9.25364C190.201 9.21894 189.877 9.18809 189.554 9.21894C189.361 9.25364 189.164 9.28448 188.971 9.28448H187.094L185.698 9.21894C185.374 9.18809 185.05 9.18809 184.726 9.21894C184.275 9.28448 183.851 9.28448 183.431 9.28448C183.238 9.28448 183.041 9.31919 182.848 9.38088C182.656 9.48113 182.524 9.60837 182.524 9.83587C182.524 10.0287 182.555 10.1906 182.621 10.3525L182.945 11.197C183.269 12.1378 183.4 13.1095 183.431 14.112V15.7314C183.334 16.4448 183.334 17.1581 183.334 17.8714C183.303 18.257 183.365 18.6811 183.365 19.0706V19.167C183.465 19.6837 183.465 20.2042 183.365 20.7209C183.334 20.7864 183.334 20.852 183.334 20.9137C183.334 22.6334 183.365 24.3801 183.334 26.1306C183.334 26.7475 183.365 27.3953 183.303 28.0084C183.269 28.4325 183.238 28.8181 183.172 29.2076C183.107 29.6934 182.945 30.1484 182.717 30.5687C182.59 30.7962 182.524 31.0545 182.524 31.3475C182.555 31.5095 182.621 31.6367 182.752 31.737C182.979 31.8642 183.203 31.8989 183.465 31.8989C183.951 31.8334 184.402 31.8334 184.888 31.8989C185.181 31.9606 185.439 31.9953 185.732 31.9606C186.153 31.8989 186.573 31.8334 187.028 31.8642C187.448 31.8642 187.903 31.8334 188.354 31.8989C188.744 31.9298 189.133 31.8989 189.554 31.8989C189.943 31.8989 190.332 31.8642 190.722 31.8989C191.011 31.9298 191.304 31.9606 191.593 31.9606C192.145 31.9606 192.696 31.9298 193.278 31.9298C193.702 31.9298 194.123 31.9298 194.543 31.8642C194.771 31.8334 195.029 31.7987 195.256 31.8334C195.646 31.8642 196.031 31.8642 196.39 31.7987C196.876 31.7023 197.331 31.575 197.817 31.5403C198.333 31.4748 198.723 31.2164 198.981 30.7653C199.112 30.5378 199.174 30.2795 199.239 30.052C199.371 29.3695 199.305 28.7217 199.371 28.0431C199.436 27.6537 199.436 27.2642 199.467 26.8748C199.498 26.52 199.532 26.1653 199.532 25.8376C199.532 25.7412 199.563 25.5792 199.436 25.5484C199.305 25.5137 199.239 25.6448 199.209 25.7103C198.85 26.1653 198.464 26.6164 198.075 27.0059C197.392 27.6845 196.552 28.1703 195.677 28.5598C195.029 28.8181 194.35 28.8837 193.637 28.9492C193.02 28.9801 192.372 28.8837 191.724 28.8837H191.659C191.269 28.8181 190.884 28.8837 190.494 28.9184C190.039 28.9801 189.685 28.7873 189.523 28.367C189.457 28.1703 189.392 27.9775 189.392 27.7848C189.392 27.1678 189.361 26.5509 189.457 25.9378C189.523 25.6448 189.488 25.3864 189.457 25.1281C189.326 24.5767 189.326 24.0253 189.523 23.5086C189.619 23.1847 189.65 22.8609 189.781 22.537C189.912 22.1784 190.171 22.0473 190.56 22.1128C190.784 22.1784 191.046 22.2748 191.269 22.375C192.145 22.6642 192.954 23.0536 193.733 23.5395C193.83 23.605 193.926 23.6706 194.026 23.7014C194.188 23.767 194.285 23.7014 194.316 23.5395C194.381 23.3467 194.412 23.15 194.381 22.9226L194.316 21.92C194.285 21.6617 194.316 21.3687 194.35 21.1103C194.381 20.5281 194.35 19.942 194.381 19.3945C194.412 18.8739 194.381 18.3881 194.381 17.9023C194.381 17.7712 194.381 17.6748 194.35 17.5784C194.285 17.4473 194.188 17.3856 194.057 17.4164L193.83 17.5128C193.247 17.9023 192.696 18.2262 192.079 18.5192C191.628 18.7467 191.142 18.9395 190.622 19.0359C190.171 19.1323 189.912 19.005 189.75 18.55C189.554 18.0334 189.523 17.4473 189.488 16.8997C189.457 16.4139 189.392 15.9589 189.426 15.4731V13.3987Z" fill="#2A452A"/>
<path d="M210.381 13.3987C210.381 13.2059 210.412 13.0439 210.477 12.8473C210.574 12.5581 210.767 12.3306 211.09 12.2997C211.252 12.265 211.414 12.2342 211.611 12.2342C212.062 12.2342 212.548 12.265 213.003 12.1995C213.23 12.1686 213.458 12.1995 213.682 12.1995C214.137 12.2342 214.622 12.3306 215.077 12.3614C215.467 12.3614 215.822 12.4925 216.145 12.6853L216.662 12.9475C216.955 13.0748 217.213 13.2367 217.472 13.3987C217.699 13.5606 217.896 13.7225 218.058 13.9192C218.447 14.3048 218.833 14.6634 219.192 15.0837C219.288 15.2456 219.419 15.3767 219.546 15.5039C219.581 15.5695 219.643 15.635 219.708 15.6042C219.805 15.6042 219.805 15.5039 219.805 15.4422V15.1184C219.774 14.6325 219.743 14.1428 219.743 13.657C219.774 13.3023 219.743 12.9128 219.677 12.5581L219.546 11.652C219.546 11.4245 219.515 11.1661 219.45 10.9039C219.353 10.58 219.192 10.2909 218.898 10.0634C218.737 9.96697 218.575 9.83587 218.382 9.73947C218.123 9.60837 217.861 9.51198 217.572 9.48113C217.086 9.41558 216.566 9.38088 216.08 9.38088C215.594 9.35003 215.077 9.31919 214.557 9.31919H213.782C213.392 9.25364 213.003 9.25364 212.648 9.28448C212.259 9.31919 211.869 9.31919 211.48 9.25364C211.156 9.21894 210.832 9.18809 210.508 9.21894C210.315 9.25364 210.119 9.28448 209.926 9.28448H208.048L206.652 9.21894C206.328 9.18809 206.005 9.18809 205.681 9.21894C205.23 9.28448 204.805 9.28448 204.385 9.28448C204.192 9.28448 203.996 9.31919 203.803 9.38088C203.61 9.48113 203.479 9.60837 203.479 9.83587C203.479 10.0287 203.51 10.1906 203.575 10.3525L203.899 11.197C204.223 12.1378 204.354 13.1095 204.385 14.112V15.7314C204.289 16.4448 204.289 17.1581 204.289 17.8714C204.258 18.257 204.32 18.6811 204.32 19.0706V19.167C204.42 19.6837 204.42 20.2042 204.32 20.7209C204.289 20.7864 204.289 20.852 204.289 20.9137C204.289 22.6334 204.32 24.3801 204.289 26.1306C204.289 26.7475 204.32 27.3953 204.258 28.0084C204.223 28.4325 204.192 28.8181 204.127 29.2076C204.061 29.6934 203.899 30.1484 203.672 30.5687C203.545 30.7962 203.479 31.0545 203.479 31.3475C203.51 31.5095 203.575 31.6367 203.706 31.737C203.934 31.8642 204.158 31.8989 204.42 31.8989C204.906 31.8334 205.357 31.8334 205.843 31.8989C206.136 31.9606 206.394 31.9953 206.687 31.9606C207.107 31.8989 207.528 31.8334 207.983 31.8642C208.403 31.8642 208.858 31.8334 209.309 31.8989C209.698 31.9298 210.088 31.8989 210.508 31.8989C210.898 31.8989 211.287 31.8642 211.676 31.8989C211.966 31.9298 212.259 31.9606 212.548 31.9606C213.099 31.9606 213.651 31.9298 214.233 31.9298C214.657 31.9298 215.077 31.9298 215.498 31.8642C215.725 31.8334 215.983 31.7987 216.211 31.8334C216.6 31.8642 216.986 31.8642 217.345 31.7987C217.83 31.7023 218.285 31.575 218.771 31.5403C219.288 31.4748 219.677 31.2164 219.936 30.7653C220.067 30.5378 220.128 30.2795 220.194 30.052C220.325 29.3695 220.26 28.7217 220.325 28.0431C220.391 27.6537 220.391 27.2642 220.422 26.8748C220.452 26.52 220.487 26.1653 220.487 25.8376C220.487 25.7412 220.518 25.5792 220.391 25.5484C220.26 25.5137 220.194 25.6448 220.163 25.7103C219.805 26.1653 219.419 26.6164 219.03 27.0059C218.347 27.6845 217.507 28.1703 216.631 28.5598C215.983 28.8181 215.305 28.8837 214.592 28.9492C213.975 28.9801 213.327 28.8837 212.679 28.8837H212.613C212.224 28.8181 211.838 28.8837 211.449 28.9184C210.994 28.9801 210.639 28.7873 210.477 28.367C210.412 28.1703 210.346 27.9775 210.346 27.7848C210.346 27.1678 210.315 26.5509 210.412 25.9378C210.477 25.6448 210.443 25.3864 210.412 25.1281C210.281 24.5767 210.281 24.0253 210.477 23.5086C210.574 23.1847 210.605 22.8609 210.736 22.537C210.867 22.1784 211.125 22.0473 211.515 22.1128C211.738 22.1784 212 22.2748 212.224 22.375C213.099 22.6642 213.909 23.0536 214.688 23.5395C214.784 23.605 214.881 23.6706 214.981 23.7014C215.143 23.767 215.239 23.7014 215.27 23.5395C215.336 23.3467 215.367 23.15 215.336 22.9226L215.27 21.92C215.239 21.6617 215.27 21.3687 215.305 21.1103C215.336 20.5281 215.305 19.942 215.336 19.3945C215.367 18.8739 215.336 18.3881 215.336 17.9023C215.336 17.7712 215.336 17.6748 215.305 17.5784C215.239 17.4473 215.143 17.3856 215.012 17.4164L214.784 17.5128C214.202 17.9023 213.651 18.2262 213.034 18.5192C212.583 18.7467 212.097 18.9395 211.576 19.0359C211.125 19.1323 210.867 19.005 210.705 18.55C210.508 18.0334 210.477 17.4473 210.443 16.8997C210.412 16.4139 210.346 15.9589 210.381 15.4731V13.3987Z" fill="#2A452A"/>
<path d="M240.501 9.25367C240.08 9.21897 239.66 9.25367 239.24 9.31922C239.174 9.31922 239.078 9.31922 239.012 9.35007C238.85 9.41562 238.816 9.48117 238.85 9.64311C238.85 9.7048 238.881 9.77035 238.916 9.80506C239.012 10.0942 239.14 10.3217 239.24 10.5801C239.464 11.0351 239.626 11.4901 239.66 11.9759C239.691 12.427 239.757 12.882 239.822 13.3331C239.919 13.7881 239.949 14.274 239.888 14.7598C239.822 15.0181 239.822 15.2803 239.853 15.5387C239.888 15.959 239.949 16.3792 239.949 16.7995C239.919 17.5129 239.949 18.257 239.949 18.9704C239.949 19.0706 239.949 19.1323 239.919 19.2326C239.822 19.7492 239.822 20.3006 239.822 20.8173C239.822 21.1759 239.822 21.5306 239.726 21.8854C239.726 22.0165 239.691 22.1476 239.564 22.2093C239.433 22.244 239.336 22.1476 239.24 22.0473C238.916 21.6926 238.654 21.3031 238.396 20.8829C238.072 20.3006 237.717 19.7492 237.358 19.1979L236.745 18.3226C236.387 17.644 235.997 16.9615 235.612 16.3137C235.349 15.8626 235.091 15.4076 234.767 14.9873C234.25 14.3395 233.826 13.657 233.441 12.9129C233.244 12.5234 233.017 12.1687 232.727 11.8139L232.242 11.1662C231.918 10.7767 231.594 10.3873 231.204 10.0287C230.88 9.77035 230.491 9.57756 230.071 9.48117C229.778 9.41562 229.489 9.38091 229.195 9.35007C228.741 9.28452 228.32 9.25367 227.869 9.28452C227.576 9.31922 227.252 9.35007 226.959 9.35007C226.766 9.38091 226.604 9.31922 226.408 9.31922C225.957 9.31922 225.536 9.28452 225.081 9.25367C224.788 9.21897 224.53 9.21897 224.241 9.25367C223.979 9.28452 223.882 9.41562 223.948 9.64311C223.979 9.77035 224.013 9.90145 224.079 10.0287L224.241 10.5145C224.368 11.0042 224.499 11.4901 224.692 11.9759C224.788 12.1995 224.854 12.4926 224.889 12.7509L224.985 13.4951C225.016 13.9192 225.016 14.3048 224.95 14.7289C224.889 14.9217 224.889 15.1184 224.889 15.3112C224.889 15.504 224.919 15.7006 224.919 15.9281C224.919 16.3137 224.95 16.7031 224.889 17.0926C224.823 17.6093 224.854 18.0951 224.854 18.5848C224.854 18.874 224.889 19.167 224.919 19.4562C224.985 19.6837 224.985 19.8803 224.985 20.104V20.9792C224.985 21.2723 224.95 21.5306 224.919 21.8237C224.854 22.082 224.823 22.3404 224.854 22.5987C224.919 22.9881 224.985 23.4084 224.95 23.8326C224.95 23.8943 224.95 23.9598 224.985 24.0254C225.016 24.4456 225.016 24.9006 224.95 25.3209C224.919 25.5484 224.889 25.7759 224.889 25.9995C224.889 26.227 224.919 26.4545 224.919 26.7129C224.919 27.1987 224.889 27.7192 224.854 28.2051C224.757 29.0803 224.565 29.9209 224.175 30.7306C224.044 30.989 223.917 31.2512 223.851 31.5404C223.817 31.7023 223.882 31.7987 224.044 31.8643C224.079 31.8643 224.11 31.899 224.175 31.899C224.499 31.899 224.854 31.9954 225.212 31.9606C225.405 31.9606 225.567 31.9606 225.729 31.9298C226.149 31.9298 226.57 31.899 226.959 31.899H227.09C227.576 31.8334 228.031 31.8643 228.517 31.9298C228.644 31.9298 228.806 31.9606 228.968 31.9298C229.226 31.8643 229.292 31.7679 229.226 31.5095L229.165 31.3476C229.099 31.1856 229.034 30.989 228.937 30.827C228.741 30.4415 228.548 30.0173 228.451 29.5662C228.32 29.142 228.224 28.7218 228.193 28.2706V26.9404C228.224 26.5509 228.255 26.1653 228.193 25.7759C228.193 25.5137 228.127 25.2245 228.158 24.9662C228.158 24.704 228.158 24.4456 228.193 24.1873V23.2156C228.193 22.8917 228.193 22.537 228.127 22.1784C228.062 21.8545 228.062 21.5306 228.127 21.2067C228.193 20.852 228.255 20.4934 228.224 20.1695C228.158 19.5873 228.193 19.0051 228.224 18.4537C228.255 18.2917 228.289 18.1298 228.355 17.9987C228.417 17.8059 228.517 17.7712 228.71 17.8714C228.775 17.9331 228.841 17.9678 228.872 18.0334L229.327 18.4537C229.55 18.6812 229.747 18.9395 229.909 19.1979C230.233 19.7184 230.557 20.2351 230.815 20.7865C231.073 21.3031 231.432 21.6926 231.721 22.1784C231.949 22.5678 232.272 22.9226 232.434 23.3776C232.531 23.6051 232.596 23.8326 232.758 24.0254C233.082 24.542 233.406 25.0934 233.765 25.5793C233.927 25.8067 234.089 26.0651 234.185 26.3273C234.347 26.682 234.54 27.0368 234.767 27.3298C235.222 27.9467 235.546 28.5945 235.935 29.2076C236.225 29.6626 236.483 30.1176 236.872 30.4415C237.1 30.6034 237.293 30.827 237.455 31.0237L237.779 31.4131C238.006 31.6059 238.264 31.7023 238.557 31.737C238.785 31.7987 239.012 31.7679 239.24 31.7987C239.691 31.8643 240.146 31.9298 240.597 31.899C240.663 31.899 240.728 31.899 240.794 31.9298C241.083 31.9606 241.407 31.9298 241.7 31.8643C242.217 31.737 242.541 31.4131 242.706 30.8617C242.834 30.3759 242.899 29.8901 243.03 29.4042C243.092 29.2076 243.127 29.0148 243.092 28.8181C243.061 28.3323 243.03 27.8465 243.061 27.3606C243.061 26.3273 243.03 25.3209 243.061 24.2837C243.127 23.1501 243.03 22.0165 243.157 20.8829V20.397C243.092 20.0423 243.127 19.6837 243.127 19.329C243.157 18.9395 243.192 18.5501 243.127 18.1606C243.03 17.7404 243.03 17.2854 243.127 16.8651C243.192 16.6376 243.223 16.4448 243.192 16.2173C243.127 15.8279 243.061 15.4076 243.092 15.0181V14.4051C243.092 14.112 243.092 13.7881 243.157 13.4951L243.289 12.1995C243.289 11.8139 243.354 11.3898 243.516 11.0042L243.967 9.99785C244.002 9.8359 244.098 9.7048 244.098 9.57756C244.098 9.41562 244.064 9.38091 243.936 9.31922L243.612 9.25367C243.127 9.18812 242.641 9.18812 242.155 9.21897C241.927 9.25367 241.669 9.28452 241.407 9.28452C241.118 9.25367 240.794 9.25367 240.501 9.25367Z" fill="#2A452A"/>
<path d="M150.745 66.0589C150.806 66.4137 150.907 66.8031 150.872 67.1578C150.872 67.4509 150.907 67.7439 150.937 68.0331C151.069 68.6192 151.292 69.1359 151.454 69.6873C151.62 70.1075 151.813 70.5278 152.04 70.9173C152.167 71.1101 152.299 71.3376 152.364 71.5998C152.526 72.1473 152.85 72.5714 153.174 73.0226C153.498 73.4775 153.918 73.8014 154.273 74.2217C154.89 74.8695 155.603 75.4517 156.413 75.9067C157.288 76.3925 158.163 76.8475 159.1 77.1059C159.49 77.2023 159.879 77.3334 160.299 77.3951C160.947 77.4953 161.595 77.5262 162.277 77.557C162.729 77.557 163.214 77.557 163.7 77.4953C164.252 77.4298 164.803 77.3334 165.354 77.2023C166.23 77.0403 167.039 76.782 167.753 76.2306C167.915 76.0995 168.138 76.0031 168.366 75.9067C168.755 75.7448 169.11 75.552 169.403 75.2281C169.63 75.0006 169.889 74.7731 170.147 74.5765C170.633 74.2217 171.057 73.8014 171.443 73.3811C171.574 73.25 171.67 73.1537 171.736 72.9917C171.994 72.4712 172.353 71.9545 172.677 71.4687L172.966 70.9173C173.259 70.2386 173.486 69.5562 173.71 68.8428C173.907 68.2298 174.034 67.582 174.099 66.9342C174.099 66.7376 174.099 66.5101 174.134 66.3173C174.165 65.9934 174.165 65.7003 174.134 65.4111L174.003 64.505C173.972 64.0192 173.907 63.5295 173.775 63.0437C173.679 62.6234 173.548 62.2031 173.421 61.7828C173.259 61.0695 173 60.3909 172.611 59.7739C172.414 59.4809 172.191 59.2225 172.06 58.9295C171.767 58.382 171.412 57.8961 170.926 57.5067L170.602 57.1481C170.309 56.8242 169.985 56.5003 169.596 56.2767C168.724 55.6598 167.784 55.1392 166.812 54.7189C166.392 54.5261 165.937 54.3295 165.482 54.2678C164.934 54.2022 164.414 54.0712 163.928 53.8784C163.669 53.8128 163.411 53.782 163.153 53.8437C162.729 53.9092 162.308 53.9092 161.919 53.8784C161.63 53.8437 161.337 53.8784 161.078 53.9092C160.658 53.9748 160.269 54.0712 159.879 54.1675C159.166 54.3295 158.452 54.557 157.774 54.85C157.253 55.1084 156.767 55.4014 156.282 55.6251C155.958 55.787 155.669 56.0492 155.406 56.2767C155.183 56.5003 154.92 56.7278 154.662 56.9245C154.435 57.1481 154.176 57.3756 153.984 57.6031C153.27 58.4784 152.622 59.3536 152.071 60.3253C151.813 60.8111 151.554 61.3278 151.423 61.8484L151.292 62.3342C151.099 62.982 150.968 63.6298 150.937 64.3084C150.907 64.667 150.841 65.0526 150.745 65.3764V66.0589ZM167.556 65.6039C167.591 65.897 167.556 66.1245 167.49 66.3481C167.363 66.7376 167.363 67.1578 167.394 67.5473C167.394 68.0023 167.329 68.4225 167.167 68.812C167.07 69.1359 166.974 69.4906 166.908 69.8492C166.615 70.8209 166.195 71.727 165.547 72.5367C165.289 72.8606 165.03 73.1845 164.707 73.4775C164.348 73.8014 163.897 73.9942 163.442 74.1562C163.153 74.2526 162.86 74.3528 162.536 74.3837C161.888 74.3837 161.306 74.1909 160.754 73.867C159.975 73.412 159.393 72.7642 158.973 71.9545C158.422 70.9828 158.063 69.9764 157.774 68.9084C157.612 68.2953 157.515 67.6475 157.415 66.9959C157.384 66.6103 157.481 66.2209 157.515 65.8623V65.5384C157.481 65.442 157.481 65.3456 157.481 65.2492C157.481 65.0873 157.45 64.9562 157.45 64.8289C157.415 64.5667 157.481 64.3431 157.515 64.1156C157.643 63.4987 157.708 62.9164 157.87 62.2995C157.967 61.8484 158.098 61.3934 158.29 60.9384L158.387 60.6492C158.584 59.9667 158.907 59.3845 159.362 58.8678C159.621 58.5092 159.879 58.1198 160.269 57.8614C160.785 57.472 161.367 57.2484 162.015 57.1481C162.405 57.0864 162.825 57.1173 163.214 57.1828C163.573 57.2484 163.862 57.4103 164.155 57.6031L165.096 58.4128C165.482 58.7676 165.744 59.2225 166.002 59.6775L166.422 60.3909C166.939 61.4242 167.267 62.4961 167.394 63.6606C167.429 64.212 167.46 64.7634 167.556 65.3147C167.591 65.4111 167.556 65.5384 167.556 65.6039Z" fill="#2A452A"/>
<path d="M176.943 76.9439C177.14 77.1058 177.333 77.0403 177.529 77.0403C177.949 77.0094 178.404 76.9747 178.825 77.0403C179.018 77.0403 179.214 77.0711 179.407 77.0711C180.055 77.0711 180.703 77.0403 181.35 77.0094L181.933 76.9092C182.226 76.8475 182.291 76.7473 182.291 76.4581C182.291 76.165 182.256 75.8758 182.291 75.5828C182.322 75.097 182.322 74.6111 182.418 74.1253C182.519 73.4775 182.646 72.8297 182.873 72.2128C182.97 72.02 183.066 71.7925 183.101 71.565C183.166 71.3722 183.294 71.2411 183.521 71.1756L183.78 71.11C184.038 71.0792 184.331 71.0792 184.589 71.11C185.206 71.1447 185.788 71.11 186.371 71.1447C186.729 71.1756 187.084 71.11 187.473 71.0792C187.99 71.0483 188.511 71.11 189.027 71.2103C189.255 71.2411 189.482 71.2411 189.71 71.3067C189.872 71.3375 189.999 71.4378 190.034 71.5997L190.358 72.4403C190.712 73.3811 190.843 74.3181 190.843 75.2897C190.843 75.6483 190.874 76.0031 190.874 76.3617C190.874 76.6856 191.036 76.8475 191.36 76.8784H191.395L192.073 77.0094C192.428 77.0403 192.787 77.0711 193.141 77.0403C193.5 76.9747 193.889 76.9439 194.275 76.9747C194.437 76.9747 194.568 77.0094 194.699 77.0094C195.185 77.0094 195.636 77.0094 196.091 77.0403C196.673 77.0711 197.256 77.0403 197.842 77.0403C198.196 77.0403 198.551 76.9747 198.875 76.9092C199.137 76.8784 199.168 76.7473 199.103 76.5236L198.875 76.165C198.586 75.7756 198.328 75.4208 198.065 75.0006C197.418 73.9942 196.87 72.9261 196.446 71.7617C195.995 70.5278 195.54 69.2978 195.15 68.0331C194.958 67.4508 194.699 66.8995 194.537 66.2864C194.341 65.5075 194.017 64.7942 193.728 64.05C193.531 63.595 193.338 63.1747 193.273 62.6889C193.242 62.365 193.141 62.072 193.014 61.8136C192.852 61.3933 192.656 60.9731 192.559 60.5528L192.266 59.6119L191.942 58.9295C191.719 58.3472 191.588 57.7342 191.295 57.1481C191.133 56.8242 191.005 56.4694 190.778 56.1456L189.872 54.9464C189.71 54.7536 189.513 54.6534 189.289 54.557C188.996 54.4606 188.703 54.395 188.38 54.395H187.342C187.084 54.395 186.826 54.395 186.567 54.3642C186.274 54.2986 185.985 54.2986 185.692 54.2986C185.464 54.2986 185.272 54.3295 185.044 54.3642C184.624 54.395 184.524 54.5261 184.524 54.9464V55.1083C184.589 55.5942 184.686 56.1147 184.624 56.6005C184.558 57.1828 184.462 57.765 184.265 58.2817C184.073 58.8986 183.876 59.5156 183.652 60.0978C183.359 60.9384 183.132 61.7828 182.873 62.6234C182.646 63.3058 182.388 63.9189 182.16 64.5667C181.967 65.1181 181.74 65.6386 181.609 66.1861C181.416 66.8031 181.223 67.42 180.996 68.0331C180.703 68.812 180.313 69.5561 180.12 70.4006L180.024 70.7553C179.7 71.8234 179.179 72.795 178.728 73.8014C178.501 74.2872 178.177 74.7384 177.919 75.2281C177.626 75.7447 177.236 76.1997 176.943 76.7164V76.9439ZM187.281 68.195C186.826 68.195 186.405 68.1642 185.95 68.1642C185.626 68.1642 185.337 68.1333 185.013 68.0678C184.655 67.9714 184.524 67.7747 184.558 67.3545C184.589 66.9342 184.72 66.51 184.882 66.0897C185.075 65.6386 185.206 65.1528 185.337 64.6669C185.399 64.5358 185.434 64.4047 185.464 64.2775C185.723 63.6606 185.919 63.0436 186.147 62.4306C186.243 62.2686 186.309 62.072 186.405 61.9447C186.533 61.7828 186.633 61.7481 186.729 61.9447C187.053 62.5578 187.408 63.1747 187.539 63.8881C187.604 64.4047 187.797 64.8597 187.99 65.3147C188.152 65.6695 188.252 66.0242 188.349 66.3828L188.576 67.42C188.638 67.8094 188.38 68.0331 188.121 68.1333C187.828 68.195 187.57 68.2297 187.281 68.195Z" fill="#2A452A"/>
<path d="M221.451 54.2986C221.351 54.3295 221.224 54.3295 221.093 54.3295C220.51 54.2986 219.959 54.2986 219.377 54.4297C219.149 54.4914 218.891 54.4914 218.633 54.4606C218.374 54.4297 218.112 54.395 217.854 54.4297C217.499 54.4914 217.206 54.6225 216.979 54.9464C216.882 55.1392 216.817 55.3358 216.751 55.5286C216.589 55.9836 216.396 56.3731 216.072 56.7278L215.718 57.2483C215.521 57.6339 215.294 57.9925 215.035 58.3472C214.808 58.6056 214.646 58.9295 214.357 59.157C214.094 59.3536 213.836 59.5772 213.643 59.8394C213.223 60.3253 212.768 60.842 212.379 61.3278C211.989 61.7828 211.604 62.2031 211.179 62.5925C211.052 62.7197 210.956 62.82 210.794 62.8817C210.694 62.9472 210.632 62.9472 210.597 62.82C210.566 62.7853 210.566 62.7544 210.566 62.7197C210.501 62.5578 210.501 62.3959 210.501 62.2339C210.501 61.8136 210.532 61.3625 210.501 60.9384C210.47 60.3253 210.47 59.7083 210.47 59.0914C210.47 58.6056 210.566 58.1544 210.663 57.6686C210.794 56.7933 211.052 55.9528 211.341 55.1083C211.376 55.0119 211.442 54.8808 211.442 54.7844C211.472 54.557 211.407 54.4606 211.214 54.395C210.956 54.3295 210.728 54.3295 210.501 54.3642C210.046 54.4297 209.595 54.395 209.14 54.4297C208.492 54.4606 207.875 54.4297 207.227 54.4297C206.483 54.4606 205.739 54.3642 204.995 54.3642C204.96 54.3642 204.96 54.3642 204.929 54.3295C204.636 54.2986 204.312 54.3295 204.023 54.3295C203.923 54.3295 203.861 54.3642 203.761 54.395C203.634 54.4297 203.568 54.5261 203.568 54.6881C203.568 54.8153 203.599 54.9464 203.664 55.1083C203.795 55.5286 203.957 55.9528 204.085 56.4039C204.247 57.0208 204.409 57.6031 204.443 58.2508V60.3908C204.443 60.6492 204.443 60.8767 204.509 61.135C204.54 61.3933 204.57 61.6208 204.54 61.8483C204.509 62.2031 204.474 62.5578 204.474 62.8817C204.474 63.1747 204.509 63.4331 204.509 63.6953C204.509 64.4703 204.474 65.28 204.474 66.0589C204.443 67.3197 204.474 68.5845 204.474 69.8492C204.474 70.2695 204.443 70.6897 204.474 71.1447C204.509 71.565 204.605 72.02 204.54 72.4711C204.509 72.8953 204.474 73.3156 204.409 73.705C204.247 74.4145 204.023 75.097 203.761 75.7756C203.699 76.0378 203.599 76.2614 203.568 76.4889C203.502 76.782 203.599 76.9439 203.892 77.0094C204.085 77.0403 204.281 77.0711 204.474 77.0711C205.187 77.1367 205.866 77.0403 206.579 77.0403H206.68C207.131 76.9747 207.617 76.9439 208.102 77.0094C208.264 77.0403 208.426 77.0403 208.623 77.0403H210.273C210.566 77.0403 210.89 77.0403 211.214 76.9747C211.442 76.9092 211.503 76.782 211.472 76.5545L211.28 76.0378C211.118 75.6136 210.921 75.1933 210.825 74.7384C210.694 74.1253 210.663 73.5084 210.597 72.8953C210.566 72.3439 210.597 71.8234 210.566 71.2758C210.532 70.7244 210.566 70.1384 210.532 69.5908C210.501 69.1667 210.532 68.7811 210.501 68.3917C210.501 67.9367 210.663 67.5472 211.017 67.2234C211.179 67.0614 211.245 67.0614 211.407 67.2581C211.538 67.42 211.665 67.5819 211.765 67.7439C212.089 68.2606 212.348 68.7811 212.702 69.2322C212.93 69.4906 213.061 69.7836 213.188 70.0767C213.319 70.3659 213.447 70.6242 213.643 70.8517C213.836 71.1447 214.033 71.4378 214.195 71.727C214.584 72.3092 214.908 72.9261 215.263 73.5431C215.425 73.8322 215.617 74.1561 215.652 74.5147C215.683 75.097 215.91 75.6483 216.072 76.2306C216.169 76.5853 216.396 76.7472 216.72 76.8475C217.075 76.9747 217.434 76.9092 217.788 76.9439C218.081 76.9439 218.405 76.9092 218.698 76.9439C219.053 76.9747 219.408 77.0094 219.797 77.0094C220.09 77.0094 220.414 76.9747 220.703 76.9747C221.386 76.9747 222.064 77.0094 222.747 77.0403C223.425 77.0711 224.139 77.0403 224.817 77.0403C224.949 77.0403 225.045 77.0094 225.141 76.9747C225.272 76.9439 225.272 76.8475 225.242 76.7472C225.207 76.6509 225.141 76.5853 225.045 76.5236L224.17 75.7139C223.846 75.39 223.522 75.0623 223.233 74.7075C223.036 74.4492 222.843 74.1908 222.616 73.9633C222.327 73.6703 222.064 73.3156 221.902 72.9261C221.74 72.5714 221.548 72.2475 221.289 71.9545C221.027 71.6614 220.834 71.3375 220.703 70.9828C220.576 70.6589 220.414 70.3659 220.217 70.1075C219.994 69.8145 219.766 69.5253 219.57 69.2014C219.246 68.6809 218.891 68.195 218.698 67.6128C218.698 67.5819 218.664 67.5472 218.633 67.5164L218.147 66.6411L216.558 63.9536C216.331 63.4986 216.072 63.0436 215.941 62.527C215.88 62.2339 215.845 61.9447 216.007 61.6517C216.234 61.2005 216.558 60.7764 216.948 60.4217C217.237 60.1942 217.499 59.9667 217.692 59.6775C217.885 59.4153 218.112 59.157 218.374 58.9295C218.698 58.6056 219.053 58.2817 219.346 57.9269C219.67 57.472 220.09 57.1172 220.541 56.7625C220.804 56.5658 221.062 56.3731 221.289 56.1147C221.482 55.8525 221.74 55.625 222.003 55.4322C222.327 55.2047 222.681 54.9772 223.005 54.6881C223.071 54.5917 223.167 54.5261 223.136 54.4297C223.102 54.2986 222.974 54.3295 222.843 54.2986C222.712 54.2986 222.55 54.3642 222.423 54.2986H221.451Z" fill="#2A452A"/>
<mask id="mask0_56_1671" style="mask-type:luminance" maskUnits="userSpaceOnUse" x="0" y="0" width="100" height="82">
<path d="M0 0.0809937H99.1951V81.5045H0V0.0809937Z" fill="white"/>
</mask>
<g mask="url(#mask0_56_1671)">
<path fill-rule="evenodd" clip-rule="evenodd" d="M53.1063 80.02C52.0498 79.8079 51.938 79.0406 51.6642 78.254C51.9997 78.5547 52.1693 78.6049 52.4816 79.0097C52.6822 79.2758 52.9636 79.6961 53.1063 80.02ZM49.6206 76.3029C49.9946 76.5998 50.5499 76.8466 49.6939 77.2206L49.6206 76.3029ZM49.1926 73.573L49.289 73.0987C50.253 75.713 49.5975 74.3712 49.1926 73.573ZM50.6501 73.5113C50.708 73.4882 50.7851 73.4728 50.8236 73.4535C50.8622 73.4381 50.947 73.4111 50.9894 73.3879L51.564 72.8635C51.5794 72.7903 51.6141 72.771 51.7336 72.7517L51.375 73.9046C51.9573 74.4136 52.3351 75.2734 52.3775 76.1564C51.6372 75.204 51.1514 74.6873 50.6501 73.5113ZM51.1128 72.2775C51.8262 71.7299 50.4226 72.1001 51.6758 71.7299C51.429 72.3199 51.7722 72.0345 51.1128 72.2775ZM52.5356 72.0268C53.4148 71.1284 53.0523 72.6013 53.3068 70.712C54.2977 71.8263 52.686 70.712 53.7309 73.3571C54.3247 74.857 53.2798 74.3712 53.3531 76.596L52.6822 74.6835C53.1449 74.9187 53.4417 74.6295 53.5459 74.5755C53.1179 73.5653 52.8711 73.091 52.5356 72.0268ZM52.7785 70.23C52.2195 70.0719 52.5009 70.5539 52.4277 69.5745C52.3698 68.8303 52.0999 69.4781 52.5665 68.7185C52.9636 68.919 52.9251 68.5797 52.9366 69.4203C52.9443 69.964 53.033 69.775 52.7785 70.23ZM50.1334 68.8689C50.2684 68.518 50.2954 68.6029 50.4188 68.4216C50.6694 68.7378 50.7465 68.0168 50.7504 70.0334C50.6463 69.9832 49.7132 69.9948 50.1334 68.8689ZM51.0396 64.535L51.5023 64.4077L51.7028 65.2097L51.8223 66.0889C51.2092 65.9385 51.6218 66.0387 51.2401 65.7534C50.8506 65.4642 51.5678 65.8035 50.8314 65.4372L50.7118 66.6788C50.6964 66.7328 50.6424 66.8947 50.6309 66.8639C50.6193 66.833 50.573 66.9911 50.5383 67.0528C49.9098 66.3626 50.1913 65.7765 50.2029 64.7702C50.8583 64.6661 50.5614 64.7393 51.0396 64.535ZM49.4702 62.0826C48.5371 62.0441 49.1849 62.2986 48.9343 61.5274C49.4741 61.8513 49.208 61.3153 49.4702 62.0826ZM65.7958 57.4325C65.792 57.3477 65.977 57.0007 66.1197 57.4788C66.3279 58.1805 65.8074 57.6639 65.7958 57.4325ZM85.2678 56.0097C84.3886 55.8593 84.8899 56.0521 84.5351 55.5547C85.1906 55.7205 84.8629 55.3234 85.2678 56.0097ZM79.673 55.3311C79.0907 55.0766 79.3491 55.3041 79.0522 54.8221C80.1472 54.9339 79.457 54.5291 79.673 55.3311ZM38.3385 54.8298C38.3385 54.4057 38.859 54.1705 39.3988 54.1358C39.4027 54.5599 39.4798 54.7874 39.0865 54.9841C38.3616 55.3427 38.3423 54.8337 38.3385 54.8298ZM87.1533 56.457L86.6751 55.547C86.1199 55.6897 86.3628 55.9519 85.4451 55.6318C85.4567 55.0149 86.0235 53.7965 86.3243 53.2836C87.3576 53.6499 87.5851 53.3222 87.8087 54.3093C86.7137 53.9854 86.2626 53.7194 86.4631 54.5522C86.5672 54.9802 87.0491 55.308 87.4039 55.6087L87.1533 56.457ZM40.8717 53.4225C41.4694 53.1448 41.8897 53.1757 42.2984 53.7039L41.5697 53.8659C40.8795 53.8466 41.1532 54.0355 40.8717 53.4225ZM88.1172 53.6847C87.7008 53.4417 87.7972 53.5998 87.6584 53.1217C88.2252 53.3222 87.9013 52.6706 88.1172 53.6847ZM68.225 50.8159C68.2404 50.7465 68.2983 50.7427 68.4409 50.6964L68.5643 51.7452L70.4305 53.0369C68.7224 53.0523 65.7958 53.0909 64.4926 52.5279C65.3216 52.177 66.4166 52.2349 67.4615 52.0845L68.225 50.8159ZM71.3598 52.659C70.2917 52.4624 71.0166 52.8287 70.8315 52.1115C71.4253 52.3505 71.167 51.9919 71.3598 52.659ZM73.6926 51.7914C74.3905 51.8994 74.2748 51.7722 74.3018 52.4816C73.7504 52.4508 73.4072 52.5086 73.6926 51.7914ZM79.0637 52.1385C79.4223 51.9341 78.5085 51.9495 79.6884 51.9881L79.3105 52.4701L79.0637 52.1385ZM57.367 52.0266C58.0418 51.5832 57.7757 52.1192 57.9762 51.0897C58.8939 51.3364 58.169 51.1012 58.8129 51.4483C58.8669 51.4791 59.0288 51.5755 59.0674 51.5986L59.3142 51.7452C58.7744 52.8171 59.1137 52.0806 57.9145 52.15C58.2808 52.7245 58.1998 53.5304 57.6292 54.0779C57.3516 54.479 56.376 55.0111 55.3658 55.975C55.0265 56.295 54.5522 56.6189 54.2245 57.0315C53.8196 57.5482 53.5728 58.1728 53.2374 58.7011C52.8904 58.2808 52.9521 57.5482 52.8441 56.9737C52.6552 55.9789 52.393 55.0689 53.0253 54.0779C54.398 51.911 56.6729 49.3006 56.6884 49.3006C58.8245 49.69 57.2475 49.4008 58.9132 48.861C59.1445 49.1618 59.025 49.6129 59.4761 50.9624C56.777 51.0743 60.2357 50.2183 57.7179 50.6193C57.6793 50.627 57.6099 50.6463 57.5675 50.6501C57.5328 50.654 57.4634 50.6617 57.4287 50.6617C57.4287 50.6617 57.0624 50.5691 56.9236 50.5267C57.0238 51.1321 57.1279 51.7336 57.1511 51.7066L57.367 52.0266ZM89.4783 52.5318C89.3511 51.6758 89.5362 52.4469 89.8061 52.0035C90.2611 51.2593 89.6094 52.1269 89.968 51.375C90.5618 51.4675 91.5412 51.9688 91.973 52.6012L89.9719 52.6706C89.4668 52.6397 89.7444 52.6551 89.4783 52.5318ZM77.5098 50.8159C77.4983 49.4278 77.6872 50.6 77.826 49.2851L78.7514 50.1951C78.7668 50.2067 78.8054 50.2414 78.8208 50.2491C79.4994 50.6154 80.5752 50.7851 79.9004 51.7105C79.457 51.5447 79.8272 51.749 79.5303 51.4907L77.5098 50.8159ZM77.1204 49.4471C77.8183 50.4496 77.1281 50.199 77.1165 50.2144C76.6808 49.744 76.6114 50.0023 77.1204 49.4471ZM79.9159 50.0525C79.2488 49.6669 79.8927 49.3854 79.9004 49.3661C80.4518 49.5898 80.3477 49.4741 80.5212 49.9792C80.4133 50.0332 80.1434 50.1836 79.9159 50.0525ZM73.1527 49.1965L73.3764 49.69C72.8057 49.5975 73.1065 49.8674 73.1527 49.1965ZM35.9671 49.5898C35.8283 48.8379 36.1561 49.3661 36.2679 49.5589C36.4607 49.9021 35.9748 49.6399 35.9671 49.5898ZM75.1809 51.3789C74.7838 51.0588 75.204 51.4637 75.258 50.893C73.8815 50.7349 74.2555 50.7002 74.0434 50.0332C73.8159 49.316 73.5268 49.7401 73.9625 49.0692L74.5794 49.5589C75.1308 49.9368 75.8403 50.5229 76.1641 51.2092L76.4726 50.8005C76.8736 50.4033 76.06 50.7157 76.8659 50.6617L76.6885 51.7876C76.2451 51.6295 76.5073 51.7722 76.1487 51.4675C76.0485 51.3789 75.8942 51.1591 75.8904 51.1552C75.2927 51.4328 75.42 51.5717 75.1809 51.3789ZM92.536 49.1155L93.0334 49.582C93.473 49.9985 92.9717 49.4124 93.4421 49.9792C93.4383 49.9831 92.991 50.253 92.8599 49.8288C92.8367 49.7556 92.7751 49.7363 92.7172 49.6939L92.7866 50.5306L92.1658 51.1244C92.0502 51.0511 92 50.8853 91.8805 50.7928C91.2713 50.3416 91.653 50.9007 90.9243 50.3725C91.0669 49.6052 91.1749 49.5126 90.8664 48.807C91.9769 49.4664 91.1942 49.7941 92.536 49.1155ZM72.2273 48.969C72.6515 48.4639 71.8726 48.8379 72.771 48.5217C72.397 49.1463 73.0564 48.8302 72.2273 48.969ZM75.6205 49.3893C75.6012 49.397 75.7323 49.9869 75.2079 49.3468C74.8416 48.8957 75.1423 49.1656 75.1501 48.861C74.8416 49.3661 75.1423 49.744 74.4252 48.8032C74.7838 48.5448 74.7606 48.6297 75.1886 48.4793L75.5704 49.0499C75.5896 49.0885 75.6359 49.2157 75.6436 49.2427L75.6205 49.3893ZM60.4825 48.9998C60.3591 49.0461 60.3475 49.1194 60.0815 49.0808C60.0314 49.0769 59.8578 49.0152 59.8116 48.9921C59.5764 48.888 59.4414 48.6875 59.3836 48.6297C60.6406 48.4754 60.1008 48.3906 60.4825 48.9998ZM56.0907 48.0783C56.2064 48.9651 56.1293 48.7916 55.281 48.6374C55.4892 48.0474 55.3967 48.194 56.0907 48.0783ZM81.8515 50.1913C81.7397 50.0717 81.6626 49.9021 81.5315 49.8327C81.5083 49.2273 81.8669 49.5666 81.7705 48.8417C81.6857 48.1901 81.5045 48.6952 81.4274 47.8739C82.3258 48.5294 80.9569 48.3597 83.0931 49.0152C83.6984 49.2003 83.6676 49.609 83.4401 50.1334L82.6843 49.7016C82.1214 49.9561 82.5687 49.7633 82.2525 49.9522C82.0289 50.0833 82.2911 49.9831 81.8515 50.1913ZM78.5817 49.0037C77.6911 49.0885 77.7412 49.1078 77.7952 48.005C78.4507 48.5024 77.7759 47.9587 78.1846 48.5333C78.3041 48.7068 78.3234 48.6181 78.5817 49.0037ZM5.00483 48.2171C5.44053 47.924 5.13978 47.9279 5.57934 48.2171C4.88915 48.5333 5.18605 48.3135 5.00483 48.2171ZM73.9509 48.7415C72.7749 48.7492 72.9985 48.7299 72.6399 47.8855C72.7247 47.9202 73.4034 48.1091 73.4072 48.1091C74.3365 48.541 73.6617 48.0629 73.9509 48.7415ZM8.13576 47.8238C7.98153 47.0449 8.32084 47.5847 8.43651 47.7891C8.70642 48.2788 8.14733 47.8893 8.13576 47.8238ZM83.0545 47.3148L83.1162 47.8778C82.6227 47.9587 82.3566 47.6194 82.2602 47.0796C83.0931 47.0256 82.5725 46.8251 83.0545 47.3148ZM77.1165 46.6478C77.8337 46.9948 77.6756 46.9485 77.8684 47.9587L76.7194 47.7852C76.7541 46.9061 76.8273 46.9794 77.1165 46.6478ZM28.6835 47.0102C28.5524 47.6927 28.8454 47.4922 28.1629 47.5462C28.3673 46.667 28.2246 47.2223 28.6835 47.0102ZM13.1329 47.739C13.1021 47.0102 12.7281 47.4421 13.6187 47.2416L13.1329 47.739ZM7.08697 48.6412C6.80164 48.2672 6.68982 48.3019 6.77851 47.3958C6.78236 47.3727 6.81707 47.338 6.82092 47.284C6.82092 47.23 6.85177 47.2107 6.87105 47.176C7.40315 47.7737 7.16795 47.149 7.31061 47.8508C7.59594 49.2582 7.24121 48.4523 7.08697 48.6412ZM57.4248 47.6271C57.6253 47.4305 57.1279 46.9292 58.3888 47.2955C58.0996 47.5963 57.9839 47.8816 57.4248 47.6271ZM79.8889 47.5809C79.3722 47.0526 79.7154 47.095 79.993 46.8059C80.8181 47.5462 79.9814 47.5192 79.8889 47.5809ZM83.4825 46.9832C82.8116 46.8251 83.336 47.1375 82.9928 46.5282C83.5982 46.7711 83.4054 46.3586 83.4825 46.9832ZM81.7859 47.3919C80.7911 47.4536 79.939 46.7827 79.5496 46L81.7859 47.3919ZM65.8344 46.7904C66.0272 46.1311 65.9423 46.1851 66.621 46.0694C66.5091 46.6246 66.7019 46.6748 65.8344 46.7904ZM40.1276 46.2815C39.8847 46.5012 40.089 46.401 39.6302 46.6555C39.2369 46.8791 39.5646 46.6786 39.1328 46.856C39.3526 46.0463 39.1752 46.2429 40.1276 46.2815ZM31.0702 47.6002C30.3839 46.8714 31.0702 46.91 30.3415 46.3663C30.7348 46.3432 30.9931 46.32 31.29 46.6593C31.9995 47.4768 31.3478 47.4228 31.0702 47.6002ZM18.1609 45.3946C18.666 44.8548 18.292 45.0476 18.9128 44.8934L18.9976 45.626C19.468 45.171 19.2444 45.9961 19.4102 45.1324L19.5721 45.8535C17.6597 46.6285 17.7329 46.5784 16.3024 46.9254C16.5376 46.3007 16.8384 45.2789 17.1507 44.9551C17.4129 45.3676 17.625 45.8265 17.864 45.5913C17.9334 45.5219 18.1108 45.6645 18.1609 45.3946ZM67.2649 46.2622C66.8562 45.6568 67.0104 46.0385 67.1107 45.2867C68.3407 45.2558 67.9936 45.3753 68.117 45.8612C67.8356 46.0038 68.333 46.266 67.4808 45.7763L67.2649 46.2622ZM65.7226 45.626C64.7663 45.4023 65.3061 45.5874 65.0709 45.0283C65.5568 45.2327 65.4064 44.8625 65.7226 45.626ZM38.431 45.2751C38.5235 44.9165 38.1881 45.2635 38.6277 45.171C38.8937 45.1093 38.3308 45.6568 38.431 45.2751ZM76.9777 45.0784C77.159 44.4307 77.0201 44.7584 77.6101 44.4885L78.0265 45.3715L76.9777 45.0784ZM41.0761 45.2751C40.4013 45.6337 40.5594 45.518 40.4553 44.8934C41.026 45.0399 40.7484 44.7815 41.0761 45.2751ZM30.2914 45.3368C30.9083 44.9358 29.767 45.2018 30.8774 44.8818C30.6114 45.3406 30.9199 45.1247 30.2914 45.3368ZM42.8498 45.838L43.7058 44.7237C44.4538 45.1324 44.4924 45.3869 45.1286 45.6645L45.0476 45.6992C45.3831 45.8226 45.6877 45.973 45.9075 46.1812C46.4087 46.6478 47.0102 47.176 47.5847 47.5924C48.1631 48.0089 48.2981 48.0474 49.0962 48.3173C48.8417 49.208 48.8148 49.7401 48.379 50.5884C48.167 50.9933 48.0783 51.4984 47.8971 51.965C47.7158 52.4238 47.604 52.9983 47.4035 53.3723C46.9948 54.1319 47.0179 54.8144 45.8342 54.4751C44.8818 53.1448 44.9474 52.551 44.2379 51.267C43.4821 49.8944 42.1557 48.6489 42.1095 48.5525L42.283 47.7544C41.6044 46.3933 41.666 46.9022 42.0671 46.2545C42.0169 46.2275 41.9475 46.1889 41.9167 46.1735L42.8498 45.838ZM24.4151 46.91C24.604 46.1272 25.0744 45.8265 24.3457 45.0013C25.0783 45.3792 25.1631 45.2404 25.5834 46.0578L25.0012 46.5899C24.4613 46.9485 24.8354 46.694 24.4151 46.91ZM20.0271 45.5257C20.1428 44.5232 19.9462 44.8509 20.5901 44.3497C21.2032 44.4962 20.9178 44.5001 21.5001 44.8124L20.86 45.3291C20.5901 45.4486 20.3819 45.4563 20.0271 45.5257ZM64.0221 44.9165C64.4578 44.4152 63.6096 44.7083 64.6044 44.4962L64.0221 44.9165ZM17.5401 44.6851C17.544 44.0605 17.8023 44.3998 17.8794 44.6929C17.9488 44.9628 17.5324 45.2944 17.5401 44.6851ZM12.4504 45.2751C12.8977 44.6466 12.7281 45.1324 13.8925 44.6736C13.7421 44.9975 13.8424 45.0939 13.3296 45.3291C12.543 45.6877 12.6162 45.3676 12.4504 45.2751ZM43.3819 44.5887C43.4243 44.5348 43.5284 44.1993 43.5554 44.1569C43.7983 43.8176 43.5785 44.0914 44.0142 43.9641C43.6248 44.662 44.2842 44.2032 43.3819 44.5887ZM39.9656 44.2919C39.9541 43.4783 40.2741 44.0644 40.3474 44.261C40.4437 44.5271 39.9733 44.7237 39.9656 44.2919ZM33.6768 44.0991C32.6743 44.6312 32.975 44.2263 32.682 44.0219C33.1986 43.7173 33.6459 44.0798 33.6768 44.0991ZM75.8325 44.5232C75.6282 44.0412 75.7439 44.0682 76.0562 43.7482C76.2567 44.1222 76.3839 43.4976 76.1719 44.2109C75.9482 44.9473 76.3145 44.18 75.8325 44.5232ZM30.5343 43.9024C31.0702 43.6209 30.7541 43.7636 31.0355 43.9024C30.3453 44.4191 30.6654 44.0258 30.5343 43.9024ZM8.18203 44.1376C7.75789 44.3882 8.3594 44.2803 7.73475 44.2996C6.92503 44.3188 7.54196 44.2687 7.28362 44.0991C7.58823 43.8523 7.14481 43.8908 7.72704 43.86C8.66786 43.8099 7.80801 43.8022 8.18203 44.1376ZM26.5319 44.0991C27.4342 44.3227 27.7465 43.6248 27.9547 44.8818C27.9277 44.8972 27.5923 45.7763 26.5203 44.5309C26.0615 43.995 26.3584 43.6441 25.5564 43.9178L26.2466 43.3973L26.5319 44.0991ZM70.6387 44.0682L70.3804 43.1043C71.4755 43.3125 71.3174 43.7289 71.4446 43.9024C71.3868 43.9371 71.3058 43.9795 71.2711 44.0104C71.2364 44.0335 71.1554 44.0875 71.1207 44.1183C70.2724 44.8625 71.1708 43.779 70.8855 44.4692C70.4074 44.2919 70.2647 44.2919 69.8213 44.0721C70.5693 43.6749 70.2262 43.8099 70.6387 44.0682ZM54.8029 43.1158C54.7065 42.3986 55.0496 42.9462 55.1267 43.1081C55.3234 43.5014 54.8183 43.2315 54.8029 43.1158ZM7.99309 42.5529C8.20131 42.8845 8.33241 43.112 8.4905 43.5708L7.55738 43.2855L7.91598 42.6647C7.92754 42.6069 7.97381 42.5953 7.99309 42.5529ZM61.2922 43.7597C60.5288 43.6903 60.7524 43.8176 60.2511 43.4667C59.7152 43.0927 59.9041 43.2276 59.7962 42.7457C60.5249 43.0001 60.9799 43.1004 61.2922 43.7597ZM70.604 42.3601L70.3958 41.8665C70.8045 41.9514 70.6349 41.5311 70.604 42.3601ZM65.256 42.2984C64.4771 42.1904 64.7355 42.3716 64.8627 41.8897C65.2406 41.8781 65.0786 41.5041 65.256 42.2984ZM65.1249 43.2045C63.5903 43.1312 65.1866 43.2508 64.1263 42.8806C63.1854 42.5452 62.4451 43.0349 62.2099 41.8203L62.769 42.3562L64.2689 42.2907C64.3113 42.3254 64.3653 42.3755 64.3962 42.3986L65.1249 43.2045ZM34.0701 42.95C33.4917 42.3948 33.8657 42.0863 33.5071 42.0478C33.7886 41.8241 33.6035 41.454 34.687 41.9475L34.0701 42.95ZM52.5163 41.5851C51.7953 41.3576 52.2696 41.7162 52.0228 41.1224C52.6783 41.4 52.2657 40.8872 52.5163 41.5851ZM79.5303 41.4925C79.4879 41.0607 79.7693 41.053 80.1511 40.8679C79.8966 41.4154 80.1318 41.2804 79.5303 41.4925ZM66.1968 40.783L67.0567 41.9475C66.1891 41.882 65.7573 41.5388 66.1968 40.783ZM66.8562 40.9604C66.8716 40.6018 66.6672 40.7522 67.1762 40.891C67.4461 40.9643 66.833 41.4617 66.8562 40.9604ZM61.084 40.9604H61.6045C61.5506 40.9913 61.485 41.0568 61.458 41.0645C60.4594 41.3537 61.3385 41.1763 61.084 40.9604ZM58.7011 40.7638C59.5417 40.9103 59.6651 40.7059 60.1972 40.5671L59.8193 41.7971L58.7011 40.7638ZM78.9018 41.3499C78.5008 40.6597 78.6319 41.1339 78.173 40.5671C79.1023 40.355 79.0252 41.2882 79.3491 42.2367C77.9031 42.2367 79.0136 42.4526 78.0921 41.8434L78.2733 41.2342C78.9172 41.427 78.5393 41.4501 78.9018 41.3499ZM4.8236 42.4218C4.94699 41.3421 5.24003 41.3036 5.69502 40.4476C6.62427 41.6236 5.30172 41.7123 4.8236 42.4218ZM64.1841 40.7908C63.278 40.6172 63.8371 40.999 63.5594 40.2779C64.3576 40.6751 63.8024 40.1468 64.1841 40.7908ZM82.5918 40.4553C83.3861 40.5787 84.111 40.7599 84.7549 41.0452C85.8269 41.5234 85.2755 41.9706 85.796 42.3871C85.85 42.4333 85.8654 42.5259 85.877 42.5722L86.0505 43.7983L85.9232 44.2302L85.7806 45.4987L85.958 45.2481L86.1546 45.5064L86.4284 45.0167C86.2934 44.5965 86.2664 44.7623 86.8294 44.7893C86.1045 44.2764 86.5402 44.8162 86.1623 43.9024C87.0607 44.3188 86.6674 44.0914 87.1841 44.689C87.5234 43.9217 87.2805 44.6427 87.0337 43.86C86.0081 43.8446 86.5787 43.9294 85.9965 43.2354C86.4554 43.1158 86.4245 43.2007 86.6713 43.4204L86.3474 42.7264C86.7368 42.5567 86.4901 42.6955 86.652 42.63L86.8679 42.495C87.3268 41.9899 87.1725 42.1866 87.8782 41.9398L87.4 40.9604C87.4656 40.9643 87.5543 40.9836 87.5928 40.9913C87.6275 41.0028 87.7201 41.0221 87.7586 41.0337L88.1943 41.2804C88.6686 41.6583 88.0864 41.4231 88.7843 41.7431C88.7573 42.5336 89.139 41.5388 88.5182 42.175L88.1943 42.4025C89.4243 42.4796 88.5876 41.7431 88.9424 43.378C89.0735 43.9757 89.1891 43.5323 88.9269 44.2803C87.99 44.2456 88.6339 44.2302 87.8049 43.9872L87.9476 44.5271L88.4103 44.4114C88.8768 44.7006 88.5067 44.0335 88.8961 44.8317C88.9539 45.3021 89.1197 44.9859 88.8498 45.4178C88.5259 45.9383 88.7804 45.8303 88.3717 45.5643C88.3524 46.1812 88.3987 45.8727 88.2792 46.1735C88.2213 46.3162 88.1172 46.4858 88.1018 46.4511C88.0864 46.4164 88.0247 46.5475 87.99 46.5976L88.283 46.9832C88.8884 47.1606 88.4951 46.8868 88.8961 47.2686C89.3626 46.1812 90.2341 46.8753 90.6775 47.4305C90.369 47.8045 90.7276 47.5462 90.2456 47.8585C89.8678 48.1053 90.2726 47.8932 89.7714 48.0281C90.0258 47.6271 89.8446 47.9086 90.0528 47.6387L90.315 47.3302C89.5015 47.4266 89.5362 47.4228 89.139 47.7698C87.9707 46.9601 88.3139 47.7968 87.2651 47.1529C86.5672 47.6271 87.0414 47.6079 86.3281 47.8971C86.2394 47.6927 86.305 47.7775 86.3474 47.6426C86.5518 46.9447 86.6289 47.1567 86.2587 46.4473L85.5068 46.2121L85.4875 45.5758C85.2292 45.1247 85.4644 45.2674 85.0094 45.1825L84.8822 45.3792C84.7896 45.3599 84.3115 45.2944 84.1997 45.2674C83.737 45.1594 84.0532 45.2789 83.7254 45.0784C83.336 44.5425 83.7139 45.4717 83.3398 44.369C83.2704 44.1646 83.3244 44.153 83.2897 43.9024L82.1638 43.4204C82.1407 43.54 82.0751 43.995 82.052 44.0759C81.8708 44.6312 82.1253 44.0991 81.7937 44.4808L81.7281 43.2315C82.453 42.4025 81.25 43.8292 81.9517 42.9924C82.2178 42.6801 82.079 42.9616 82.2371 42.5529C81.4659 42.1866 82.2949 42.6107 81.7898 41.9398C81.6973 41.909 81.3232 41.8473 81.1883 41.7431C81.3232 41.0877 81.2963 40.999 81.6895 40.6365L81.0418 40.3705C83.0892 39.7574 81.1883 40.2856 82.5918 40.4553ZM59.1291 40.652C59.2062 39.9695 58.8939 39.6533 59.9003 40.1237C59.5031 40.5594 59.6535 40.4129 59.1291 40.652ZM80.0508 40.2972C79.0444 40.1545 79.7115 40.4283 79.0599 39.9733C78.8864 39.8538 78.7784 39.6841 78.6434 39.4258C79.565 39.5877 79.6382 39.6224 80.0508 40.2972ZM81.4736 39.9733C80.903 39.7458 81.1652 39.9271 80.8528 39.4721C81.6626 39.4644 81.3078 39.2831 81.4736 39.9733ZM87.134 39.2291C87.6892 38.6161 86.6867 38.9515 87.7316 38.7703C87.3036 39.4142 87.9167 39.0209 87.134 39.2291ZM63.5209 39.1405C64.9437 38.6585 64.4039 39.5029 64.4 39.526L63.5209 39.1405ZM80.8837 38.8012C80.8875 38.8012 80.687 38.0338 81.7705 38.8012C81.4196 39.0402 81.9942 38.9284 81.3734 38.9708C80.421 39.0325 81.2693 38.9824 80.8837 38.8012ZM86.0852 38.03L86.3397 38.6084C85.449 39.1559 85.8307 39.1405 84.9901 38.7703L86.0852 38.03ZM61.9014 38.6084C61.8359 37.9683 62.1636 38.4503 62.233 38.6238C62.4528 39.1675 61.9207 38.7626 61.9014 38.6084ZM39.2446 38.7626L38.7395 38.2189C39.3024 38.4233 39.0441 38.1341 39.2446 38.7626ZM59.2332 37.6984C58.5584 37.4593 58.8322 37.7871 58.3541 36.9735C59.2602 37.1586 58.9209 36.8231 59.2332 37.6984ZM87.4926 37.039L87.0761 36.5493L89.1043 36.6612L88.6879 37.7331L87.4926 37.039ZM8.09334 36.719C8.27071 36.5301 8.263 36.4568 8.4635 36.3026C9.33492 35.6201 9.23081 36.2447 9.25009 36.2524C8.76426 37.0082 9.39662 36.6843 8.09334 36.719ZM7.434 36.3373C7.4687 36.3643 7.52268 36.3951 7.56124 36.4221L8.74884 37.2318C8.4288 37.4131 6.17314 37.228 6.85177 35.8977C7.22578 36.1291 7.00986 36.0172 7.31447 36.2447C7.34917 36.2717 7.3993 36.3103 7.434 36.3373ZM19.1866 35.9556C19.95 35.543 19.8343 35.9286 20.0695 35.2499L20.8291 35.9903C20.8369 36.0095 20.8638 36.0558 20.8716 36.0751L21.0952 36.8501C20.3472 37.1007 20.8523 36.9581 20.1505 37.282L19.1866 35.9556ZM23.3624 37.066C22.626 37.0352 23.0887 37.282 22.653 36.7421C21.7854 35.6702 23.0154 36.7537 22.4949 36.399C21.8702 35.971 21.7854 36.6959 21.2764 35.5507L23.2545 35.9594C23.0732 36.2872 22.9961 35.9401 23.0347 36.4028L23.2815 36.9195C23.293 36.8887 23.3431 37.012 23.3624 37.066ZM71.4369 35.4697C71.6875 35.3386 71.4408 34.9222 72.1271 35.4697C70.9703 36.1753 71.5873 35.5391 71.4369 35.4697ZM25.3096 34.953C26.154 34.953 25.541 34.3785 25.969 35.4312C25.1014 35.3849 25.4369 35.6587 25.3096 34.953ZM28.348 35.4736C27.5229 35.3618 27.7195 35.5083 27.3455 34.8489C28.3056 34.9453 27.9624 34.7024 28.348 35.4736ZM19.0825 35.0533C18.4231 35.0186 18.9244 35.0571 18.5465 34.8181C19.0208 34.525 19.3408 34.6677 19.6955 34.8798C19.6493 34.9029 19.6955 35.0918 19.0825 35.0533ZM26.9908 34.4903C26.9908 34.1125 27.5036 34.4711 27.2992 34.5944C26.5628 35.0224 26.9908 34.8451 26.9908 34.4903ZM28.9071 34.4286C28.1706 34.2359 28.7375 34.5829 28.3904 33.9158L28.9071 34.4286ZM68.8882 34.552L67.9898 34.2166C69.1889 33.777 68.2944 34.1742 68.5874 33.8233C68.6299 33.777 68.3831 33.2603 69.3085 33.7037C69.3933 34.4903 69.5861 33.9968 68.8882 34.552ZM29.4431 33.7037L30.2065 33.5842C30.2489 33.5765 30.3068 33.5727 30.353 33.5688C31.2437 33.4994 30.8003 33.2796 31.4982 33.7924C31.4365 33.8965 31.5869 34.3322 30.5767 34.1317C28.3596 33.6922 30.7656 34.5906 29.4431 33.7037ZM66.9371 33.511C67.5695 32.948 67.3189 33.403 67.45 33.511C67.3459 33.5649 67.6428 33.9582 66.9371 33.511ZM28.2092 33.511C28.3981 33.4377 27.8198 33.1755 28.8647 33.403C29.524 33.5418 28.9649 33.3991 29.2156 33.7037C29.1462 33.7384 29.2927 34.0122 28.5678 33.8541C27.9971 33.7307 28.4136 33.7732 28.2092 33.511ZM64.0915 33.9043C63.8139 33.4338 63.9103 34.1664 64.1147 33.6112C64.2226 33.3259 64.1841 33.5572 64.2689 33.268C64.7663 33.5765 64.5157 33.0521 64.7046 33.9235L64.0915 33.9043ZM69.6324 34.5752C70.2686 33.4685 69.4666 33.2256 69.401 33.1639C70.3765 33.0598 70.0488 33.3799 71.2402 33.5958L72.0153 35.0726C71.2133 34.8605 70.5848 34.498 69.6324 34.5752ZM31.6332 33.912C32.0072 33.3721 31.8645 33.5379 31.7758 32.8285C32.9634 33.2449 31.5638 32.3773 32.8786 32.921L32.4776 33.6035C32.1499 33.8734 32.1036 33.8079 31.6332 33.912ZM68.7725 32.9441C68.7301 32.975 68.6761 33.0136 68.626 33.0444C68.572 33.083 68.4101 33.1601 68.3561 33.1871C68.0939 33.3259 68.0168 33.3606 67.6813 33.4801C68.2057 32.7475 67.7276 32.7398 69.0848 32.6742L68.7725 32.9441ZM51.6334 33.3066C51.0319 33.1369 50.9972 33.0984 50.735 32.5509C52.1385 32.8632 50.974 32.9943 52.2349 32.4737C51.7837 33.349 52.2542 32.6241 51.6334 33.3066ZM74.2671 33.0675C73.3687 33.1331 73.5576 32.9017 73.253 32.3503C73.8738 32.5856 73.9085 32.7205 74.2671 33.0675ZM71.0397 32.655L70.9279 31.9571C72.0191 32.7398 70.5501 31.7488 73.145 32.1074C72.0268 32.9094 72.1849 32.2347 71.0397 32.655ZM36.0944 33.0675C35.2924 32.8169 35.8437 32.9673 35.57 32.6704L36.2448 32.5277C35.0456 31.4597 37.7331 32.1306 38.1225 32.2887L37.575 32.8516C37.6213 32.867 37.6907 32.8863 37.7408 32.9017C37.7987 32.921 37.8719 32.9287 37.922 32.9441L38.4464 33.1177C37.5789 33.669 38.0107 33.3413 37.0236 33.1794C36.6496 33.1177 36.6033 33.2218 36.0944 33.0675ZM27.0293 32.1614C27.893 32.0496 27.7195 32.2809 28.3442 32.0226C28.6179 31.9108 28.2208 31.7758 28.722 31.9224C29.7091 32.2154 28.8917 31.9686 29.3004 32.3311C28.5909 32.7899 29.0305 32.5084 28.082 32.6588L27.5152 32.7822C27.4496 32.7976 27.4033 32.8246 27.3378 32.8362C26.8057 32.9519 27.3069 32.9557 26.5628 32.9056C26.8095 32.6318 26.8828 32.547 27.0293 32.1614ZM67.9204 31.7874C69.2815 31.6794 68.3291 31.8607 68.7494 32.3311C67.797 32.5354 68.063 32.3234 67.8201 32.3311C66.5516 32.3735 68.6183 32.466 67.0837 32.5277C67.2456 32.2385 67.5926 31.8144 67.9204 31.7874ZM65.7303 32.4853C65.8305 32.3696 66.0619 30.9391 66.8369 31.9956L65.7303 32.4853ZM21.2494 32.5393C21.0258 32.0419 20.941 31.9493 20.752 31.5098C21.1222 31.6756 21.207 31.691 21.4075 31.9686C21.716 32.3928 21.6543 32.8439 20.833 32.7244C20.0271 32.6087 20.4706 32.4699 20.3819 32.3311C20.9448 32.173 20.3664 32.2617 21.2494 32.5393ZM57.3786 31.6255C57.7487 31.3941 57.2436 31.3941 57.8952 31.4944C57.9029 31.4944 58.2268 31.6987 58.2423 31.7064C57.822 31.8607 57.876 31.8144 57.3786 31.6255ZM55.0072 31.1743L54.9494 31.4481C54.934 31.4674 54.8646 31.5136 54.8491 31.5291L54.5098 31.5753C56.4801 31.6602 55.1499 31.5329 55.7013 32.0727L55.2039 32.3349C55.1769 32.2925 55.0998 32.4082 55.0573 32.4545C54.2322 32.092 55.6049 33.0945 54.7604 32.2385L54.2592 31.6486C54.236 31.6332 54.1589 31.61 54.1397 31.5985C54.1088 31.5792 53.97 31.5715 53.9044 31.5483C54.0355 31.209 54.664 31.1589 55.0072 31.1743ZM84.003 30.0369L84.62 29.578C84.2999 30.2528 84.8822 29.7669 84.003 30.0369ZM29.3235 29.7361C29.3428 29.6706 29.4045 29.6628 29.4469 29.632C29.3968 29.5934 29.3235 29.5549 29.2888 29.5279C29.0999 29.4045 28.6526 29.1539 28.695 28.9187C28.8146 28.2747 30.5728 28.8377 30.781 28.8801L30.0716 29.1924L29.9559 30.4996C29.1616 30.7116 29.0806 30.6191 28.668 30.407C28.6411 30.0369 29.2464 29.9906 29.3235 29.7361ZM27.8815 28.803C27.4882 29.5317 27.6385 29.3737 26.983 29.0266C27.3262 28.5948 27.2992 28.5832 27.8815 28.803ZM21.0065 29.6397C20.8638 29.2888 20.941 29.5356 20.914 29.2657L20.9063 29.0228C20.9294 28.3364 20.8831 29.1731 20.9371 28.7799L22.0245 29.1539C21.4191 29.2156 21.554 29.4585 21.0065 29.6397ZM77.9957 27.9933L79.164 27.9084C78.8401 28.8261 78.9828 28.8068 77.9494 28.9765L77.9957 27.9933ZM64.5581 27.9007L65.3331 28.2169C65.3061 28.2632 65.283 28.3326 65.2599 28.3557C64.3537 29.4006 64.9553 28.6565 64.6969 28.7644C64.508 28.402 64.3769 29.1462 64.5581 27.9007ZM58.435 27.5229C58.1189 28.2092 58.3888 28.082 57.4248 28.2709L56.5534 28.3094C56.2873 27.7156 56.592 27.8583 56.8233 27.465C57.2166 27.8506 56.9159 27.6771 57.6292 27.9007C57.6639 27.866 57.7063 27.8005 57.7294 27.7851C57.7526 27.7658 57.8104 27.7041 57.8413 27.6848C58.3579 27.3493 57.34 27.5653 58.435 27.5229ZM75.2966 27.8198C75.2079 27.1604 75.5626 27.627 75.6706 27.8275C75.8133 28.1012 75.3313 28.0935 75.2966 27.8198ZM76.9546 27.4496L77.772 27.6038C77.4597 28.213 77.7065 28.0781 76.8582 28.213L76.9546 27.4496ZM82.9157 27.4303C82.908 27.4457 82.935 28.8608 81.4813 27.2028L82.9157 27.4303ZM66.4243 27.6848C67.0181 27.4496 66.6287 27.0679 68.0708 27.2799C67.9551 27.6732 68.1594 27.7619 67.2649 28.0974C67.1646 27.7658 67.1531 28.0048 67.2456 27.7272C67.2572 27.6887 67.4847 27.4804 67.5348 27.4342L66.7174 27.7272C66.6981 27.7773 66.6827 27.8506 66.6672 27.8853L66.5361 28.1822C66.3086 28.5601 66.6441 28.2323 66.1197 28.5524L65.7688 27.8198L66.2971 27.7118C66.3318 27.7041 66.3973 27.6964 66.4243 27.6848ZM33.9775 27.6964C32.7205 27.465 33.2488 27.6771 33.2719 27.1141C33.3567 27.1411 33.5341 27.1874 33.6344 27.2645C34.0816 27.5961 33.6266 27.1411 33.9775 27.6964ZM26.7016 27.4303C27.2105 26.9638 26.8558 26.9291 27.8005 27.1064C27.7311 27.1296 27.4342 27.2414 27.4226 27.2491L27.118 27.4342C27.8005 27.4226 28.4406 27.4149 28.9611 27.8198C28.5177 27.9701 28.294 28.0588 27.7774 27.9316L26.7016 27.4303ZM21.0836 27.5537C21.5618 26.5088 21.982 26.37 22.9344 26.2543C22.1787 27.519 22.2828 26.3661 22.0707 27.0871C21.8548 27.812 21.7314 27.5807 21.0836 27.5537ZM34.953 27.2298C35.6201 25.9265 34.6099 26.2581 36.2178 26.4702C35.7358 27.2375 36.0018 27.1296 34.953 27.2298ZM79.0252 26.582L80.0161 26.2504C81.4312 25.942 80.1626 26.0846 80.7102 26.5666C78.8401 26.7054 80.0393 27.0293 78.682 27.2568C78.9134 26.4664 78.5779 27.0717 79.0252 26.582ZM53.7579 26.4779C53.9469 26.8674 54.1512 26.8789 53.9893 27.2915C53.6538 26.7671 53.7541 26.7902 52.6127 26.8558C52.6667 26.825 52.7477 26.8018 52.7824 26.7825L53.3454 26.1039C54.3209 26.2504 54.1666 26.5049 54.7836 25.915L55.0612 26.6514C54.3556 26.6591 54.2669 26.5589 53.7579 26.4779ZM79.0252 26.582C78.5471 26.5203 78.3812 26.7478 77.988 26.0576C78.3812 25.861 77.9957 25.6836 78.6434 26.0114C79.3529 26.37 79.2449 26.0731 79.0252 26.582ZM63.598 25.861C63.5016 25.0358 63.8602 25.7145 63.9142 25.8186C64.0877 26.1579 63.6057 25.9111 63.598 25.861ZM39.9155 26.1849C40.0312 25.6142 39.8962 25.6759 40.4592 25.8456C40.1199 26.3931 40.5941 26.1116 39.9155 26.1849ZM56.2951 25.5988L56.8811 26.127C56.3953 26.6669 57.5636 26.0731 56.538 26.4625C56.4609 26.4933 56.3876 26.5165 56.029 26.4856L55.0612 26.2504L54.9301 24.9934L56.1293 24.7004C56.11 25.5872 56.0329 24.7814 56.2951 25.5988ZM47.577 25.4677C48.0706 25.0705 47.365 25.298 48.4176 25.1168C47.9433 25.5988 48.1978 25.6451 47.577 25.4677ZM83.0545 25.6374C83.0661 25.5718 83.2897 25.032 83.5789 25.2865C83.6329 25.3366 84.03 25.2402 83.5558 25.6605C82.8887 26.2466 83.0931 25.6528 83.0545 25.6374ZM45.437 25.2711C45.8612 24.9549 45.1054 25.1014 46.108 25.0821C46.455 25.0783 46.4203 24.7621 46.5552 25.3019C46.9215 24.9086 46.775 24.87 47.5269 24.9125C47.149 25.5949 47.6156 25.5063 46.7326 25.753C46.0925 25.9304 46.1966 25.7839 46.4049 25.5101C44.7816 25.6065 45.7879 25.6142 45.437 25.2711ZM19.2984 24.2878C19.9115 24.8816 20.031 24.8084 19.2791 25.2711C18.9321 24.523 19.0131 24.9857 19.2984 24.2878ZM58.2461 24.8431L57.6292 24.9857C57.6176 24.9433 57.5983 24.8855 57.5945 24.8623L57.5096 23.9871C57.8528 24.4382 57.8682 24.1837 58.4852 24.8122C58.4042 24.8238 58.3001 24.8315 58.2461 24.8431ZM60.9221 24.3534C61.4503 23.856 61.3192 24.0141 62.0441 23.9639C62.0055 24.0333 61.9631 24.1143 61.9284 24.1721L61.485 24.87L60.9221 24.3534ZM35.4389 23.8984C35.9903 23.6824 35.7898 23.8097 36.1946 24.2762L35.4389 23.8984ZM62.9965 23.5552L63.598 23.9215C62.0402 24.3457 63.1584 24.9934 62.1135 24.4883L62.9965 23.5552ZM70.7544 24.1143C69.8907 24.0063 70.0218 24.0873 69.8252 23.3161C70.5231 23.4665 70.4807 23.4241 70.7544 24.1143ZM68.1016 23.7172C68.0746 23.6092 67.5926 23.2159 68.973 23.1658L68.2096 23.7596C68.2019 23.7249 68.1363 23.7326 68.1016 23.7172ZM19.2984 24.2878C18.6082 23.6092 18.2342 23.8868 18.5272 23.0964C19.3254 23.4395 19.0169 23.3393 19.2984 24.2878ZM59.9041 23.1812L60.1817 23.0462C60.2242 23.027 60.5172 22.8265 60.629 22.7956L60.3784 23.7596L59.3874 23.3046C60.39 22.6684 59.1252 23.4627 59.9041 23.1812ZM21.1916 23.3123C21.3073 22.5913 21.9396 22.784 22.4717 23.1156C22.0861 23.3624 21.6389 23.5012 21.1916 23.3123ZM40.864 22.919C40.8872 22.9074 40.5826 22.1401 41.7817 23.1156L43.0657 24.4768L41.5697 24.2415C41.5619 23.3817 41.2843 23.8675 42.1712 23.7017L40.864 22.919ZM37.255 22.919C37.3013 22.8959 37.3552 22.8342 37.3745 22.8265C37.3938 22.8226 37.4825 22.7918 37.4979 22.7879C37.5172 22.784 37.6097 22.8689 37.6251 22.8265C37.6406 22.7763 37.7061 22.892 37.7485 22.919C37.7061 22.9421 37.6444 23 37.6251 23.0038C36.6419 23.2583 37.5673 23.1156 37.255 22.919ZM60.8334 23.0077C60.9953 22.7532 60.2473 22.7686 61.4272 22.7879C61.5351 23.6208 61.7858 23.0925 61.2884 23.5244C60.8218 23.9369 60.818 23.5321 60.7832 23.5205L60.8334 23.0077ZM63.4823 22.0746C63.4746 22.2828 63.3975 22.9229 63.3936 22.9691C63.3936 22.9884 63.4052 23.0385 63.4052 23.0539L63.4245 23.2082C63.4245 23.2159 63.4245 23.3161 63.4245 23.293C63.4245 23.2699 63.4206 23.3586 63.4091 23.3894L62.769 22.6954C62.3294 22.9923 62.3487 23.1118 61.6932 23.1195C62.0827 22.6607 61.9593 22.7995 62.5107 22.5103L62.7806 22.3599C62.8268 22.3368 62.8885 22.3021 62.9309 22.2789C63.2857 22.1093 63.0389 22.2018 63.4823 22.0746ZM22.8843 22.5488C22.7416 22.3715 22.6761 22.3098 22.5604 22.2018C22.7879 21.8625 23.482 22.1478 23.9177 22.5758C23.6593 23.0115 23.883 22.6722 23.3624 23.1002C23.1773 22.946 23.2853 23.0617 23.0501 22.7802C23.0231 22.7493 22.9884 22.6954 22.9653 22.6645C22.9383 22.6337 22.9036 22.5797 22.8843 22.5488ZM49.7594 21.5964L50.1373 21.8394C50.8545 22.7339 50.1527 21.2379 50.2568 22.0784C50.2607 22.1054 49.9676 22.4023 49.9175 22.4486C49.2003 21.6659 49.6206 22.0206 49.7594 21.5964ZM84.3462 20.5901C84.6508 20.3819 84.7935 20.2932 85.1906 20.0927C85.1097 20.3009 85.021 20.4975 84.9246 20.698C84.8937 20.7597 84.7858 20.9101 84.7665 20.9564C84.6315 21.288 84.5699 20.914 84.7935 21.3535C84.4696 21.2109 84.4657 21.1916 84.2691 21.0104L83.8565 21.5849C83.8565 21.5849 83.8372 21.7738 83.7563 21.9666C83.5018 21.7969 83.4594 22.3715 83.4092 21.5733C83.3784 21.1145 84.1804 20.7173 84.3462 20.5901ZM61.0724 20.7636C61.0339 20.7867 60.9683 20.8137 60.9452 20.8176C60.9221 20.8253 60.8488 20.8523 60.8218 20.86C60.0237 21.0528 60.5827 20.4783 59.9851 21.3381L60.201 20.351L61.0724 20.7636ZM84.3462 20.5901C84.0956 20.6132 83.8103 20.6518 83.6445 20.698L81.5816 20.459C81.0071 20.297 81.3888 20.4744 81.1536 20.1736L82.4723 19.896C82.5031 19.95 82.534 20.0194 82.5571 20.0541L82.9003 20.6672C83.6637 20.0618 83.1124 20.1544 83.9722 20.0387C84.2498 20.3086 84.1534 19.869 84.3462 20.5901ZM21.315 20.4628C20.4204 20.2315 20.4706 20.351 20.3433 19.5837C20.9525 19.7765 20.4166 19.4256 20.914 19.8498C21.3343 20.2083 21.0335 19.9076 21.315 20.4628ZM86.0004 19.7804C85.0788 20.2546 85.904 19.9963 85.0326 19.896C84.62 19.8498 84.7819 19.9269 84.4927 19.7804C84.5621 19.6762 84.994 19.4603 85.1868 19.4603C86.6983 19.4449 85.7844 19.6338 86.0004 19.7804ZM36.7267 19.923C36.6303 19.4642 36.1059 19.3639 37.7485 19.175C37.494 19.5336 37.7794 19.3254 37.2203 19.7187C36.8771 19.9616 37.2434 19.8228 36.7267 19.923ZM71.1361 19.5606C71.1361 19.5606 70.4382 19.4333 71.4138 18.6622L72.0577 18.5696C72.1117 18.855 72.1502 18.9899 71.8263 19.4295C71.2518 20.2122 71.1439 19.5606 71.1361 19.5606ZM74.3326 16.2291C74.5408 16.5029 74.6257 16.4952 74.3326 16.8114C73.8082 16.2754 74.2401 16.3679 74.3326 16.2291ZM73.6926 16.0363C73.7234 16.6841 73.7003 16.26 73.5576 16.4913C73.5113 16.5646 72.9175 17.0504 72.8366 17.1314C72.5512 16.58 72.879 16.6995 72.6168 16.2523C72.6515 16.2446 72.7093 16.2561 72.7286 16.2523C72.744 16.2523 72.8173 16.2561 72.8366 16.2523L73.2761 16.0248C73.3031 15.9939 73.334 15.9091 73.3532 15.8783C73.3764 15.8436 73.4034 15.7896 73.4188 15.7009C73.4342 15.6045 73.4535 15.5736 73.4766 15.5081C73.573 15.697 73.6656 15.4464 73.6926 16.0363ZM40.4746 16.0903C40.2664 16.5839 40.6134 16.1944 40.1121 16.5684C40.0852 15.8088 39.7651 16.2407 40.4746 16.0903ZM19.1673 16.526C18.2226 16.4181 18.8087 16.7342 18.6198 16.0325C19.2868 16.3255 18.8511 15.8513 19.1673 16.526ZM28.028 16.0094C28.7837 16.7227 28.7991 16.5068 28.9958 16.553L29.2541 16.6456C28.4097 16.9849 28.5254 16.634 27.8121 16.7921C27.7928 16.7959 27.5653 16.9 27.4303 16.9425C26.8905 16.2754 26.6322 16.6803 26.5512 16.499C26.5203 16.4335 26.424 16.4721 26.3623 16.4489C27.4226 15.5852 26.2697 16.8037 27.3147 15.6855L27.1026 15.3577C27.8583 15.2189 27.6617 15.3192 28.2516 15.7356L28.028 16.0094ZM22.7725 14.066L23.2043 13.9041L23.5012 14.3745L23.721 14.7446L23.9755 14.9374L23.4473 15.2305L22.9344 14.8796C22.9383 14.922 22.4602 14.7215 23.0732 15.3307C23.2159 15.4695 23.667 15.3809 23.9794 16.0556C23.3586 16.152 24.3765 16.2407 23.3509 16.1173C22.3136 15.9901 22.7146 15.6816 22.7108 15.2729C22.0399 15.9091 22.5219 15.2845 22.3638 15.6893C22.0939 16.3757 22.5797 15.5197 22.4255 15.9477C22.2944 16.314 22.5835 16.0171 21.6504 16.4489C21.6504 14.8333 21.8548 15.3423 22.0784 14.3321L22.7725 14.066ZM34.1896 14.5056C33.4454 14.2858 33.8927 14.6482 33.5881 14.0429C34.2706 14.2202 33.9274 13.8347 34.1896 14.5056ZM68.9653 14.4015C69.2121 13.9465 68.8959 13.9311 69.4858 13.827C69.7635 14.6058 69.8637 14.201 68.9653 14.4015ZM40.4977 13.9002C40.8949 13.4799 41.0221 13.5416 41.6391 13.5609L41.6853 14.4863C40.7137 13.7961 41.1185 14.2704 40.4977 13.9002ZM68.5527 13.3141C69.0579 14.0197 69.1157 13.7691 68.1247 13.9542L68.5527 13.3141ZM54.1474 12.1034C54.7874 12.408 54.5098 11.9222 54.6486 12.7512C54.0587 12.4774 54.3671 12.8591 54.1474 12.1034ZM34.7256 12.5275C34.8335 11.8412 34.4942 12.4504 35.2152 11.7795L35.6008 12.728L34.7256 12.5275ZM72.8366 11.9646C73.3224 12.3656 73.118 12.1959 73.3494 13.291C72.5628 13.0172 71.5911 12.2461 72.8366 11.9646ZM24.7929 12.1342C24.9433 12.0725 24.5153 11.6368 25.46 12.1342C25.1592 12.3964 25.6759 12.2538 25.086 12.3078L24.7929 12.1342ZM48.8417 11.6793C48.3636 11.4016 48.595 11.6021 48.379 11.151C48.9613 11.3592 48.7916 11.0353 48.8417 11.6793ZM46.0501 11.3477C45.9383 10.5881 46.2776 11.1587 46.3586 11.3322C46.5938 11.8219 46.0578 11.3939 46.0501 11.3477ZM31.0934 9.43516C32.1036 9.67422 31.5291 9.45444 31.826 10.0521C30.997 9.77833 31.2553 10.0367 31.0934 9.43516ZM62.1251 9.31563C61.3655 9.01102 62.0402 8.95704 62.1251 8.86065C62.7382 9.75905 62.3024 9.02645 62.1251 9.31563ZM65.9501 9.52385C65.549 9.31949 65.5298 9.21152 65.4295 9.1614L64.8666 8.9956C64.9553 8.39409 65.9423 8.44422 65.9501 9.52385ZM67.8664 9.08043L67.1415 8.48663C67.0914 8.44807 66.7289 8.25142 66.5978 8.14346L67.1878 7.71932C67.4577 8.31312 67.5849 8.46349 67.8664 9.08043ZM55.9249 6.0189C55.6936 6.58956 56.0868 6.35821 55.4853 6.40834C55.5779 5.83382 55.2501 6.16928 55.9249 6.0189ZM55.9249 6.0189C55.8941 5.37112 55.9943 5.58319 56.1293 5.37883C57.0084 5.54849 56.5303 5.17833 56.9853 6.24254L55.9249 6.0189ZM54.2013 6.28881L53.3608 4.90457L54.5021 5.66802C54.5175 5.67959 54.5676 5.71815 54.5792 5.72586L54.7103 5.8184C54.718 5.79912 54.7527 5.84153 54.7682 5.85696L54.2013 6.28881ZM48.3945 0.948485C48.8417 1.40347 48.5757 1.07958 48.7993 1.78906C48.032 1.70037 48.2904 1.8199 47.7505 1.54614C47.8778 1.24924 47.7004 1.29937 48.3945 0.948485ZM41.2303 58.1266C43.3819 59.3026 43.9641 67.2803 43.8484 70.1876C43.8137 71.1169 43.7675 71.8186 43.6788 72.4124C43.1043 76.2914 41.3691 80.3438 37.5172 81.4852H62.0402C57.3516 79.1138 55.6203 76.3299 55.0766 73.4612C54.5792 70.8431 55.0573 67.1145 55.2925 64.346C55.4314 62.7343 55.6897 61.138 56.457 59.6535C57.3901 57.8489 58.5931 56.5688 60.7601 55.7899C61.2151 55.628 62.3873 55.3427 62.8693 55.6087C63.4168 55.9172 62.9618 56.2025 62.9541 56.2141C62.7806 56.4801 62.7574 55.8863 62.5839 56.9313L63.7214 57.2359C63.3204 58.169 63.4245 57.5636 62.8731 58.2152C64.0877 58.998 62.9734 58.0456 63.6366 59.2332L64.481 58.9941C64.9977 57.9145 64.319 58.9286 65.3216 58.0109L65.5606 58.3656C65.5799 58.3888 65.6454 58.516 65.6609 58.4852C65.6763 58.4543 65.7303 58.5623 65.765 58.6047C66.5207 58.1883 65.8151 58.3232 66.5169 58.061C66.6403 59.1754 66.5593 58.4466 66.9564 58.8784C67.2687 59.2178 67.234 59.237 67.4808 59.5455C68.946 58.9633 68.6646 58.9787 69.135 57.4942C67.4577 57.0084 68.117 57.3246 66.9256 56.5688C65.5953 55.7244 65.5413 55.038 67.2533 55.0882L72.4086 55.2308L74.3403 55.3118C75.4662 55.2848 74.7683 55.1113 75.5973 55.119C75.8942 55.119 76.195 55.2578 76.7155 55.3349L77.2708 54.9185C77.1204 55.1383 76.916 55.4236 76.7309 55.655C78.2463 55.8208 77.371 55.8555 77.7527 54.9185L78.6974 55.038C78.7051 55.0612 79.218 56.1871 80.4287 55.7437C80.6485 55.2308 80.5097 55.0111 80.3824 54.5561C81.142 54.5291 80.822 54.6833 81.5045 54.5329L83.5326 54.3324C84.5197 54.2669 83.0969 54.1743 83.8103 54.2939L83.7717 55.0805C83.7293 55.0997 83.6599 55.1229 83.629 55.1383L82.908 55.4699C83.0507 56.5495 83.3013 56.083 83.9182 55.921C84.0378 56.1177 83.9915 56.1023 84.1534 56.295L84.8282 56.8541L85.5724 56.5534L85.8269 57.4865C86.1932 56.8888 85.9695 57.1819 86.0274 56.2372C87.2497 56.3953 86.2664 56.0328 87.0299 56.804L87.1533 56.457C89.0388 57.3091 87.3885 57.7911 90.5657 58.0109C90.0606 56.7732 89.9564 57.5443 89.1082 56.7076C89.8331 55.7244 90.2225 56.295 90.5001 56.349C91.4062 56.5187 90.6196 56.3876 91.0978 56.2449L91.7417 56.0598C91.9345 55.1499 91.4255 55.5277 90.2495 54.0047C89.8523 53.4841 89.7444 53.9006 90.0374 53.569C90.6698 53.0253 90.8009 53.8157 93.1992 52.8711C93.338 53.7965 93.1645 53.9006 94.0359 54.2245C94.2171 53.97 94.2364 54.209 94.302 53.7039C94.3714 53.2065 94.0745 53.0831 93.8701 52.5703C94.8071 52.7901 94.1593 53.141 95.1078 53.4147C95.4086 52.8981 95.1271 52.9867 95.2119 52.4238C95.6168 53.0369 95.8134 53.087 96.1065 53.9314L96.7543 53.4302C97.9033 52.3081 96.8622 52.258 96.5422 51.803C96.2607 51.402 96.4921 51.4637 96.1798 50.9971C96.1605 51.028 96.1451 51.082 96.1412 51.0935C95.7749 52.0074 95.2081 50.4882 95.8173 51.7683C94.676 51.4136 95.6708 51.5061 94.595 52.0459C94.4138 51.7876 94.221 51.5717 93.9434 51.2478L93.0912 50.5074C93.9434 50.6385 93.392 50.6116 93.5424 50.3416C93.7699 50.01 93.6927 50.1334 93.7969 50.01C93.8123 49.9908 93.8817 49.9676 93.8932 49.9059C93.9048 49.8442 93.9627 49.8404 93.9974 49.8057C93.6542 48.4369 93.9472 48.7299 94.2518 48.5641L94.4176 48.8572C94.996 50.3609 93.9357 49.0885 95.5782 50.091L95.9638 49.3353C97.5177 49.8597 97.3866 50.6038 97.4368 50.7504L98.8634 52.2696C98.8904 52.2349 98.929 52.1924 98.9521 52.1577C99.2683 51.6642 99.1834 51.1706 99.1834 50.5691C98.7169 50.1527 98.4585 49.9908 98.1 49.3931L98.4161 49.3314C98.6244 49.2813 98.4508 49.8982 98.6822 49.2543C98.6976 49.2003 98.7786 49.2196 98.8596 49.1849L98.4238 48.2171C97.5987 48.086 96.9702 48.059 97.3943 47.0372C96.8622 46.4588 97.1052 46.509 96.8468 45.5874L96.2145 45.6491C96.1528 44.8818 96.0756 45.1517 95.987 44.5656H95.1078C95.077 44.5232 95.0423 44.4577 95.0269 44.4307C95.0153 44.4037 94.9729 44.3304 94.9575 44.2996L94.7608 43.8947C93.8894 43.4436 94.8302 43.6634 94.1246 43.4783L93.6041 43.3433C93.3303 43.1467 93.5192 43.297 93.3072 42.9809C93.1722 42.7842 92.9023 42.148 92.8406 42.0593C92.4242 41.4694 92.6864 41.7933 91.9268 41.5465C91.9846 41.3383 91.9191 40.3936 91.8381 40.2587L91.626 39.4913C91.6299 38.9515 91.8111 39.0479 91.333 38.6084C91.9345 38.3847 91.3137 38.9014 91.7725 38.4773C91.8227 38.431 92.0386 37.9991 92.135 37.8179C91.6029 38.0608 91.5103 38.0493 91.0399 38.2189C90.5695 37.683 90.5233 37.6521 90.4963 36.9465C89.648 36.6033 89.4937 36.1715 89.3742 35.7165C88.8228 35.2576 89.1891 35.6008 89.0388 35.2114C86.8294 34.286 87.7509 32.6087 86.3281 31.6794C85.6418 32.0766 85.9387 32.8169 85.7613 32.3696C85.7497 32.3388 85.715 32.4467 85.6842 32.4853C85.0056 31.4597 86.0659 31.0047 85.877 29.5857C85.4875 29.0112 85.4683 29.204 85.1174 28.7413L84.7973 28.2478C84.4657 27.7928 84.7279 28.1398 84.4388 27.8198C84.701 27.5614 84.7665 27.5884 85.0904 27.465C85.1405 26.8365 84.8089 27.5306 84.9824 26.9252C85.1637 26.289 86.1739 26.0422 87.134 26.9676C87.1378 26.9715 87.5196 27.2182 87.5543 27.2375C86.9335 27.5845 87.1108 27.5653 86.9913 27.8198C87.882 28.0974 87.7046 27.8352 88.3486 27.7465C89.5439 27.573 89.3434 28.1398 89.5786 27.2761C89.8909 26.127 89.995 27.4689 89.8755 26.3121C89.7598 25.2325 88.9192 25.8687 89.54 24.8778C88.657 24.8585 88.4025 24.8778 87.9398 24.203C87.2689 23.2275 87.9668 23.3586 86.6983 23.3431C86.8139 22.4409 86.8872 22.6876 86.2626 22.1363C86.8718 21.8509 87.3383 22.4332 87.481 21.234C87.5581 20.5862 87.1841 21.1839 87.5311 20.7019C87.7201 20.4436 87.7779 20.6171 87.963 19.7804C87.5466 19.3254 87.1147 19.0902 86.4476 18.9629C84.1303 18.8897 86.7253 18.9128 85.5647 17.7368C85.0557 16.9386 85.53 17.2818 84.5968 16.6533C83.5095 15.913 84.8089 16.8306 83.3013 15.3269C82.3219 15.4117 82.9234 15.1649 82.7268 15.6777L80.66 14.2318C79.3336 14.8526 80.6485 14.6367 79.6884 15.0184C79.2719 14.3321 79.7385 14.3128 79.0753 14.1586L79.3028 15.1032C78.7745 14.8834 78.4198 14.5788 77.9995 14.1586C77.7489 14.4979 78.0882 14.3282 77.3325 14.4439C77.1512 14.2549 77.2592 14.386 77.0703 14.1123C77.0626 14.0969 76.9931 13.9388 76.8775 13.746L75.474 13.6534C76.1719 13.1059 75.4547 13.4028 75.231 12.4042C75.1809 12.4427 75.1269 12.5044 75.0884 12.5352L74.6604 12.8206C74.5447 12.8746 74.2902 12.89 74.1475 12.9054L74.0203 12.2846C73.2183 12.2499 73.6771 12.3733 73.2761 12.1342C73.3263 11.4479 73.2299 11.552 72.8134 11.0546C72.0885 10.7886 72.4664 10.8233 72.1926 10.0637C71.4485 10.9428 72.424 11.4518 70.9048 12.0224C70.7043 11.7718 70.7968 11.9569 70.6272 11.5482C69.5128 8.81823 69.9678 11.3785 69.081 9.09971C68.626 7.9391 67.8972 7.25276 67.3343 6.40448C65.6069 6.75922 66.0426 6.67825 65.0825 5.50607C64.5967 4.91228 63.9952 4.465 63.197 4.04472C60.0931 3.99459 61.0493 3.86349 60.0159 5.59861C59.8424 5.49065 59.7267 5.44824 59.5301 5.30557C58.6124 4.6308 58.7821 2.79543 56.3143 3.64757L55.6897 2.54865C54.8183 2.62963 55.2077 2.85712 54.5175 2.64119C54.1165 2.5101 54.2399 2.36743 53.7039 2.20934C52.9289 1.98185 52.0267 2.17464 51.2054 2.15536C51.1707 2.11295 51.1321 2.05125 51.1167 2.02041L50.9779 1.73122C50.9586 1.68495 50.9432 1.63097 50.9239 1.58084C50.2761 0.373967 50.28 -0.269957 48.5294 0.277571C47.2647 0.678577 47.3611 0.848234 47.2184 1.74279L47.1336 1.96642C45.973 1.98185 46.9293 2.10138 46.2738 1.75435C46.0424 1.63097 45.1749 0.732559 43.9526 1.88545C43.6171 1.11814 43.432 1.2261 42.3832 1.21068C38.9438 1.15284 38.9053 3.04606 38.2267 3.57816C37.4593 4.17967 35.9633 3.64756 34.7718 4.73491C34.1356 5.30943 34.4364 5.48679 33.4994 5.59476C32.4506 5.71814 33.0791 5.75285 32.1422 6.06517C30.195 4.83516 29.8749 5.61789 28.7259 6.45846C28.0434 6.95972 28.2362 7.06383 27.6463 7.59208C25.6566 7.56123 27.1296 7.27204 24.338 8.71412C22.0669 9.8863 23.7827 11.1703 22.4139 11.606C22.1556 11.687 22.4486 11.5867 22.0707 11.6908C20.4628 12.1381 21.6929 12.061 20.3587 12.4736C18.3421 13.0982 19.4102 14.3398 17.837 16.2908C16.8731 17.4861 18.2457 16.4566 16.4566 18.0375L16.8576 18.9976C16.2407 19.495 16.553 18.8742 16.1405 19.6493C15.9477 20.0194 15.9747 20.3472 15.8436 20.7327C15.5389 21.6273 14.4555 22.0322 14.4555 22.0322C14.4285 21.9897 14.3514 22.0977 14.3051 22.1363C14.4169 23.1696 14.6213 23.1889 14.7755 23.9485C13.5686 24.9472 14.4169 25.379 13.5378 26.2581C13.1059 26.6823 13.1291 26.9522 13.638 27.3455C12.6856 27.1643 13.3797 26.6669 12.0687 26.6437C11.1086 26.6283 10.1948 28.4174 9.65496 29.1269C8.81824 28.9765 9.30022 28.6141 8.37097 28.348C7.46099 29.0768 7.29519 30.0754 7.96225 30.997C7.48412 31.2129 7.25663 31.3941 6.78236 31.7219L7.20265 33.1177C6.75923 33.6343 5.77985 34.5482 5.64489 34.926C5.17448 36.2216 5.89938 36.8694 5.59091 38.003C5.42125 38.6315 5.2516 38.5351 5.16292 39.3911C5.10122 39.9656 5.14364 40.2587 4.95084 40.7792C4.63852 41.6082 4.37633 41.8164 4.21053 42.7302C4.11413 43.2546 3.80181 43.2161 3.35453 43.459C2.95353 43.6788 2.82243 43.9448 2.54095 44.4268C1.82377 45.6568 2.11681 45.0592 1.13357 45.7108C-0.474306 46.775 1.03332 48.2325 1.49988 49.1271C1.11815 49.5319 1.53458 49.1695 1.12972 49.4548C0.177328 49.8597 -0.188975 50.411 0.0963559 51.0974C0.50893 52.0883 1.33793 51.5948 2.81086 51.722C4.07943 51.8339 3.70927 52.1153 4.24137 52.9405C6.50089 53.087 5.65261 52.0845 6.58572 50.6347C6.75923 51.7644 6.90961 52.3158 8.33241 52.2503C9.35806 51.0588 9.03031 50.654 9.40818 49.1386C10.4107 49.4278 10.8464 50.3571 11.9723 48.6412C13.0558 49.0499 12.6933 49.3893 14.4285 48.8456C16.0402 48.3405 19.3524 46.667 20.4937 46.5282C20.4975 46.6516 20.4744 47.2261 20.4744 47.2377C20.6209 48.1284 20.5477 47.5847 20.7944 47.8662C22.0514 47.5732 21.4538 47.2184 21.7198 46.5359L21.9319 48.3443C22.9576 48.4716 22.8303 48.2055 23.3277 47.7929C23.8058 47.3996 23.9794 47.577 24.3418 47.1336C24.6001 48.0744 24.9665 49.5011 25.9998 49.7671C26.2042 49.8211 27.8005 49.7286 27.8082 49.7247C28.2439 49.5551 28.0395 49.4548 28.267 49.1849C29.2233 48.0513 28.83 49.7787 29.8865 50.839C31.9802 50.6501 30.4147 50.6463 31.7142 49.9291C32.0843 50.0717 32.1961 49.9599 32.4429 50.8352C32.7784 52.0382 32.7398 52.9713 34.8335 52.8248C35.3078 52.3004 35.3386 52.339 35.4196 51.5408L36.0712 51.9418L36.2139 50.8506C36.9966 51.2632 36.8386 50.7966 37.0969 51.5485C37.0468 51.5678 36.9774 51.5794 36.9427 51.5909C36.4144 51.7413 36.1599 51.6025 35.8129 52.3737C35.543 52.979 35.5353 53.1872 35.8013 53.6885C35.9016 53.8774 36.079 54.7373 36.0674 54.9262C36.025 55.601 36.2987 55.7051 36.5802 56.0598C36.4491 56.1794 37.3591 56.9737 38.3192 57.3747C39.4798 57.8567 40.7792 57.9569 41.2303 58.1266Z" fill="#2A452A"/>
</g>
<mask id="mask1_56_1671" style="mask-type:luminance" maskUnits="userSpaceOnUse" x="5" y="80" width="90" height="4">
<path d="M5.17847 80.6871H94.0013V83.5789H5.17847V80.6871Z" fill="white"/>
</mask>
<g mask="url(#mask1_56_1671)">
<path fill-rule="evenodd" clip-rule="evenodd" d="M49.5979 83.5789C74.1056 83.5789 93.9747 82.9504 93.9747 82.1715C93.9747 81.3965 74.1056 80.7642 49.5979 80.7642C25.0903 80.7642 5.22119 81.3965 5.22119 82.1715C5.22119 82.9504 25.0903 83.5789 49.5979 83.5789Z" fill="#2A452A"/>
</g>
<path d="M111.823 0L111.823 83.6599" stroke="#2A452A" stroke-width="1.99903"/>
</svg>
