<svg width="78" height="31" viewBox="0 0 78 31" fill="none" xmlns="http://www.w3.org/2000/svg">
<path d="M62.9731 12.2738V7.95238H58.6517V5.07143H62.9731V0.75H65.8541V5.07143H70.1755V7.95238H65.8541V12.2738H62.9731ZM57.2112 31C56.419 31 55.7407 30.7179 55.1765 30.1537C54.6124 29.5895 54.3303 28.9113 54.3303 28.119C54.3303 27.3268 54.6124 26.6486 55.1765 26.0844C55.7407 25.5202 56.419 25.2381 57.2112 25.2381C58.0035 25.2381 58.6817 25.5202 59.2459 26.0844C59.8101 26.6486 60.0922 27.3268 60.0922 28.119C60.0922 28.9113 59.8101 29.5895 59.2459 30.1537C58.6817 30.7179 58.0035 31 57.2112 31ZM71.616 31C70.8237 31 70.1455 30.7179 69.5813 30.1537C69.0171 29.5895 68.735 28.9113 68.735 28.119C68.735 27.3268 69.0171 26.6486 69.5813 26.0844C70.1455 25.5202 70.8237 25.2381 71.616 25.2381C72.4082 25.2381 73.0865 25.5202 73.6507 26.0844C74.2148 26.6486 74.4969 27.3268 74.4969 28.119C74.4969 28.9113 74.2148 29.5895 73.6507 30.1537C73.0865 30.7179 72.4082 31 71.616 31ZM57.2112 23.7976C56.1309 23.7976 55.3026 23.3235 54.7264 22.3751C54.1502 21.4268 54.1382 20.4845 54.6904 19.5482L56.635 16.019L51.4493 5.07143H48.5684V2.19048H53.2859L59.4079 15.1548H69.5273L75.1091 5.07143L77.63 6.43988L72.0481 16.5232C71.784 17.0034 71.4359 17.3755 71.0038 17.6396C70.5716 17.9037 70.0795 18.0357 69.5273 18.0357H58.7957L57.2112 20.9167H74.4969V23.7976H57.2112Z" fill="#646867"/>
<path d="M16 30.3601L13.68 28.2801C10.9867 25.8534 8.76002 23.7601 7.00002 22.0001C5.24001 20.24 3.84001 18.66 2.80001 17.26C1.76 15.86 1.03334 14.5734 0.620002 13.4C0.206667 12.2267 0 11.0267 0 9.80002C0 7.29335 0.840002 5.20001 2.52001 3.52001C4.20001 1.84 6.29335 1 8.80002 1C10.1867 1 11.5067 1.29333 12.76 1.88C14.0134 2.46667 15.0934 3.29334 16 4.36001C16.9067 3.29334 17.9867 2.46667 19.24 1.88C20.4934 1.29333 21.8134 1 23.2001 1C25.7067 1 27.8001 1.84 29.4801 3.52001C31.1601 5.20001 32.0001 7.29335 32.0001 9.80002C32.0001 11.0267 31.7934 12.2267 31.3801 13.4C30.9667 14.5734 30.2401 15.86 29.2001 17.26C28.1601 18.66 26.7601 20.24 25.0001 22.0001C23.2401 23.7601 21.0134 25.8534 18.32 28.2801L16 30.3601ZM16 26.0401C18.56 23.7467 20.6667 21.7801 22.3201 20.14C23.9734 18.5 25.2801 17.0734 26.2401 15.86C27.2001 14.6467 27.8667 13.5667 28.2401 12.62C28.6134 11.6734 28.8001 10.7334 28.8001 9.80002C28.8001 8.20002 28.2667 6.86668 27.2001 5.80001C26.1334 4.73334 24.8001 4.20001 23.2001 4.20001C21.9467 4.20001 20.7867 4.55334 19.72 5.26001C18.6534 5.96668 17.92 6.86668 17.52 7.96002H14.48C14.08 6.86668 13.3467 5.96668 12.28 5.26001C11.2134 4.55334 10.0534 4.20001 8.80002 4.20001C7.20002 4.20001 5.86668 4.73334 4.80001 5.80001C3.73334 6.86668 3.20001 8.20002 3.20001 9.80002C3.20001 10.7334 3.38668 11.6734 3.76001 12.62C4.13334 13.5667 4.80001 14.6467 5.76001 15.86C6.72002 17.0734 8.02669 18.5 9.68002 20.14C11.3334 21.7801 13.44 23.7467 16 26.0401Z" fill="#646867"/>
</svg>
