<svg width="18" height="18" viewBox="0 0 18 18" fill="none" xmlns="http://www.w3.org/2000/svg">
<path d="M5.24854 0C2.35429 0 0 2.35646 0 5.25146V12.7515C0 15.6457 2.35646 18 5.25146 18H12.7515C15.6457 18 18 15.6435 18 12.7485V5.24854C18 2.35429 15.6435 0 12.7485 0H5.24854ZM14.25 3C14.664 3 15 3.336 15 3.75C15 4.164 14.664 4.5 14.25 4.5C13.836 4.5 13.5 4.164 13.5 3.75C13.5 3.336 13.836 3 14.25 3ZM9 4.5C11.4818 4.5 13.5 6.51825 13.5 9C13.5 11.4818 11.4818 13.5 9 13.5C6.51825 13.5 4.5 11.4818 4.5 9C4.5 6.51825 6.51825 4.5 9 4.5ZM9 6C8.20435 6 7.44129 6.31607 6.87868 6.87868C6.31607 7.44129 6 8.20435 6 9C6 9.79565 6.31607 10.5587 6.87868 11.1213C7.44129 11.6839 8.20435 12 9 12C9.79565 12 10.5587 11.6839 11.1213 11.1213C11.6839 10.5587 12 9.79565 12 9C12 8.20435 11.6839 7.44129 11.1213 6.87868C10.5587 6.31607 9.79565 6 9 6Z" fill="white"/>
</svg>
