<svg width="33" height="33" viewBox="0 0 33 33" fill="none" xmlns="http://www.w3.org/2000/svg">
<mask id="mask0_66_2142" style="mask-type:alpha" maskUnits="userSpaceOnUse" x="0" y="0" width="33" height="33">
<rect width="32.94" height="32.94" fill="#D9D9D9"/>
</mask>
<g mask="url(#mask0_66_2142)">
<path d="M9.60756 30.195C8.85268 30.195 8.20647 29.9262 7.6689 29.3887C7.13134 28.8511 6.86256 28.2049 6.86256 27.45C6.86256 26.6951 7.13134 26.0489 7.6689 25.5113C8.20647 24.9738 8.85268 24.705 9.60756 24.705C10.3624 24.705 11.0087 24.9738 11.5462 25.5113C12.0838 26.0489 12.3526 26.6951 12.3526 27.45C12.3526 28.2049 12.0838 28.8511 11.5462 29.3887C11.0087 29.9262 10.3624 30.195 9.60756 30.195ZM23.3326 30.195C22.5777 30.195 21.9315 29.9262 21.3939 29.3887C20.8563 28.8511 20.5876 28.2049 20.5876 27.45C20.5876 26.6951 20.8563 26.0489 21.3939 25.5113C21.9315 24.9738 22.5777 24.705 23.3326 24.705C24.0874 24.705 24.7337 24.9738 25.2712 25.5113C25.8088 26.0489 26.0776 26.6951 26.0776 27.45C26.0776 28.2049 25.8088 28.8511 25.2712 29.3887C24.7337 29.9262 24.0874 30.195 23.3326 30.195ZM8.44093 8.23499L11.7349 15.0975H21.3424L25.1168 8.23499H8.44093ZM7.13706 5.49H27.3814C27.9076 5.49 28.3079 5.72446 28.5824 6.1934C28.8569 6.66234 28.8683 7.13699 28.6167 7.61737L23.7443 16.4014C23.4927 16.8589 23.1553 17.2134 22.7321 17.4651C22.3089 17.7167 21.8457 17.8425 21.3424 17.8425H11.1173L9.60756 20.5875H26.0776V23.3325H9.60756C8.57818 23.3325 7.80043 22.8807 7.27431 21.9771C6.74818 21.0736 6.72531 20.1757 7.20568 19.2836L9.05856 15.921L4.11756 5.49H1.37256V2.745H5.83318L7.13706 5.49Z" fill="#646867"/>
</g>
</svg>
