<svg width="30" height="28" viewBox="0 0 30 28" fill="none" xmlns="http://www.w3.org/2000/svg">
<path d="M15 27.5249L12.825 25.5749C10.3 23.2999 8.21248 21.3374 6.56248 19.6874C4.91249 18.0375 3.59999 16.5562 2.62499 15.2437C1.65 13.9312 0.968747 12.725 0.581248 11.625C0.19375 10.525 0 9.39998 0 8.24998C0 5.89998 0.787498 3.93749 2.36249 2.36249C3.93749 0.787498 5.89998 0 8.24998 0C9.54997 0 10.7875 0.274999 11.9625 0.824998C13.1375 1.375 14.15 2.14999 15 3.14999C15.85 2.14999 16.8625 1.375 18.0375 0.824998C19.2124 0.274999 20.4499 0 21.7499 0C24.0999 0 26.0624 0.787498 27.6374 2.36249C29.2124 3.93749 29.9999 5.89998 29.9999 8.24998C29.9999 9.39998 29.8062 10.525 29.4187 11.625C29.0312 12.725 28.3499 13.9312 27.3749 15.2437C26.3999 16.5562 25.0874 18.0375 23.4374 19.6874C21.7874 21.3374 19.6999 23.2999 17.175 25.5749L15 27.5249ZM15 23.4749C17.4 21.3249 19.3749 19.4812 20.9249 17.9437C22.4749 16.4062 23.6999 15.0687 24.5999 13.9312C25.4999 12.7937 26.1249 11.7812 26.4749 10.8937C26.8249 10.0062 26.9999 9.12498 26.9999 8.24998C26.9999 6.74998 26.4999 5.49999 25.4999 4.49999C24.4999 3.49999 23.2499 2.99999 21.7499 2.99999C20.5749 2.99999 19.4874 3.33124 18.4874 3.99374C17.4875 4.65624 16.8 5.49999 16.425 6.52498H13.575C13.2 5.49999 12.5125 4.65624 11.5125 3.99374C10.5125 3.33124 9.42497 2.99999 8.24998 2.99999C6.74998 2.99999 5.49999 3.49999 4.49999 4.49999C3.49999 5.49999 2.99999 6.74998 2.99999 8.24998C2.99999 9.12498 3.17499 10.0062 3.52499 10.8937C3.87499 11.7812 4.49999 12.7937 5.39999 13.9312C6.29998 15.0687 7.52498 16.4062 9.07498 17.9437C10.625 19.4812 12.6 21.3249 15 23.4749Z" fill="#646867"/>
</svg>
