<svg width="330" height="114" viewBox="0 0 330 114" fill="none" xmlns="http://www.w3.org/2000/svg">
<path d="M192.129 11.7549C192.04 11.8434 191.952 11.7965 191.868 11.7965C191.691 11.7965 191.514 11.7965 191.342 11.8434C190.905 11.8851 190.467 11.932 189.983 11.932C189.504 11.9736 189.066 12.0622 188.629 12.234L187.228 12.7601C186.483 12.9788 185.738 13.2445 185.082 13.6351C183.946 14.3382 182.853 15.0361 181.931 16.0413L180.837 17.3538L179.962 18.3174C179.571 18.7549 179.264 19.2393 179.087 19.807C179.004 20.2028 178.827 20.5518 178.608 20.859C178.3 21.2965 178.082 21.734 177.952 22.2132C177.603 23.4372 177.295 24.6611 177.03 25.8903C176.988 26.1976 176.946 26.4997 176.988 26.807C177.03 27.0726 177.077 27.333 177.077 27.6403C177.077 28.3382 177.118 29.0413 177.165 29.7393C177.207 30.5726 177.384 31.359 177.644 32.1455C177.863 32.8903 178.17 33.6351 178.431 34.3799C178.608 34.9893 178.915 35.5153 179.222 36.083C179.306 36.3018 179.441 36.5205 179.613 36.6976C180.181 37.3538 180.707 37.9684 181.321 38.5778L181.889 39.1924C182.285 39.7184 182.764 40.1559 183.379 40.4163C183.639 40.5466 183.905 40.7236 184.165 40.9424C184.644 41.3382 185.17 41.6872 185.785 41.9476C186.222 42.1247 186.66 42.3434 187.05 42.5622C188.363 43.2184 189.722 43.5257 191.123 43.6559L193.004 43.7445C193.79 43.8278 194.623 43.8278 195.41 43.8278C195.54 43.8278 195.675 43.7861 195.806 43.7861C196.243 43.6976 196.681 43.6091 197.118 43.5674C197.774 43.4372 198.431 43.3903 199.087 43.1716C199.702 42.9997 200.311 42.8695 200.837 42.5153C201.186 42.3434 201.535 42.1663 201.931 42.0778C202.368 41.9476 202.847 41.8174 203.243 41.557C203.592 41.3799 203.899 41.1611 204.207 40.9007C204.774 40.458 205.123 39.8903 205.259 39.2341C205.342 38.9736 205.3 38.708 205.342 38.4476C205.389 37.7913 205.431 37.1351 205.389 36.4788C205.342 36.3903 205.342 36.3018 205.342 36.2184C205.3 35.8643 205.212 35.5153 205.342 35.1663C205.478 34.7288 205.478 34.2913 205.478 33.807C205.431 33.1507 205.519 32.4945 205.649 31.8382C205.78 31.0101 205.957 30.1768 206.353 29.432L206.613 28.8226L206.743 28.3382C206.743 27.9893 206.655 27.8122 206.306 27.7705C206.134 27.7288 205.957 27.682 205.78 27.682C204.556 27.682 203.332 27.7288 202.108 27.6403C201.405 27.5934 200.707 27.682 200.004 27.682C198.998 27.7288 197.946 27.682 196.941 27.682C196.722 27.682 196.504 27.682 196.332 27.7705C196.113 27.8122 196.066 27.9007 196.024 28.1195C196.024 28.2966 196.066 28.4268 196.113 28.557C196.332 29.0413 196.415 29.5205 196.55 29.9997L197.071 31.9736C197.16 32.4111 197.207 32.8903 197.248 33.3695C197.379 34.1143 197.379 34.8174 197.29 35.5153C197.207 35.9997 197.16 36.4372 197.207 36.9163C197.248 37.3122 197.248 37.7028 197.248 38.0986C197.248 38.6663 197.03 38.9736 196.462 39.1455C195.717 39.3226 194.931 39.4528 194.144 39.4997C193.79 39.5413 193.483 39.4997 193.181 39.4528C192.785 39.4111 192.436 39.3643 192.087 39.2341C191.295 38.8851 190.556 38.5361 189.899 38.0518C189.634 37.8799 189.415 37.6611 189.196 37.3955L188.28 36.3018C187.535 35.3851 187.05 34.333 186.79 33.1507C186.702 32.6716 186.613 32.2341 186.441 31.7966C186.394 31.5778 186.353 31.4007 186.264 31.182C186.045 30.1351 186.045 29.083 185.957 28.0309C185.957 27.7288 186.004 27.3747 186.004 27.0726C186.004 26.2393 186.134 25.4528 186.264 24.6611C186.394 23.9216 186.702 23.2184 186.879 22.5205C187.05 21.9059 187.316 21.3382 187.446 20.7705C187.577 20.2861 187.842 19.8955 188.144 19.5882C188.54 19.1924 188.889 18.7549 189.196 18.2757C189.327 18.0101 189.545 17.7913 189.811 17.6195C190.509 17.0934 191.295 16.7445 192.129 16.4372C192.478 16.307 192.827 16.2601 193.222 16.2601H194.972C195.28 16.2601 195.587 16.307 195.847 16.3955C196.415 16.5674 196.988 16.833 197.509 17.0049C197.905 17.1351 198.3 17.3122 198.603 17.5309L199.264 18.0101C200.53 18.8851 201.623 19.9372 202.498 21.2497C202.587 21.3799 202.675 21.4684 202.806 21.557C203.155 21.8174 203.373 21.734 203.42 21.2965V21.2497C203.462 20.8122 203.462 20.4215 203.373 19.984C203.285 19.5413 203.202 19.1507 203.243 18.7132C203.285 18.3174 203.285 17.9268 203.285 17.5726C203.243 16.833 203.155 16.1299 203.155 15.432C203.202 14.7757 203.155 14.0726 203.155 13.4163C203.155 13.2445 203.155 13.0674 203.113 12.8903C203.066 12.5882 202.894 12.5413 202.675 12.6715L202.191 13.0674C201.842 13.3747 201.452 13.5465 200.967 13.5934C200.53 13.6351 200.092 13.6351 199.655 13.5934C199.129 13.5465 198.603 13.3747 198.165 13.109C197.905 12.9372 197.644 12.807 197.379 12.6715C196.769 12.4528 196.066 12.3226 195.457 12.1924C194.712 12.0153 193.967 11.9736 193.264 11.8434C193.004 11.7965 192.743 11.8434 192.524 11.7549H192.129Z" fill="#2A452A"/>
<path d="M238.11 43.1714C238.678 43.1714 239.251 43.1714 239.819 43.2183C239.949 43.2183 240.126 43.1714 240.256 43.1297C240.428 43.0412 240.475 42.9526 240.386 42.7808C240.345 42.6037 240.256 42.4735 240.168 42.3849C239.907 42.0776 239.642 41.7756 239.334 41.5099C238.897 41.1193 238.506 40.6349 238.199 40.1558C237.98 39.7599 237.673 39.3641 237.365 39.0151C237.105 38.6662 236.886 38.3589 236.709 37.9683C236.402 37.1349 235.964 36.3485 235.574 35.562C235.308 35.1193 235.048 34.7287 234.959 34.2912C234.829 33.7235 234.569 33.2391 234.261 32.7131C234.043 32.3224 233.865 31.8849 233.824 31.4006C233.824 30.7026 234.084 30.1349 234.48 29.562C234.652 29.3016 234.871 29.0412 235.048 28.7339C235.308 28.2964 235.615 27.8589 235.923 27.4214C236.23 27.0256 236.537 26.5881 236.756 26.1506L237.543 24.1818C237.631 23.9214 237.72 23.6558 237.761 23.3954C237.85 22.9579 237.892 22.5204 237.938 22.0829C237.98 21.5151 237.892 20.9891 237.85 20.4214C237.85 20.1141 237.761 19.8068 237.631 19.4995C237.412 19.1037 237.235 18.6662 237.058 18.2287L236.709 17.4006C236.319 16.6974 235.834 16.0412 235.308 15.3849C234.918 14.8641 234.433 14.4214 233.865 14.161C233.777 14.161 233.694 14.1193 233.647 14.0724C232.423 13.3745 231.199 12.8068 229.798 12.6297C229.23 12.5412 228.657 12.4995 228.136 12.5881C227.652 12.6297 227.126 12.6297 226.647 12.5881C226.121 12.4995 225.595 12.4995 225.115 12.5412C224.589 12.6297 224.11 12.6297 223.584 12.4995C223.365 12.4526 223.1 12.411 222.881 12.4526C222.313 12.4526 221.746 12.5881 221.178 12.5412C221.131 12.5412 221.089 12.5881 221.089 12.5881C220.605 12.6297 220.084 12.6297 219.6 12.5881C219.209 12.5412 218.772 12.4995 218.376 12.4995H216.277C215.662 12.4526 215.136 12.3693 214.527 12.411L213.345 12.5412C212.73 12.6714 212.6 12.8901 212.777 13.4631C213.079 14.3381 213.256 15.2131 213.433 16.0881C213.605 16.9162 213.652 17.7495 213.871 18.5829C213.954 18.9735 213.912 19.411 213.912 19.8068C213.871 20.286 213.782 20.7704 213.824 21.2495C213.912 21.7756 213.912 22.3016 213.912 22.8693C213.912 23.3954 214.001 23.9631 213.912 24.5308C213.871 24.7495 213.824 24.9266 213.824 25.1454C213.871 26.062 213.871 27.0256 213.871 27.9474C213.871 28.4266 213.871 28.9058 213.824 29.3901C213.782 29.6974 213.735 29.9995 213.782 30.3068C213.782 30.5724 213.824 30.8797 213.824 31.1401C213.871 31.3589 213.912 31.5776 213.871 31.7964C213.824 32.1454 213.871 32.4943 213.871 32.8485C213.824 33.1974 213.871 33.5881 213.824 33.9422C213.735 34.4214 213.694 34.9006 213.782 35.3433C213.912 36.3016 213.871 37.2235 213.782 38.1401C213.652 39.411 213.256 40.5933 212.86 41.8172L212.6 42.562C212.558 42.8693 212.688 43.0412 212.996 43.1297C213.256 43.2183 213.517 43.2183 213.782 43.1714C214.35 43.1297 214.964 43.1297 215.532 43.1714C215.97 43.2183 216.407 43.2183 216.845 43.1714C217.282 43.1297 217.72 43.0881 218.157 43.0881C218.418 43.1297 218.636 43.1297 218.902 43.1297H221.699C222.006 43.1297 222.313 43.0881 222.621 43.0881C222.709 43.0881 222.839 43.0412 222.97 42.9995C223.235 42.911 223.319 42.7339 223.235 42.5151C223.235 42.2964 223.147 42.0776 223.058 41.9058L222.662 40.9006C222.313 40.1089 222.142 39.3224 222.006 38.4474C221.964 38.0099 221.964 37.5308 221.964 37.0464C222.006 36.5672 222.006 36.1297 221.964 35.6454C221.964 35.2079 221.923 34.7704 222.006 34.3329C222.053 33.9422 222.053 33.5047 222.006 33.1089C221.964 32.6714 221.964 32.1922 221.964 31.7079C222.006 31.3172 222.183 31.0099 222.662 30.9631C223.188 30.8797 223.714 30.8797 224.24 30.9214C224.459 30.9631 224.631 31.0099 224.808 31.0985C225.069 31.2704 225.157 31.536 225.287 31.7964C225.464 32.1922 225.642 32.5829 225.944 32.9318C226.251 33.3276 226.517 33.8068 226.647 34.3329C226.777 34.8172 226.996 35.2547 227.214 35.6454C227.522 36.1297 227.782 36.6089 227.871 37.1766C227.918 37.3954 228.001 37.6141 228.089 37.8329C228.267 38.2704 228.485 38.7079 228.615 39.2339C228.793 40.1558 229.011 41.0724 229.142 42.036C229.183 42.6506 229.449 42.911 230.058 42.9995C230.235 43.0412 230.454 43.0881 230.673 43.0881C231.72 43.1297 232.772 43.0412 233.824 43.0412H234.61C234.918 42.9995 235.225 42.9995 235.485 43.0412C235.964 43.1714 236.49 43.2183 236.975 43.2183C237.365 43.1714 237.72 43.1714 238.11 43.1714ZM222.006 24.0047C222.095 23.3068 221.964 22.562 221.964 21.7756C221.964 21.4266 222.006 21.1193 222.053 20.812C222.095 20.1141 222.053 19.4579 222.053 18.8016C222.006 18.2287 222.053 17.661 222.313 17.1349C222.49 16.786 222.751 16.6141 223.147 16.5672C223.975 16.4787 224.767 16.5672 225.595 16.5256C225.902 16.5256 226.209 16.5256 226.517 16.6141C227.043 16.786 227.433 17.0933 227.74 17.5308C228.22 18.0985 228.527 18.7547 228.657 19.4995L228.964 21.4266C229.011 21.8641 228.923 22.2547 228.923 22.6506C228.793 23.8329 228.308 24.8797 227.699 25.8901C227.303 26.6349 226.647 26.9839 225.772 26.9839C225.334 26.9839 224.897 26.8954 224.459 26.8537H223.058C222.579 26.8537 222.36 26.7183 222.225 26.2808C222.095 25.9318 222.006 25.5412 222.006 25.1454V24.0047Z" fill="#2A452A"/>
<path d="M255.871 18.0985C255.871 17.8381 255.912 17.6193 256.001 17.3537C256.131 16.9631 256.392 16.6558 256.829 16.6141C257.048 16.5672 257.267 16.5256 257.532 16.5256C258.142 16.5256 258.798 16.5672 259.412 16.4787C259.72 16.437 260.027 16.4787 260.329 16.4787C260.944 16.5256 261.6 16.6558 262.215 16.6974C262.741 16.6974 263.22 16.8745 263.657 17.1349L264.355 17.4891C264.751 17.661 265.1 17.8797 265.449 18.0985C265.756 18.3172 266.022 18.536 266.241 18.8016C266.767 19.3224 267.287 19.8068 267.772 20.3745C267.902 20.5933 268.079 20.7703 268.251 20.9422C268.298 21.0308 268.381 21.1193 268.47 21.0776C268.6 21.0776 268.6 20.9422 268.6 20.8589V20.4214C268.558 19.7651 268.517 19.1037 268.517 18.4474C268.558 17.9683 268.517 17.4422 268.428 16.9631L268.251 15.7391C268.251 15.4318 268.209 15.0828 268.121 14.7287C267.991 14.2912 267.772 13.9006 267.376 13.5933C267.157 13.4631 266.938 13.286 266.678 13.1558C266.329 12.9787 265.975 12.8485 265.584 12.8068C264.928 12.7183 264.225 12.6714 263.569 12.6714C262.912 12.6297 262.215 12.5881 261.511 12.5881H260.465C259.938 12.4995 259.412 12.4995 258.933 12.5412C258.407 12.5881 257.881 12.5881 257.355 12.4995C256.918 12.4526 256.48 12.411 256.043 12.4526C255.782 12.4995 255.517 12.5412 255.256 12.5412H252.72L250.834 12.4526C250.397 12.411 249.959 12.411 249.522 12.4526C248.912 12.5412 248.34 12.5412 247.772 12.5412C247.511 12.5412 247.246 12.5881 246.985 12.6714C246.725 12.8068 246.548 12.9787 246.548 13.286C246.548 13.5464 246.59 13.7651 246.678 13.9839L247.116 15.1245C247.553 16.3953 247.73 17.7078 247.772 19.062V21.2495C247.642 22.2131 247.642 23.1766 247.642 24.1401C247.6 24.661 247.683 25.2339 247.683 25.7599V25.8901C247.819 26.5881 247.819 27.2912 247.683 27.9891C247.642 28.0776 247.642 28.1662 247.642 28.2495C247.642 30.5724 247.683 32.9318 247.642 35.2964C247.642 36.1297 247.683 37.0047 247.6 37.8328C247.553 38.4058 247.511 38.9266 247.423 39.4526C247.334 40.1089 247.116 40.7235 246.808 41.2912C246.636 41.5985 246.548 41.9474 246.548 42.3433C246.59 42.562 246.678 42.7339 246.855 42.8693C247.162 43.0412 247.465 43.0881 247.819 43.0881C248.475 42.9995 249.084 42.9995 249.741 43.0881C250.136 43.1714 250.485 43.2183 250.881 43.1714C251.449 43.0881 252.017 42.9995 252.631 43.0412C253.199 43.0412 253.813 42.9995 254.423 43.0881C254.949 43.1297 255.475 43.0881 256.043 43.0881C256.569 43.0881 257.095 43.0412 257.621 43.0881C258.011 43.1297 258.407 43.1714 258.798 43.1714C259.543 43.1714 260.287 43.1297 261.074 43.1297C261.647 43.1297 262.215 43.1297 262.782 43.0412C263.09 42.9995 263.438 42.9526 263.746 42.9995C264.272 43.0412 264.793 43.0412 265.277 42.9526C265.933 42.8224 266.548 42.6506 267.204 42.6037C267.902 42.5151 268.428 42.1662 268.777 41.5568C268.954 41.2495 269.037 40.9006 269.126 40.5933C269.303 39.6714 269.215 38.7964 269.303 37.8797C269.392 37.3537 269.392 36.8276 269.433 36.3016C269.475 35.8224 269.522 35.3433 269.522 34.9006C269.522 34.7703 269.563 34.5516 269.392 34.5099C269.215 34.4631 269.126 34.6401 269.084 34.7287C268.6 35.3433 268.079 35.9526 267.553 36.4787C266.631 37.3953 265.496 38.0516 264.313 38.5776C263.438 38.9266 262.522 39.0151 261.558 39.1037C260.725 39.1453 259.85 39.0151 258.975 39.0151H258.886C258.36 38.9266 257.84 39.0151 257.313 39.062C256.699 39.1453 256.22 38.8849 256.001 38.3172C255.912 38.0516 255.824 37.7912 255.824 37.5308C255.824 36.6974 255.782 35.8641 255.912 35.036C256.001 34.6401 255.954 34.2912 255.912 33.9422C255.735 33.1974 255.735 32.4526 256.001 31.7547C256.131 31.3172 256.173 30.8797 256.35 30.4422C256.527 29.9578 256.876 29.7808 257.402 29.8693C257.704 29.9578 258.058 30.0881 258.36 30.2235C259.543 30.6141 260.636 31.1401 261.688 31.7964C261.819 31.8849 261.949 31.9735 262.084 32.0151C262.303 32.1037 262.433 32.0151 262.475 31.7964C262.563 31.536 262.605 31.2703 262.563 30.9631L262.475 29.6089C262.433 29.2599 262.475 28.8641 262.522 28.5151C262.563 27.7287 262.522 26.937 262.563 26.1974C262.605 25.4943 262.563 24.8381 262.563 24.1818C262.563 24.0047 262.563 23.8745 262.522 23.7443C262.433 23.5672 262.303 23.4839 262.126 23.5256L261.819 23.6558C261.032 24.1818 260.287 24.6193 259.454 25.0151C258.845 25.3224 258.188 25.5828 257.485 25.7131C256.876 25.8433 256.527 25.6714 256.308 25.0568C256.043 24.3589 256.001 23.5672 255.954 22.8276C255.912 22.1714 255.824 21.5568 255.871 20.9006V18.0985Z" fill="#2A452A"/>
<path d="M284.176 18.0985C284.176 17.8381 284.218 17.6193 284.306 17.3537C284.436 16.9631 284.697 16.6558 285.134 16.6141C285.353 16.5672 285.572 16.5256 285.837 16.5256C286.447 16.5256 287.103 16.5672 287.718 16.4787C288.025 16.437 288.332 16.4787 288.634 16.4787C289.249 16.5256 289.905 16.6558 290.52 16.6974C291.046 16.6974 291.525 16.8745 291.962 17.1349L292.66 17.4891C293.056 17.661 293.405 17.8797 293.754 18.0985C294.061 18.3172 294.327 18.536 294.546 18.8016C295.072 19.3224 295.593 19.8068 296.077 20.3745C296.207 20.5933 296.384 20.7703 296.556 20.9422C296.603 21.0308 296.686 21.1193 296.775 21.0776C296.905 21.0776 296.905 20.9422 296.905 20.8589V20.4214C296.863 19.7651 296.822 19.1037 296.822 18.4474C296.863 17.9683 296.822 17.4422 296.733 16.9631L296.556 15.7391C296.556 15.4318 296.514 15.0828 296.426 14.7287C296.296 14.2912 296.077 13.9006 295.681 13.5933C295.462 13.4631 295.244 13.286 294.983 13.1558C294.634 12.9787 294.28 12.8485 293.889 12.8068C293.233 12.7183 292.53 12.6714 291.874 12.6714C291.218 12.6297 290.52 12.5881 289.817 12.5881H288.77C288.244 12.4995 287.718 12.4995 287.238 12.5412C286.712 12.5881 286.186 12.5881 285.66 12.4995C285.223 12.4526 284.785 12.411 284.348 12.4526C284.087 12.4995 283.822 12.5412 283.561 12.5412H281.025L279.139 12.4526C278.702 12.411 278.264 12.411 277.827 12.4526C277.218 12.5412 276.645 12.5412 276.077 12.5412C275.817 12.5412 275.551 12.5881 275.291 12.6714C275.03 12.8068 274.853 12.9787 274.853 13.286C274.853 13.5464 274.895 13.7651 274.983 13.9839L275.421 15.1245C275.858 16.3953 276.035 17.7078 276.077 19.062V21.2495C275.947 22.2131 275.947 23.1766 275.947 24.1401C275.905 24.661 275.988 25.2339 275.988 25.7599V25.8901C276.124 26.5881 276.124 27.2912 275.988 27.9891C275.947 28.0776 275.947 28.1662 275.947 28.2495C275.947 30.5724 275.988 32.9318 275.947 35.2964C275.947 36.1297 275.988 37.0047 275.905 37.8328C275.858 38.4058 275.817 38.9266 275.728 39.4526C275.639 40.1089 275.421 40.7235 275.113 41.2912C274.942 41.5985 274.853 41.9474 274.853 42.3433C274.895 42.562 274.983 42.7339 275.16 42.8693C275.468 43.0412 275.77 43.0881 276.124 43.0881C276.78 42.9995 277.389 42.9995 278.046 43.0881C278.442 43.1714 278.791 43.2183 279.186 43.1714C279.754 43.0881 280.322 42.9995 280.936 43.0412C281.504 43.0412 282.119 42.9995 282.728 43.0881C283.254 43.1297 283.78 43.0881 284.348 43.0881C284.874 43.0881 285.4 43.0412 285.926 43.0881C286.317 43.1297 286.712 43.1714 287.103 43.1714C287.848 43.1714 288.593 43.1297 289.379 43.1297C289.952 43.1297 290.52 43.1297 291.087 43.0412C291.395 42.9995 291.744 42.9526 292.051 42.9995C292.577 43.0412 293.098 43.0412 293.582 42.9526C294.238 42.8224 294.853 42.6506 295.509 42.6037C296.207 42.5151 296.733 42.1662 297.082 41.5568C297.259 41.2495 297.343 40.9006 297.431 40.5933C297.608 39.6714 297.52 38.7964 297.608 37.8797C297.697 37.3537 297.697 36.8276 297.738 36.3016C297.78 35.8224 297.827 35.3433 297.827 34.9006C297.827 34.7703 297.869 34.5516 297.697 34.5099C297.52 34.4631 297.431 34.6401 297.389 34.7287C296.905 35.3433 296.384 35.9526 295.858 36.4787C294.936 37.3953 293.801 38.0516 292.619 38.5776C291.744 38.9266 290.827 39.0151 289.863 39.1037C289.03 39.1453 288.155 39.0151 287.28 39.0151H287.192C286.666 38.9266 286.145 39.0151 285.619 39.062C285.004 39.1453 284.525 38.8849 284.306 38.3172C284.218 38.0516 284.129 37.7912 284.129 37.5308C284.129 36.6974 284.087 35.8641 284.218 35.036C284.306 34.6401 284.259 34.2912 284.218 33.9422C284.041 33.1974 284.041 32.4526 284.306 31.7547C284.436 31.3172 284.478 30.8797 284.655 30.4422C284.832 29.9578 285.181 29.7808 285.707 29.8693C286.009 29.9578 286.363 30.0881 286.666 30.2235C287.848 30.6141 288.942 31.1401 289.994 31.7964C290.124 31.8849 290.254 31.9735 290.389 32.0151C290.608 32.1037 290.738 32.0151 290.78 31.7964C290.869 31.536 290.91 31.2703 290.869 30.9631L290.78 29.6089C290.738 29.2599 290.78 28.8641 290.827 28.5151C290.869 27.7287 290.827 26.937 290.869 26.1974C290.91 25.4943 290.869 24.8381 290.869 24.1818C290.869 24.0047 290.869 23.8745 290.827 23.7443C290.738 23.5672 290.608 23.4839 290.431 23.5256L290.124 23.6558C289.337 24.1818 288.593 24.6193 287.759 25.0151C287.15 25.3224 286.494 25.5828 285.791 25.7131C285.181 25.8433 284.832 25.6714 284.613 25.0568C284.348 24.3589 284.306 23.5672 284.259 22.8276C284.218 22.1714 284.129 21.5568 284.176 20.9006V18.0985Z" fill="#2A452A"/>
<path d="M324.861 12.4997C324.293 12.4528 323.726 12.4997 323.158 12.5882C323.069 12.5882 322.939 12.5882 322.851 12.6299C322.632 12.7184 322.585 12.807 322.632 13.0257C322.632 13.109 322.674 13.1976 322.721 13.2445C322.851 13.6351 323.023 13.9424 323.158 14.2913C323.46 14.9059 323.679 15.5205 323.726 16.1767C323.767 16.7861 323.856 17.4007 323.944 18.0101C324.075 18.6247 324.116 19.2809 324.033 19.9372C323.944 20.2861 323.944 20.6403 323.986 20.9892C324.033 21.557 324.116 22.1247 324.116 22.6924C324.075 23.6559 324.116 24.6611 324.116 25.6247C324.116 25.7601 324.116 25.8434 324.075 25.9788C323.944 26.6767 323.944 27.4215 323.944 28.1195C323.944 28.6038 323.944 29.083 323.814 29.5622C323.814 29.7392 323.767 29.9163 323.596 29.9997C323.418 30.0465 323.288 29.9163 323.158 29.7809C322.721 29.3017 322.366 28.7757 322.017 28.208C321.58 27.4215 321.101 26.6767 320.616 25.932L319.788 24.7497C319.304 23.833 318.778 22.9111 318.257 22.0361C317.903 21.4267 317.554 20.8122 317.116 20.2445C316.418 19.3695 315.846 18.4476 315.325 17.4424C315.059 16.9163 314.752 16.4372 314.361 15.958L313.705 15.083C313.267 14.557 312.83 14.0309 312.304 13.5465C311.866 13.1976 311.34 12.9372 310.773 12.807C310.377 12.7184 309.986 12.6715 309.59 12.6299C308.976 12.5413 308.408 12.4997 307.799 12.5413C307.403 12.5882 306.965 12.6299 306.569 12.6299C306.309 12.6715 306.09 12.5882 305.825 12.5882C305.215 12.5882 304.648 12.5413 304.033 12.4997C303.637 12.4528 303.288 12.4528 302.898 12.4997C302.543 12.5413 302.413 12.7184 302.502 13.0257C302.543 13.1976 302.59 13.3747 302.679 13.5465L302.898 14.2028C303.069 14.8642 303.247 15.5205 303.507 16.1767C303.637 16.4788 303.726 16.8747 303.773 17.2236L303.903 18.2288C303.944 18.8017 303.944 19.3226 303.856 19.8955C303.773 20.1559 303.773 20.4215 303.773 20.682C303.773 20.9424 303.814 21.208 303.814 21.5153C303.814 22.0361 303.856 22.5622 303.773 23.0882C303.684 23.7861 303.726 24.4424 303.726 25.1038C303.726 25.4945 303.773 25.8903 303.814 26.2809C303.903 26.5882 303.903 26.8538 303.903 27.1559V28.3382C303.903 28.734 303.856 29.083 303.814 29.4788C303.726 29.8278 303.684 30.1767 303.726 30.5257C303.814 31.0517 303.903 31.6195 303.856 32.1924C303.856 32.2757 303.856 32.3642 303.903 32.4528C303.944 33.0205 303.944 33.6351 303.856 34.2028C303.814 34.5101 303.773 34.8174 303.773 35.1195C303.773 35.4267 303.814 35.734 303.814 36.083C303.814 36.7392 303.773 37.4424 303.726 38.0986C303.596 39.2809 303.335 40.4163 302.809 41.5101C302.632 41.859 302.46 42.2132 302.372 42.6038C302.325 42.8226 302.413 42.9528 302.632 43.0413C302.679 43.0413 302.721 43.0882 302.809 43.0882C303.247 43.0882 303.726 43.2184 304.21 43.1715C304.471 43.1715 304.689 43.1715 304.908 43.1299C305.476 43.1299 306.043 43.0882 306.569 43.0882H306.747C307.403 42.9997 308.017 43.0413 308.674 43.1299C308.846 43.1299 309.064 43.1715 309.283 43.1299C309.632 43.0413 309.721 42.9111 309.632 42.5622L309.549 42.3434C309.46 42.1247 309.372 41.859 309.241 41.6403C308.976 41.1195 308.715 40.5465 308.585 39.9372C308.408 39.3642 308.278 38.7965 308.236 38.1872V36.3903C308.278 35.8642 308.319 35.3434 308.236 34.8174C308.236 34.4632 308.148 34.0726 308.189 33.7236C308.189 33.3695 308.189 33.0205 308.236 32.6715V31.359C308.236 30.9215 308.236 30.4424 308.148 29.958C308.059 29.5205 308.059 29.083 308.148 28.6455C308.236 28.1663 308.319 27.682 308.278 27.2445C308.189 26.458 308.236 25.6715 308.278 24.9267C308.319 24.708 308.366 24.4892 308.455 24.3122C308.538 24.0517 308.674 24.0049 308.934 24.1403C309.023 24.2236 309.111 24.2705 309.153 24.359L309.767 24.9267C310.069 25.234 310.335 25.583 310.554 25.932C310.991 26.6351 311.429 27.333 311.778 28.0778C312.127 28.7757 312.611 29.3017 313.002 29.958C313.309 30.484 313.747 30.9632 313.965 31.5778C314.096 31.8851 314.184 32.1924 314.403 32.4528C314.84 33.1507 315.278 33.8955 315.762 34.5517C315.981 34.859 316.2 35.208 316.33 35.5622C316.549 36.0413 316.809 36.5205 317.116 36.9163C317.731 37.7497 318.168 38.6247 318.694 39.4528C319.085 40.0674 319.434 40.682 319.96 41.1195C320.267 41.3382 320.528 41.6403 320.747 41.9059L321.184 42.432C321.491 42.6924 321.84 42.8226 322.236 42.8695C322.543 42.9528 322.851 42.9111 323.158 42.9528C323.767 43.0413 324.382 43.1299 324.991 43.0882C325.08 43.0882 325.168 43.0882 325.257 43.1299C325.648 43.1715 326.085 43.1299 326.481 43.0413C327.179 42.8695 327.616 42.432 327.84 41.6872C328.012 41.0309 328.101 40.3747 328.278 39.7184C328.361 39.4528 328.408 39.1924 328.361 38.9267C328.319 38.2705 328.278 37.6142 328.319 36.958C328.319 35.5622 328.278 34.2028 328.319 32.8017C328.408 31.2705 328.278 29.7392 328.45 28.208V27.5517C328.361 27.0726 328.408 26.5882 328.408 26.109C328.45 25.583 328.497 25.057 328.408 24.5309C328.278 23.9632 328.278 23.3486 328.408 22.7809C328.497 22.4736 328.538 22.2132 328.497 21.9059C328.408 21.3799 328.319 20.8122 328.361 20.2861V19.458C328.361 19.0622 328.361 18.6247 328.45 18.2288L328.627 16.4788C328.627 15.958 328.715 15.3851 328.934 14.8642L329.543 13.5049C329.59 13.2861 329.721 13.109 329.721 12.9372C329.721 12.7184 329.674 12.6715 329.502 12.5882L329.064 12.4997C328.408 12.4111 327.752 12.4111 327.096 12.4528C326.788 12.4997 326.439 12.5413 326.085 12.5413C325.694 12.4997 325.257 12.4997 324.861 12.4997Z" fill="#2A452A"/>
<path d="M203.621 89.2302C203.704 89.7094 203.84 90.2354 203.793 90.7146C203.793 91.1104 203.84 91.5062 203.882 91.8969C204.059 92.6885 204.361 93.3864 204.579 94.1312C204.803 94.6989 205.064 95.2667 205.371 95.7927C205.543 96.0531 205.72 96.3604 205.809 96.7146C206.027 97.4542 206.465 98.0271 206.902 98.6364C207.34 99.251 207.908 99.6885 208.387 100.256C209.22 101.131 210.184 101.918 211.277 102.532C212.46 103.189 213.642 103.803 214.908 104.152C215.434 104.282 215.96 104.459 216.527 104.543C217.402 104.678 218.277 104.72 219.199 104.761C219.809 104.761 220.465 104.761 221.121 104.678C221.866 104.59 222.611 104.459 223.355 104.282C224.538 104.064 225.632 103.715 226.595 102.97C226.814 102.793 227.116 102.662 227.423 102.532C227.949 102.314 228.428 102.053 228.824 101.616C229.132 101.308 229.48 101.001 229.829 100.735C230.486 100.256 231.059 99.6885 231.579 99.1208C231.757 98.9437 231.887 98.8135 231.975 98.5948C232.324 97.8917 232.809 97.1937 233.246 96.5375L233.637 95.7927C234.033 94.876 234.34 93.9542 234.642 92.9906C234.908 92.1625 235.079 91.2875 235.168 90.4125C235.168 90.1469 235.168 89.8396 235.215 89.5792C235.257 89.1417 235.257 88.7458 235.215 88.3552L235.038 87.1312C234.996 86.475 234.908 85.8135 234.73 85.1573C234.6 84.5896 234.423 84.0219 234.251 83.4542C234.033 82.4906 233.684 81.5739 233.158 80.7406C232.892 80.3448 232.59 79.9958 232.413 79.6C232.017 78.8604 231.538 78.2042 230.882 77.6781L230.444 77.1937C230.048 76.7562 229.611 76.3187 229.085 76.0167C227.908 75.1833 226.637 74.4802 225.324 73.9125C224.757 73.6521 224.142 73.3864 223.527 73.3031C222.788 73.2146 222.085 73.0375 221.428 72.7771C221.079 72.6885 220.73 72.6469 220.382 72.7302C219.809 72.8187 219.241 72.8187 218.715 72.7771C218.324 72.7302 217.928 72.7771 217.579 72.8187C217.012 72.9073 216.486 73.0375 215.96 73.1677C214.996 73.3864 214.033 73.6937 213.116 74.0896C212.413 74.4385 211.757 74.8344 211.1 75.1364C210.663 75.3552 210.272 75.7094 209.918 76.0167C209.616 76.3187 209.262 76.626 208.913 76.8917C208.605 77.1937 208.257 77.501 207.996 77.8083C207.033 78.9906 206.158 80.1729 205.413 81.4854C205.064 82.1417 204.715 82.8396 204.538 83.5427L204.361 84.1989C204.1 85.0739 203.923 85.9489 203.882 86.8656C203.84 87.35 203.751 87.8708 203.621 88.3083V89.2302ZM226.329 88.6156C226.376 89.0114 226.329 89.3187 226.241 89.6208C226.069 90.1469 226.069 90.7146 226.111 91.2406C226.111 91.8552 226.022 92.4229 225.803 92.9489C225.673 93.3864 225.543 93.8656 225.454 94.35C225.059 95.6625 224.491 96.8864 223.616 97.9802C223.267 98.4177 222.918 98.8552 222.48 99.251C221.996 99.6885 221.387 99.9489 220.772 100.168C220.382 100.298 219.986 100.433 219.548 100.475C218.673 100.475 217.887 100.215 217.142 99.7771C216.09 99.1625 215.303 98.2875 214.736 97.1937C213.991 95.8812 213.507 94.5219 213.116 93.0792C212.897 92.251 212.767 91.376 212.632 90.4958C212.59 89.975 212.72 89.4489 212.767 88.9646V88.5271C212.72 88.3969 212.72 88.2667 212.72 88.1364C212.72 87.9177 212.678 87.7406 212.678 87.5687C212.632 87.2146 212.72 86.9125 212.767 86.6052C212.939 85.7719 213.027 84.9854 213.246 84.1521C213.376 83.5427 213.553 82.9281 213.814 82.3135L213.944 81.9229C214.21 81.001 214.647 80.2146 215.262 79.5167C215.611 79.0323 215.96 78.5062 216.486 78.1573C217.184 77.6312 217.97 77.3292 218.845 77.1937C219.371 77.1104 219.939 77.1521 220.465 77.2406C220.949 77.3292 221.34 77.5479 221.736 77.8083L223.007 78.9021C223.527 79.3812 223.882 79.9958 224.23 80.6104L224.798 81.5739C225.496 82.9698 225.939 84.4177 226.111 85.9906C226.158 86.7354 226.199 87.4802 226.329 88.225C226.376 88.3552 226.329 88.5271 226.329 88.6156Z" fill="#2A452A"/>
<path d="M239.009 103.934C239.274 104.152 239.535 104.064 239.8 104.064C240.368 104.022 240.983 103.975 241.55 104.064C241.811 104.064 242.076 104.105 242.337 104.105C243.212 104.105 244.087 104.064 244.962 104.022L245.748 103.887C246.144 103.803 246.233 103.668 246.233 103.277C246.233 102.881 246.186 102.491 246.233 102.095C246.274 101.439 246.274 100.782 246.405 100.126C246.54 99.2512 246.712 98.3762 247.019 97.5429C247.149 97.2825 247.28 96.9752 247.326 96.6679C247.415 96.4075 247.587 96.2304 247.894 96.1418L248.243 96.0533C248.592 96.0116 248.988 96.0116 249.337 96.0533C250.17 96.1002 250.957 96.0533 251.743 96.1002C252.228 96.1418 252.707 96.0533 253.233 96.0116C253.931 95.97 254.634 96.0533 255.332 96.1887C255.639 96.2304 255.946 96.2304 256.254 96.3189C256.472 96.3606 256.644 96.496 256.691 96.7148L257.129 97.8502C257.608 99.121 257.785 100.387 257.785 101.699C257.785 102.184 257.826 102.663 257.826 103.147C257.826 103.585 258.045 103.803 258.483 103.845H258.53L259.446 104.022C259.925 104.064 260.41 104.105 260.889 104.064C261.373 103.975 261.899 103.934 262.42 103.975C262.639 103.975 262.816 104.022 262.993 104.022C263.649 104.022 264.259 104.022 264.873 104.064C265.66 104.105 266.446 104.064 267.238 104.064C267.717 104.064 268.196 103.975 268.634 103.887C268.988 103.845 269.03 103.668 268.941 103.366L268.634 102.881C268.243 102.355 267.894 101.876 267.54 101.309C266.665 99.9491 265.925 98.5064 265.353 96.9335C264.743 95.2668 264.129 93.6054 263.603 91.8971C263.342 91.1106 262.993 90.3658 262.774 89.5377C262.509 88.4856 262.071 87.5221 261.681 86.5168C261.415 85.9023 261.155 85.3346 261.066 84.6783C261.024 84.2408 260.889 83.845 260.717 83.496C260.498 82.9283 260.233 82.3606 260.103 81.7929L259.707 80.5221L259.269 79.6002C258.967 78.8137 258.79 77.9856 258.394 77.1939C258.175 76.7564 258.004 76.2773 257.696 75.8398L256.472 74.22C256.254 73.9596 255.988 73.8241 255.686 73.6939C255.29 73.5637 254.894 73.4752 254.457 73.4752H253.056C252.707 73.4752 252.358 73.4752 252.009 73.4335C251.613 73.345 251.222 73.345 250.826 73.345C250.519 73.345 250.259 73.3866 249.951 73.4335C249.384 73.4752 249.248 73.6523 249.248 74.22V74.4387C249.337 75.095 249.467 75.7981 249.384 76.4543C249.295 77.2408 249.165 78.0273 248.899 78.7252C248.639 79.5585 248.373 80.3918 248.071 81.1783C247.675 82.3137 247.368 83.4543 247.019 84.5898C246.712 85.5116 246.363 86.3398 246.056 87.2148C245.795 87.9596 245.488 88.6627 245.311 89.4023C245.05 90.2356 244.79 91.0689 244.483 91.8971C244.087 92.9491 243.561 93.9543 243.3 95.095L243.17 95.5741C242.733 97.0168 242.03 98.3293 241.42 99.6887C241.113 100.345 240.675 100.954 240.326 101.616C239.931 102.314 239.405 102.928 239.009 103.626V103.934ZM252.972 92.1158C252.358 92.1158 251.79 92.0741 251.175 92.0741C250.738 92.0741 250.347 92.0325 249.91 91.9439C249.425 91.8137 249.248 91.5481 249.295 90.9804C249.337 90.4127 249.514 89.8398 249.733 89.2721C249.993 88.6627 250.17 88.0064 250.347 87.3502C250.431 87.1731 250.478 86.996 250.519 86.8241C250.868 85.9908 251.134 85.1575 251.441 84.3293C251.571 84.1106 251.66 83.845 251.79 83.6731C251.962 83.4543 252.097 83.4075 252.228 83.6731C252.665 84.5012 253.144 85.3346 253.321 86.2981C253.41 86.996 253.67 87.6106 253.931 88.2252C254.149 88.7043 254.285 89.1835 254.415 89.6679L254.722 91.0689C254.806 91.595 254.457 91.8971 254.108 92.0325C253.712 92.1158 253.363 92.1627 252.972 92.1158Z" fill="#2A452A"/>
<path d="M299.129 73.345C298.994 73.3866 298.822 73.3866 298.645 73.3866C297.858 73.345 297.113 73.345 296.327 73.5221C296.02 73.6054 295.671 73.6054 295.322 73.5637C294.973 73.5221 294.619 73.4752 294.27 73.5221C293.791 73.6054 293.395 73.7825 293.087 74.22C292.957 74.4804 292.869 74.746 292.78 75.0064C292.561 75.621 292.301 76.1471 291.863 76.6262L291.384 77.3293C291.119 77.8502 290.811 78.3346 290.462 78.8137C290.155 79.1627 289.936 79.6002 289.546 79.9075C289.192 80.1731 288.843 80.4752 288.582 80.8293C288.014 81.4856 287.4 82.1835 286.874 82.8398C286.348 83.4543 285.827 84.0221 285.254 84.5481C285.082 84.72 284.952 84.8554 284.733 84.9387C284.598 85.0273 284.514 85.0273 284.468 84.8554C284.426 84.8085 284.426 84.7668 284.426 84.72C284.337 84.5012 284.337 84.2825 284.337 84.0637C284.337 83.496 284.379 82.8866 284.337 82.3137C284.296 81.4856 284.296 80.6523 284.296 79.8189C284.296 79.1627 284.426 78.5533 284.556 77.8971C284.733 76.7148 285.082 75.5793 285.473 74.4387C285.52 74.3085 285.608 74.1314 285.608 74.0012C285.65 73.6939 285.561 73.5637 285.301 73.4752C284.952 73.3866 284.645 73.3866 284.337 73.4335C283.723 73.5221 283.113 73.4752 282.499 73.5221C281.624 73.5637 280.79 73.5221 279.915 73.5221C278.91 73.5637 277.905 73.4335 276.9 73.4335C276.853 73.4335 276.853 73.4335 276.811 73.3866C276.415 73.345 275.978 73.3866 275.587 73.3866C275.452 73.3866 275.369 73.4335 275.233 73.4752C275.061 73.5221 274.973 73.6523 274.973 73.871C274.973 74.0429 275.014 74.22 275.103 74.4387C275.28 75.0064 275.499 75.5793 275.671 76.1887C275.889 77.0221 276.108 77.8085 276.155 78.6835V81.5741C276.155 81.9231 276.155 82.2304 276.244 82.5793C276.285 82.9283 276.327 83.2356 276.285 83.5429C276.244 84.0221 276.197 84.5012 276.197 84.9387C276.197 85.3346 276.244 85.6835 276.244 86.0377C276.244 87.0846 276.197 88.1783 276.197 89.2304C276.155 90.9335 276.197 92.6418 276.197 94.3502C276.197 94.9179 276.155 95.4856 276.197 96.1002C276.244 96.6679 276.374 97.2825 276.285 97.8918C276.244 98.4648 276.197 99.0325 276.108 99.5585C275.889 100.517 275.587 101.439 275.233 102.355C275.15 102.71 275.014 103.012 274.973 103.319C274.884 103.715 275.014 103.934 275.41 104.022C275.671 104.064 275.936 104.105 276.197 104.105C277.16 104.194 278.077 104.064 279.04 104.064H279.176C279.785 103.975 280.442 103.934 281.098 104.022C281.317 104.064 281.535 104.064 281.801 104.064H284.03C284.426 104.064 284.863 104.064 285.301 103.975C285.608 103.887 285.692 103.715 285.65 103.407L285.389 102.71C285.171 102.137 284.905 101.569 284.775 100.954C284.598 100.126 284.556 99.2929 284.468 98.4648C284.426 97.72 284.468 97.0168 284.426 96.2773C284.379 95.5325 284.426 94.7408 284.379 94.0012C284.337 93.4283 284.379 92.9075 284.337 92.3814C284.337 91.7668 284.556 91.2408 285.035 90.8033C285.254 90.5846 285.343 90.5846 285.561 90.8502C285.738 91.0689 285.91 91.2877 286.046 91.5064C286.483 92.2043 286.832 92.9075 287.311 93.5168C287.619 93.8658 287.796 94.2616 287.968 94.6575C288.145 95.0481 288.317 95.3971 288.582 95.7043C288.843 96.1002 289.108 96.496 289.327 96.8866C289.853 97.6731 290.29 98.5064 290.77 99.3398C290.988 99.7304 291.249 100.168 291.296 100.652C291.337 101.439 291.645 102.184 291.863 102.97C291.994 103.449 292.301 103.668 292.738 103.803C293.218 103.975 293.702 103.887 294.181 103.934C294.577 103.934 295.014 103.887 295.41 103.934C295.889 103.975 296.369 104.022 296.895 104.022C297.291 104.022 297.728 103.975 298.119 103.975C299.041 103.975 299.957 104.022 300.879 104.064C301.796 104.105 302.759 104.064 303.676 104.064C303.853 104.064 303.983 104.022 304.113 103.975C304.29 103.934 304.291 103.803 304.249 103.668C304.202 103.538 304.113 103.449 303.983 103.366L302.801 102.272C302.363 101.835 301.926 101.392 301.535 100.913C301.27 100.564 301.009 100.215 300.702 99.9075C300.311 99.5116 299.957 99.0325 299.738 98.5064C299.52 98.0273 299.259 97.5898 298.91 97.1939C298.556 96.7981 298.296 96.3606 298.119 95.8814C297.947 95.4439 297.728 95.0481 297.462 94.6991C297.16 94.3033 296.853 93.9127 296.587 93.4752C296.15 92.7721 295.671 92.1158 295.41 91.3293C295.41 91.2877 295.363 91.2408 295.322 91.1991L294.666 90.0168L292.52 86.3866C292.212 85.7721 291.863 85.1575 291.686 84.4596C291.603 84.0637 291.556 83.6731 291.775 83.2773C292.082 82.6679 292.52 82.095 293.046 81.6158C293.436 81.3085 293.791 81.0012 294.051 80.6106C294.311 80.2564 294.619 79.9075 294.973 79.6002C295.41 79.1627 295.889 78.7252 296.285 78.246C296.723 77.6314 297.291 77.1523 297.9 76.6731C298.254 76.4075 298.603 76.1471 298.91 75.7981C299.171 75.4439 299.52 75.1366 299.874 74.8762C300.311 74.5689 300.791 74.2616 301.228 73.871C301.317 73.7408 301.447 73.6523 301.405 73.5221C301.358 73.345 301.186 73.3866 301.009 73.345C300.832 73.345 300.613 73.4335 300.442 73.345H299.129Z" fill="#2A452A"/>
<mask id="mask0_61_1785" style="mask-type:luminance" maskUnits="userSpaceOnUse" x="0" y="0" width="134" height="111">
<path d="M0 0.109375H133.99V110.094H0V0.109375Z" fill="white"/>
</mask>
<g mask="url(#mask0_61_1785)">
<path fill-rule="evenodd" clip-rule="evenodd" d="M71.7344 108.088C70.3073 107.802 70.1562 106.766 69.7865 105.703C70.2396 106.109 70.4688 106.177 70.8906 106.724C71.1615 107.083 71.5417 107.651 71.7344 108.088ZM67.026 103.068C67.5312 103.469 68.2812 103.802 67.125 104.307L67.026 103.068ZM66.4479 99.3801L66.5781 98.7395C67.8802 102.271 66.9948 100.458 66.4479 99.3801ZM68.4167 99.2968C68.4948 99.2655 68.599 99.2447 68.651 99.2187C68.7031 99.1978 68.8177 99.1614 68.875 99.1301L69.651 98.4218C69.6719 98.3228 69.7188 98.2968 69.8802 98.2708L69.3958 99.828C70.1823 100.516 70.6927 101.677 70.75 102.87C69.75 101.583 69.0938 100.885 68.4167 99.2968ZM69.0417 97.6301C70.0052 96.8905 68.1094 97.3905 69.8021 96.8905C69.4688 97.6874 69.9323 97.302 69.0417 97.6301ZM70.9635 97.2916C72.151 96.078 71.6615 98.0676 72.0052 95.5155C73.3438 97.0208 71.1667 95.5155 72.5781 99.0885C73.3802 101.115 71.9688 100.458 72.0677 103.463L71.1615 100.88C71.7865 101.198 72.1875 100.807 72.3281 100.734C71.75 99.3697 71.4167 98.7291 70.9635 97.2916ZM71.2917 94.8645C70.5365 94.651 70.9167 95.302 70.8177 93.9791C70.7396 92.9739 70.375 93.8489 71.0052 92.8228C71.5417 93.0937 71.4896 92.6353 71.5052 93.7708C71.5156 94.5051 71.6354 94.2499 71.2917 94.8645ZM67.7188 93.026C67.901 92.552 67.9375 92.6666 68.1042 92.4218C68.4427 92.8489 68.5469 91.8749 68.5521 94.5989C68.4115 94.5312 67.151 94.5468 67.7188 93.026ZM68.9427 87.1718L69.5677 86.9999L69.8385 88.0833L70 89.2708C69.1719 89.0676 69.7292 89.203 69.2135 88.8176C68.6875 88.427 69.6562 88.8853 68.6615 88.3905L68.5 90.0676C68.4792 90.1405 68.4062 90.3593 68.3906 90.3176C68.375 90.276 68.3125 90.4895 68.2656 90.5728C67.4167 89.6405 67.7969 88.8489 67.8125 87.4895C68.6979 87.3489 68.2969 87.4478 68.9427 87.1718ZM66.8229 83.8593C65.5625 83.8072 66.4375 84.151 66.099 83.1093C66.8281 83.5468 66.4688 82.8228 66.8229 83.8593ZM88.875 77.578C88.8698 77.4635 89.1198 76.9947 89.3125 77.6405C89.5937 78.5885 88.8906 77.8905 88.875 77.578ZM115.177 75.6562C113.99 75.453 114.667 75.7135 114.187 75.0416C115.073 75.2655 114.63 74.7291 115.177 75.6562ZM107.62 74.7395C106.833 74.3958 107.182 74.703 106.781 74.052C108.26 74.203 107.328 73.6562 107.62 74.7395ZM51.7865 74.0624C51.7865 73.4895 52.4896 73.1718 53.2187 73.1249C53.224 73.6978 53.3281 74.0051 52.7969 74.2708C51.8177 74.7551 51.7917 74.0676 51.7865 74.0624ZM117.724 76.2603L117.078 75.0312C116.328 75.2239 116.656 75.578 115.417 75.1458C115.432 74.3124 116.198 72.6666 116.604 71.9739C118 72.4687 118.307 72.026 118.609 73.3593C117.13 72.9218 116.521 72.5624 116.792 73.6874C116.932 74.2655 117.583 74.7083 118.062 75.1145L117.724 76.2603ZM55.2083 72.1614C56.0156 71.7864 56.5833 71.828 57.1354 72.5416L56.151 72.7603C55.2187 72.7343 55.5885 72.9895 55.2083 72.1614ZM119.026 72.5155C118.464 72.1874 118.594 72.401 118.406 71.7551C119.172 72.026 118.734 71.1458 119.026 72.5155ZM92.1562 68.6405C92.1771 68.5468 92.2552 68.5416 92.4479 68.4791L92.6146 69.8958L95.1354 71.6405C92.8281 71.6614 88.875 71.7135 87.1146 70.953C88.2344 70.4791 89.7135 70.5572 91.125 70.3541L92.1562 68.6405ZM96.3906 71.1301C94.9479 70.8645 95.9271 71.3593 95.6771 70.3905C96.4792 70.7135 96.1302 70.2291 96.3906 71.1301ZM99.5417 69.9583C100.484 70.1041 100.328 69.9322 100.365 70.8905C99.6198 70.8489 99.1562 70.927 99.5417 69.9583ZM106.797 70.427C107.281 70.151 106.047 70.1718 107.641 70.2239L107.13 70.8749L106.797 70.427ZM77.4896 70.276C78.401 69.677 78.0417 70.401 78.3125 69.0103C79.5521 69.3437 78.5729 69.026 79.4427 69.4947C79.5156 69.5364 79.7344 69.6666 79.7865 69.6978L80.1198 69.8958C79.3906 71.3437 79.849 70.3489 78.2292 70.4426C78.724 71.2187 78.6146 72.3072 77.8438 73.0468C77.4688 73.5885 76.151 74.3072 74.7865 75.6093C74.3281 76.0416 73.6875 76.4791 73.2448 77.0364C72.6979 77.7343 72.3646 78.578 71.9115 79.2916C71.4427 78.7239 71.526 77.7343 71.3802 76.9583C71.125 75.6145 70.7708 74.3853 71.625 73.0468C73.4792 70.1197 76.5521 66.5937 76.5729 66.5937C79.4583 67.1197 77.3281 66.7291 79.5781 65.9999C79.8906 66.4062 79.7292 67.0155 80.3385 68.8385C76.6927 68.9895 81.3646 67.8333 77.9635 68.3749C77.9115 68.3853 77.8177 68.4114 77.7604 68.4166C77.7135 68.4218 77.6198 68.4322 77.5729 68.4322C77.5729 68.4322 77.0781 68.3072 76.8906 68.2499C77.026 69.0676 77.1667 69.8801 77.1979 69.8437L77.4896 70.276ZM120.865 70.9583C120.693 69.802 120.943 70.8437 121.307 70.2447C121.922 69.2395 121.042 70.4114 121.526 69.3958C122.328 69.5208 123.651 70.1978 124.234 71.052L121.531 71.1458C120.849 71.1041 121.224 71.1249 120.865 70.9583ZM104.698 68.6405C104.682 66.7655 104.937 68.3489 105.125 66.5728L106.375 67.802C106.396 67.8176 106.448 67.8645 106.469 67.8749C107.385 68.3697 108.839 68.5989 107.927 69.8489C107.328 69.6249 107.828 69.901 107.427 69.552L104.698 68.6405ZM104.172 66.7916C105.115 68.1458 104.182 67.8072 104.167 67.828C103.578 67.1926 103.484 67.5416 104.172 66.7916ZM107.948 67.6093C107.047 67.0885 107.917 66.7083 107.927 66.6822C108.672 66.9843 108.531 66.828 108.766 67.5103C108.62 67.5833 108.255 67.7864 107.948 67.6093ZM98.8125 66.453L99.1146 67.1197C98.3437 66.9947 98.75 67.3593 98.8125 66.453ZM48.5833 66.9843C48.3958 65.9687 48.8385 66.6822 48.9896 66.9426C49.25 67.4062 48.5937 67.052 48.5833 66.9843ZM101.552 69.401C101.016 68.9687 101.583 69.5155 101.656 68.7447C99.7969 68.5312 100.302 68.4843 100.016 67.5833C99.7083 66.6145 99.3177 67.1874 99.9062 66.2812L100.74 66.9426C101.484 67.453 102.443 68.2447 102.88 69.1718L103.297 68.6197C103.839 68.0833 102.74 68.5051 103.828 68.4322L103.589 69.953C102.99 69.7395 103.344 69.9322 102.859 69.5208C102.724 69.401 102.516 69.1041 102.51 69.0989C101.703 69.4739 101.875 69.6614 101.552 69.401ZM124.995 66.3437L125.667 66.9739C126.26 67.5364 125.583 66.7447 126.219 67.5103C126.214 67.5155 125.609 67.8801 125.432 67.3072C125.401 67.2083 125.318 67.1822 125.24 67.1249L125.333 68.2551L124.495 69.0572C124.339 68.9583 124.271 68.7343 124.109 68.6093C123.286 67.9999 123.802 68.7551 122.818 68.0416C123.01 67.0051 123.156 66.8801 122.74 65.927C124.24 66.8176 123.182 67.2603 124.995 66.3437ZM97.5625 66.1458C98.1354 65.4635 97.0833 65.9687 98.2969 65.5416C97.7917 66.3853 98.6823 65.9583 97.5625 66.1458ZM102.146 66.7135C102.12 66.7239 102.297 67.5208 101.589 66.6562C101.094 66.0468 101.5 66.4114 101.51 65.9999C101.094 66.6822 101.5 67.1926 100.531 65.9218C101.016 65.5728 100.984 65.6874 101.562 65.4843L102.078 66.2551C102.104 66.3072 102.167 66.4791 102.177 66.5155L102.146 66.7135ZM81.6979 66.1874C81.5312 66.2499 81.5156 66.3489 81.1562 66.2968C81.0885 66.2916 80.8542 66.2083 80.7917 66.177C80.474 66.0364 80.2917 65.7655 80.2135 65.6874C81.9115 65.4791 81.1823 65.3645 81.6979 66.1874ZM75.7656 64.9426C75.9219 66.1405 75.8177 65.9062 74.6719 65.6978C74.9531 64.901 74.8281 65.0989 75.7656 64.9426ZM110.562 67.7968C110.411 67.6353 110.307 67.4062 110.13 67.3124C110.099 66.4947 110.583 66.953 110.453 65.9739C110.339 65.0937 110.094 65.776 109.99 64.6666C111.203 65.552 109.354 65.3228 112.24 66.2083C113.057 66.4583 113.016 67.0103 112.708 67.7187L111.687 67.1353C110.927 67.4791 111.531 67.2187 111.104 67.4739C110.802 67.651 111.156 67.5155 110.562 67.7968ZM106.146 66.1926C104.943 66.3072 105.01 66.3333 105.083 64.8437C105.969 65.5155 105.057 64.7812 105.609 65.5572C105.771 65.7916 105.797 65.6718 106.146 66.1926ZM6.76041 65.1301C7.34895 64.7343 6.9427 64.7395 7.53645 65.1301C6.60416 65.5572 7.0052 65.2603 6.76041 65.1301ZM99.8906 65.8385C98.3021 65.8489 98.6042 65.8228 98.1198 64.6822C98.2344 64.7291 99.151 64.9843 99.1562 64.9843C100.411 65.5676 99.5 64.9218 99.8906 65.8385ZM10.9896 64.5989C10.7812 63.5468 11.2396 64.276 11.3958 64.552C11.7604 65.2135 11.0052 64.6874 10.9896 64.5989ZM112.187 63.9114L112.271 64.6718C111.604 64.7812 111.245 64.3228 111.115 63.5937C112.24 63.5207 111.536 63.2499 112.187 63.9114ZM104.167 63.0103C105.135 63.4791 104.922 63.4166 105.182 64.7812L103.63 64.5468C103.677 63.3593 103.776 63.4582 104.167 63.0103ZM38.7448 63.4999C38.5677 64.4218 38.9635 64.151 38.0417 64.2239C38.3177 63.0364 38.125 63.7864 38.7448 63.4999ZM17.7396 64.4843C17.6979 63.4999 17.1927 64.0832 18.3958 63.8124L17.7396 64.4843ZM9.57291 65.703C9.18749 65.1978 9.03645 65.2447 9.15624 64.0207C9.16145 63.9895 9.20833 63.9426 9.21354 63.8697C9.21354 63.7968 9.2552 63.7707 9.28124 63.7239C9.99999 64.5312 9.68229 63.6874 9.87499 64.6353C10.2604 66.5364 9.78124 65.4478 9.57291 65.703ZM77.5677 64.3333C77.8385 64.0676 77.1667 63.3905 78.8698 63.8853C78.4792 64.2916 78.3229 64.677 77.5677 64.3333ZM107.911 64.2708C107.214 63.5572 107.677 63.6145 108.052 63.2239C109.167 64.2239 108.036 64.1874 107.911 64.2708ZM112.766 63.4635C111.859 63.2499 112.568 63.6718 112.104 62.8489C112.922 63.177 112.661 62.6197 112.766 63.4635ZM110.474 64.0155C109.13 64.0989 107.979 63.1926 107.453 62.1353L110.474 64.0155ZM88.9271 63.203C89.1875 62.3124 89.0729 62.3853 89.9896 62.2291C89.8385 62.9791 90.099 63.0468 88.9271 63.203ZM54.2031 62.5155C53.875 62.8124 54.151 62.677 53.5312 63.0207C53 63.3228 53.4427 63.052 52.8594 63.2916C53.1562 62.1978 52.9167 62.4635 54.2031 62.5155ZM41.9687 64.2968C41.0417 63.3124 41.9687 63.3645 40.9844 62.6301C41.5156 62.5989 41.8646 62.5676 42.2656 63.026C43.224 64.1301 42.3437 64.0572 41.9687 64.2968ZM24.5312 61.3176C25.2135 60.5885 24.7083 60.8489 25.5469 60.6405L25.6615 61.6301C26.2969 61.0155 25.9948 62.1301 26.2187 60.9635L26.4375 61.9374C23.8542 62.9843 23.9531 62.9166 22.0208 63.3853C22.3385 62.5416 22.7448 61.1614 23.1667 60.7239C23.5208 61.2812 23.8073 61.901 24.1302 61.5832C24.224 61.4895 24.4635 61.6822 24.5312 61.3176ZM90.8594 62.4895C90.3073 61.6718 90.5156 62.1874 90.651 61.1718C92.3125 61.1301 91.8437 61.2916 92.0104 61.9478C91.6302 62.1405 92.3021 62.4947 91.151 61.8332L90.8594 62.4895ZM88.776 61.6301C87.4844 61.328 88.2135 61.578 87.8958 60.8228C88.5521 61.0989 88.349 60.5989 88.776 61.6301ZM51.9115 61.1562C52.0365 60.6718 51.5833 61.1405 52.1771 61.0155C52.5365 60.9322 51.776 61.6718 51.9115 61.1562ZM103.979 60.8905C104.224 60.0155 104.036 60.4582 104.833 60.0937L105.396 61.2864L103.979 60.8905ZM55.4844 61.1562C54.5729 61.6405 54.7865 61.4843 54.6458 60.6405C55.4167 60.8385 55.0417 60.4895 55.4844 61.1562ZM40.9167 61.2395C41.75 60.6978 40.2083 61.0572 41.7083 60.6249C41.349 61.2447 41.7656 60.953 40.9167 61.2395ZM57.8802 61.9166L59.0365 60.4114C60.0469 60.9635 60.099 61.3072 60.9583 61.6822L60.849 61.7291C61.3021 61.8957 61.7135 62.0989 62.0104 62.3801C62.6875 63.0103 63.5 63.7239 64.276 64.2864C65.0573 64.8489 65.2396 64.901 66.3177 65.2655C65.974 66.4687 65.9375 67.1874 65.349 68.3333C65.0625 68.8801 64.9427 69.5624 64.6979 70.1926C64.4531 70.8124 64.3021 71.5885 64.0312 72.0937C63.4792 73.1197 63.5104 74.0416 61.9115 73.5833C60.625 71.7864 60.7135 70.9843 59.7552 69.2499C58.7344 67.3958 56.9427 65.7135 56.8802 65.5833L57.1146 64.5051C56.1979 62.6666 56.2812 63.3541 56.8229 62.4791C56.7552 62.4426 56.6615 62.3905 56.6198 62.3697L57.8802 61.9166ZM32.9792 63.3645C33.2344 62.3072 33.8698 61.901 32.8854 60.7864C33.875 61.2968 33.9896 61.1093 34.5573 62.2135L33.7708 62.9322C33.0417 63.4166 33.5469 63.0728 32.9792 63.3645ZM27.0521 61.4947C27.2083 60.1405 26.9427 60.5832 27.8125 59.9062C28.6406 60.1041 28.2552 60.1093 29.0417 60.5312L28.1771 61.2291C27.8125 61.3905 27.5312 61.401 27.0521 61.4947ZM86.4792 60.6718C87.0677 59.9947 85.9219 60.3905 87.2656 60.1041L86.4792 60.6718ZM23.6927 60.3593C23.6979 59.5155 24.0469 59.9739 24.151 60.3697C24.2448 60.7343 23.6823 61.1822 23.6927 60.3593ZM16.8177 61.1562C17.4219 60.3072 17.1927 60.9635 18.7656 60.3437C18.5625 60.7812 18.6979 60.9114 18.0052 61.2291C16.9427 61.7135 17.0417 61.2812 16.8177 61.1562ZM58.599 60.2291C58.6562 60.1562 58.7969 59.703 58.8333 59.6457C59.1615 59.1874 58.8646 59.5572 59.4531 59.3853C58.9271 60.328 59.8177 59.7082 58.599 60.2291ZM53.9844 59.828C53.9687 58.7291 54.401 59.5207 54.5 59.7864C54.6302 60.1457 53.9948 60.4114 53.9844 59.828ZM45.4896 59.5676C44.1354 60.2864 44.5417 59.7395 44.1458 59.4635C44.8437 59.052 45.4479 59.5416 45.4896 59.5676ZM102.432 60.1405C102.156 59.4895 102.312 59.526 102.734 59.0937C103.005 59.5989 103.177 58.7551 102.891 59.7187C102.589 60.7135 103.083 59.677 102.432 60.1405ZM41.2448 59.302C41.9687 58.9218 41.5417 59.1145 41.9219 59.302C40.9896 59.9999 41.4219 59.4687 41.2448 59.302ZM11.0521 59.6197C10.4792 59.9582 11.2917 59.8124 10.4479 59.8385C9.35416 59.8645 10.1875 59.7968 9.83854 59.5676C10.25 59.2343 9.65104 59.2864 10.4375 59.2447C11.7083 59.177 10.5469 59.1666 11.0521 59.6197ZM35.8385 59.5676C37.0573 59.8697 37.4792 58.927 37.7604 60.6249C37.724 60.6457 37.2708 61.8332 35.8229 60.151C35.2031 59.427 35.6042 58.953 34.5208 59.3228L35.4531 58.6197L35.8385 59.5676ZM95.4167 59.526L95.0677 58.2239C96.5469 58.5051 96.3333 59.0676 96.5052 59.302C96.4271 59.3489 96.3177 59.4062 96.2708 59.4478C96.224 59.4791 96.1146 59.552 96.0677 59.5937C94.9219 60.5989 96.1354 59.1353 95.75 60.0676C95.1042 59.828 94.9115 59.828 94.3125 59.5312C95.3229 58.9947 94.8594 59.177 95.4167 59.526ZM74.026 58.2395C73.8958 57.2707 74.3594 58.0103 74.4635 58.2291C74.7292 58.7603 74.0469 58.3957 74.026 58.2395ZM10.7969 57.4791C11.0781 57.927 11.2552 58.2343 11.4687 58.8541L10.2083 58.4687L10.6927 57.6301C10.7083 57.552 10.7708 57.5364 10.7969 57.4791ZM82.7917 59.1093C81.7604 59.0155 82.0625 59.1874 81.3854 58.7135C80.6615 58.2082 80.9167 58.3905 80.7708 57.7395C81.7552 58.0832 82.3698 58.2187 82.7917 59.1093ZM95.3698 57.2187L95.0885 56.552C95.6406 56.6666 95.4115 56.0989 95.3698 57.2187ZM88.1458 57.1353C87.0937 56.9895 87.4427 57.2343 87.6146 56.5832C88.125 56.5676 87.9062 56.0624 88.1458 57.1353ZM87.9687 58.3593C85.8958 58.2603 88.0521 58.4218 86.6198 57.9218C85.349 57.4687 84.349 58.1301 84.0312 56.4895L84.7865 57.2135L86.8125 57.1249C86.8698 57.1718 86.9427 57.2395 86.9844 57.2707L87.9687 58.3593ZM46.0208 58.0155C45.2396 57.2655 45.7448 56.8489 45.2604 56.7968C45.6406 56.4947 45.3906 55.9947 46.8542 56.6614L46.0208 58.0155ZM70.9375 56.1718C69.9635 55.8645 70.6042 56.3489 70.2708 55.5468C71.1562 55.9218 70.599 55.2291 70.9375 56.1718ZM107.427 56.0468C107.37 55.4635 107.75 55.453 108.266 55.203C107.922 55.9426 108.24 55.7603 107.427 56.0468ZM89.4167 55.0885L90.5781 56.6614C89.4062 56.5728 88.8229 56.1093 89.4167 55.0885ZM90.3073 55.328C90.3281 54.8437 90.0521 55.0468 90.7396 55.2343C91.1042 55.3332 90.276 56.0051 90.3073 55.328ZM82.5104 55.328H83.2135C83.1406 55.3697 83.0521 55.4582 83.0156 55.4687C81.6667 55.8593 82.8542 55.6197 82.5104 55.328ZM79.2917 55.0624C80.4271 55.2603 80.5938 54.9843 81.3125 54.7968L80.8021 56.4582L79.2917 55.0624ZM106.578 55.8541C106.036 54.9218 106.214 55.5624 105.594 54.7968C106.849 54.5103 106.745 55.7707 107.182 57.052C105.229 57.052 106.729 57.3437 105.484 56.5207L105.729 55.6978C106.599 55.9582 106.089 55.9895 106.578 55.8541ZM6.51562 57.302C6.68229 55.8437 7.07812 55.7916 7.6927 54.6353C8.94791 56.2239 7.16145 56.3437 6.51562 57.302ZM86.6979 55.0989C85.474 54.8645 86.2292 55.3801 85.8542 54.4062C86.9323 54.9426 86.1823 54.2291 86.6979 55.0989ZM111.562 54.6457C112.635 54.8124 113.615 55.0572 114.484 55.4426C115.932 56.0885 115.187 56.6926 115.891 57.2551C115.964 57.3176 115.984 57.4426 116 57.5051L116.234 59.1614L116.062 59.7447L115.87 61.4582L116.109 61.1197L116.375 61.4687L116.745 60.8072C116.562 60.2395 116.526 60.4635 117.286 60.4999C116.307 59.8072 116.896 60.5364 116.385 59.302C117.599 59.8645 117.068 59.5572 117.766 60.3645C118.224 59.328 117.896 60.302 117.562 59.2447C116.177 59.2239 116.948 59.3385 116.161 58.401C116.781 58.2395 116.74 58.3541 117.073 58.651L116.635 57.7135C117.161 57.4843 116.828 57.6718 117.047 57.5832L117.339 57.401C117.958 56.7187 117.75 56.9843 118.703 56.651L118.057 55.328C118.146 55.3332 118.266 55.3593 118.318 55.3697C118.365 55.3853 118.49 55.4114 118.542 55.427L119.13 55.7603C119.771 56.2707 118.984 55.953 119.927 56.3853C119.891 57.453 120.406 56.1093 119.568 56.9687L119.13 57.276C120.792 57.3801 119.661 56.3853 120.141 58.5937C120.318 59.401 120.474 58.802 120.12 59.8124C118.854 59.7655 119.724 59.7447 118.604 59.4166L118.797 60.1457L119.422 59.9895C120.052 60.3801 119.552 59.4791 120.078 60.5572C120.156 61.1926 120.38 60.7655 120.016 61.3489C119.578 62.052 119.922 61.9062 119.37 61.5468C119.344 62.3801 119.406 61.9635 119.245 62.3697C119.167 62.5624 119.026 62.7916 119.005 62.7447C118.984 62.6978 118.901 62.8749 118.854 62.9426L119.25 63.4635C120.068 63.703 119.536 63.3332 120.078 63.8489C120.708 62.3801 121.885 63.3176 122.484 64.0676C122.068 64.5728 122.552 64.2239 121.901 64.6458C121.391 64.9791 121.937 64.6926 121.26 64.8749C121.604 64.3333 121.359 64.7135 121.641 64.3489L121.995 63.9322C120.896 64.0624 120.943 64.0572 120.406 64.526C118.828 63.4322 119.292 64.5624 117.875 63.6926C116.932 64.3333 117.573 64.3072 116.609 64.6978C116.49 64.4218 116.578 64.5364 116.635 64.3541C116.911 63.4114 117.016 63.6978 116.516 62.7395L115.5 62.4218L115.474 61.5624C115.125 60.953 115.443 61.1457 114.828 61.0312L114.656 61.2968C114.531 61.2707 113.885 61.1822 113.734 61.1457C113.109 60.9999 113.536 61.1614 113.094 60.8905C112.568 60.1666 113.078 61.4218 112.573 59.9322C112.479 59.6562 112.552 59.6405 112.505 59.302L110.984 58.651C110.953 58.8124 110.865 59.427 110.833 59.5364C110.589 60.2864 110.932 59.5676 110.484 60.0832L110.396 58.3957C111.375 57.276 109.75 59.203 110.698 58.0728C111.057 57.651 110.87 58.0312 111.083 57.4791C110.042 56.9843 111.161 57.5572 110.479 56.651C110.354 56.6093 109.849 56.526 109.667 56.3853C109.849 55.4999 109.812 55.3801 110.344 54.8905L109.469 54.5312C112.234 53.703 109.667 54.4166 111.562 54.6457ZM79.8698 54.9114C79.974 53.9895 79.5521 53.5624 80.9115 54.1978C80.375 54.7864 80.5781 54.5885 79.8698 54.9114ZM108.13 54.4322C106.771 54.2395 107.672 54.6093 106.792 53.9947C106.557 53.8332 106.411 53.6041 106.229 53.2551C107.474 53.4739 107.573 53.5207 108.13 54.4322ZM110.052 53.9947C109.281 53.6874 109.635 53.9322 109.214 53.3176C110.307 53.3072 109.828 53.0624 110.052 53.9947ZM117.698 52.9895C118.448 52.1614 117.094 52.6145 118.505 52.3697C117.927 53.2395 118.755 52.7082 117.698 52.9895ZM85.8021 52.8697C87.724 52.2187 86.9948 53.3593 86.9896 53.3905L85.8021 52.8697ZM109.255 52.4114C109.26 52.4114 108.99 51.3749 110.453 52.4114C109.979 52.7343 110.755 52.5832 109.917 52.6405C108.63 52.7239 109.776 52.6562 109.255 52.4114ZM116.281 51.3697L116.625 52.151C115.422 52.8905 115.937 52.8697 114.802 52.3697L116.281 51.3697ZM83.6146 52.151C83.526 51.2864 83.9688 51.9374 84.0625 52.1718C84.3594 52.9062 83.6406 52.3593 83.6146 52.151ZM53.0104 52.3593L52.3281 51.6249C53.0885 51.901 52.7396 51.5103 53.0104 52.3593ZM80.0104 50.9218C79.099 50.5989 79.4688 51.0416 78.8229 49.9426C80.0469 50.1926 79.5885 49.7395 80.0104 50.9218ZM118.182 50.0312L117.62 49.3697L120.359 49.5207L119.797 50.9687L118.182 50.0312ZM10.9323 49.5989C11.1719 49.3437 11.1615 49.2447 11.4323 49.0364C12.6094 48.1145 12.4687 48.9582 12.4948 48.9687C11.8385 49.9895 12.6927 49.552 10.9323 49.5989ZM10.0417 49.0832C10.0885 49.1197 10.1615 49.1614 10.2135 49.1978L11.8177 50.2916C11.3854 50.5364 8.33854 50.2864 9.2552 48.4895C9.76041 48.802 9.46875 48.651 9.8802 48.9582C9.92708 48.9947 9.99479 49.0468 10.0417 49.0832ZM25.9167 48.5676C26.9479 48.0103 26.7917 48.5312 27.1094 47.6145L28.1354 48.6145C28.1458 48.6405 28.1823 48.703 28.1927 48.7291L28.4948 49.776C27.4844 50.1145 28.1667 49.9218 27.2187 50.3593L25.9167 48.5676ZM31.5573 50.0676C30.5625 50.026 31.1875 50.3593 30.599 49.6301C29.4271 48.1822 31.0885 49.6457 30.3854 49.1666C29.5417 48.5885 29.4271 49.5676 28.7396 48.0207L31.4115 48.5728C31.1667 49.0155 31.0625 48.5468 31.1146 49.1718L31.4479 49.8697C31.4635 49.828 31.5312 49.9947 31.5573 50.0676ZM96.4948 47.9114C96.8333 47.7343 96.5 47.1718 97.4271 47.9114C95.8646 48.8645 96.6979 48.0051 96.4948 47.9114ZM34.1875 47.2135C35.3281 47.2135 34.5 46.4374 35.0781 47.8593C33.9062 47.7968 34.3594 48.1666 34.1875 47.2135ZM38.2917 47.9166C37.1771 47.7655 37.4427 47.9635 36.9375 47.0728C38.2344 47.203 37.7708 46.8749 38.2917 47.9166ZM25.776 47.3489C24.8854 47.302 25.5625 47.3541 25.0521 47.0312C25.6927 46.6353 26.125 46.828 26.6042 47.1145C26.5417 47.1457 26.6042 47.401 25.776 47.3489ZM36.4583 46.5885C36.4583 46.078 37.151 46.5624 36.875 46.7291C35.8802 47.3072 36.4583 47.0676 36.4583 46.5885ZM39.0469 46.5051C38.0521 46.2447 38.8177 46.7135 38.349 45.8124L39.0469 46.5051ZM93.0521 46.6718L91.8385 46.2187C93.4583 45.6249 92.25 46.1614 92.6458 45.6874C92.7031 45.6249 92.3698 44.927 93.6198 45.526C93.7344 46.5885 93.9948 45.9218 93.0521 46.6718ZM39.7708 45.526L40.8021 45.3645C40.8594 45.3541 40.9375 45.3489 41 45.3437C42.2031 45.2499 41.6042 44.953 42.5469 45.6457C42.4635 45.7864 42.6667 46.3749 41.3021 46.1041C38.3073 45.5103 41.5573 46.7239 39.7708 45.526ZM90.4167 45.2655C91.2708 44.5051 90.9323 45.1197 91.1094 45.2655C90.9687 45.3385 91.3698 45.8697 90.4167 45.2655ZM38.1042 45.2655C38.3594 45.1666 37.5781 44.8124 38.9896 45.1197C39.8802 45.3072 39.125 45.1145 39.4635 45.526C39.3698 45.5728 39.5677 45.9426 38.5885 45.7291C37.8177 45.5624 38.3802 45.6197 38.1042 45.2655ZM86.5729 45.7968C86.1979 45.1614 86.3281 46.151 86.6042 45.401C86.75 45.0155 86.6979 45.328 86.8125 44.9374C87.4844 45.3541 87.1458 44.6457 87.401 45.8228L86.5729 45.7968ZM94.0573 46.703C94.9167 45.2082 93.8333 44.8801 93.7448 44.7968C95.0625 44.6562 94.6198 45.0885 96.2292 45.3801L97.276 47.3749C96.1927 47.0885 95.3437 46.5989 94.0573 46.703ZM42.7292 45.8072C43.2344 45.078 43.0417 45.302 42.9219 44.3437C44.526 44.9062 42.6354 43.7343 44.4115 44.4687L43.8698 45.3905C43.4271 45.7551 43.3646 45.6666 42.7292 45.8072ZM92.8958 44.4999C92.8385 44.5416 92.7656 44.5937 92.6979 44.6353C92.625 44.6874 92.4062 44.7916 92.3333 44.828C91.9792 45.0155 91.875 45.0624 91.4219 45.2239C92.1302 44.2343 91.4844 44.2239 93.3177 44.1353L92.8958 44.4999ZM69.7448 44.9895C68.9323 44.7603 68.8854 44.7082 68.5312 43.9687C70.4271 44.3905 68.8542 44.5676 70.5573 43.8645C69.9479 45.0468 70.5833 44.0676 69.7448 44.9895ZM100.318 44.6666C99.1042 44.7551 99.3594 44.4426 98.9479 43.6978C99.7865 44.0155 99.8333 44.1978 100.318 44.6666ZM95.9583 44.1093L95.8073 43.1666C97.2812 44.2239 95.2969 42.8853 98.8021 43.3697C97.2917 44.453 97.5052 43.5416 95.9583 44.1093ZM48.7552 44.6666C47.6719 44.328 48.4167 44.5312 48.0469 44.1301L48.9583 43.9374C47.3385 42.4947 50.9687 43.401 51.4948 43.6145L50.7552 44.3749C50.8177 44.3957 50.9115 44.4218 50.9792 44.4426C51.0573 44.4687 51.1562 44.4791 51.224 44.4999L51.9323 44.7343C50.7604 45.4791 51.3437 45.0364 50.0104 44.8176C49.5052 44.7343 49.4427 44.8749 48.7552 44.6666ZM36.5104 43.4426C37.6771 43.2916 37.4427 43.6041 38.2865 43.2551C38.6562 43.1041 38.1198 42.9218 38.7969 43.1197C40.1302 43.5155 39.026 43.1822 39.5781 43.6718C38.6198 44.2916 39.2135 43.9114 37.9323 44.1145L37.1667 44.2812C37.0781 44.302 37.0156 44.3385 36.9271 44.3541C36.2083 44.5103 36.8854 44.5155 35.8802 44.4478C36.2135 44.078 36.3125 43.9635 36.5104 43.4426ZM91.7448 42.9374C93.5833 42.7916 92.2969 43.0364 92.8646 43.6718C91.5781 43.9478 91.9375 43.6614 91.6094 43.6718C89.8958 43.7291 92.6875 43.8541 90.6146 43.9374C90.8333 43.5468 91.3021 42.9739 91.7448 42.9374ZM88.7865 43.8801C88.9219 43.7239 89.2344 41.7916 90.2812 43.2187L88.7865 43.8801ZM28.7031 43.953C28.401 43.2812 28.2865 43.1562 28.0312 42.5624C28.5312 42.7864 28.6458 42.8072 28.9167 43.1822C29.3333 43.7551 29.25 44.3645 28.1406 44.203C27.0521 44.0468 27.651 43.8593 27.5312 43.6718C28.2917 43.4582 27.5104 43.578 28.7031 43.953ZM77.5052 42.7187C78.0052 42.4062 77.3229 42.4062 78.2031 42.5416C78.2135 42.5416 78.651 42.8176 78.6719 42.828C78.1042 43.0364 78.1771 42.9739 77.5052 42.7187ZM74.3021 42.1093L74.224 42.4791C74.2031 42.5051 74.1094 42.5676 74.0885 42.5885L73.6302 42.651C76.2917 42.7655 74.4948 42.5937 75.2396 43.3228L74.5677 43.677C74.5312 43.6197 74.4271 43.776 74.3698 43.8385C73.2552 43.3489 75.1094 44.703 73.9688 43.5468L73.2917 42.7499C73.2604 42.7291 73.1562 42.6978 73.1302 42.6822C73.0885 42.6562 72.901 42.6458 72.8125 42.6145C72.9896 42.1562 73.8385 42.0885 74.3021 42.1093ZM113.469 40.5728L114.302 39.953C113.87 40.8645 114.656 40.2083 113.469 40.5728ZM39.6094 40.1666C39.6354 40.078 39.7187 40.0676 39.776 40.026C39.7083 39.9739 39.6094 39.9218 39.5625 39.8853C39.3073 39.7187 38.7031 39.3801 38.7604 39.0624C38.9219 38.1926 41.2969 38.953 41.5781 39.0103L40.6198 39.4322L40.4635 41.1978C39.3906 41.4843 39.2812 41.3593 38.724 41.0728C38.6875 40.5728 39.5052 40.5103 39.6094 40.1666ZM37.6615 38.9062C37.1302 39.8905 37.3333 39.677 36.4479 39.2083C36.9115 38.6249 36.875 38.6093 37.6615 38.9062ZM28.375 40.0364C28.1823 39.5624 28.2865 39.8958 28.25 39.5312L28.2396 39.203C28.2708 38.276 28.2083 39.4062 28.2812 38.8749L29.75 39.3801C28.9323 39.4635 29.1146 39.7916 28.375 40.0364ZM105.354 37.8124L106.932 37.6978C106.495 38.9374 106.687 38.9114 105.292 39.1405L105.354 37.8124ZM87.2031 37.6874L88.25 38.1145C88.2135 38.177 88.1823 38.2708 88.151 38.302C86.9271 39.7135 87.7396 38.7083 87.3906 38.8541C87.1354 38.3645 86.9583 39.3697 87.2031 37.6874ZM78.9323 37.177C78.5052 38.1041 78.8698 37.9322 77.5677 38.1874L76.3906 38.2395C76.0312 37.4374 76.4427 37.6301 76.7552 37.0989C77.2865 37.6197 76.8802 37.3853 77.8438 37.6874C77.8906 37.6405 77.9479 37.552 77.9792 37.5312C78.0104 37.5051 78.0885 37.4218 78.1302 37.3958C78.8281 36.9426 77.4531 37.2343 78.9323 37.177ZM101.708 37.578C101.589 36.6874 102.068 37.3176 102.214 37.5885C102.406 37.9583 101.755 37.9478 101.708 37.578ZM103.948 37.078L105.052 37.2864C104.63 38.1093 104.964 37.927 103.818 38.1093L103.948 37.078ZM112 37.052C111.99 37.0728 112.026 38.9843 110.062 36.7447L112 37.052ZM89.724 37.3958C90.526 37.078 90 36.5624 91.9479 36.8489C91.7917 37.3801 92.0677 37.4999 90.8594 37.953C90.724 37.5051 90.7083 37.828 90.8333 37.453C90.849 37.401 91.1562 37.1197 91.224 37.0572L90.1198 37.453C90.0937 37.5208 90.0729 37.6197 90.0521 37.6666L89.875 38.0676C89.5677 38.578 90.0208 38.1353 89.3125 38.5676L88.8385 37.578L89.5521 37.4322C89.599 37.4218 89.6875 37.4114 89.724 37.3958ZM45.8958 37.4114C44.1979 37.0989 44.9115 37.3853 44.9427 36.6249C45.0573 36.6614 45.2969 36.7239 45.4323 36.828C46.0365 37.276 45.4219 36.6614 45.8958 37.4114ZM36.0677 37.052C36.7552 36.4218 36.276 36.3749 37.5521 36.6145C37.4583 36.6458 37.0573 36.7968 37.0417 36.8072L36.6302 37.0572C37.5521 37.0416 38.4167 37.0312 39.1198 37.578C38.5208 37.7812 38.2187 37.901 37.5208 37.7291L36.0677 37.052ZM28.4792 37.2187C29.125 35.8072 29.6927 35.6197 30.9792 35.4635C29.9583 37.1718 30.099 35.6145 29.8125 36.5885C29.5208 37.5676 29.3542 37.2551 28.4792 37.2187ZM47.2135 36.7812C48.1146 35.0208 46.75 35.4687 48.9219 35.7551C48.2708 36.7916 48.6302 36.6458 47.2135 36.7812ZM106.745 35.9062L108.083 35.4583C109.995 35.0416 108.281 35.2343 109.021 35.8853C106.495 36.0728 108.115 36.5103 106.281 36.8176C106.594 35.7499 106.141 36.5676 106.745 35.9062ZM72.6146 35.7655C72.8698 36.2916 73.1458 36.3072 72.9271 36.8645C72.474 36.1562 72.6094 36.1874 71.0677 36.276C71.1406 36.2343 71.25 36.203 71.2969 36.177L72.0573 35.2603C73.375 35.4583 73.1667 35.802 74 35.0051L74.375 35.9999C73.4219 36.0103 73.3021 35.8749 72.6146 35.7655ZM106.745 35.9062C106.099 35.8228 105.875 36.1301 105.344 35.1978C105.875 34.9322 105.354 34.6926 106.229 35.1353C107.187 35.6197 107.042 35.2187 106.745 35.9062ZM85.9062 34.9322C85.776 33.8176 86.2604 34.7343 86.3333 34.8749C86.5677 35.3333 85.9167 34.9999 85.9062 34.9322ZM53.9167 35.3697C54.0729 34.5989 53.8906 34.6822 54.651 34.9114C54.1927 35.651 54.8333 35.2708 53.9167 35.3697ZM76.0417 34.578L76.8333 35.2916C76.1771 36.0208 77.7552 35.2187 76.3698 35.7447C76.2656 35.7864 76.1667 35.8176 75.6823 35.776L74.375 35.4583L74.1979 33.7603L75.8177 33.3645C75.7917 34.5624 75.6875 33.4739 76.0417 34.578ZM64.2656 34.401C64.9323 33.8645 63.9792 34.1718 65.401 33.927C64.7604 34.578 65.1042 34.6405 64.2656 34.401ZM112.187 34.6301C112.203 34.5416 112.505 33.8124 112.896 34.1562C112.969 34.2239 113.505 34.0937 112.865 34.6614C111.964 35.453 112.24 34.651 112.187 34.6301ZM61.375 34.1353C61.9479 33.7083 60.9271 33.9062 62.2812 33.8801C62.75 33.8749 62.7031 33.4478 62.8854 34.177C63.3802 33.6458 63.1823 33.5937 64.1979 33.651C63.6875 34.5728 64.3177 34.453 63.125 34.7864C62.2604 35.026 62.401 34.828 62.6823 34.4583C60.4896 34.5885 61.849 34.5989 61.375 34.1353ZM26.0677 32.8072C26.8958 33.6093 27.0573 33.5103 26.0417 34.1353C25.5729 33.1249 25.6823 33.7499 26.0677 32.8072ZM78.6771 33.5572L77.8438 33.7499C77.8281 33.6926 77.8021 33.6145 77.7969 33.5833L77.6823 32.401C78.1458 33.0103 78.1667 32.6666 79 33.5155C78.8906 33.5312 78.75 33.5416 78.6771 33.5572ZM82.2917 32.8958C83.0052 32.2239 82.8281 32.4374 83.8073 32.3697C83.7552 32.4635 83.6979 32.5728 83.651 32.651L83.0521 33.5937L82.2917 32.8958ZM47.8698 32.2812C48.6146 31.9895 48.3437 32.1614 48.8906 32.7916L47.8698 32.2812ZM85.0938 31.8176L85.9062 32.3124C83.8021 32.8853 85.3125 33.7603 83.901 33.078L85.0938 31.8176ZM95.5729 32.5728C94.4062 32.427 94.5833 32.5364 94.3177 31.4947C95.2604 31.6978 95.2031 31.6405 95.5729 32.5728ZM91.9896 32.0364C91.9531 31.8905 91.3021 31.3593 93.1667 31.2916L92.1354 32.0937C92.125 32.0468 92.0365 32.0572 91.9896 32.0364ZM26.0677 32.8072C25.1354 31.8905 24.6302 32.2655 25.026 31.1978C26.1042 31.6614 25.6875 31.526 26.0677 32.8072ZM80.9167 31.3124L81.2917 31.1301C81.349 31.1041 81.7448 30.8333 81.8958 30.7916L81.5573 32.0937L80.2188 31.4791C81.5729 30.6197 79.8646 31.6926 80.9167 31.3124ZM28.625 31.4895C28.7812 30.5155 29.6354 30.776 30.3542 31.2239C29.8333 31.5572 29.2292 31.7447 28.625 31.4895ZM55.1979 30.9583C55.2292 30.9426 54.8177 29.9062 56.4375 31.2239L58.1719 33.0624L56.151 32.7447C56.1406 31.5833 55.7656 32.2395 56.9635 32.0155L55.1979 30.9583ZM50.3229 30.9583C50.3854 30.927 50.4583 30.8437 50.4844 30.8333C50.5104 30.828 50.6302 30.7864 50.651 30.7812C50.6771 30.776 50.8021 30.8905 50.8229 30.8333C50.8437 30.7655 50.9323 30.9218 50.9896 30.9583C50.9323 30.9895 50.849 31.0676 50.8229 31.0728C49.4948 31.4166 50.7448 31.2239 50.3229 30.9583ZM82.1719 31.078C82.3906 30.7343 81.3802 30.7551 82.974 30.7812C83.1198 31.9062 83.4583 31.1926 82.7865 31.776C82.1562 32.3333 82.151 31.7864 82.1042 31.7708L82.1719 31.078ZM85.75 29.8176C85.7396 30.0989 85.6354 30.9635 85.6302 31.026C85.6302 31.052 85.6458 31.1197 85.6458 31.1405L85.6719 31.3489C85.6719 31.3593 85.6719 31.4947 85.6719 31.4635C85.6719 31.4322 85.6667 31.552 85.651 31.5937L84.7865 30.6562C84.1927 31.0572 84.2188 31.2187 83.3333 31.2291C83.8594 30.6093 83.6927 30.7968 84.4375 30.4062L84.8021 30.203C84.8646 30.1718 84.9479 30.1249 85.0052 30.0937C85.4844 29.8645 85.151 29.9895 85.75 29.8176ZM30.9115 30.4583C30.7187 30.2187 30.6302 30.1353 30.474 29.9895C30.7812 29.5312 31.7187 29.9166 32.3073 30.4947C31.9583 31.0833 32.2604 30.6249 31.5573 31.203C31.3073 30.9947 31.4531 31.151 31.1354 30.7708C31.099 30.7291 31.0521 30.6562 31.0208 30.6145C30.9844 30.5728 30.9375 30.4999 30.9115 30.4583ZM67.2135 29.1718L67.724 29.4999C68.6927 30.7083 67.7448 28.6874 67.8854 29.8228C67.8906 29.8593 67.4948 30.2603 67.4271 30.3228C66.4583 29.2655 67.026 29.7447 67.2135 29.1718ZM113.932 27.8124C114.344 27.5312 114.536 27.4114 115.073 27.1405C114.964 27.4218 114.844 27.6874 114.714 27.9583C114.672 28.0416 114.526 28.2447 114.5 28.3072C114.318 28.7551 114.234 28.2499 114.536 28.8437C114.099 28.651 114.094 28.6249 113.828 28.3801L113.271 29.1562C113.271 29.1562 113.245 29.4114 113.135 29.6718C112.792 29.4426 112.734 30.2187 112.667 29.1405C112.625 28.5208 113.708 27.9843 113.932 27.8124ZM82.4948 28.0468C82.4427 28.078 82.3542 28.1145 82.3229 28.1197C82.2917 28.1301 82.1927 28.1666 82.1562 28.177C81.0781 28.4374 81.8333 27.6614 81.026 28.8228L81.3177 27.4895L82.4948 28.0468ZM113.932 27.8124C113.594 27.8437 113.208 27.8958 112.984 27.9583L110.198 27.6353C109.422 27.4166 109.937 27.6562 109.62 27.2499L111.401 26.8749C111.443 26.9478 111.484 27.0416 111.516 27.0885L111.979 27.9166C113.01 27.0989 112.266 27.2239 113.427 27.0676C113.802 27.4322 113.672 26.8385 113.932 27.8124ZM28.7917 27.6405C27.5833 27.328 27.651 27.4895 27.4792 26.453C28.3021 26.7135 27.5781 26.2395 28.25 26.8124C28.8177 27.2968 28.4115 26.8905 28.7917 27.6405ZM116.167 26.7187C114.922 27.3593 116.036 27.0103 114.859 26.8749C114.302 26.8124 114.521 26.9166 114.13 26.7187C114.224 26.578 114.807 26.2864 115.068 26.2864C117.109 26.2655 115.875 26.5208 116.167 26.7187ZM49.6094 26.9114C49.4792 26.2916 48.7708 26.1562 50.9896 25.901C50.6458 26.3853 51.0312 26.1041 50.276 26.6353C49.8125 26.9635 50.3073 26.776 49.6094 26.9114ZM96.0885 26.4218C96.0885 26.4218 95.1458 26.2499 96.4635 25.2083L97.3333 25.0833C97.4062 25.4687 97.4583 25.651 97.0208 26.2447C96.2448 27.302 96.099 26.4218 96.0885 26.4218ZM100.406 21.9218C100.687 22.2916 100.802 22.2812 100.406 22.7083C99.6979 21.9843 100.281 22.1093 100.406 21.9218ZM99.5417 21.6614C99.5833 22.5364 99.5521 21.9635 99.3594 22.276C99.2969 22.3749 98.4948 23.0312 98.3854 23.1405C98 22.3958 98.4427 22.5572 98.0885 21.953C98.1354 21.9426 98.2135 21.9583 98.2396 21.953C98.2604 21.953 98.3594 21.9583 98.3854 21.953L98.9792 21.6458C99.0156 21.6041 99.0573 21.4895 99.0833 21.4478C99.1146 21.401 99.151 21.328 99.1719 21.2082C99.1927 21.078 99.2187 21.0364 99.25 20.9478C99.3802 21.203 99.5052 20.8645 99.5417 21.6614ZM54.6719 21.7343C54.3906 22.401 54.8594 21.8749 54.1823 22.3801C54.1458 21.3541 53.7135 21.9374 54.6719 21.7343ZM25.8906 22.3228C24.6146 22.177 25.4062 22.6041 25.151 21.6562C26.0521 22.052 25.4635 21.4114 25.8906 22.3228ZM37.8594 21.6249C38.8802 22.5885 38.901 22.2968 39.1667 22.3593L39.5156 22.4843C38.375 22.9426 38.5312 22.4687 37.5677 22.6822C37.5417 22.6874 37.2344 22.828 37.0521 22.8853C36.3229 21.9843 35.974 22.5312 35.8646 22.2864C35.8229 22.1978 35.6927 22.2499 35.6094 22.2187C37.0417 21.052 35.4844 22.6978 36.8958 21.1874L36.6094 20.7447C37.6302 20.5572 37.3646 20.6926 38.1615 21.2551L37.8594 21.6249ZM30.7604 18.9999L31.3437 18.7812L31.7448 19.4166L32.0417 19.9166L32.3854 20.177L31.6719 20.5728L30.9792 20.0989C30.9844 20.1562 30.3385 19.8853 31.1667 20.7082C31.3594 20.8957 31.9687 20.776 32.3906 21.6874C31.5521 21.8176 32.9271 21.9374 31.5417 21.7708C30.1406 21.5989 30.6823 21.1822 30.6771 20.6301C29.7708 21.4895 30.4219 20.6457 30.2083 21.1926C29.8437 22.1197 30.5 20.9635 30.2917 21.5416C30.1146 22.0364 30.5052 21.6353 29.2448 22.2187C29.2448 20.0364 29.5208 20.7239 29.8229 19.3593L30.7604 18.9999ZM46.1823 19.5937C45.1771 19.2968 45.7812 19.7864 45.3698 18.9687C46.2917 19.2083 45.8281 18.6874 46.1823 19.5937ZM93.1562 19.453C93.4896 18.8385 93.0625 18.8176 93.8594 18.677C94.2344 19.7291 94.3698 19.1822 93.1562 19.453ZM54.7031 18.776C55.2396 18.2082 55.4115 18.2916 56.2448 18.3176L56.3073 19.5676C54.9948 18.6353 55.5417 19.276 54.7031 18.776ZM92.599 17.9843C93.2812 18.9374 93.3594 18.5989 92.0208 18.8489L92.599 17.9843ZM73.1406 16.3489C74.0052 16.7603 73.6302 16.1041 73.8177 17.2239C73.0208 16.8541 73.4375 17.3697 73.1406 16.3489ZM46.9062 16.9218C47.0521 15.9947 46.5937 16.8176 47.5677 15.9114L48.0885 17.1926L46.9062 16.9218ZM98.3854 16.1614C99.0417 16.703 98.7656 16.4739 99.0781 17.953C98.0156 17.5833 96.7031 16.5416 98.3854 16.1614ZM33.4896 16.3905C33.6927 16.3072 33.1146 15.7187 34.3906 16.3905C33.9844 16.7447 34.6823 16.552 33.8854 16.6249L33.4896 16.3905ZM65.974 15.776C65.3281 15.401 65.6406 15.6718 65.349 15.0624C66.1354 15.3437 65.9062 14.9062 65.974 15.776ZM62.2031 15.328C62.0521 14.302 62.5104 15.0728 62.6198 15.3072C62.9375 15.9687 62.2135 15.3905 62.2031 15.328ZM42 12.7447C43.3646 13.0676 42.5885 12.7707 42.9896 13.578C41.8698 13.2082 42.2187 13.5572 42 12.7447ZM83.9167 12.5832C82.8906 12.1718 83.8021 12.0989 83.9167 11.9687C84.7448 13.1822 84.1562 12.1926 83.9167 12.5832ZM89.0833 12.8645C88.5417 12.5885 88.5156 12.4426 88.3802 12.3749L87.6198 12.151C87.7396 11.3385 89.0729 11.4062 89.0833 12.8645ZM91.6719 12.2655L90.6927 11.4635C90.625 11.4114 90.1354 11.1457 89.9583 10.9999L90.7552 10.427C91.1198 11.2291 91.2917 11.4322 91.6719 12.2655ZM75.5417 8.13012C75.2292 8.90096 75.7604 8.58846 74.9479 8.65617C75.0729 7.88012 74.6302 8.33325 75.5417 8.13012ZM75.5417 8.13012C75.5 7.25512 75.6354 7.54158 75.8177 7.26554C77.0052 7.49471 76.3594 6.99471 76.974 8.43221L75.5417 8.13012ZM73.2135 8.49471L72.0781 6.62492L73.6198 7.65617C73.6406 7.67179 73.7083 7.72387 73.724 7.73429L73.901 7.85929C73.9115 7.83325 73.9583 7.89054 73.9792 7.91137L73.2135 8.49471ZM65.3698 1.28117C65.974 1.89575 65.6146 1.45825 65.9167 2.41658C64.8802 2.29679 65.2292 2.45825 64.5 2.08846C64.6719 1.68742 64.4323 1.75512 65.3698 1.28117ZM55.6927 78.5155C58.599 80.1041 59.3854 90.8801 59.2292 94.8072C59.1823 96.0624 59.1198 97.0103 59 97.8124C58.224 103.052 55.8802 108.526 50.6771 110.068H83.8021C77.4688 106.865 75.1302 103.104 74.3958 99.2291C73.724 95.6926 74.3698 90.6562 74.6875 86.9166C74.875 84.7395 75.224 82.5833 76.2604 80.578C77.5208 78.1405 79.1458 76.4114 82.0729 75.3593C82.6875 75.1405 84.2708 74.7551 84.9219 75.1145C85.6615 75.5312 85.0469 75.9166 85.0365 75.9322C84.8021 76.2916 84.7708 75.4895 84.5365 76.901L86.0729 77.3124C85.5312 78.5728 85.6719 77.7551 84.9271 78.6353C86.5677 79.6926 85.0625 78.4062 85.9583 80.0103L87.099 79.6874C87.7969 78.2291 86.8802 79.5989 88.2344 78.3593L88.5573 78.8385C88.5833 78.8697 88.6719 79.0416 88.6927 78.9999C88.7135 78.9583 88.7865 79.1041 88.8333 79.1614C89.8542 78.5989 88.901 78.7812 89.849 78.427C90.0156 79.9322 89.9062 78.9478 90.4427 79.5312C90.8646 79.9895 90.8177 80.0155 91.151 80.4322C93.1302 79.6458 92.75 79.6666 93.3854 77.6614C91.1198 77.0051 92.0104 77.4322 90.401 76.4114C88.6042 75.2708 88.5312 74.3437 90.8437 74.4114L97.8073 74.6041L100.417 74.7135C101.937 74.677 100.995 74.4426 102.115 74.453C102.516 74.453 102.922 74.6405 103.625 74.7447L104.375 74.1822C104.172 74.4791 103.896 74.8645 103.646 75.177C105.693 75.401 104.51 75.4478 105.026 74.1822L106.302 74.3437C106.312 74.3749 107.005 75.8958 108.641 75.2968C108.937 74.6041 108.75 74.3072 108.578 73.6926C109.604 73.6562 109.172 73.8645 110.094 73.6614L112.833 73.3905C114.167 73.302 112.245 73.177 113.208 73.3385L113.156 74.401C113.099 74.427 113.005 74.4583 112.964 74.4791L111.99 74.927C112.182 76.3853 112.521 75.7551 113.354 75.5364C113.516 75.802 113.453 75.7812 113.672 76.0416L114.583 76.7968L115.589 76.3905L115.932 77.651C116.427 76.8437 116.125 77.2395 116.203 75.9635C117.854 76.177 116.526 75.6874 117.557 76.7291L117.724 76.2603C120.271 77.4114 118.042 78.0624 122.333 78.3593C121.651 76.6874 121.51 77.7291 120.365 76.5989C121.344 75.2708 121.87 76.0416 122.245 76.1145C123.469 76.3437 122.406 76.1666 123.052 75.9739L123.922 75.7239C124.182 74.4947 123.495 75.0051 121.906 72.9478C121.37 72.2447 121.224 72.8072 121.62 72.3593C122.474 71.6249 122.651 72.6926 125.891 71.4166C126.078 72.6666 125.844 72.8072 127.021 73.2447C127.266 72.901 127.292 73.2239 127.38 72.5416C127.474 71.8697 127.073 71.703 126.797 71.0103C128.062 71.3072 127.187 71.7812 128.469 72.151C128.875 71.453 128.495 71.5728 128.609 70.8124C129.156 71.6405 129.422 71.7083 129.818 72.8489L130.693 72.1718C132.245 70.6562 130.839 70.5885 130.406 69.9739C130.026 69.4322 130.339 69.5155 129.917 68.8853C129.891 68.927 129.87 68.9999 129.865 69.0155C129.37 70.2499 128.604 68.1978 129.427 69.927C127.885 69.4478 129.229 69.5728 127.776 70.302C127.531 69.953 127.271 69.6614 126.896 69.2239L125.745 68.2239C126.896 68.401 126.151 68.3645 126.354 67.9999C126.661 67.552 126.557 67.7187 126.698 67.552C126.719 67.526 126.812 67.4947 126.828 67.4114C126.844 67.328 126.922 67.3228 126.969 67.276C126.505 65.427 126.901 65.8228 127.312 65.5989L127.536 65.9947C128.318 68.026 126.885 66.3072 129.104 67.6614L129.625 66.6405C131.724 67.3489 131.547 68.3541 131.615 68.552L133.542 70.6041C133.578 70.5572 133.63 70.4999 133.661 70.453C134.089 69.7864 133.974 69.1197 133.974 68.3072C133.344 67.7447 132.995 67.526 132.51 66.7187L132.938 66.6353C133.219 66.5676 132.984 67.401 133.297 66.5312C133.318 66.4583 133.427 66.4843 133.536 66.4374L132.948 65.1301C131.833 64.953 130.984 64.9166 131.557 63.5364C130.839 62.7551 131.167 62.8228 130.818 61.578L129.964 61.6614C129.88 60.6249 129.776 60.9895 129.656 60.1978H128.469C128.427 60.1405 128.38 60.052 128.359 60.0155C128.344 59.9791 128.286 59.8801 128.266 59.8385L128 59.2916C126.823 58.6822 128.094 58.9791 127.141 58.7291L126.437 58.5468C126.068 58.2812 126.323 58.4843 126.036 58.0572C125.854 57.7916 125.49 56.9322 125.406 56.8124C124.844 56.0155 125.198 56.453 124.172 56.1197C124.25 55.8385 124.161 54.5624 124.052 54.3801L123.766 53.3437C123.771 52.6145 124.016 52.7447 123.37 52.151C124.182 51.8489 123.344 52.5468 123.964 51.9739C124.031 51.9114 124.323 51.328 124.453 51.0832C123.734 51.4114 123.609 51.3957 122.974 51.6249C122.339 50.901 122.276 50.8593 122.24 49.9062C121.094 49.4426 120.885 48.8593 120.724 48.2447C119.979 47.6249 120.474 48.0885 120.271 47.5624C117.286 46.3124 118.531 44.0468 116.609 42.7916C115.682 43.328 116.083 44.328 115.844 43.7239C115.828 43.6822 115.781 43.828 115.74 43.8801C114.823 42.4947 116.255 41.8801 116 39.9635C115.474 39.1874 115.448 39.4478 114.974 38.8228L114.542 38.1562C114.094 37.5416 114.448 38.0103 114.057 37.578C114.411 37.2291 114.5 37.2655 114.937 37.0989C115.005 36.2499 114.557 37.1874 114.792 36.3697C115.036 35.5103 116.401 35.177 117.698 36.427C117.703 36.4322 118.219 36.7655 118.266 36.7916C117.427 37.2603 117.667 37.2343 117.505 37.578C118.708 37.953 118.469 37.5989 119.339 37.4791C120.953 37.2447 120.682 38.0103 121 36.8437C121.422 35.2916 121.562 37.1041 121.401 35.5416C121.245 34.0833 120.109 34.9426 120.948 33.6041C119.755 33.578 119.411 33.6041 118.786 32.6926C117.88 31.3749 118.823 31.552 117.109 31.5312C117.266 30.3124 117.365 30.6458 116.521 29.901C117.344 29.5155 117.974 30.302 118.167 28.6822C118.271 27.8072 117.766 28.6145 118.234 27.9635C118.49 27.6145 118.568 27.8489 118.818 26.7187C118.255 26.1041 117.672 25.7864 116.771 25.6145C113.641 25.5155 117.146 25.5468 115.578 23.9583C114.891 22.8801 115.531 23.3437 114.271 22.4947C112.802 21.4947 114.557 22.7343 112.521 20.703C111.198 20.8176 112.01 20.4843 111.745 21.177L108.953 19.2239C107.161 20.0624 108.937 19.7708 107.641 20.2864C107.078 19.3593 107.708 19.3332 106.812 19.1249L107.12 20.401C106.406 20.1041 105.927 19.6926 105.359 19.1249C105.021 19.5832 105.479 19.3541 104.458 19.5103C104.214 19.2551 104.359 19.4322 104.104 19.0624C104.094 19.0416 104 18.828 103.844 18.5676L101.948 18.4426C102.891 17.703 101.922 18.1041 101.62 16.7551C101.552 16.8072 101.479 16.8905 101.427 16.9322L100.849 17.3176C100.693 17.3905 100.349 17.4114 100.156 17.4322L99.9844 16.5937C98.901 16.5468 99.5208 16.7135 98.9792 16.3905C99.0469 15.4635 98.9167 15.6041 98.3542 14.9322C97.375 14.5728 97.8854 14.6197 97.5156 13.5937C96.5104 14.7812 97.8281 15.4687 95.776 16.2395C95.5052 15.901 95.6302 16.151 95.401 15.5989C93.8958 11.9114 94.5104 15.3697 93.3125 12.2916C92.6979 10.7239 91.7135 9.79679 90.9531 8.65096C88.6198 9.13012 89.2083 9.02075 87.9115 7.43742C87.2552 6.63533 86.4427 6.03117 85.3646 5.46346C81.1719 5.39575 82.4635 5.21867 81.0677 7.56242C80.8333 7.41658 80.6771 7.35929 80.4115 7.16658C79.1719 6.25512 79.401 3.77596 76.0677 4.927L75.224 3.44262C74.0469 3.552 74.5729 3.85929 73.6406 3.56762C73.099 3.39054 73.2656 3.19783 72.5417 2.98429C71.4948 2.677 70.276 2.93742 69.1667 2.91137C69.1198 2.85408 69.0677 2.77075 69.0469 2.72908L68.8594 2.33846C68.8333 2.27596 68.8125 2.20304 68.7865 2.13533C67.9115 0.505124 67.9167 -0.364669 65.5521 0.374915C63.8437 0.916582 63.974 1.14575 63.7812 2.35408L63.6667 2.65617C62.099 2.677 63.3906 2.83846 62.5052 2.36971C62.1927 2.20304 61.0208 0.989498 59.3698 2.54679C58.9167 1.51033 58.6667 1.65617 57.25 1.63533C52.6042 1.55721 52.5521 4.1145 51.6354 4.83325C50.599 5.64575 48.5781 4.927 46.9687 6.39575C46.1094 7.17179 46.5156 7.41137 45.25 7.55721C43.8333 7.72387 44.6823 7.77075 43.4167 8.19262C40.7865 6.53117 40.3542 7.58846 38.8021 8.72387C37.8802 9.40096 38.1406 9.54158 37.3437 10.2551C34.6562 10.2135 36.6458 9.82283 32.875 11.7707C29.8073 13.3541 32.125 15.0885 30.276 15.677C29.9271 15.7864 30.3229 15.651 29.8125 15.7916C27.6406 16.3957 29.3021 16.2916 27.5 16.8489C24.776 17.6926 26.2187 19.3697 24.0937 22.0051C22.7917 23.6197 24.6458 22.2291 22.2292 24.3645L22.7708 25.6614C21.9375 26.3333 22.3594 25.4947 21.8021 26.5416C21.5417 27.0416 21.5781 27.4843 21.401 28.0051C20.9896 29.2135 19.526 29.7603 19.526 29.7603C19.4896 29.703 19.3854 29.8489 19.3229 29.901C19.474 31.2968 19.75 31.3228 19.9583 32.3489C18.3281 33.6978 19.474 34.2812 18.2865 35.4687C17.7031 36.0416 17.7344 36.4062 18.4219 36.9374C17.1354 36.6926 18.0729 36.0208 16.3021 35.9895C15.0052 35.9687 13.7708 38.3853 13.0417 39.3437C11.9115 39.1405 12.5625 38.651 11.3073 38.2916C10.0781 39.276 9.85416 40.6249 10.7552 41.8697C10.1094 42.1614 9.80208 42.4062 9.16145 42.8489L9.72916 44.7343C9.1302 45.4322 7.80729 46.6666 7.62499 47.177C6.98958 48.927 7.96874 49.802 7.55208 51.3332C7.32291 52.1822 7.09374 52.052 6.97395 53.2082C6.89062 53.9843 6.94791 54.3801 6.68749 55.0832C6.26562 56.203 5.91145 56.4843 5.68749 57.7187C5.55729 58.427 5.13541 58.3749 4.53124 58.703C3.98958 58.9999 3.81249 59.3593 3.43229 60.0103C2.46353 61.6718 2.85937 60.8645 1.53124 61.7447C-0.640631 63.1822 1.39583 65.151 2.02604 66.3593C1.51041 66.9062 2.07291 66.4166 1.52604 66.802C0.239577 67.3489 -0.255214 68.0937 0.130202 69.0208C0.687494 70.3593 1.80729 69.6926 3.79687 69.8645C5.51041 70.0155 5.01041 70.3958 5.72916 71.5103C8.78124 71.7083 7.63541 70.3541 8.89583 68.3958C9.1302 69.9218 9.33333 70.6666 11.2552 70.578C12.6406 68.9687 12.1979 68.4218 12.7083 66.3749C14.0625 66.7655 14.651 68.0208 16.1719 65.703C17.6354 66.2551 17.1458 66.7135 19.4896 65.9791C21.6667 65.2968 26.1406 63.0364 27.6823 62.8489C27.6875 63.0155 27.6562 63.7916 27.6562 63.8072C27.8542 65.0103 27.7552 64.276 28.0885 64.6562C29.7865 64.2603 28.9792 63.7812 29.3385 62.8593L29.625 65.302C31.0104 65.4739 30.8385 65.1145 31.5104 64.5572C32.1562 64.026 32.3906 64.2655 32.8802 63.6666C33.2292 64.9374 33.724 66.8645 35.1198 67.2239C35.3958 67.2968 37.5521 67.1718 37.5625 67.1666C38.151 66.9374 37.875 66.802 38.1823 66.4374C39.474 64.9062 38.9427 67.2395 40.3698 68.6718C43.1979 68.4166 41.0833 68.4114 42.8385 67.4426C43.3385 67.6353 43.4896 67.4843 43.8229 68.6666C44.276 70.2916 44.224 71.552 47.0521 71.3541C47.6927 70.6458 47.7344 70.6978 47.8437 69.6197L48.724 70.1614L48.9167 68.6874C49.974 69.2447 49.7604 68.6145 50.1094 69.6301C50.0417 69.6562 49.9479 69.6718 49.901 69.6874C49.1875 69.8905 48.8437 69.703 48.375 70.7447C48.0104 71.5624 48 71.8437 48.3594 72.5208C48.4948 72.776 48.7344 73.9374 48.7187 74.1926C48.6615 75.1041 49.0312 75.2447 49.4115 75.7239C49.2344 75.8853 50.4635 76.9583 51.7604 77.4999C53.3281 78.151 55.0833 78.2864 55.6927 78.5155Z" fill="#2A452A"/>
</g>
<mask id="mask1_61_1785" style="mask-type:luminance" maskUnits="userSpaceOnUse" x="6" y="108" width="121" height="5">
<path d="M6.99463 108.99H126.974V112.896H6.99463V108.99Z" fill="white"/>
</mask>
<g mask="url(#mask1_61_1785)">
<path fill-rule="evenodd" clip-rule="evenodd" d="M66.9947 112.896C100.099 112.896 126.937 112.047 126.937 110.995C126.937 109.948 100.099 109.094 66.9947 109.094C33.8905 109.094 7.052 109.948 7.052 110.995C7.052 112.047 33.8905 112.896 66.9947 112.896Z" fill="#2A452A"/>
</g>
<path d="M151.047 0L151.047 113.005" stroke="black" stroke-width="1.99903"/>
</svg>
