<svg width="30" height="31" viewBox="0 0 30 31" fill="none" xmlns="http://www.w3.org/2000/svg">
<path d="M14.973 11.5238V7.20238H10.6516V4.32143H14.973V0H17.854V4.32143H22.1754V7.20238H17.854V11.5238H14.973ZM9.2111 30.25C8.41883 30.25 7.74061 29.9679 7.17642 29.4037C6.61224 28.8395 6.33014 28.1613 6.33014 27.369C6.33014 26.5768 6.61224 25.8986 7.17642 25.3344C7.74061 24.7702 8.41883 24.4881 9.2111 24.4881C10.0034 24.4881 10.6816 24.7702 11.2458 25.3344C11.81 25.8986 12.092 26.5768 12.092 27.369C12.092 28.1613 11.81 28.8395 11.2458 29.4037C10.6816 29.9679 10.0034 30.25 9.2111 30.25ZM23.6159 30.25C22.8236 30.25 22.1454 29.9679 21.5812 29.4037C21.017 28.8395 20.7349 28.1613 20.7349 27.369C20.7349 26.5768 21.017 25.8986 21.5812 25.3344C22.1454 24.7702 22.8236 24.4881 23.6159 24.4881C24.4081 24.4881 25.0863 24.7702 25.6505 25.3344C26.2147 25.8986 26.4968 26.5768 26.4968 27.369C26.4968 28.1613 26.2147 28.8395 25.6505 29.4037C25.0863 29.9679 24.4081 30.25 23.6159 30.25ZM9.2111 23.0476C8.13074 23.0476 7.30246 22.5735 6.72627 21.6251C6.15008 20.6768 6.13808 19.7345 6.69026 18.7982L8.6349 15.269L3.44919 4.32143H0.568237V1.44048H5.2858L11.4078 14.4048H21.5272L27.109 4.32143L29.6298 5.68988L24.048 15.7732C23.7839 16.2534 23.4358 16.6255 23.0037 16.8896C22.5715 17.1537 22.0793 17.2857 21.5272 17.2857H10.7956L9.2111 20.1667H26.4968V23.0476H9.2111Z" fill="#646867"/>
</svg>
