<svg width="32" height="30" viewBox="0 0 32 30" fill="none" xmlns="http://www.w3.org/2000/svg">
<path d="M16 29.6101L13.68 27.5301C10.9867 25.1034 8.76002 23.0101 7.00002 21.2501C5.24001 19.49 3.84001 17.91 2.80001 16.51C1.76 15.11 1.03334 13.8234 0.620002 12.65C0.206667 11.4767 0 10.2767 0 9.05002C0 6.54335 0.840002 4.45001 2.52001 2.77001C4.20001 1.09 6.29335 0.25 8.80002 0.25C10.1867 0.25 11.5067 0.543334 12.76 1.13C14.0134 1.71667 15.0934 2.54334 16 3.61001C16.9067 2.54334 17.9867 1.71667 19.24 1.13C20.4934 0.543334 21.8134 0.25 23.2001 0.25C25.7067 0.25 27.8001 1.09 29.4801 2.77001C31.1601 4.45001 32.0001 6.54335 32.0001 9.05002C32.0001 10.2767 31.7934 11.4767 31.3801 12.65C30.9667 13.8234 30.2401 15.11 29.2001 16.51C28.1601 17.91 26.7601 19.49 25.0001 21.2501C23.2401 23.0101 21.0134 25.1034 18.32 27.5301L16 29.6101ZM16 25.2901C18.56 22.9967 20.6667 21.0301 22.3201 19.39C23.9734 17.75 25.2801 16.3234 26.2401 15.11C27.2001 13.8967 27.8667 12.8167 28.2401 11.87C28.6134 10.9234 28.8001 9.98336 28.8001 9.05002C28.8001 7.45002 28.2667 6.11668 27.2001 5.05001C26.1334 3.98334 24.8001 3.45001 23.2001 3.45001C21.9467 3.45001 20.7867 3.80334 19.72 4.51001C18.6534 5.21668 17.92 6.11668 17.52 7.21002H14.48C14.08 6.11668 13.3467 5.21668 12.28 4.51001C11.2134 3.80334 10.0534 3.45001 8.80002 3.45001C7.20002 3.45001 5.86668 3.98334 4.80001 5.05001C3.73334 6.11668 3.20001 7.45002 3.20001 9.05002C3.20001 9.98336 3.38668 10.9234 3.76001 11.87C4.13334 12.8167 4.80001 13.8967 5.76001 15.11C6.72002 16.3234 8.02669 17.75 9.68002 19.39C11.3334 21.0301 13.44 22.9967 16 25.2901Z" fill="#646867"/>
</svg>
